<svg xmlns="http://www.w3.org/2000/svg" xmlns:xlink="http://www.w3.org/1999/xlink" viewBox="0 0 1268.82 793.1"><defs><style>.cls-1{fill:url(#linear-gradient);}.cls-2{fill:url(#linear-gradient-2);}.cls-3{fill:url(#linear-gradient-3);}.cls-4{fill:url(#linear-gradient-4);}.cls-5{fill:url(#linear-gradient-5);}.cls-6{fill:url(#linear-gradient-6);}.cls-7{fill:url(#linear-gradient-7);}</style><linearGradient id="linear-gradient" x1="14.96" y1="198.1" x2="299.71" y2="198.1" gradientUnits="userSpaceOnUse"><stop offset="0" stop-color="#d07aa2"/><stop offset="0.28" stop-color="#c04b82"/><stop offset="0.63" stop-color="#47347d"/><stop offset="0.75" stop-color="#312557"/><stop offset="0.92" stop-color="#18132a"/><stop offset="1" stop-color="#0e0c19"/></linearGradient><linearGradient id="linear-gradient-2" x1="272.23" y1="276.91" x2="480.02" y2="276.91" xlink:href="#linear-gradient"/><linearGradient id="linear-gradient-3" x1="715.97" y1="82.74" x2="1000.72" y2="82.74" xlink:href="#linear-gradient"/><linearGradient id="linear-gradient-4" x1="893.04" y1="393.63" x2="1268.82" y2="393.63" xlink:href="#linear-gradient"/><linearGradient id="linear-gradient-5" x1="0" y1="668.46" x2="129.02" y2="668.46" xlink:href="#linear-gradient"/><linearGradient id="linear-gradient-6" x1="451.59" y1="686.2" x2="580.6" y2="686.2" xlink:href="#linear-gradient"/><linearGradient id="linear-gradient-7" x1="717.23" y1="729.1" x2="925.72" y2="729.1" xlink:href="#linear-gradient"/></defs><title>commets_1</title><g id="Layer_2" data-name="Layer 2"><g id="build"><g id="comets"><path class="cls-1" d="M15.21,280.15c-2-3.42,4-7.43,151-90,83.27-46.78,132.65-76.24,133.53-74.72s-49.12,28.14-131.5,78.22C23.53,281.55,16.81,282.9,15.21,280.15Z"/><path class="cls-2" d="M272.56,339.29c-2-3.38,2.24-6.53,109.74-69,60.91-35.4,96.8-58,97.71-56.48s-35.86,21.39-95.62,59.93C279.44,341.41,274.2,342,272.56,339.29Z"/><path class="cls-3" d="M716.22,164.8c-2-3.42,4-7.44,151-90C950.45,28,999.83-1.46,1000.71.06S951.59,28.2,869.21,78.27C724.54,166.19,717.82,167.54,716.22,164.8Z"/><path class="cls-4" d="M893.71,502.92c-4-6.81,3.71-12.45,198.24-121.56,110.22-61.82,175.06-101.6,176.83-98.57S1203.93,320.25,1096,388.32C906.58,507.85,896.93,508.4,893.71,502.92Z"/><path class="cls-5" d="M.42,706.08c-2-3.4.55-5.47,67.59-42.66,38-21.06,60.09-35,61-33.52s-22.27,12.9-58.92,37C5.71,709.2,2,708.82.42,706.08Z"/><path class="cls-6" d="M452,723.83c-2-3.4.55-5.48,67.59-42.66,38-21.07,60.08-35,61-33.52s-22.27,12.9-58.93,37C457.3,727,453.63,726.56,452,723.83Z"/><path class="cls-7" d="M718.21,790.84c-4.09-6.76-.06-10.33,108.57-70.93,61.55-34.34,97.06-57.55,98.87-54.55s-36,21.16-94.69,61.45C727.88,797.56,721.49,796.27,718.21,790.84Z"/></g></g></g></svg>