<svg xmlns="http://www.w3.org/2000/svg" viewBox="0 0 77 77"><defs><style>.cls-1{fill:#fff;}</style></defs><title>icon_pressure</title><g id="Layer_2" data-name="Layer 2"><g id="build"><g id="last_day_data" data-name="last day data"><path class="cls-1" d="M65.72,11.28a38.48,38.48,0,0,0-54.44,0,38.48,38.48,0,0,0,0,54.44,38.48,38.48,0,0,0,54.44,0,38.48,38.48,0,0,0,0-54.44ZM38.5,74.52a36,36,0,1,1,36-36A36.06,36.06,0,0,1,38.5,74.52Z"/><path class="cls-1" d="M38.5,32.42a6.08,6.08,0,1,0,6.08,6.08A6.09,6.09,0,0,0,38.5,32.42Zm0,9.67a3.59,3.59,0,1,1,3.59-3.59A3.59,3.59,0,0,1,38.5,42.09Z"/><path class="cls-1" d="M69.26,48.41l-3.62-1.32A28.53,28.53,0,0,0,62,22.38a1.24,1.24,0,0,0-2.05,1.41A25.8,25.8,0,0,1,64.48,38.5a26.14,26.14,0,0,1-1.17,7.73L50,41.36a11.91,11.91,0,0,0,.34-2.86,11.71,11.71,0,0,0-2.63-7.42L61.28,17.47a1.24,1.24,0,1,0-1.75-1.75L45.92,29.33A11.8,11.8,0,0,0,26.7,38.5,11.91,11.91,0,0,0,27,41.36L13.69,46.23A26,26,0,0,1,38.5,12.52,25.83,25.83,0,0,1,53,17a1.24,1.24,0,1,0,1.39-2.06,28.47,28.47,0,0,0-43,32.19L7.74,48.41a1.24,1.24,0,0,0,.85,2.33L29,43.29a1.22,1.22,0,0,0,.7-.64,1.25,1.25,0,0,0,0-.95,9.32,9.32,0,1,1,17.52,0,1.25,1.25,0,0,0,0,.95,1.22,1.22,0,0,0,.7.64L63.65,49h0l4.76,1.74a1.24,1.24,0,0,0,.85-2.33Z"/></g></g></g></svg>