<svg xmlns="http://www.w3.org/2000/svg" viewBox="0 0 32.63 32.63"><defs><style>.cls-1{fill:none;stroke:#fff;stroke-linecap:round;stroke-miterlimit:10;}</style></defs><title>icon_earth</title><g id="Layer_2" data-name="Layer 2"><g id="artwork"><circle class="cls-1" cx="16.32" cy="16.32" r="15.82"/><path class="cls-1" d="M2,21.9a3.31,3.31,0,0,1,5.94,2v.5a.58.58,0,0,0,.59.59h1.76A2.05,2.05,0,0,1,10.75,29a.59.59,0,0,0-.47.58v1.12"/><path class="cls-1" d="M8.05,2.85a.6.6,0,0,0,.59.6H9a1.5,1.5,0,0,1,.52,2.9.59.59,0,0,0-.39.55v7.64c-2,0-4,0-4.27,0a.59.59,0,0,0-.72.58v1.32c0,.6-1.29,1.3-3.29,1"/><path class="cls-1" d="M20,1.07A4.56,4.56,0,0,1,16.32,3a4.59,4.59,0,0,1-3.73-1.94"/><path class="cls-1" d="M31.86,16.2a2.92,2.92,0,0,1-2.67-1.73.59.59,0,0,0-.54-.35H22.78a.61.61,0,0,0-.51.3,1.45,1.45,0,0,1-1.24.7,1.43,1.43,0,0,1-1.43-1.43V11.78h3.46a.58.58,0,0,0,.59-.59v-1a1.38,1.38,0,0,1,1-1.26h5.51"/><path class="cls-1" d="M22.22,30.77a3.91,3.91,0,0,1-.6-2.09V26.35a.59.59,0,0,0-.59-.59H20a3,3,0,0,1-3-3,3,3,0,0,1,1.63-2.65.59.59,0,0,0,.3-.39,1.85,1.85,0,0,1,3.49-.3.6.6,0,0,0,.55.36h8.54"/></g></g></svg>