<?xml version="1.0" encoding="utf-8"?>
<!-- Generator: Adobe Illustrator 23.0.2, SVG Export Plug-In . SVG Version: 6.00 Build 0)  -->
<svg version="1.1" id="Layer_1" xmlns="http://www.w3.org/2000/svg" xmlns:xlink="http://www.w3.org/1999/xlink" x="0px" y="0px"
	 viewBox="0 0 51.7 30" style="enable-background:new 0 0 51.7 30;" xml:space="preserve">
<style type="text/css">
	.st0{fill:none;stroke:#FFFFFF;stroke-linecap:round;stroke-miterlimit:10;}
</style>
<title>icon_saturn</title>
<g>
	<g id="artwork">
		<path class="st0" d="M11.3,16.9c-4.1,2.7-5.7,4.8-5.1,6.3c0.4,1,1.6,1.4,3.6,1.4c1.6,0,3.2-0.2,4.7-0.6"/>
		<path class="st0" d="M39,8.8c-0.7-0.4-2.3-0.1-4.9,0.7c-3.2,0.9-6.3,2-9.3,3.3c-3,1.2-6,2.6-8.9,4.2c-3,1.7-4.4,2.8-3.6,3.6"/>
		<path class="st0" d="M39.2,9.5L39.2,9.5L39.2,9.5"/>
		<path class="st0" d="M40.2,13.4c4.1-2.7,5.9-4.9,5.3-6.5C45.1,6,44,5.5,42,5.5l0,0"/>
		<path class="st0" d="M35.2,21.4c-1.7,2.3-4.1,3.9-6.9,4.4"/>
		<path class="st0" d="M40.2,17.3c3.1-1.8,6-4,8.5-6.5c2.2-2.4,3-4.4,2.3-6.1C50,2.4,46.6,1.6,41,2.2c-2.2,0.3-4.4,0.7-6.5,1.2
			l-2,0.5c-3.3,0.9-6.6,2.1-9.8,3.4c-3.2,1.3-6.3,2.8-9.4,4.5l-1.8,1C9.6,14,7.8,15.3,6,16.6c-4.4,3.5-6.2,6.6-5.3,8.8
			c0.7,1.6,2.7,2.5,5.9,2.7h0.8c3.3-0.1,6.6-0.6,9.8-1.4"/>
		<path class="st0" d="M11.4,12.9C12.6,5,20-0.5,27.9,0.7C30.3,1,32.5,2,34.5,3.4"/>
		<path class="st0" d="M39,9c3.3,7.3,0.1,15.9-7.2,19.2s-15.9,0.1-19.2-7.2c-0.1-0.2-0.2-0.5-0.3-0.7"/>
	</g>
</g>
</svg>
