<svg xmlns="http://www.w3.org/2000/svg" viewBox="0 0 42 95.47"><defs><style>.cls-1{fill:#fff;}</style></defs><title>temperature_icon</title><g id="Layer_2" data-name="Layer 2"><g id="build"><g id="last_day_data" data-name="last day data"><path class="cls-1" d="M29.88,55.43V8.87a8.88,8.88,0,0,0-17.75,0V55.43a21,21,0,1,0,17.75,0Zm10.05,19A18.93,18.93,0,1,1,13.57,57.06l.62-.28V8.87a6.81,6.81,0,0,1,13.62,0V56.78l.62.28A18.9,18.9,0,0,1,39.93,74.47Z"/><path class="cls-1" d="M22,44.24a1,1,0,0,0-2.06,0V62.93a11.55,11.55,0,1,0,2.06,0V44.24Zm8.46,30.2A9.49,9.49,0,1,1,20.65,65a1,1,0,0,0,.35.07.94.94,0,0,0,.34-.07A9.49,9.49,0,0,1,30.49,74.44Z"/></g></g></g></svg>