<svg xmlns="http://www.w3.org/2000/svg" viewBox="0 0 58.02 58.02"><defs><style>.cls-1{fill:#fff;}</style></defs><title>m04</title><g id="Layer_2" data-name="Layer 2"><g id="moon_animation" data-name="moon animation"><g id="full"><path class="cls-1" d="M21.76.93a.87.87,0,0,0-.62,1,.87.87,0,0,0,1,.62A27.08,27.08,0,0,1,42.46,5.26a6.78,6.78,0,0,0,9.46,8.89,27.46,27.46,0,0,1,3,23.45,6.11,6.11,0,0,0-5.72,9.78,27.35,27.35,0,0,1-43.43-4,12.29,12.29,0,0,0,3.3-3.66,12.36,12.36,0,0,0,1.47-4,.86.86,0,0,0-.69-1,.85.85,0,0,0-1,.69,10.48,10.48,0,0,1-1.26,3.41,10.39,10.39,0,0,1-2.68,3,27.84,27.84,0,0,1-2.32-6A27.19,27.19,0,0,1,2.2,23.84a10.71,10.71,0,0,1,1.68.79,10.34,10.34,0,0,1,5,7.42.86.86,0,0,0,1.58.3.9.9,0,0,0,.11-.56,12.07,12.07,0,0,0-5.86-8.63,12.43,12.43,0,0,0-2.16-1A27.38,27.38,0,0,1,18.83,3.68a.85.85,0,0,0,.48-1.1A.86.86,0,0,0,18.2,2.1,29,29,0,0,0,1,36.36a29,29,0,0,0,35.41,20.7,29,29,0,0,0,20.69-35.4A29,29,0,0,0,21.76.93ZM50.35,46a4.4,4.4,0,0,1,4-6.79,27.62,27.62,0,0,1-1.74,3.54A29.61,29.61,0,0,1,50.35,46ZM46,12.67a5.09,5.09,0,0,1-2-6.52,27.14,27.14,0,0,1,7,6.6,5.05,5.05,0,0,1-5-.08Z"/><path class="cls-1" d="M31.46,21.41l0,0a.85.85,0,0,0,1.47.87l0,0a7.39,7.39,0,1,0-3,2.84A.86.86,0,0,0,30.29,24a.87.87,0,0,0-1.15-.37,5.67,5.67,0,1,1,2.32-2.19Z"/><path class="cls-1" d="M32.08,43.87a4.61,4.61,0,1,0-6.31,1.65,4.61,4.61,0,0,0,6.31-1.65Zm-6.49-3.8a2.91,2.91,0,1,1,1,4,2.91,2.91,0,0,1-1-4Z"/><path class="cls-1" d="M13.57,41.13A3.15,3.15,0,1,0,17.87,40,3.14,3.14,0,0,0,13.57,41.13Zm4,2.31a1.44,1.44,0,1,1-.52-2A1.45,1.45,0,0,1,17.53,43.44Z"/><path class="cls-1" d="M48.75,32.68a4.28,4.28,0,1,0-5.86,1.54A4.28,4.28,0,0,0,48.75,32.68Zm-5.92-3.46a2.58,2.58,0,1,1,.92,3.53A2.59,2.59,0,0,1,42.83,29.22Z"/><path class="cls-1" d="M42.06,17.76a3.28,3.28,0,1,0,1.18,4.49A3.28,3.28,0,0,0,42.06,17.76ZM39.61,22a1.58,1.58,0,0,1,1.59-2.72A1.58,1.58,0,1,1,39.61,22Z"/></g></g></g></svg>