<svg xmlns="http://www.w3.org/2000/svg" viewBox="0 0 67 67"><defs><style>.cls-1{fill:#fff;}</style></defs><title>moon_phobos_full</title><g id="Layer_2" data-name="Layer 2"><g id="artwork_weather" data-name="artwork weather"><path class="cls-1" d="M57.27,9.9a1,1,0,0,0-1.4,1.38A31.35,31.35,0,0,1,65,33.06a7.84,7.84,0,0,0-3.34,14.63A31.94,31.94,0,0,1,55.8,55.8a31.33,31.33,0,0,1-15.75,8.55,7.06,7.06,0,0,0-13.1,0A31.57,31.57,0,0,1,5.64,18.7,14,14,0,0,0,16,19a1,1,0,0,0-.68-1.85,12.06,12.06,0,0,1-4.13.73A11.87,11.87,0,0,1,6.63,17,31.7,31.7,0,0,1,23,3.75a11.64,11.64,0,0,1,.2,2.13,12,12,0,0,1-4.47,9.34,1,1,0,0,0-.14,1.39,1,1,0,0,0,1.38.14,14,14,0,0,0,4.93-13.6,31.61,31.61,0,0,1,27.9,5.43A1,1,0,1,0,54,7,33.5,33.5,0,0,0,9.81,9.81,33.5,33.5,0,0,0,57.19,57.19,33.5,33.5,0,0,0,57.27,9.9ZM29,64.71a5.09,5.09,0,0,1,9.1,0,32.51,32.51,0,0,1-9.1,0ZM59.69,40.88A5.87,5.87,0,0,1,65,35a31.46,31.46,0,0,1-2.48,10.85,5.83,5.83,0,0,1-2.82-5Z"/><path class="cls-1" d="M42.51,31.51h0a1,1,0,0,0,0,2h0a8.55,8.55,0,1,0-4.59-1.35A1,1,0,1,0,39,30.48a6.56,6.56,0,1,1,3.54,1Z"/><path class="cls-1" d="M20.47,45.22a5.33,5.33,0,1,0-5.33-5.32,5.33,5.33,0,0,0,5.33,5.32Zm0-8.68a3.36,3.36,0,1,1-3.36,3.36,3.36,3.36,0,0,1,3.36-3.36Z"/><path class="cls-1" d="M12.41,25.16a3.64,3.64,0,1,0,3.64,3.64A3.65,3.65,0,0,0,12.41,25.16Zm0,5.3a1.67,1.67,0,1,1,1.67-1.66A1.67,1.67,0,0,1,12.41,30.46Z"/><path class="cls-1" d="M41.35,55.33a5,5,0,1,0-5-4.95A5,5,0,0,0,41.35,55.33Zm0-7.93a3,3,0,1,1-3,3A3,3,0,0,1,41.35,47.4Z"/><path class="cls-1" d="M52.33,40a3.79,3.79,0,1,0-3.79,3.79A3.79,3.79,0,0,0,52.33,40Zm-5.61,0a1.82,1.82,0,1,1,1.82,1.82A1.81,1.81,0,0,1,46.72,40Z"/></g></g></svg>