<svg xmlns="http://www.w3.org/2000/svg" viewBox="0 0 44.28 56.92"><defs><style>.cls-1{fill:#fff;}</style></defs><title>moon_deimos_waxing</title><g id="Layer_2" data-name="Layer 2"><g id="artwork_weather" data-name="artwork weather"><path class="cls-1" d="M43.12,50.46A26.29,26.29,0,0,1,19.87,30.59a25.84,25.84,0,0,1-.69-4.24,1.08,1.08,0,0,0-2.16.17,28.92,28.92,0,0,0,.76,4.59A28.41,28.41,0,0,0,39.84,52.17,26.87,26.87,0,0,1,34.79,54a26.29,26.29,0,0,1-12.67-51,26,26,0,0,1,5.31-.76A28.43,28.43,0,0,0,17.88,17a1.08,1.08,0,0,0,2.08.56A26.29,26.29,0,0,1,31.13,2.16,1.08,1.08,0,0,0,30.78.09h0a28.46,28.46,0,1,0,4.56,56,28.17,28.17,0,0,0,8.43-3.61h0a1.08,1.08,0,0,0-.66-2Z"/><path class="cls-1" d="M17.26,21.39a1.1,1.1,0,0,0-.06,1.28,1.08,1.08,0,1,0,.06-1.28Z"/></g></g></svg>