<svg xmlns="http://www.w3.org/2000/svg" viewBox="0 0 44.28 56.92"><defs><style>.cls-1{fill:#fff;}</style></defs><title>moon_deimos_waning</title><g id="Layer_2" data-name="Layer 2"><g id="artwork_weather" data-name="artwork weather"><path class="cls-1" d="M1.15,50.46A26.27,26.27,0,0,0,24.4,30.59a27,27,0,0,0,.7-4.24,1.08,1.08,0,0,1,2.15.17,28.89,28.89,0,0,1-.75,4.59A28.41,28.41,0,0,1,4.44,52.17a26.78,26.78,0,0,0,5,1.81,26.29,26.29,0,1,0,12.67-51,25.86,25.86,0,0,0-5.3-.76A28.49,28.49,0,0,1,26.4,17a1.08,1.08,0,0,1-2.09.56A26.27,26.27,0,0,0,13.15,2.16,1.08,1.08,0,0,1,13.49.09h0a28.45,28.45,0,1,1-13,52.37h0a1.08,1.08,0,0,1,.66-2Z"/><path class="cls-1" d="M27,21.39A1.08,1.08,0,1,1,25.1,22,1.08,1.08,0,0,1,27,21.39Z"/></g></g></svg>