<svg xmlns="http://www.w3.org/2000/svg" viewBox="0 0 65.09 65.09"><defs><style>.cls-1{fill:#fff;}</style></defs><title>moon_phobos_waxing</title><g id="Layer_2" data-name="Layer 2"><g id="artwork_weather" data-name="artwork weather"><path class="cls-1" d="M64.17,38.51a1.18,1.18,0,0,0-.81.05,30.68,30.68,0,0,1-15.11-.2,30.39,30.39,0,0,1-13.64-7.89,31.5,31.5,0,0,1-3.23-3.8,1.25,1.25,0,1,0-2,1.46,33.26,33.26,0,0,0,3.49,4.11A33,33,0,0,0,47.6,40.78a33.16,33.16,0,0,0,14.46.61A30.5,30.5,0,1,1,23.7,3a33,33,0,0,0,.79,15.11A1.25,1.25,0,0,0,26,19a1.27,1.27,0,0,0,.85-1.56,30.62,30.62,0,0,1-.36-15.7,1.31,1.31,0,0,0,.06-.81A1.25,1.25,0,0,0,25.08,0a33,33,0,1,0,40,40A1.25,1.25,0,0,0,64.17,38.51Z"/><path class="cls-1" d="M27.25,21.93a1.25,1.25,0,0,0-.75,1.14,1.25,1.25,0,1,0,2.22-.79A1.24,1.24,0,0,0,27.25,21.93Z"/></g></g></svg>