<svg xmlns="http://www.w3.org/2000/svg" viewBox="0 0 65.09 65.09"><defs><style>.cls-1{fill:#fff;}</style></defs><title>moon_phobos_waning</title><g id="Layer_2" data-name="Layer 2"><g id="artwork_weather" data-name="artwork weather"><path class="cls-1" d="M.92,38.51a1.18,1.18,0,0,1,.81.05,30.68,30.68,0,0,0,15.11-.2,30.31,30.31,0,0,0,13.63-7.89,30.7,30.7,0,0,0,3.24-3.8,1.25,1.25,0,0,1,1.74-.29,1.26,1.26,0,0,1,.29,1.75,33.26,33.26,0,0,1-3.49,4.11,33,33,0,0,1-14.76,8.54A33.16,33.16,0,0,1,3,41.39,30.5,30.5,0,1,0,41.39,3a33.15,33.15,0,0,1-.79,15.11,1.25,1.25,0,1,1-2.4-.7,30.73,30.73,0,0,0,.36-15.7A1.31,1.31,0,0,1,38.5.93,1.25,1.25,0,0,1,40,0,33,33,0,1,1,0,40,1.24,1.24,0,0,1,.92,38.51Z"/><path class="cls-1" d="M37.84,21.93a1.25,1.25,0,0,1,.75,1.14,1.25,1.25,0,1,1-2.22-.79A1.23,1.23,0,0,1,37.84,21.93Z"/></g></g></svg>