<svg xmlns="http://www.w3.org/2000/svg" viewBox="0 0 67 67"><defs><style>.cls-1{fill:#fff;}</style></defs><title>moon_new</title><g id="Layer_2" data-name="Layer 2"><g id="artwork_weather" data-name="artwork weather"><path class="cls-1" d="M57.27,9.9a1,1,0,0,0-1.4,1.38A31.35,31.35,0,0,1,65,33.06c-.3,5.94-.3,7.94-3.34,14.63A31.94,31.94,0,0,1,55.8,55.8a31.33,31.33,0,0,1-15.75,8.55,44.2,44.2,0,0,1-13.1,0A31.57,31.57,0,0,1,5.64,18.7c.08-.7,3.8-5.73,5.57-7.5A31.37,31.37,0,0,1,23,3.75,26.07,26.07,0,0,1,33.5,2,31.25,31.25,0,0,1,52.82,8.58,1,1,0,1,0,54,7,33.5,33.5,0,0,0,9.81,9.81,33.5,33.5,0,0,0,57.19,57.19,33.5,33.5,0,0,0,57.27,9.9Z"/></g></g></svg>