<svg xmlns="http://www.w3.org/2000/svg" viewBox="0 0 160.98 160.98"><defs><style>.cls-1{isolation:isolate;}.cls-2{fill:#8f5d17;}.cls-3,.cls-8{fill:#321c13;}.cls-3{opacity:0.44;}.cls-4{fill:#f96974;mix-blend-mode:overlay;}.cls-4,.cls-6{opacity:0.2;}.cls-5{fill:#50005b;}.cls-5,.cls-8{opacity:0.3;mix-blend-mode:multiply;}.cls-6,.cls-7{fill:#ffb6bf;mix-blend-mode:screen;}.cls-7{opacity:0.17;}</style></defs><title>planet_mercury</title><g class="cls-1"><g id="Layer_2" data-name="Layer 2"><g id="Layer_4" data-name="Layer 4"><circle class="cls-2" cx="80.49" cy="80.49" r="80.49"/><circle class="cls-2" cx="80.49" cy="80.49" r="80.49"/><path class="cls-3" d="M53.26,43.8c-5-11.62-18.29-1.72-5.77,4.73C46.44,49.78,46,51.88,45.05,53c7.86,4.64,14.43-2.49,10.58-10.42Z"/><path class="cls-3" d="M90,37.88c-1.73-3.24-3.15-7.09-4.62-10.39,4.91-3.72,7.73-2.14,6.9,4.09,2.94.3,15,1.56,17.26,3.78C121.77,47.62,94,65.76,88.77,41.43Z"/><path class="cls-3" d="M65.1,66.28c2,1,3.36,1.66,5.74,1,1.37-5.71-2-11.14-8.11-10.23-8.84,1.32-5.1,9-6.95,14-1.49,4-6.56,2.41-4.76,9.7,1.26,5.12,7.95,8.33,12.63,8C76.43,88,74.31,75,68.65,67.47Z"/><path class="cls-3" d="M81.67,62.73C77.35,68.47,77.38,76,86.2,75.57c2.59-5.1.49-10.29-3.34-14Z"/><path class="cls-3" d="M108.9,63.92c-2.57-5.72-7.41-4.13-9.76,1.18C95.22,74,104,72,105.7,76.59,108,83,101.51,86.76,102.87,91.2a6.31,6.31,0,0,0,11.74,1.18c-.19-.34,0,3.05,0,2.45,6.32-2,2.31-8.85-.13-9.41,6.11-2.7,12.88-16,3.87-13.43,11.31-2.64-5.18-17.23-10.69-5.71Z"/><path class="cls-3" d="M26,60.37c.91.21,1.13,2,3.38,1,2.81-12.72-15.26-5-10.72,4.53-3.15-4.82-13,5.39-3.26,11.59,10.32,6.6,21.07-7.87,9.42-13.57Z"/><path class="cls-3" d="M52.08,125.47C39.87,137.16,15.86,107,30.78,102c7.65-2.56,6.56,7.31,13,8.68,3.28.7,21.09-7.86,12.87,6.09,10.19-7.57,14.65,21.19-4.59,8.67Z"/><path class="cls-3" d="M41.43,99.43c.16,10.69,10.36,3.52,2-2-3,.68-1.07,1.52-2,3.19Z"/><path class="cls-3" d="M87.59,97.06c-3.85,4.38-2.61,10.3,4.5,10.51a10.49,10.49,0,0,0,2.42-9.15c-3.29-1.23-3.71.29-5.74,2.19Z"/><path class="cls-3" d="M111.26,139.67c.66,1.64-.6,2,1.1,3.45,5.56-2.34,6.93-10-1.1-9.37Z"/><path class="cls-3" d="M130.2,104.16c.25,1.15-.11,2.22.18,3.39,4.58-1.1,5.65-4.77,3.46-9.21-2.83,0-2.41,1.71-3.64,3.45Z"/><path class="cls-3" d="M137.12,59.58l-2.18-.4c-.42,4.13.52,7.86,3.25,10.58C140.28,65.79,140.33,62.79,137.12,59.58Z"/><path class="cls-3" d="M67.37,15.75A2.84,2.84,0,0,0,65,14.56c-.4,0-.82,0-1.21,0l.14,0-.38-.05h-.2a4.73,4.73,0,0,0-3,1.53,4.31,4.31,0,0,0-1.6,2.05,5.57,5.57,0,0,0,0,2.66,3.81,3.81,0,0,0,3.52,2.74c.24,0,.47,0,.71,0h.24a2.39,2.39,0,0,0,2.31-.58A3.2,3.2,0,0,0,67,21.07a19.57,19.57,0,0,0,.89-2.68A3.14,3.14,0,0,0,67.37,15.75Z"/><path class="cls-3" d="M71.22,37.35a2.19,2.19,0,1,0,0,3.42A1.73,1.73,0,0,0,71.22,37.35Z"/><path class="cls-3" d="M88.77,6.29c-2.57,0-2.57,4,0,4S91.35,6.29,88.77,6.29Z"/><path class="cls-3" d="M112.45,20.54a2,2,0,0,0,0,3.89C115,24.43,115,20.54,112.45,20.54Z"/><path class="cls-3" d="M80.52,127.83c-1.36-2.35-4.5-1.08-4.74,1.29-.08.79-.17,1.61-.24,2.43a7.45,7.45,0,0,0-1.62,2,2.28,2.28,0,0,0,1.87,3.39,9.43,9.43,0,0,0,.47,1.45c.75,1.72,3.54,1.18,3.94-.51a18.88,18.88,0,0,0,.35-2.17,4.18,4.18,0,0,0,1.57-1.49C83.32,132.05,81.58,129.67,80.52,127.83Z"/><path class="cls-3" d="M66.74,129.74a2.09,2.09,0,0,1-1.53-.83,1.84,1.84,0,0,0-2.59,0,1.88,1.88,0,0,0,0,2.59,4.21,4.21,0,0,0,3.66,1.59A1.72,1.72,0,0,0,68,131.61,1.69,1.69,0,0,0,66.74,129.74Z"/><path class="cls-3" d="M97.67,117.18a1.79,1.79,0,0,0-3.58,0,3.49,3.49,0,0,0,.37,2,1.66,1.66,0,0,0,2.84,0A3.66,3.66,0,0,0,97.67,117.18Z"/><path class="cls-3" d="M121.92,115.36a1.82,1.82,0,0,0,0,3.64A1.82,1.82,0,0,0,121.92,115.36Z"/><path class="cls-3" d="M127.83,94.08a1.8,1.8,0,0,0,0,3.6A1.8,1.8,0,0,0,127.83,94.08Z"/><path class="cls-3" d="M148.84,87.83a11.47,11.47,0,0,0-3.41,1.88c-1.15,1.14-1.65,2.82-2.24,4.27a2.61,2.61,0,0,0,1.2,3,3.47,3.47,0,0,0,.45.17,2.2,2.2,0,0,0,2.69,1c1.68-.64,4.14-1.14,4.72-3.09a4.62,4.62,0,0,0,.1-1.61,8.73,8.73,0,0,1,.28-2.67A2.61,2.61,0,0,0,148.84,87.83Z"/><path class="cls-3" d="M98.67,145.22a2.73,2.73,0,0,0,.06-1c-.09-.82-.29-1.64-.42-2.45a2.38,2.38,0,0,0-2.8-1.7,3,3,0,0,0-1.37-.07c-2,.39-4,1.34-4.85,3.32a5.36,5.36,0,0,0,0,4.53,1.69,1.69,0,0,0,.38.49c.06.5.13,1,.2,1.47.27,1.83,2.93,2.31,4.08,1.07a17,17,0,0,0,3.08-3.6s0-.08,0-.12A1.53,1.53,0,0,0,98.67,145.22Z"/><path class="cls-3" d="M48.4,134.29c-.1-.36-.19-.72-.29-1.07a2,2,0,0,0-2.22-1.45,2,2,0,0,0-1.75,2c.21,1.65.38,3.73,1.66,4.95a2.6,2.6,0,0,0,3.05.37,3.47,3.47,0,0,0,1.6-2.95A1.78,1.78,0,0,0,48.4,134.29Z"/><path class="cls-3" d="M109.49,145.59a1.78,1.78,0,0,0-3.56,0,3.17,3.17,0,0,0,.29,2,1.73,1.73,0,0,0,3,0A3.1,3.1,0,0,0,109.49,145.59Z"/><path class="cls-3" d="M72.92,100.42c-.59-1-1.06-2.59-2.4-2.89a2.62,2.62,0,0,0-1.47.11c0-.08-.07-.17-.11-.26a1.69,1.69,0,0,0-2.13-.7,1.65,1.65,0,0,0-1,1.37,4.54,4.54,0,0,0-.65,3.43c.71,2.42,3.77,2.39,5.78,2.41A2.32,2.32,0,0,0,72.92,100.42Z"/><path class="cls-3" d="M29.09,85.39a0,0,0,0,1,0,0Z"/><path class="cls-3" d="M33.63,88.43c-.1-.16-.23-.28-.34-.43h0s0,0,0,0a5.82,5.82,0,0,0-.46-.53l0-.09v-.06c0-.05,0-.08,0-.11s0,0,0-.05a2.42,2.42,0,0,0-.32-1.72c-.72-1-2.69-1.45-3.35-.06l0,.05-.23.43a1.74,1.74,0,0,0-.45.23,1.93,1.93,0,0,0-.5,2.51A6.08,6.08,0,0,0,29,89.76a1.57,1.57,0,0,0,.19.15,5.5,5.5,0,0,0,1,1.13,2.2,2.2,0,0,0,2.83.17A2.14,2.14,0,0,0,33.63,88.43Z"/><path class="cls-3" d="M29.09,85.39l0,0C29.36,84.87,29.15,85.28,29.09,85.39Z"/><path class="cls-3" d="M12.91,85.62c-.79-1.16-2.77-1.57-3.68-.35A1.56,1.56,0,0,0,6.84,86a11.85,11.85,0,0,0,4,13.68,2.18,2.18,0,0,0,3-.78A12.57,12.57,0,0,0,12.91,85.62Z"/><path class="cls-3" d="M130.7,34.3l-.08-.15a1.77,1.77,0,0,0,.06-2,6.73,6.73,0,0,0-.68-.82,3.55,3.55,0,0,0-1.5-1.18c-.31-.56-.61-1.14-1-1.69-1.16-1.79-4.29-1.2-4.2,1.14a5.24,5.24,0,0,0,.93,3c.71,1.88,1.45,3.62,3.48,4.61A2.17,2.17,0,0,0,130.7,34.3Z"/><path class="cls-3" d="M151.78,56a6,6,0,0,0-.86-1,3.73,3.73,0,0,0,.12-.58c.19-1.7-1.79-2.22-3-1.48a1.52,1.52,0,0,0-1.48,1.91,7.35,7.35,0,0,0-1.32,3.27c-.13,2.47,2.41,3.54,4.4,4.05a2,2,0,0,0,2.42-1.37C152.52,59.22,152.76,57.46,151.78,56Z"/><path class="cls-3" d="M64.4,148.68c-.39-1.61-2.73-2.87-4.08-1.52a2.33,2.33,0,0,0,.65,3.53l.69.71A1.5,1.5,0,0,0,64.17,150,1.78,1.78,0,0,0,64.4,148.68Z"/><path class="cls-3" d="M27.74,128a6.83,6.83,0,0,0-1.37-1.71c-1.87-2-5.06,1.16-3,3a7,7,0,0,0,1.71,1.37A2,2,0,0,0,27.74,128Z"/><path class="cls-3" d="M43.52,21.66a1.84,1.84,0,0,0-3.59-.48,4.52,4.52,0,0,0-.17,1.12A1.56,1.56,0,0,0,38,24.77l.08.07a4.71,4.71,0,0,0,.12.54,3.62,3.62,0,0,0,.4,1.36c.95,1.57,2.86,1.3,4.34.81a1.79,1.79,0,0,0,1.29-1.69C44.1,24.46,43.65,22.92,43.52,21.66Z"/><path class="cls-3" d="M25.56,42.09C25,40.3,22.72,38,20.86,39.9a2.15,2.15,0,0,0-.38,2.42c.09.56.19,1.19.37,1.93a1.78,1.78,0,0,0,3.28.18A1.77,1.77,0,0,0,25.56,42.09Z"/><path class="cls-3" d="M96.53,83.11a2.33,2.33,0,0,0-1-1.75v-.19h0c.69-2-1.71-3.46-3.37-2.59h0c-.56.38-1.12.74-1.67,1.12a2.28,2.28,0,0,0-1.1,0,2.09,2.09,0,0,0-1.52,1.53,2.84,2.84,0,0,0,.39,1.9,2.4,2.4,0,0,0,1.06,1.63,3.3,3.3,0,0,0,1.42,1.16c.88.92,2,1.92,3.21,1.43a3.69,3.69,0,0,0,.56-.3,2.21,2.21,0,0,0,1-.39C96.5,85.87,96.62,84.33,96.53,83.11Z"/><path class="cls-3" d="M116.42,101.83a14.16,14.16,0,0,0-11.22,2.86,8.75,8.75,0,0,0-2.82,4.11,16.4,16.4,0,0,0-2,3.91,2.79,2.79,0,0,0,1.94,3.42c.34.05.67.07,1,.09a7,7,0,0,0,2.62.94c1.4.12,2.57-.89,3.58-1.8a15.16,15.16,0,0,0,8.9-10A2.85,2.85,0,0,0,116.42,101.83Z"/><path class="cls-3" d="M132.42,122a4.08,4.08,0,0,0-3.46,2,5.88,5.88,0,0,0-.6,1.3,2.57,2.57,0,0,0-.49.38,4.62,4.62,0,0,0-.38.51c.19-.2.11-.1-.23.32a1.93,1.93,0,0,0-.23.62,3.56,3.56,0,0,0-.11.92v.24q.1-.7,0,.3a2.66,2.66,0,0,0,.2,1,2.22,2.22,0,0,0,3.66,1,20.83,20.83,0,0,0,3.76-4.85A2.43,2.43,0,0,0,132.42,122Z"/><path class="cls-4" d="M78.12,4.73C68.93-3,60.35,6.58,52,10c-10.31,4.26-22.6,4.78-23.73,20.59C2.75,37.23,7.22,77.42,21,91.14c28.25,28.17,73.78,7.43,65.53-34,7,2.72,15.58-3.66,15.16-11.82,9.71,4.59,17-5.33,16.65-15C117.69,10.69,95.94,4.86,78.12,4.73Z"/><path class="cls-5" d="M80.49,161a80.49,80.49,0,0,0,32-154.35,29.58,29.58,0,0,0,2,4.34c3.14,5.55,8.67,9.81,11.49,15.67,4.74,9.85,1.59,5.18-.28,14.79-1.65,8.56,3,11.86,3.31,19.88.2,5.35-4.11,9.81-3.72,16.64-22.41-.42-3.78,26.79-15.22,32-4.33,2-10-2.53-14.91-2.16C88,108.3,84,109.3,81.91,117.49c-6.29-1.59-15.18-10.87-17.07,2-8.57-1.38-16.57.53-23.46-5.49-4.66-4.06-3.83-9-9.39-11.62-6.53-3.06-14,2-20.16-.23C6,100.05,5.71,93.8.8,91.77A80.5,80.5,0,0,0,80.49,161Z"/><path class="cls-4" d="M161,80.49a80.14,80.14,0,0,0-9.52-38,96.41,96.41,0,0,1,2.18,10.73c1.43,15-.07,29.19-5.95,42.85-17.77,41.31-60.28,61.81-103.31,50.13-4.22-1.14-11.66-4.48-18.67-6.77A80.47,80.47,0,0,0,161,80.49Z"/><path class="cls-6" d="M81.67,24.86C84.85,7,60,6.78,56.58,21.15,37.36,11.46,12.86,38.24,17.91,58.08,29.47,103.52,95.19,73.19,81.67,24.86Z"/><path class="cls-7" d="M54.45,45C73.39,30.17,52,10.33,34.23,29.6,11.51,54.21,52.35,77.92,59.18,45Z"/><path class="cls-7" d="M27.59,55.12c-.19,0-.31.3-.1.4a3.23,3.23,0,0,1,2,3.72c-.3,1.74-1.59,3-3.23,1.67a.38.38,0,0,0-.62.16,6,6,0,0,0-.34,3.16s.07,0,.09,0a13.66,13.66,0,0,0,.82-2.46C30.41,64.73,32.48,54.73,27.59,55.12Z"/><path class="cls-7" d="M28.93,65.86c-.14-.29-.53-.08-.48.2.27,1.37,1.14,2.3,1.57,3.57,1.15,3.41-1.81,7.06-4.59,8.74-3.4,2-9.22,1.12-12.25-1.3,0,0,0,0,0,0,2.61,3.48,9.11,4.15,12.72,2a11.65,11.65,0,0,0,5.3-6.87C31.69,69.76,30,68,28.93,65.86Z"/><path class="cls-7" d="M56,43.15a.28.28,0,0,0-.48.2c.1,2.93,2,5.28.25,8.24-2.64,4.38-7.23,3.45-11,1.48-.05,0-.12,0-.07.09,3.36,2.94,7.87,3.56,11.1.06A8.14,8.14,0,0,0,56,43.15Z"/><path class="cls-7" d="M51.12,39a7.43,7.43,0,0,0-4.88-1.25c-.07,0-.09.11,0,.12a12.69,12.69,0,0,1,4,1.44,5.21,5.21,0,0,1,1.66,1.61c.37.61.44,1.32.81,1.92a.28.28,0,0,0,.5-.07C53.65,41.32,52.22,39.73,51.12,39Z"/><path class="cls-7" d="M93.46,27.44a4.91,4.91,0,0,0-3-2.54s-.06,0,0,.06a5.46,5.46,0,0,1,2.5,2.92c.33,1.29-.45,2.27-.52,3.49a.26.26,0,0,0,.45.18A4.26,4.26,0,0,0,93.46,27.44Z"/><path class="cls-7" d="M107.06,33.53c-.06,0-.1.06-.06.1,4,3.74,7.67,7.88,3.84,13.46-2.33,3.41-6.21,4.48-9.77,6.12-.46.21-.1.81.32.74,5-.74,10.35-4,11.85-9.05S111.72,35.4,107.06,33.53Z"/><path class="cls-7" d="M63.33,14.19a.09.09,0,0,0,0,.17c1.43.16,3.23.42,4,1.81a3.29,3.29,0,0,1,.25,2.39c-.19.68-.79.89-1.06,1.46-.63,1.3.26,2.61-1.57,3.46-1.14.53-2.85.09-4-.2a.33.33,0,0,0-.32.55c1.13,1.07,3.76,1,5.08.34,1.62-.8,1.28-2.67,2-4C69.65,16.71,67.07,13.71,63.33,14.19Z"/><path class="cls-7" d="M72.26,37.16a.21.21,0,0,0-.2.35c.41.41.88.71,1,1.32a1.7,1.7,0,0,1-.46,1.63c-1,.95-2.56.38-3.76.32-.15,0-.16.21,0,.26,1.52.56,3.62,1.12,4.66-.59C74.2,39.31,73.71,37.4,72.26,37.16Z"/><path class="cls-7" d="M42.71,19.36s-.08,0-.05,0a8.77,8.77,0,0,1,1.4,6.3c-.68,2.53-3.46,1.92-5.37,1.89a.23.23,0,0,0-.11.42c1.8,1.11,5,.53,5.91-1.49C45.55,24.31,44.39,21,42.71,19.36Z"/><path class="cls-7" d="M21.38,38.64a0,0,0,0,0,0,.09A8.47,8.47,0,0,1,25,41.78c.89,1.82-1.44,3.87-3.13,3.86a.38.38,0,0,0-.1.74c2,.58,4.26-1.93,4.22-3.82S23.2,38.77,21.38,38.64Z"/><path class="cls-7" d="M11.94,84.45c-.2-.09-.44.16-.25.33,3.1,2.71,3.51,5.37,3.15,9.32-.14,1.46-.07,3.32-.71,4.66C12.34,102.54,8.31,98,7,96.15c0,0-.1,0-.07,0,1.64,2.91,6.74,7.4,8.11,1.86C16.1,93.73,16.79,86.7,11.94,84.45Z"/><path class="cls-7" d="M33.2,87.81c1-1.29.22-2.83-1.22-3.69-.27-.17-.68.18-.46.46.71.93,2.16,1.78.73,3a.42.42,0,0,0,.18.69c1.55.58,1.06,2.61-.36,3-1.58.44-2.92-1.22-3.8-2.27,0,0,0,0,0,0,1,1.67,2.95,4.14,5,2.42A2.23,2.23,0,0,0,33.2,87.81Z"/><path class="cls-7" d="M72.28,73.47a16.83,16.83,0,0,0-1.46-3.37c-1.45-2.31-1-.93-.54-1.61.29-.46,1.06-.46,1.42-1.19,1.06-2.17-.88-6-1.8-8-.2-.42-.91-.12-.76.32.36,1.12,3.32,8.54-.07,7.67a.49.49,0,0,0-.55.72c3.07,5.15,5.84,12.24,1.68,17.7-3,4-7.84,2.74-12.2,2.62a0,0,0,0,0,0,.07c3.55,1.15,8.27,1.9,11.49-.52C73.76,84.71,73.85,78.05,72.28,73.47Z"/><path class="cls-7" d="M82.66,61.91c-.1,0-.15.11-.07.16A9.52,9.52,0,0,1,87.24,70c.09,1.57.23,3.34-1.12,4.33s-2.92-.07-4.6,0c-.33,0-.51.5-.17.66,1.49.7,3.82,1.66,5.4.69s1.55-3,1.56-4.52C88.35,67,86.85,63.23,82.66,61.91Z"/><path class="cls-7" d="M97.34,83a3.59,3.59,0,0,0-1.06-1.62c-.54-.64-.34,0-.3-.69,0-.24.2-.53.23-.78.18-1.28-.65-1.81-1.82-1.53,0,0,0,0,0,0,1.68.28,1.38,1.64.7,2.61a.31.31,0,0,0,.11.41A2.41,2.41,0,0,1,96,85.38a3.9,3.9,0,0,1-3.81,1.22c-.25,0-.34.36-.13.47C94.52,88.33,98,85.81,97.34,83Z"/><path class="cls-7" d="M117,85.36c-.68-4.65,11-10.57,4.5-15.14,1.43-1,1.58-2.58.62-4.47-1.89-3.73-6.25-4-10-3.81-.07,0-.07.1,0,.11,1.91.22,5.06.59,6.75,1.66,1.33.84,4.68,4.55,1.3,5.91a.6.6,0,0,0-.14,1.08c5.86,3.31-2.36,9.37-4.14,12.67a4,4,0,0,0-.72,2.72c.08.64.86.77,1.13,1.22a5,5,0,0,1,1.26,5q-.63,2.87-4,2.44c-.39-.34-1.13.13-.77.6,1.65,2.21,3.66,1.26,5-.85a6.55,6.55,0,0,0,1-4.81C118.59,88,117.22,87,117,85.36Z"/><path class="cls-7" d="M90.21,6s-.11,0-.07.09a3.2,3.2,0,0,1,.3,3.54c-.84,1.28-2,.54-3.15.51a.12.12,0,0,0-.06.23c1.29.67,2.85.73,3.61-.66A3.09,3.09,0,0,0,90.21,6Z"/><path class="cls-7" d="M114.29,21.34a.15.15,0,0,0-.28.08,5.1,5.1,0,0,1-.4,2.91c-.61,1.23-1.57,1.2-2.54.35,0,0-.08,0-.06.05.66,1,1.74,1.34,2.6.37A3.81,3.81,0,0,0,114.29,21.34Z"/><path class="cls-7" d="M131.25,35.22c-.17-.61-.17-1.26-.3-1.88a5.91,5.91,0,0,0-2.66-3.8c-.32-.21-.61.24-.38.5,1,1.09,1.89,1.81,2.24,3.3a18.92,18.92,0,0,1,.43,2.42,1.56,1.56,0,0,1-1.84,1.8,4.23,4.23,0,0,1-1.63-1.08A9.18,9.18,0,0,0,125,34.66s-.09,0-.05.07c1.16.9,1.79,2.39,3,3.23a2.22,2.22,0,0,0,3.27-1C131.69,36.25,131.45,36,131.25,35.22Z"/><path class="cls-7" d="M133.52,98.73c-.11,0-.24,0-.17.17,1,1.71,1.72,2.86,1.23,5a5,5,0,0,1-3.83,3.93c-.15,0-.12.3,0,.29,2.11-.16,3.6-2,4.15-3.93C135.4,102.54,135.37,99.51,133.52,98.73Z"/><path class="cls-7" d="M150.45,88c-.16.12-.07.42.15.34,2.8-.94,2,3.87,1.78,5.44s-.75,3.09-2.5,3.66c-1.25.4-2.55.41-3.78.9,0,0,0,.07,0,.06,1.72-.3,4-.12,5.42-1.34,1.14-1,1.25-2.58,1.41-4S153.47,85.87,150.45,88Z"/><path class="cls-7" d="M140.59,62.75c-.44-1.48-1.63-4.23-3.59-3.46a0,0,0,0,0,0,.08c2-.29,3,2.76,3.22,4.29A7.82,7.82,0,0,1,137.7,70c-.26.26.12.61.39.39A7.5,7.5,0,0,0,140.59,62.75Z"/><path class="cls-7" d="M152.12,54.47a2.37,2.37,0,0,0-2.22-2.33c-.13,0-.15.18,0,.18,2.34-.1,1.18,2.06,1.36,3,0,.21.23.36.29.55a11.6,11.6,0,0,1,.92,3c.14,1.91-1.13,3.62-3.26,3.07-1-.27-1.81-1.31-2.8-1.72-.21-.09-.38.23-.22.37,1.17,1,2.31,2.24,4,2.09a3,3,0,0,0,2.92-2.57C153.36,58.2,152.4,56.27,152.12,54.47Z"/><path class="cls-7" d="M93,97.46a.28.28,0,0,0,.07.54c2.53.32,1.29,3.2,1.09,4.83a5.68,5.68,0,0,1-.55,2.37,10.56,10.56,0,0,1-1,1.27,2.8,2.8,0,0,0-.54,1.26c-2.16-.3-4.13-.38-6.07-1.63,0,0-.12.06-.07.1,2,1.74,3.87,1.8,6.35,2.26a.36.36,0,0,0,.45-.34c.19-1.51,1.83-2.27,2.1-3.91.23-1.36.46-2.79.61-4.17C95.6,98.38,94.89,96.91,93,97.46Z"/><path class="cls-7" d="M88.4,97.82A1.52,1.52,0,0,0,87.07,97a.11.11,0,0,0-.08.19,2.15,2.15,0,0,1,.85,1.29c.09.46-.08.92.09,1.36a.26.26,0,0,0,.47.06A2.18,2.18,0,0,0,88.4,97.82Z"/><path class="cls-7" d="M118,100.78c-.34-.37-.83.17-.54.54,3.28,4.22-1.48,9-4.36,11.92-1.76,1.79-3.7,3.47-6.33,3.62-2.36.13-4.72-.74-7-1.27-.12,0-.21.15-.09.21,2.49,1.23,5.31,2.36,8.14,1.86s4.9-2.65,6.83-4.69C117.62,109.81,121.64,104.87,118,100.78Z"/><path class="cls-7" d="M63.38,115.25c-1.34-.79-4.74,1-5.08-.35-.13-.54,1.42-1.85,1.45-2.68,0-1-.14-1.09-.84-1.87-.27-.3-.73.09-.54.42.86,1.56-1.18,3.84-1.44,5.46,0,.25.11.59.43.56,1-.1,1.85-.53,2.82-.68,4.85-.76,4.83,4.25,4.05,7.39S62.11,128,58.71,128a11.37,11.37,0,0,1-7-2.44.5.5,0,0,0-.58-.07c-8.32,4.52-13.87-1.27-20.39-5.62,0,0,0,0,0,0,5.92,5,10,9.52,18.28,7.6,1.45-.34,2.05-.7,3.45-.19a24,24,0,0,0,4.5,1.58c1.8.31,4.29.59,5.89-.55C65.66,126.32,66.9,117.34,63.38,115.25Z"/><path class="cls-7" d="M26,125.72c-.19,0-.26.27-.1.36,1.42.76,2.7,2.44,1.95,4.12-1.18,2.66-3.79,0-4.92-1.22,0,0-.12,0-.08.07,1.15,1.57,3.74,4.39,5.36,1.59C29.21,129,28.11,125.9,26,125.72Z"/><path class="cls-7" d="M51,134.88a3.06,3.06,0,0,0-1.49-1.31,3.18,3.18,0,0,1-1.71-1,3.28,3.28,0,0,0-.81-.81c-.22-.15-.45.17-.28.36.86.92,1.12,1.57,2.34,2,1.86.6,2.24,2.57,1.51,4.2-1.25,2.81-4.09,1.22-5.67-.35a0,0,0,1,0,0,0c1.22,1.85,4.15,3.57,5.82,1.23A3.91,3.91,0,0,0,51,134.88Z"/><path class="cls-7" d="M68,129.94a14.91,14.91,0,0,1-2.64-2.24c-.17-.2-.49,0-.5.21,0,1.7,2.7,2.13,3.38,3.42a1.32,1.32,0,0,1-.55,1.69,3.19,3.19,0,0,1-2.07.14,7.47,7.47,0,0,0-3.15-.2.06.06,0,0,0,0,.11c1.91.37,6,2.32,6.67-.86A2.35,2.35,0,0,0,68,129.94Z"/><path class="cls-7" d="M82.73,129.6c-.47-1.74-1-3.37-3-3.74a.05.05,0,0,0,0,.1,5.76,5.76,0,0,1,2.38,3.81,12.36,12.36,0,0,1,.43,1.85,1.7,1.7,0,0,1-.53,1.85,1.58,1.58,0,0,1-1.11,1.71c-.2.27-.44.54-.63.82s0,.59-.14.82l-2.82,2a12.88,12.88,0,0,1-1.59-1.54c-.2-.22-.52.05-.39.3.7,1.37,2.06,2.73,3.73,2.16a2.82,2.82,0,0,0,1.6-1.63c.16-.41.06-.91.21-1.29.9-2.25.7-.68,1.48-1.55C84,133.47,83.33,131.84,82.73,129.6Z"/><path class="cls-7" d="M64.14,147.07c-.15-.12-.41,0-.35.2.37,1.29,1.38,2.59.8,4-.84,2-3-.29-4.13-.77,0,0-.1,0-.05.08,1.06.89,3,3,4.36,1.29C65.65,150.74,65.24,148,64.14,147.07Z"/><path class="cls-7" d="M97.9,140.39c-.21-.17-.53,0-.38.29.8,1.39,1.59,3.23,1,4.86-.39,1.07-1.62,1.5-2.34,2.31s-1,1.6-1.56,2.33c-1.35,1.65-3.82,2.07-5.22.26-.09-.12-.27,0-.24.14.38,1.39,1.7,1.75,3,1.6,2-.23,2.82-1.34,3.83-2.87.89-1.34,2.74-2,3.26-3.56A5.14,5.14,0,0,0,97.9,140.39Z"/><path class="cls-7" d="M108.92,144.16a.2.2,0,0,0-.27.27,3.67,3.67,0,0,1,.46,2.92,1.9,1.9,0,0,1-.82,1.15c-.55.29-1.12,0-1.63-.28a.12.12,0,0,0-.14.19,1.68,1.68,0,0,0,2.91-.48C109.94,146.92,110.11,144.8,108.92,144.16Z"/><path class="cls-7" d="M114.32,133.5c-.18,0-.18.33,0,.36,5.82.86,1,11.79-2.59,9.55,0,0-.08,0,0,.06,2.16,2.58,4.71-1.86,5.31-3.62C117.75,137.62,117.92,133,114.32,133.5Z"/><path class="cls-7" d="M133,121.51a.19.19,0,0,0,0,.38c2.65.19.81,4.65.12,6-1.34,2.65-3.4,4.53-6.32,2.87,0,0,0,0,0,0,2.58,3.31,6-.66,7.11-3.16C134.29,126.75,136.05,120.32,133,121.51Z"/><path class="cls-7" d="M44.53,97.83c-.13-.08-.29.11-.17.22,1.33,1.19,2.69,2.81,2.67,4.69a2.46,2.46,0,0,1-2.9,2.56A4.71,4.71,0,0,1,41.39,103s-.1,0-.07,0c1.09,2.09,4.08,3.9,5.68,1.22C48.32,102.08,46.44,99,44.53,97.83Z"/><path class="cls-7" d="M73.51,100.23c-.38-1.12-1-2.74-2.07-3.39-.23-.15-.45.13-.35.35.82,1.74,3.08,4,1.84,6.12-1.06,1.81-4.74.58-6.25-.08-.05,0-.11,0-.06.08,1.51,1.17,5.19,2.43,6.65.6A3.93,3.93,0,0,0,73.51,100.23Z"/><path class="cls-7" d="M97.35,115.8c-.11,0-.27.07-.19.19a2.76,2.76,0,0,1,.31,2.69,2.34,2.34,0,0,1-.84,1.14c-.4.25-.75.07-1.17.14a.19.19,0,0,0-.12.28c.76,1.08,2.2-.37,2.54-1.09C98.34,118.16,98.53,116.37,97.35,115.8Z"/><path class="cls-7" d="M122.86,115.61c-.09-.06-.22.06-.15.15a2.89,2.89,0,0,1,.86,2.29c-.29,1.33-2,1.07-3,.67-.11,0-.16.17,0,.18.68,0,1.24.52,2,.45a1.44,1.44,0,0,0,1.19-.83A2.54,2.54,0,0,0,122.86,115.61Z"/><path class="cls-7" d="M37.64,26.23A27.28,27.28,0,0,0,28.4,42.84C27.75,48,29.6,54.76,34.79,56.9c.44.18.81-.49.46-.79C26,48.3,29.75,35.51,37.64,28c4-3.82,18.22-9.49,21.11-1.7a.14.14,0,0,0,.27-.07C57.62,17.26,41.87,22.63,37.64,26.23Z"/><path class="cls-7" d="M55.56,20.21c-4.09-.52-7-1.82-11.22-1.19a25,25,0,0,0-11,4.81C27.1,28.51,22.58,36.3,19.63,43.41s-2.36,14.21.55,21.16c3,7.1,8.52,11.22,15.42,14.21a.42.42,0,0,0,.42-.72c-2.8-1.87-6-3.16-8.57-5.33A23,23,0,0,1,20.87,63,26,26,0,0,1,21.94,41.3c3-6.16,6.91-12.81,12.53-16.89A24.56,24.56,0,0,1,46,19.7c3.28-.35,6.31.85,9.53.63A.06.06,0,0,0,55.56,20.21Z"/><path class="cls-7" d="M35.65,97.26c-6.6-2.58-11.94-5.13-16.22-11C16,81.61,12.79,76.71,11,71.14a36.5,36.5,0,0,1,7.52-34.87s0-.08-.05-.05A35.55,35.55,0,0,0,10,71.43C12,77.87,15.82,83.8,20,89c4.09,5.08,9.48,6.8,15.48,8.71C35.83,97.84,35.94,97.38,35.65,97.26Z"/><path class="cls-7" d="M129.56,65.61A15.12,15.12,0,0,0,130.9,57c-.09-.63-1.18-.49-1.12.15.42,4.4-1.13,7.36-3.63,10.75-1.65,2.23-1.34,3.59-1.64,6.26-.12,1.13-1.23,4.27-2.11,5.08-.7.65-2,.86-2.88,1.31a10.18,10.18,0,0,0-2.22,1.28A11,11,0,0,0,114.44,87c-1.54,4.74-1.22,8.76-.93,13.62.13,2.29.36,5.21-.93,7.23-2.26,3.56-8.35,2.58-11.74,1.49-2.32-.75-3.61-1.89-6.08-1.57a28.29,28.29,0,0,0-8.12,2.53c-3.4,1.64-4.29,6.25-9.19,4.49-2.29-.82-3.72-2.56-6.4-2.47A5.1,5.1,0,0,0,67.48,114c-1.88,1.66-2.56,3.1-5.2,3.55a32.26,32.26,0,0,1-5.11.15c-4.25,0-8.52-.42-12.34-2.43-3.24-1.71-5.16-4.37-7.27-7.25-3.69-5-7.17-7.17-13.57-6.63-4.64.39-9.65,1.74-13.89-.91-3.17-2-5.22-5.4-8-7.88a.1.1,0,0,0-.14.14c3.53,4,6.5,9.15,12.19,10.14,4.26.74,8.5-.73,12.76-.54,5.3.24,7.71,3.63,10.59,7.56,3.59,4.88,8,7.81,14.07,8.65,4.81.67,11.47,1.47,15.29-1.93,3.07-2.74,4.37-4.18,8.16-2a25.53,25.53,0,0,0,2.86,1.76,4.49,4.49,0,0,0,5.26-1.13c1.29-1.26,1.76-2.73,3.48-3.7A25.51,25.51,0,0,1,92,109.55c4.41-1.28,8,1.18,12.26,1.71,3.8.47,8,.34,9.77-3.64,1.88-4.32.08-9.34.26-13.83.2-4.94,1.86-10.38,6.57-12.51,2-.9,3.87-1.77,4.61-4,.55-1.66,0-3.37.22-5C126.2,68.84,128.29,68.15,129.56,65.61Z"/><path class="cls-7" d="M7.7,70.87c-1.87-1-3.14,1-3.39,3a1.9,1.9,0,0,0,.17,2.37c0,.12,0,.24,0,.36a.78.78,0,0,0,.74.76,1.11,1.11,0,0,0,1.56-.09,4.94,4.94,0,0,0,.64-.9C9,74.84,9.78,72,7.7,70.87Z"/><path class="cls-7" d="M5.52,66.75l-.1-.12a.36.36,0,0,0-.49,0l-.09.12C4,67.76,6.32,67.76,5.52,66.75Z"/><path class="cls-7" d="M39.1,16.62a.9.9,0,0,0-.69-.49s0,0,0,0a1.13,1.13,0,0,0-.75,0,1.2,1.2,0,0,0-.31.18,3.84,3.84,0,0,0-.74.4l-.1.12a.66.66,0,0,0-.11,1.09s.09.06.14.1,0,.05.09.06h0a1,1,0,0,0,.17.12,2.43,2.43,0,0,0,2.14-.3A.84.84,0,0,0,39.1,16.62Z"/><path class="cls-7" d="M59.65,10.8a3.4,3.4,0,0,0-1.62,0,4,4,0,0,0-1.22.3c-1.33.6-2.49,2.21-1.85,3.58l-.32.36a.76.76,0,0,0,.73,1.25,5.7,5.7,0,0,0,.92-.4,1.45,1.45,0,0,0,.35,0A4.91,4.91,0,0,0,59,14.25a3.19,3.19,0,0,0,1.06-2l.13-.2A.84.84,0,0,0,59.65,10.8Z"/><path class="cls-7" d="M75,46.11a2.11,2.11,0,0,0-.38-.17,2.76,2.76,0,0,0-.25-.44A1,1,0,0,0,73,45.14a2.67,2.67,0,0,0-1.33,2.41,1,1,0,0,0,.13.52l0,.19c0,.13,0,.26,0,.39a.75.75,0,0,0,.21.38h0a1.55,1.55,0,0,0,1.77,1c1.15-.32,1.43-1.91,1.59-2.89A1,1,0,0,0,75,46.11Z"/><path class="cls-7" d="M47.57,67.6a.61.61,0,0,0-.31,1.13l.09.07a.43.43,0,0,0,.44,0l.09-.07A.61.61,0,0,0,47.57,67.6Z"/><path class="cls-7" d="M40,65.47a1,1,0,0,0-1.3-.34,3.7,3.7,0,0,0-2,2.78,4.52,4.52,0,0,0-.21,2.91.8.8,0,0,0,.76.57C39.93,71.38,41.43,67.61,40,65.47Z"/><path class="cls-7" d="M44.87,72.91a3.75,3.75,0,0,0-1.15.15.71.71,0,0,0-.49.87,2.23,2.23,0,0,0,.15.31.57.57,0,0,0,.54,1c.89-.18,1-.62,1.53-1.3A.66.66,0,0,0,44.87,72.91Z"/><path class="cls-7" d="M66.49,46.57a.92.92,0,0,0-.51-.44,1.23,1.23,0,0,0-2.07.51,1.21,1.21,0,0,0-.28.76c0,.37,0,.74,0,1.12-.54,1.9-.51,6.22,2.28,5.19C68.34,52.81,67.26,48.28,66.49,46.57Z"/><path class="cls-7" d="M60.65,50.24l.12.11a.17.17,0,0,0,.23,0l.11-.11C61.79,49.59,60,49.59,60.65,50.24Z"/><path class="cls-7" d="M81.13,29.24c-.2-1.57-1.12-3.35-3-2.63-1.66.64-2.16,3.06-2.12,4.62a3.32,3.32,0,0,0,.62,2A3.63,3.63,0,0,0,77.9,35.5a1.31,1.31,0,0,0,2-.26,4.1,4.1,0,0,0,.38-.72C82.08,33.52,82.06,31.05,81.13,29.24Z"/><path class="cls-7" d="M68.28,29.35c-1-.34-2.44.26-2.13,1.51a1.42,1.42,0,0,0,.44.7,2.37,2.37,0,0,0,.44.57.73.73,0,0,0,.88.12C68.85,31.58,70,29.94,68.28,29.35Z"/><path class="cls-7" d="M78,15.4a1.26,1.26,0,0,0-1.43-.25,2.71,2.71,0,0,0-.45.3,3,3,0,0,0-.52.23l-.12.1a.27.27,0,0,0-.4,0,6.71,6.71,0,0,0-.94,1.38,4.63,4.63,0,0,0-.77,2.25,4.72,4.72,0,0,0-.1.64c-.09,1.55,1,2.8,2.58,2.16a6.68,6.68,0,0,0,3.74-4.35A2.1,2.1,0,0,0,78,15.4Z"/><path class="cls-7" d="M36.71,39.48a.78.78,0,0,0-1.06-.28,4.1,4.1,0,0,0-.83.73,2.33,2.33,0,0,0-1,2.27,3.7,3.7,0,0,0,.08,1.48.85.85,0,0,0,1.24.5,5,5,0,0,0,1.37-1.67A2.43,2.43,0,0,0,36.71,39.48Z"/><path class="cls-7" d="M42.47,49.34c0-.47,0-.93,0-1.38A1.11,1.11,0,0,0,41,46.89l-.16.07a1.69,1.69,0,0,0-1.49.61,3.35,3.35,0,0,0-.58,2.1c-.83,1.38,0,4.1,1.79,3.59a1.25,1.25,0,0,0,.61-.27.27.27,0,0,0,.07-.08l.11-.06A3.8,3.8,0,0,0,42.47,49.34Z"/><path class="cls-7" d="M51.56,33.52a.73.73,0,0,0,0,1.46A.73.73,0,0,0,51.56,33.52Z"/><path class="cls-7" d="M39.84,43.84a.74.74,0,0,0-.69-.52,1.27,1.27,0,0,0-1.09.71s0,0,0,0-.1.21-.15.34a.73.73,0,0,0,1,.84,1.3,1.3,0,0,0,.45.1.71.71,0,0,0,.67-.88C40,44.25,39.9,44.06,39.84,43.84Z"/><path class="cls-7" d="M58.43,35.2a2.06,2.06,0,0,0-.55,0A1.42,1.42,0,0,0,56.72,34a2.21,2.21,0,0,0-2.54,2.05,1.84,1.84,0,0,0,1.29,1.74,2.61,2.61,0,0,0,.1.78.92.92,0,0,0,1.66.22c.05-.13.12-.28.18-.44.8-.23,1.41-1.41,1.61-2.16A.85.85,0,0,0,58.43,35.2Z"/><path class="cls-7" d="M56.27,26.73a2.21,2.21,0,0,0-1.87,2.78,2,2,0,0,0,.13.91.61.61,0,0,0,1,.19,2,2,0,0,0,1.32-.18,2.58,2.58,0,0,0,.39,0,.74.74,0,0,0,.64-.36C58.51,28.76,58.05,26.76,56.27,26.73Z"/><path class="cls-7" d="M44,33.43a.48.48,0,0,0-.44-.59h0a.22.22,0,0,0-.32-.09l-.48-.07a.69.69,0,0,0-.48,1.17,1.28,1.28,0,0,0,1.29.32A.55.55,0,0,0,44,33.43Z"/><path class="cls-7" d="M50.09,23.69c-1.08.18-2.38,1.64-1.53,2.69a.5.5,0,0,0,.68,0c.3-.23.3-.48.43-.79a.48.48,0,0,0,.72.06,2.77,2.77,0,0,0,.46-1.2A.62.62,0,0,0,50.09,23.69Z"/><path class="cls-7" d="M54.61,61.66a1,1,0,0,0,0-.17,1.2,1.2,0,0,0-.63-.68,2.35,2.35,0,0,0-.54-.3.86.86,0,0,0-1,.39,5.58,5.58,0,0,0-.34.75s-.07,0-.09.08a4.08,4.08,0,0,0-.82,2.42.19.19,0,0,1,0,.08c-.19,1.08-.1,3.17,1.44,3.16s2-1.88,2.24-3A4.76,4.76,0,0,0,54.61,61.66Z"/><path class="cls-7" d="M74.29,57.23l-.08-.07a.6.6,0,0,0-1,.42c0,1,.31,1.25,1.13,1.65a.69.69,0,0,0,1-.4,3.82,3.82,0,0,0,.2-1.16A.7.7,0,0,0,74.29,57.23Z"/><path class="cls-7" d="M46.23,88.08a.38.38,0,0,0,0-.1,1,1,0,0,0-1-1.29,1.62,1.62,0,0,0-.19,0A1.85,1.85,0,0,0,43,87a3.38,3.38,0,0,0-1.31,2.55,2.6,2.6,0,0,0,.58,1.7,2.67,2.67,0,0,0,.17.5A1.08,1.08,0,0,0,44.1,92a3.57,3.57,0,0,0,.31-.37,2.53,2.53,0,0,0,2-2A2.74,2.74,0,0,0,46.23,88.08Z"/><path class="cls-7" d="M22.07,51a1.31,1.31,0,0,0-.22.27c-.24.05-.37.38-.39.67a.4.4,0,0,0,.5.39l.08,0a.42.42,0,0,0,.54,0c.2-.22.18-.41.33-.64C23.27,51.17,22.49,50.61,22.07,51Z"/><path class="cls-7" d="M100,8.66c-.08,0-.12.11,0,.14,8,2.58,3.76,15.19-4,12.86-2.63-.8-4.89-3.22-4.27-6.12a6.1,6.1,0,0,1,6.22-4.82c3.74.38,4.72,4.16,2.32,6.8-1,1.09-6.44,3.67-5.88-.37.17-1.22,1.73-2.2,2.64-2.81.29-.19.11-.74-.26-.61-1.64.61-3.73,2.55-3.28,4.5.53,2.25,3.67,2.26,5.33,1.47,5-2.39,4.87-9.85-1.37-9.92-5.45-.06-8.94,7.14-4.74,11a7.14,7.14,0,0,0,11-1.48C106.36,15.06,104.93,10,100,8.66Z"/><path class="cls-7" d="M95.19,61.11c-1.32-.39-3.39-.15-4.2,1.13s.59,2.39,1.8,2.62a.21.21,0,0,0,.16-.39c-.61-.43-1.11-.56-1.14-1.39s.07-.77.68-1.07A3.6,3.6,0,0,1,95,61.78c2,.56,3.2,2.62,1.66,4.31s-5.29,2-6.82-.1a4.68,4.68,0,0,1-.1-5c1.21-2.07,3.53-2.53,5.74-2a.08.08,0,0,0,0-.15c-2.34-.86-4.89-.51-6.3,1.73a5.39,5.39,0,0,0,.06,5.93c1.63,2.16,5.19,2.22,7.25.69C99.14,65.24,98.13,62,95.19,61.11Z"/><path class="cls-7" d="M60.32,93.42c-1.42-.54-3.1.24-4.48.53s-3.47.38-2.31-1.87a4.51,4.51,0,0,1,2.06-1.72,4,4,0,0,1,1.78-.5c1.41,0,1.52.53.33,1.59-.28.11-.27.62.08.57,3.17-.42,1.54-3.3-1.05-2.89-1.87.29-6.62,4.24-3.19,5.67,1.14.47,2.7-.19,3.8-.46,1.42-.35,2.88-.77,3.81.77s-.16,3.38-1.59,4.17c-2.18,1.21-5.48-.11-7.32-1.45a5,5,0,0,1-2.34-4,5.32,5.32,0,0,1,4.55-4.94.05.05,0,0,0,0-.1c-3.88-.36-6.5,4.43-4.53,7.66,1.66,2.71,6.51,5,9.61,3.69C62.14,99,63.7,94.72,60.32,93.42Z"/><path class="cls-7" d="M21.09,105.35c-3.41,1.17-2.43,7.2.86,7.81a.35.35,0,0,0,.19-.68,3.2,3.2,0,0,1-2.34-3.36c0-1.28.68-3.35,2.35-3.06,3,.52,3.5,6.85,2.3,8.92-1.48,2.56-4.43,1.33-6.08-.2a6.69,6.69,0,0,1-2.24-5.11c0-3.75,4.38-10.11,8.79-7.49,0,0,0,0,0,0-1.84-1.6-4.6-.78-6.36.61a9.1,9.1,0,0,0-3.24,8.4c.66,3.75,7.23,9.48,9.86,4.2C26.42,112.93,25.62,103.81,21.09,105.35Z"/><path class="cls-7" d="M125.3,50.79c-2.81-4.45-6.06.88-3.06,2.31.2.1.47-.11.33-.33-.72-1.13-1.07-1.13.6-1.54s1.57,0,2.12,1.37a11.83,11.83,0,0,1,.79,3.46c.16,2.85-2.59,3-4.52,1.53a7.7,7.7,0,0,1-2.9-5.15c-.4-2.49,0-6.92,2.94-7.81,3.53-1.07,3.92,3.44,5,5.61,0,0,0,0,0,0-.72-1.84-.54-4.73-2.49-5.87a3.79,3.79,0,0,0-4.75,1.14C116,49.72,118,57.43,123,59.32,128.51,61.4,126.94,53.4,125.3,50.79Z"/><path class="cls-7" d="M89.54,114c-2.83-2.75-6.58-.73-6.51,3.13s4.58,7.16,6.12,2.19a.31.31,0,0,0-.57-.24c-4.32,6.88-6.93-8.26-.65-5.07,3,1.5,3.55,7,1.49,9.39-2.74,3.24-6.27-.5-6.88-3.28-.55-2.51-.37-5.63,1.25-7.74,0-.05,0-.11-.09-.07a9.61,9.61,0,0,0-1.56,9.73c1.18,2.88,5.11,5.06,7.75,2.46S92,116.42,89.54,114Z"/><path class="cls-7" d="M133.93,79.18c-2.69-3.25-8.52-2.92-11.4-.15-.06.06,0,.17.09.12,3.29-2.31,10.72-2.26,11.35,2.83.45,3.55-3.3,5.72-6.47,4.9-2.22-.57-4.14-3.2-.82-4.34a3.65,3.65,0,0,1,1.83-.28q1.41-.15,1.23,2.16-.59,0-1.17.09a.35.35,0,0,0-.17.64c1.22.79,3.33-.08,3.32-1.66,0-2.12-2.72-2.44-4.25-2.22-1.83.28-4.33,1.54-3.72,3.78.56,2,3.1,3,5,3.07C133.34,88.19,137.26,83.22,133.93,79.18Z"/><path class="cls-7" d="M143.6,36.82c-1.61-2-3.75-1.69-5.25.2-2.46,3.1-3.11,11.13,1,13.34,4.26,2.28,3.81-5.46,3.33-7.58-.26-1.18-.85-3.91-2.64-3-2,1-1,4.66,0,6a.35.35,0,0,0,.61-.36,6.24,6.24,0,0,1-.85-2.71q-.47-1.44,1.71-1.17c.11.33.21.67.3,1a13.91,13.91,0,0,1,.43,2.71,8.74,8.74,0,0,1-.29,3.42c-1.13,3-3.53-.11-4.05-1.64a10.86,10.86,0,0,1,.41-8.5,4.45,4.45,0,0,1,1.72-2c1.86-.81,3.28.76,3.85,2.27a12.37,12.37,0,0,1,.43,5.7s0,.06.07,0C145.32,42.09,145.33,38.89,143.6,36.82Z"/><path class="cls-7" d="M71.65,3.41a.88.88,0,0,0-1-.4A2.58,2.58,0,0,0,68.87,4.5,1.5,1.5,0,0,0,68.8,5a1.25,1.25,0,0,0,.28,1.51.67.67,0,0,0,.79.1l0,0a1.07,1.07,0,0,0,.27-.06,1.24,1.24,0,0,0,.88-.26,1.29,1.29,0,0,0,.41-.55A2.24,2.24,0,0,0,71.65,3.41Z"/><path class="cls-7" d="M81,8.26l-.16-.1c-.75-.47-.75,1.16,0,.69l.16-.1A.28.28,0,0,0,81,8.26Z"/><path class="cls-7" d="M87.18,18c-1.82-.1-3.06,2.49-2.06,3.92a1.46,1.46,0,0,0,2.19.15.27.27,0,0,0,.07-.08,1.43,1.43,0,0,0,.85-.4C89.24,20.62,88.73,18.11,87.18,18Z"/><path class="cls-7" d="M88.19,52.24c-.65.65.59,1.53,1,.74A.61.61,0,0,0,88.19,52.24Z"/><path class="cls-7" d="M79,81.4a1.2,1.2,0,0,0-1.61.42,7.26,7.26,0,0,0-.64,1.09,2.65,2.65,0,0,0-.23.56A4.38,4.38,0,0,0,76.25,86a1,1,0,0,0,.6.74,1,1,0,0,0,1.52.27,1,1,0,0,0,.64-.31C80.29,85.24,81,82.65,79,81.4Z"/><path class="cls-7" d="M81.94,100.2a.9.9,0,0,0-.89-.89c-2,.11-2.71,2.32-2.39,4a.9.9,0,0,0,1.72,0,1.57,1.57,0,0,0,0-.23.77.77,0,0,0,.34-.07A2.77,2.77,0,0,0,81.94,100.2Z"/><path class="cls-7" d="M10.11,107.65a3.65,3.65,0,0,0-1-1.83.87.87,0,0,0-1.36.18,2.87,2.87,0,0,0,1.73,3.76h0l.4.33c.5.38,1.23-.25,1-.81A6.3,6.3,0,0,0,10.11,107.65Z"/><path class="cls-7" d="M36,128.75a.81.81,0,0,0-1,.56,1.89,1.89,0,0,0,1.31,2.46.65.65,0,0,0,.6-.23l.35.34a.63.63,0,0,0,1-.6A3.23,3.23,0,0,0,36,128.75Z"/><path class="cls-7" d="M113.74,54.3a2.33,2.33,0,0,0-.79,3c.34.71,1.4.3,1.4-.39a.52.52,0,0,0,.35-.38,9.74,9.74,0,0,0,.12-1.62A.72.72,0,0,0,113.74,54.3Z"/><path class="cls-7" d="M145.4,79.06v-.2a.39.39,0,0,0-.13-.28.77.77,0,0,0-1.28-.32c-.71.7-1.13,2-.33,2.83a.61.61,0,0,0,.77.08.73.73,0,0,0,1.06-.6A5.44,5.44,0,0,0,145.4,79.06Z"/><path class="cls-7" d="M142.78,118.09c0-.41-.09-.8-.12-1.21-.09-1-1.67-1-1.56,0l0,.21h0l.06.4a.64.64,0,0,0,.14.3c0,.16.1.31.13.47.16.78,1.27.53,1.3-.19Z"/><path class="cls-7" d="M156,76.5a1.23,1.23,0,0,0-.54,0,.42.42,0,0,0,0,.83,1.41,1.41,0,0,0,.54-.06A.37.37,0,0,0,156,76.5Z"/><path class="cls-7" d="M57.36,137.17a1,1,0,0,0-1,1.24,5.18,5.18,0,0,0,1.11,2.38h0l.16.21a.9.9,0,0,0,.84.28,2.68,2.68,0,0,0,1,.51.88.88,0,0,0,1.07-.6C60.91,139.22,59.57,136.94,57.36,137.17Z"/><path class="cls-7" d="M82.64,156.79l.12,0a.46.46,0,0,0,.33-.33l0-.11C83.45,154,80.35,157.13,82.64,156.79Z"/><path class="cls-7" d="M45.74,148.85a7.87,7.87,0,0,0-2.17-1.08,1,1,0,0,0-1.13,1.47,2.18,2.18,0,0,0,2,1.08l.62.15A.89.89,0,0,0,45.74,148.85Z"/><path class="cls-7" d="M107,124.08a6.69,6.69,0,0,0-4.69,4.23,1.08,1.08,0,0,0,.5,1.24c1.88.85,4.23-.82,4.58-2.8.26-.4.51-.81.74-1.2A1,1,0,0,0,107,124.08Z"/><path class="cls-7" d="M148.23,106.54a6,6,0,0,0-.12-1.05.49.49,0,0,0-.08-.18l0-.13a.31.31,0,0,0-.51-.17.72.72,0,0,0-.55.17,1.24,1.24,0,0,0-.08,1.78.49.49,0,0,0,.54.09.6.6,0,0,0,.81-.52Z"/><path class="cls-7" d="M148.8,66.51a1,1,0,0,0-1.42.58,4.46,4.46,0,0,0,.52,3.53.8.8,0,0,0,.8.52h.07a.9.9,0,0,0,1.55-.55C150.48,69.14,150.32,67.18,148.8,66.51Z"/><path class="cls-7" d="M130.79,22.79a2,2,0,0,0-1.43-1.21,4.65,4.65,0,0,0-.74-.37.9.9,0,0,0-1.13.86c0,1.41.76,3.13,2.2,3.45a5.9,5.9,0,0,0,1,1,.78.78,0,0,0,1.28-.34A4.15,4.15,0,0,0,130.79,22.79Z"/><path class="cls-7" d="M123.53,17.62l-.17.08a.66.66,0,0,0,0,1.14l.17.08C125,19.56,125,17,123.53,17.62Z"/><path class="cls-7" d="M132.37,49.41a.26.26,0,0,0-.36-.3.72.72,0,0,0-.92.3,3.08,3.08,0,0,0-.27,2.3.76.76,0,0,0,.54.54l.07,0,0,.1a.64.64,0,0,0,1.15.15A2.46,2.46,0,0,0,132.37,49.41Z"/><path class="cls-7" d="M90.3,133.68s-.08.12-.13.17a1.22,1.22,0,0,0-1.45,1,.57.57,0,0,0,.22.61.38.38,0,0,0,.1.25c.16.21.34.41.52.61a.58.58,0,0,0,.67.09,2.61,2.61,0,0,0,1.3-2.22A.73.73,0,0,0,90.3,133.68Z"/><path class="cls-7" d="M25.84,25.58a2.38,2.38,0,0,0-.35-.36.93.93,0,0,0-.95-.09h0a.84.84,0,0,0-.18.15,2.59,2.59,0,0,0-1,1.63,1.56,1.56,0,0,0,.39,1.37.37.37,0,0,0,.39.33.58.58,0,0,0,.71-.17A6.18,6.18,0,0,0,26,26.32h0A.85.85,0,0,0,25.84,25.58Z"/><path class="cls-7" d="M105.89,10C98.18,5,89.83,5.42,81.07,4.31a12.28,12.28,0,0,1-3.4-.42c-1.4-.58-2.21-1.48-3.74-1.86-3.21-.79-6.51.35-9.49,1.48A65.39,65.39,0,0,0,53.78,8.82c-2.43,1.48-4.86,3.2-7.6,4A57.6,57.6,0,0,1,39.9,14C34,15,28.42,20,29.53,26.5c0,.08.12.05.12,0,.62-5.21,3.11-9.71,8.4-11.32,3.18-1,6.53-.75,9.65-2,6.43-2.51,11.75-7.11,18.39-9.35a18.47,18.47,0,0,1,5-1.19c3.21-.13,4.37,1.62,7,2.76,1.48.63,3.68.15,5.38.29,4.09.33,8.19.17,12.23,1a39,39,0,0,1,9.79,3.88A.35.35,0,0,0,105.89,10Z"/><path class="cls-8" d="M57.88,61.08a20.85,20.85,0,0,0-1.34,5.1c-.67,3.58-.79,5.58-3.57,8.07-2.57,2.29-2.69,5.54,0,7.83.14.11.35,0,.25-.19-2.47-4.13,1.25-6.34,3-9.14,1.06-1.75,1-4.31,1.42-6.27s.73-4.49,2.1-6.17c3.4-4.18,8.65-1.32,9.6,3.13.11.51.86.37.88-.11C70.49,56,60.69,55.06,57.88,61.08Z"/><path class="cls-8" d="M84.7,73.72c-1.11-.29-2.25-.24-3.23-.93A3.88,3.88,0,0,1,80,69.21a8.86,8.86,0,0,1,2.75-6A.15.15,0,0,0,82.6,63c-2.59.54-3.79,5.14-3.53,7.39.3,2.61,3,4.86,5.63,3.89A.27.27,0,0,0,84.7,73.72Z"/><path class="cls-8" d="M100.83,52.12a11,11,0,0,1-8.11-3.78c-2.81-3.06-2.89-5.39-2.2-9.15A8.17,8.17,0,0,0,90,34.26c-1-2.48-4.91-5.79-1.77-7.95.05,0,0-.13,0-.1-1.66.69-2.46,1-2.11,2.89.22,1.23,1.37,2.11,2,3.14,1.22,2.07,2.1,4.23,1.63,6.72-.27,1.44-.84,2.31-.7,3.86.44,5.06,6.59,11.37,12,10A.33.33,0,0,0,100.83,52.12Z"/><path class="cls-8" d="M46.65,40.42c1.66.1,2.72,1.18,4,2.06,0,0,0,0,0,0-.37-2.88-5.48-4.23-7.17-1.8a4.29,4.29,0,0,0,.71,5.25c1.2,1.19,2.93,1.78,2.47,3.83C46.43,51,45.63,51.9,46,53.25a.49.49,0,0,0,.94,0c.51-1.37,1.56-3.43,1.23-4.93s-2-2.24-3-3.29C43.43,43.32,43.93,40.24,46.65,40.42Z"/><path class="cls-8" d="M26.71,55.18c-3.53.34-7.57,2.82-8.53,6.42-.32,1.18,0,2.86-1.14,3.73a20.44,20.44,0,0,0-2.1.42,5.63,5.63,0,0,0-2.51,2.72C9.51,74.35,16.77,82.4,22.7,78.55a.42.42,0,0,0-.32-.76A8.24,8.24,0,0,1,14.62,76c-2.87-2.56-2.64-10.42,3.21-9.56a.5.5,0,0,0,.6-.34A28.72,28.72,0,0,0,19,62.69c.86-4,4.08-6.39,7.79-7.21A.15.15,0,0,0,26.71,55.18Z"/><path class="cls-8" d="M114.9,62.47c-1.27-.18-6.26.09-5.21,2.55a.28.28,0,0,0,.39.1c.69-.44,1-1.15,1.79-1.49a6.39,6.39,0,0,1,3.1-.25,6.18,6.18,0,0,1,5.13,3.3,0,0,0,0,0,.08,0C121.19,64.16,116.51,62.69,114.9,62.47Z"/><path class="cls-8" d="M108.5,93.58q-4.65.86-4.39-4.33c.46-1.16,1-2.29,1.55-3.4.38-.85.77-1.58,1.08-2.46.66-2,1.16-4.49.39-6.52a7.76,7.76,0,0,0-2.76-3.2c-2.35-1.86-4.63-2.46-4-6.82.36-2.42,3.31-7.3,6.53-4.28a.18.18,0,0,0,.28-.22c-1.45-3.12-4.75-1.39-6.37.78-2.71,3.64-2.13,7.51,1.14,10.33,1.14,1,2.75,1.7,3.51,3.08,1.56,2.81.22,6-1,8.63-.9,2-2.35,4.11-1.78,6.39.64,2.59,3.93,4.56,6.15,2.66C109.17,94,108.85,93.48,108.5,93.58Z"/><path class="cls-8" d="M116.7,103.52c-1.73-2.92-7.64-1-9.88.24s-2.88,3.43-4.15,5.45c-1,1.67-2,2.81-1,4.74a0,0,0,0,0,.09,0c-.07-2.32.8-3.26,1.92-5.1,1-1.66,1.72-3.4,3.53-4.38,2.53-1.39,6.49-2.17,9-.4C116.5,104.28,116.88,103.84,116.7,103.52Z"/><path class="cls-8" d="M151.31,88.24c-1.76-1.26-4.12-.06-5.48,1.27s-2.31,3.44-1.34,5.37c0,.08.16,0,.14-.06A5.33,5.33,0,0,1,146.5,90a5.73,5.73,0,0,1,4.71-1.36C151.42,88.62,151.45,88.33,151.31,88.24Z"/><path class="cls-8" d="M138.11,68.31c-1.16-2.71-2.76-4.44-2-7.6a.2.2,0,0,0-.38-.1c-1,2.81.34,5.64,2,7.94A.24.24,0,0,0,138.11,68.31Z"/><path class="cls-8" d="M113.91,72.23c1.57-2.28-1.38-3.47-3.28-3-3,.74-2.22,4,.14,5.17,3.34,1.61,8-1.39,6.8-5.26s-6.69-3.66-9.38-1.59c-1.86,1.43-2.83,3.72-1.45,5.83,1.52,2.33,4.37,3,7,2.74.14,0,.2-.24,0-.26-1.82-.26-3.7-.51-5.12-1.81-2-1.81-1.83-4.1.31-5.65a5.7,5.7,0,0,1,5-1c1.78.58,3.06,2.31,2.14,4.16A3.92,3.92,0,0,1,112,73.42c-.86-.17-2.72-1.4-2-2.5s3.65-.83,3,.93C112.8,72.4,113.61,72.66,113.91,72.23Z"/><path class="cls-8" d="M68.57,74.28c-1.36-3.62-4.64-5.24-6.4-.67-.71,1.86-.8,6.77,1.91,7.32,2.18.44,2.53-3.1,2.53-4.51,0-.44-.72-.57-.79-.11s-.09,1.78-.43,2.11c-2,.37-2.86-.31-2.63-2.06A4.69,4.69,0,0,1,63.23,74c1.15-2.83,2.9-2.46,4-.14s1.82,5.43,1,7.88c-1,3-4.17,4.5-6.58,2-1.83-1.92-2.49-4.87-2.49-7.43a16.1,16.1,0,0,1,1.63-7.15c1.68-3.19,3.86-2.48,6.5-1.07.06,0,.13-.05.07-.1-1.32-1.18-3.07-2.62-5-2-2.73,1-3.74,5.3-4.11,7.73-.62,4,1.08,14.36,7.47,12.27C70.6,84.4,70,78,68.57,74.28Z"/><path class="cls-8" d="M103.21,36.53c-3.83-1.1-10.22-.22-9.54,5a.06.06,0,0,0,.12,0c.42-10.75,21.76-1,11.91,5.65-2.64,1.78-7.82,2.48-10.29,0-4-4,5.52-8.9,7.25-2.89a.41.41,0,0,0,.8-.11c.58-4.54-6.36-4.41-8.73-2.33-3.27,2.88-.37,6.84,3,7.66,3.72.9,9-.22,10.84-4C110.61,41.44,107.06,37.63,103.21,36.53Z"/><path class="cls-8" d="M52.79,47.57a1.53,1.53,0,0,0-1.47-.74c-.74.14-1.1,1-1.34,1.62,0,0,0,.06.06,0,.31-.57.93-1.49,1.7-1.06a1.94,1.94,0,0,1,.73,1.2A3.21,3.21,0,0,1,51.19,52a2,2,0,0,1-2.18.17c-.77-.58.3-1.54.74-1.95.23-.22-.06-.55-.32-.42-1,.53-2.25,1.87-1.06,2.93,1,.9,2.66.49,3.59-.32A3.85,3.85,0,0,0,52.79,47.57Z"/><path class="cls-8" d="M55.64,108.34c-2.53-.45-5.42,1.34-7.76,1.94-5.73,1.49-7.28-2.44-10.74-5.74-2.53-2.41-6-3.57-8.48-.37-2,2.58-2.18,6.67,0,9.13.05.06.13,0,.1-.07-2-4.23.26-13.11,6.34-8.79,2.73,1.94,4.09,5.55,7.12,7.14,2.43,1.28,4.77.49,7.22-.36.94-.34,4.81-2,5.8-1.52s.15,3.13-.09,3.88c-.11.38-.73,1.51-.88,2-.23.68.88,1.17,1.18.5C56.44,113.84,60,109.12,55.64,108.34Z"/><path class="cls-8" d="M13,86.12a2.69,2.69,0,0,0-1.94-1c-.64,0-.91.51-1.45.64s-.85-.24-1.43,0a2.54,2.54,0,0,0-1.07,1.38c-1.36,3.28-.46,8.49,2.57,10.54.24.16.58-.16.41-.41-1.44-2-2.61-3.93-2.66-6.5,0-1.4.12-5,2.31-4.14a.4.4,0,0,0,.45-.18c.69-.94,1.9-.51,2.72-.26A.09.09,0,0,0,13,86.12Z"/><path class="cls-8" d="M64.1,14.93A5.62,5.62,0,0,0,60,16.59c-1.81,1.95-1.55,6.76,2,6.17.05,0,0-.08,0-.1a3,3,0,0,1-2.25-2.54,3.78,3.78,0,0,1,1.11-3A4.64,4.64,0,0,1,63.72,16c1.26-.06,1.72.59,2.53,1.39a.26.26,0,0,0,.43-.11C66.89,15.77,65.36,15,64.1,14.93Z"/><path class="cls-8" d="M41.34,20.11c-1.55,0-1.59,1.38-1.57,2.56-.47-.2-.94-.37-1.43-.55a.38.38,0,0,0-.39.1c-1.28,1.39.13,6.05,2.14,4.33a.1.1,0,0,0-.07-.16c-1.17.11-1.64-.81-1.79-1.85a2.46,2.46,0,0,1,.05-1.32c.22-.37,0-.17.34-.12a3.83,3.83,0,0,1,1.37.64.44.44,0,0,0,.66-.37c0-.64-.21-3.12,1.19-2.1.53.39.73,1.26,1,1.83a.33.33,0,0,0,.62-.17C43.46,21.77,42.69,20.12,41.34,20.11Z"/><path class="cls-8" d="M88.31,7c-.89.34-2.2,2.12-.88,2.79a.17.17,0,0,0,.25-.14c0-.42-.17-.78,0-1.21a1.6,1.6,0,0,1,.66-.81c.74-.48,1.26-.21,1.2.69,0,0,0,0,0,0C90.31,7.25,89.35,6.58,88.31,7Z"/><path class="cls-8" d="M111.71,21.06c-1.07.58-1.58,2.28-.35,3a.25.25,0,0,0,.37-.29c-.17-.71-.41-1.46.33-1.95s1.13.21,1.59.75a.08.08,0,0,0,.13,0C114.21,21.26,112.69,20.53,111.71,21.06Z"/><path class="cls-8" d="M126,27.46a1.92,1.92,0,0,0-2.65.7c-1.31,1.94.58,5.46,2.05,6.82a.41.41,0,0,0,.64-.49c-.73-1.53-2-3-2.08-4.79a1.66,1.66,0,0,1,.53-1.36c.59-.48,1.15-.16,1.61.29s1,1.14,1.52,1.69a.09.09,0,0,0,.15-.09A4.7,4.7,0,0,0,126,27.46Z"/><path class="cls-8" d="M148.23,52.54a2.45,2.45,0,0,0-1.34,3.39,3.12,3.12,0,0,0-1.17,2c-.07.66.23,1.66,1.05,1.56a.11.11,0,0,0,.11-.14c-.14-.55-.58-.85-.44-1.48a2.62,2.62,0,0,1,1.11-1.5.37.37,0,0,0,.08-.57c-.77-1,0-2.06.93-2.5,1.29-.6,1.9.33,2.14,1.5.07.36.56.24.6-.08A2,2,0,0,0,148.23,52.54Z"/><path class="cls-8" d="M23.75,41a7.35,7.35,0,0,0-1.32-1,2.09,2.09,0,0,0-2.55.51.27.27,0,0,0,0,.32,12.86,12.86,0,0,0,1.27,2.51s.12,0,.1,0A12.4,12.4,0,0,0,20.76,42c-.07-.21-.37-.76-.32-1,.17-.92,1.42-.45,1.88-.15.73.49,1.44,1.63,2.39,1.66a.27.27,0,0,0,.23-.41A5,5,0,0,0,23.75,41Z"/></g></g></g></svg>