<svg xmlns="http://www.w3.org/2000/svg" viewBox="0 0 332.98 162.77"><defs><style>.cls-1{isolation:isolate;}.cls-2{fill:#31ade0;}.cls-3,.cls-4,.cls-5{fill:#60bfee;}.cls-3,.cls-4{opacity:0.76;}.cls-3,.cls-5{mix-blend-mode:screen;}.cls-4,.cls-6{mix-blend-mode:multiply;}.cls-5{opacity:0.47;}.cls-6{fill:#1a7aa0;opacity:0.42;}.cls-7{fill:#6cd4f4;}.cls-8{fill:#b3edff;opacity:0.51;}.cls-9{fill:#7de0ff;opacity:0.62;}</style></defs><title>planet_uranus</title><g class="cls-1"><g id="Layer_2" data-name="Layer 2"><g id="uranus"><ellipse class="cls-2" cx="165.92" cy="81.38" rx="79.58" ry="81.66" transform="translate(-18.46 68.83) rotate(-22.23)"/><path class="cls-3" d="M122.62,149a81.13,81.13,0,0,0,22.13,10.47,102.78,102.78,0,0,0,11.4-1.3c6.39-1.12,37.14-10.34,35.36-18.89a49.45,49.45,0,0,1-7.66,2.24c13.57-10.36,43.18-16.81,48.7-35.09-2.12.81-5,.67-7.11,1.25,5.47-6.51,13.32-12.29,20.15-18.75a83.09,83.09,0,0,0,.06-11.16c-16.71,16.81-36.34,32.14-57.62,40.41,6.27-7.08,37.77-20.8,33.17-33.67-20.08,8.61-35.51,28.24-53.48,40.5-11.45,7.82-23.23,15.5-36.05,20.88A70.36,70.36,0,0,1,122.62,149Z"/><path class="cls-4" d="M87.77,63.15a82.8,82.8,0,0,0,3.38,45.48c7.77-8.55,13.57-21.75,22.09-28.58,4.18-3.36,38.92-22.67,36.41-28.58-3.4-8-27.25,10.37-32.51,7.41C129,47.75,146.07,38,161.24,32.74a174,174,0,0,1,24.56-6.49c6.14-1.11,13.6-.08,19.17-3.44,4-2.4,6.27-4.76,7.22-6.9a81.64,81.64,0,0,0-14.74-8.7h-.15C178.62,9,158.91,19.14,142.3,27,120.52,37.26,101.4,48.56,87.77,63.15Z"/><path class="cls-4" d="M124.26,120.75c16.9-3.33,36.87-13.58,50.42-24,8.19-6.31,23.54-16.27,25.62-26.81-6.56,3.32-22.25,18-28.66,14.33,5.67-8.88,17.77-14.33,26.42-20,3.57-2.34,20.89-9,19.95-14.93-1.43-9.19-42.17,14.61-45.6,16.51C149.81,78.36,122.9,92.44,124.26,120.75Z"/><path class="cls-4" d="M112.15,128.6c2.49-2.45,14.13-19.06,6.39-21.44-7.06-2.18-24.08,24-10.45,25.65Z"/><path class="cls-4" d="M218.08,67.2c6.06-.47,21.82-7,22.19-14.56-7.61-3.27-19.47,6.11-23.8,11.7Z"/><path class="cls-3" d="M117.5,60.69c6.12.61,11.37-3.11,16.6-5.74,1.63-.81,13.79-7,14.14-2.93,0,.41.66.64.83.2,1.7-4.52-5-2.8-7-2.15-8.54,2.77-15.69,8.28-24.57,10.2A.22.22,0,0,0,117.5,60.69Z"/><path class="cls-3" d="M113.22,41.77c-6.15,4.67-13,8.84-18.21,14.65-.08.08,0,.2.13.12,5.69-5.71,13.29-9.8,19.78-14.53a151.24,151.24,0,0,1,21-12.81c16.83-8.49,34.31-14.14,51.88-20.63a.45.45,0,0,0-.27-.85c-18.06,3.39-36,12.07-52.34,20.34A143.37,143.37,0,0,0,113.22,41.77Z"/><path class="cls-3" d="M109.54,112a46.13,46.13,0,0,0-4.4,6.39c-1.66,3.1-1.22,6.42-2.66,9.52,0,0,0,.11.08.06a7.58,7.58,0,0,0,1.3-2.94,23,23,0,0,1,3.78-8.83c2.57-3.62,6-9.6,11.21-8.23.59.16.75-.74.19-.92C114.9,105.61,111.89,108.94,109.54,112Z"/><path class="cls-3" d="M138.44,88.09c-9.85,8.52-13.77,19.62-13.86,32.79,0,.06.09.06.1,0,1.09-6.51,1.8-13.23,4.68-19.22s7.7-10.51,12.92-14.56A277.14,277.14,0,0,1,172,67.39c2.87-1.68,42-26.15,45.8-19.17a.88.88,0,0,0,1.58-.73c-3.66-9.17-36.25,11.36-40.62,13.82C164.8,69.17,150.61,77.54,138.44,88.09Z"/><path class="cls-3" d="M216.69,65.1c.06,0,.11,0,.08-.09-1.46-3,15.3-10.64,17.29-12.51.51-.47-.21-1.12-.73-.87C231.32,52.59,213.69,63.07,216.69,65.1Z"/><path class="cls-3" d="M171.9,84.52C183,90.13,191.84,74,200.51,70.46c.64-.25.55-1.4-.23-1.3-3.84.5-6.53,3.64-9.19,6.24-4.91,4.78-11.78,10.25-19,8.59A.28.28,0,0,0,171.9,84.52Z"/><path class="cls-3" d="M197.47,99.57c-7.93,6.47-14.91,13.84-23.16,20-7.55,5.61-15.17,10.93-23.11,15.94-6.89,4.34-14.22,11.66-22.56,12.49-.1,0-.13.19,0,.2,5.75.58,10.47-2.88,15.06-5.91,8.39-5.56,17.07-10.59,25.26-16.48s16-11.63,23.27-18.56c8.84-8.42,19-14.83,29.16-21.43,1.15-.74,0-2.58-1.17-1.83C212.55,89,204.57,93.77,197.47,99.57Z"/><path class="cls-3" d="M243.56,77.19c-7.61,9.21-15.16,17.61-24.9,24.6-9.07,6.52-19,10.65-28.79,15.77a.08.08,0,0,0,0,.14c22.27-3.18,41.59-22.46,55.22-39.06C246,77.59,244.43,76.14,243.56,77.19Z"/><path class="cls-3" d="M183.89,142.27c1.06.7,2.55-.16,3.53-.67.69-.37,4.48-2.78,4.46-1.35a.08.08,0,0,0,.14.05c.34-.42.47-.47.52-1a.35.35,0,0,0-.35-.42,8,8,0,0,0-4.09,1.17,16,16,0,0,1-2.36,1.13,11.64,11.64,0,0,0-1.89.49C183.61,141.8,183.69,142.14,183.89,142.27Z"/><path class="cls-3" d="M226.2,107.89a.37.37,0,0,0,.24.51c.87.22,1.82-.61,2.55-1s2.14-.93,3-.42c0,0,.09,0,0-.08-.38-.34-.46-.63-1-.8a2.85,2.85,0,0,0-1.66.07C228.41,106.46,226.73,107,226.2,107.89Z"/><path class="cls-3" d="M221.41,106.12c-5.65,4-12.27,6.34-16.81,11.85a.88.88,0,0,0,.45,1.4,8.31,8.31,0,0,0,5.14-.33c1.19-.38,2.31-1.24,3.51-1.55a2.5,2.5,0,0,1,2.81-.49q2.66-.06-.09,1.6c-2,3.94-9.77,6.25-13.51,7.49-4.08,1.36-8.29,2.3-12.43,3.44-17.77,4.89-31.42,18.28-49.21,23.44-.12,0-.06.22.06.2,17.77-3.87,31.2-16.71,48.43-21.62,6.64-1.89,13.58-3.09,19.82-6.16,3.47-1.71,10-5.14,10.75-9.55a.94.94,0,0,0-.46-1c-2.32-1.14-4.58.06-6.75,1-1.14.54-2.29,1.06-3.45,1.57q-4.53,1-.92-1.23c1.64-2.28,5.33-3.69,7.67-5.06,10-5.87,16.94-14.64,25.38-22.55.48-.44-.22-1.28-.75-.89C233.78,93,228.75,100.88,221.41,106.12Z"/><path class="cls-3" d="M201.28,101.84c-.13.37.06.88.53.84,4-.31,6.47-3.57,8.73-6.59.43-.56-.39-1.33-.82-.76-1.28,1.7-3.11,4.48-5.08,5.37-4.93,2.2,1.13-3.37,2-4.17,1.68-1.52,9.77-8,10.41-4.92C218.3,97.53,203,104.83,199,107s-27.36,13.69-21.83,17.59c2.55,1.8,9.87-1.77,12.41-2.71,1.14-.42,9.84-3.87,9.71-2.09-.17,2.42-7.49,3-9.68,3.59-8.89,2.31-17.07,7.3-24.91,11.94-9.58,5.65-18.8,14.8-30.29,15.82a0,0,0,0,0,0,.05c8.74.29,15.45-5.23,22.51-9.61,9.7-6,20.54-12.91,31.52-16.2,1.4-.41,19.82-4.71,11.6-8-3.69-1.46-10.17,2.8-13.56,3.94-4.48,1.52-12.14,3.77-4.21-2.59,3.65-2.93,8.29-5.21,12.35-7.55,7.65-4.42,24.73-10.59,24-22a.79.79,0,0,0-1-.72C211.52,90.09,203.46,95.52,201.28,101.84Z"/><path class="cls-3" d="M146.84,155.68c-.16,0-.17.25,0,.28,6.34,1.43,12.5-.62,18.66-1.92,4.81-1,15.38-2.77,17.78-8.29,2.72-6.24-9-3.81-11.76-2.9-2.26.76-15.16,5-10.95,9.32,3.59,3.65,14.9-3.13,17-6.28.23-.36-.1-.76-.42-.88-3-1.06-5.78.46-8.17,2.27-.48.36,0,1.14.52.82,2.27-1.38,8.11-2.68,3.33.13-1.87,1.09-5.36,3.35-7.67,3.17-2-.15-4.17-.15-1.93-3.37.5-.71,1.92-1.14,2.71-1.54a40.84,40.84,0,0,1,6.8-2.71c1.86-.54,5.29-1.79,7.16-.89,6.29,3-7,8.18-10.12,9C162.65,153.81,154.2,156.29,146.84,155.68Z"/><path class="cls-3" d="M167.49,33.6a.72.72,0,0,0,.38,1.15c4.76.88-1.18,3.06-2.71,3.72-2.71,1.17-6.19,1.23-9,2.1A44,44,0,0,0,143,46.78a.57.57,0,0,0-.06.88c3.9,3.23,10-.89,13.68,1.54,8.59,5.73-25.48,26.68-29.34,29.48-6.87,5-35.16,22.77-28.93,35.28,0,0,.09,0,.07,0-4.8-12.24,22.2-29.17,29.4-34.4,9.57-7,26.21-14,31.19-25.76,1.8-4.28-.4-5.52-4.57-5.77-1.93-.11-4,.33-5.87.06-6.74-1,.66-3.72,4.23-5,6.7-2.36,14.14-2.45,20.14-6.46a.77.77,0,0,0,.08-1.18c.82.87-2.78-3.1-3.1-2.1.34-2.34,7.6-3,8.77-3.15a85.93,85.93,0,0,1,13.23,0c7.72.32,16.5,0,18.93-8.72.21-.77-1-1-1.18-.27C204.4,37.9,177,21.52,167.49,33.6Z"/><path class="cls-3" d="M143.67,9.4c-1.91,3.66.42,5.93-4.07,9.36-2.82,2.14-7.42,2.27-10.74,3.11-6,1.51-11.69,3.05-15.08,8.5a.74.74,0,0,0,.31.95c3.28,2.2,6.15-.18,9.38-1.26,4.81-1.63,1,.36-1.42,1.47s-5.06,2.1-7.59,3.17c-4.53,1.91-15.1,5.2-13.9,11.93a.75.75,0,0,0,1,.69c2.71-.76,2.84-.92.43.64a51.72,51.72,0,0,1-5,2.55c-2.6,1.32-4.82,2.49-6.54,4.9-.42.59.33,1.31.84.78,4.52-4.64,11.29-5.56,15.57-10.5a.76.76,0,0,0-.78-1.22c-7.06,2-1.24-3.29,1.49-4.9a74.84,74.84,0,0,1,9.74-4.41c3.76-1.55,8.44-2.89,11.35-5.89a.78.78,0,0,0-.41-1.26,8,8,0,0,0-4.46.32c-.47.14-4.09,2.15-4.49,2l2.41-4.75a35.54,35.54,0,0,1,3.43-1.17c5-1.6,12.95-1.59,16.75-5.77,1.3-1.43,1.38-2.93,2.09-4.59,1.75-4.12-2.1-1.63,5.33-5.15,4.84-2.29,4.59-2.44,8.71-1.29,7.82,2.18,11.77.73,19.24-2.37a0,0,0,0,0,0-.09c-5,1.3-9.75,3.76-15.14,2.63-3.25-.68-6.26-2.45-9.63-2.54S145.34,6.23,143.67,9.4Z"/><path class="cls-3" d="M226.55,40.48c3.27,7-1.8,10.82-6.89,14.81-3.14,2.47-7.1,4.13-10.1,6.68-3.73,3.16-.89,7-2.64,11.63-3.68,9.72-13,12.45-19.49,19.11-2.12,2.18-1.76,2.53-1.79,5a1.53,1.53,0,0,0,.63.41c1.63.59,1.68,2.32.13,5.19-.94,2.1-5.24,4.43-7.33,5.6-6.21,3.47-12.5,3.74-19.26,5.25-8.29,1.84-12.81,8.33-18.73,13.91-2.58,2.43-21,18-23.24,7.45,0,0,0,0,0,0,1.21,10.58,18.65-2.44,21.66-5,5.8-5,10.54-12.32,18-14.83,5.64-1.9,11.72-1.44,17.34-3.64,4.38-1.72,14.15-6.12,14.22-12.23,0-2.36-1.92-1.62-1.85-3.88.12-4,6.57-6.18,9.54-8.53,5.61-4.46,11.84-11.8,13.17-19.18.1-.57-.72-1.13-.68-1.55.4-4.52,1.49-4.1,4.55-6a72.2,72.2,0,0,0,11.25-8.6c1.63-1.55,5.87-5,5.76-7.74-.12-3.35-8.7-6.48-2.33-10.75a.5.5,0,0,0-.54-.84C223.74,35.22,224.81,36.78,226.55,40.48Z"/><path class="cls-3" d="M213.32,76.77c-2.72,2.06-4.63,5.23-7.3,7.42-2.27,1.86-4.87,3.22-7.19,5-1.29,1-3.84,2.53-4.05,4.31-.33,2.8,1.07,3.1,3.37,2.59,2.85-.63,6.92-5,9.06-6.75,4.88-3.93,9.37-8.3,15.25-10.72a.16.16,0,0,0-.1-.31c-7.64,1.8-13.49,7.61-19.51,12.37-1.73,1.37-7.25,5.56-4.38.35,1.39-2.53,6-4.23,8.21-6.06,4.52-3.79,7.42-8.48,13.48-10.2,3.49-1,7-1,10.33-2.43,4.1-1.74,8.57-4.57,9.1-9.4a0,0,0,0,0-.05,0C237.09,75.08,220.78,71.12,213.32,76.77Z"/><path class="cls-3" d="M193.45,34.2c-3.61-.11-6.47-.23-8.32,3.21a.73.73,0,0,0,.65,1,42,42,0,0,0,6.34-.35c.7-.05,3.73-.64,4.17-.24l-2.85,5.47-2,.11c-4.2,1.06-9.54-.89-14-.21-11.85,1.82.06,6.87-3.66,13.36-1.65,2.87-7.36,5.27-10.2,6.78-4.43,2.36-9.06,4.27-13.62,6.35a69.15,69.15,0,0,0-17.4,11.37C126,87,120.1,93.89,114.05,100.47c-1.24,1.34-5.84,7.88-7.5,7.7l-2.39-3.51,2.53-2.24a27.22,27.22,0,0,1,5.21-3s0-.09,0-.07c-4.27,1.74-10.45,4.92-10.23,10.42a.28.28,0,0,0,.28.27c7.23.62,13.75-9.74,18-14.24,5.42-5.73,10.71-11.68,16.89-16.58s12.8-7.8,19.78-11C161.89,65.77,175.79,61,177.31,54c.64-3-1-2.15-1.72-4.36-2.44-7.12,5.91-5.42,9.87-5.2,3.42.19,15.12,1.81,15.46-4.65.21-3.95-4.42-3.37-7.16-3.24-1.8.08-4,.78-5.74.5-4.81-.76,4.95-1.29,6.35-1.37,4.57-.24,8.14.05,12.48-1.72,3.57-1.45,11.3-5.86,9.93-11.12a.73.73,0,0,0-.89-.48c-1.28.22-.83.17-2.2,1.35-.61.52,0,1.61.7,1.1.44-.33-.87,3-1,3.21-1.65,2.6-6.27,4.42-9.14,5.35C200.59,34.56,197.18,34.32,193.45,34.2Z"/><path class="cls-3" d="M173.45,74.07c-7.67,4.47-16.13,7-23.48,12-.44.31-.38,1.18.23,1.26,2.2.29,4.26-.28,6.42-.61,4-.61,7.57.45,4.14,5.22-1.6,2.22-5.48,3-8,3.83-4.26,1.4-14.71,2.89-16,8.6-.79,3.35,1.58,3.42,4.44,3.29,8.93-.4,15.26-6.9,22.31-11.49,0,0,0-.09,0-.06-4.78,2.9-9.11,7-14.38,9-1.94.73-6,2.32-7.94,1.71-9.38-3,11.18-9.28,14-10.27,3-1.08,14.9-7.84,8.22-11.59-2-1.13-10.24,2.18-11.07,1.1.2.25,20.41-9.76,23.26-11.51,7.7-4.74,13.62-11.82,21.43-16.41a69.88,69.88,0,0,1,7.85-4.33c3.68-1.57,5.88-1,2.16,2.52-1.79,1.67-5.65,2.32-7.95,2.92-.73.2-.35,1.26.35,1.13,5.25-1,10.27-2.65,12.81-7.67a.82.82,0,0,0-.35-1.07c-6.39-2.87-16.81,5.46-21.39,9C184.68,65,179.74,70.4,173.45,74.07Z"/><path class="cls-3" d="M104.92,56.39c.21,1.52,2.5,1.46,2.92,2.61,1.26,3.47-11,9.87-13,12.25a.55.55,0,0,0,.05.76c5.48,3.88,11.44,1.56,16.86-1.17,4.11-2.07,8.08-4.45,12.07-6.72,1.5-.85,13.46-9.11,13.91-3.68.22,2.66-19.81,13-22.22,14.53-4.82,3.12-10,6.18-13.67,10.7s-6,10.58-9.17,15.69c-.1.15.16.33.27.19,3.57-4.81,5.69-10.69,9.58-15.25,5-5.9,12.17-9.46,18.5-13.69,5-3.31,14.79-6.6,17.73-11.93,1.32-2.38.9-3.54-1.69-3.88-2-.26-4.6,1.55-6.32,2.39-5.06,2.47-9.89,5.48-14.82,8.22-3.62,2-8.69,5.81-13.08,5.49-3-.22-4.44-2.52-2.57-5,.64-.84,2.47-1.38,3.35-1.93,1.62-1,4.45-2.19,5.33-4.11,1.66-3.68-3.26-4.23-1.53-7.52,1-1.82,6.29-3.78,8.09-4.88,3-1.81,5.9-3.67,8.84-5.51,6.23-3.87,12.63-7.29,19-10.89,12.29-7,23.32-13.24,37.07-17,5.53-1.53,10.35-2.31,16-1,6.08,1.41.74,4.93-2.57,5.47-2.77.45-6.32-.61-9.2-.92-10.7-1.17-20.79,3.31-29.5,9.12a.4.4,0,0,0,.43.67c10.93-6.44,20.78-9.44,33.42-8,3.19.36,10.92,2,13-1.78,5.09-9-19.26-5.76-22.11-5C157.25,21,137.37,34.53,117.46,47,115.21,48.39,104.34,52.37,104.92,56.39Z"/><path class="cls-3" d="M105.82,123.39a.49.49,0,0,0,.48.58c4.26.14,8.66-8.26,9.19-11.87a.44.44,0,0,0-.54-.51c-.41.14-.76.28-1.09.43,1.17-1.31,3-3.07,4-1.16.8,1.6-1.17,4.54-1.91,5.83-1,1.64-7,11.59-9.71,10.2-.11-.06-.16.14,0,.15,3.52.44,6.93-4.87,8.66-7.24,1.5-2.06,5.63-7,3.56-9.9C115,105.17,106.44,120.68,105.82,123.39Zm8.65-10.55a6.67,6.67,0,0,1-.86,2,27,27,0,0,1-2.29,3.84,20,20,0,0,1-2.07,2.53,7,7,0,0,1-1.86,1.48c-.66.31-.42.64-.51.33-.27-.92,1.9-3.89,2.31-4.58a47.78,47.78,0,0,1,2.89-4.32.38.38,0,0,0,.28-.08l2.24-1.75C114.56,112.51,114.51,112.68,114.47,112.84Z"/><path class="cls-3" d="M243.54,92.54c-2.71,3.54-6.52,5.79-9.3,9.27a.63.63,0,0,0,.33,1c1.42.36,2.21-.28,3.45-.06,2,.36,1.15-2.83,1.59,1,.26,2.31-1.46,4.15-2.75,5.85-2.59,3.43-5.91,6.27-8.17,10a.76.76,0,0,0,.32,1c3.15,1.74-9.49,9.92-11,10.71-6.74,3.64-14.43,4.54-20.87,8.87a.63.63,0,0,0-.07,1c1.72,2,2.18,1,4.05,1.91,3.82,1.8,3.49,2.14-.41,5.12a54.26,54.26,0,0,1-8,4.71c-3,1.53-5.88,3.17-8.86,4.67a39.44,39.44,0,0,1-6.16,2.65,17.21,17.21,0,0,1-3.77.87q-2.35-6.37,5.07-4.38a.19.19,0,0,0,.07-.37,10.64,10.64,0,0,0-10.29,3.56.38.38,0,0,0,0,.52c4.49,3.28,10.42.39,14.75-1.67,8.26-3.94,17.74-7.77,23.34-15.31a.61.61,0,0,0-.17-.9c-2-1.25-6.73.15-6.69-2.72,0-1.52,15.68-5.63,17.65-6.62,3.77-1.89,11.11-5.52,12.92-9.63a19.23,19.23,0,0,0,.6-2.92c.1-.32-.79-.74-.75-.91.32-1.57,2.34-3.19,3.33-4.35,3.3-3.87,9.07-9,7.63-14.8a.66.66,0,0,0-1-.36,2.45,2.45,0,0,1-2.6.56q-4.08-.12,2.8-3.42a18.82,18.82,0,0,0,3.61-4.1C244.6,92.7,243.92,92.05,243.54,92.54Z"/><path class="cls-4" d="M187.23,139.17l0,0C186.69,139,186.45,138.9,187.23,139.17Z"/><path class="cls-4" d="M187.2,139.15c.72.23,2,.62,1.81.42,1.72-.67,1.86-.13.41,1.6a4.05,4.05,0,0,1-2.16,2.83c-3.82,3.92-9.87,6-14.72,8-8.63,3.57-17.15,6.51-26.61,6.72a.1.1,0,0,0,0,.2c6.24,1.48,12.79-.38,18.71-2.23,7.36-2.31,15-4.92,21.49-9.26,1.92-1.3,9.14-5.47,7.61-9.14-1.18-2.79-4.09-.87-6.36-.9C186.33,137.41,186.36,138.83,187.2,139.15Z"/><path class="cls-4" d="M229.84,104.71a1.12,1.12,0,0,0,.49,1.48c8.21,3.6-13,17.5-16.2,19-6.55,3.13-13.69,5.11-19.19,10-.08.07,0,.18.11.13,12.18-6.64,31.37-10.11,38.8-23.53,1.47-2.64,1.18-3.65.59-6.16-.33-1.4-1.22.46-1.08-1.65.09-1.42,2.39-3.11,3.23-3.92,2.43-2.29,5.15-4.23,7.61-6.48.73-.66-.32-1.8-1.11-1.32A42.29,42.29,0,0,0,229.84,104.71Z"/><path class="cls-4" d="M220.61,84.39c9.56,9.24-25.58,28.88-31.68,33.18a.17.17,0,0,0,.18.29c9.27-5.28,18.63-10.57,26.69-17.69,2.94-2.6,6.59-5.81,7.81-9.77.45-1.45-.64-7.06-.69-7,.64-.57-.28-1.51-.95-1.13L220.7,83A.91.91,0,0,0,220.61,84.39Z"/><path class="cls-4" d="M199.83,70.55c.16,7.1-5.87,12-10.53,16.3a118.43,118.43,0,0,1-19.73,14.79c-14.11,8.43-29.39,12.33-44.29,18.74a.06.06,0,0,0,0,.12c17.89-2,36.72-11.16,51.5-21.18,8.46-5.73,25.63-16.67,24.87-28.83A.93.93,0,0,0,199.83,70.55Z"/><path class="cls-4" d="M148.15,49.9c4.47,5.62-26.25,21.61-28.24,22.77a51.58,51.58,0,0,0-16.38,15.57c-4.36,6.17-7,14.12-12.65,19.16-.13.12.06.32.2.24,2.83-1.59,4.45-3.77,6.18-6.52A139.57,139.57,0,0,1,107.66,86c8.4-10.19,20.15-13.67,30.42-21.24,2.7-2,17.61-12.56,11.25-16.19C148.57,48.15,147.56,49.17,148.15,49.9Z"/><path class="cls-4" d="M117.26,58.62c-.05.08.07.14.13.09,14-13.42,30.29-20.58,48.49-26.35,9.7-3.08,19.2-4.4,29.23-5.82a27.48,27.48,0,0,0,16.06-8c.93-.9-.58-2.26-1.51-1.38-8.31,7.84-17.74,7.05-28.24,9-9.58,1.82-18.81,5.07-28,8.25C140,39.08,125.32,46.25,117.26,58.62Z"/><path class="cls-4" d="M154.89,124.27c-4.75.48-7.53,1.82-10.39,5.77-2.53,3.49-4.23,7.32-7.63,10.07-5.61,4.53-12.64,5.76-19.3,2.44,0,0,0,0,0,0,6.46,3.9,14.13,2.8,19.93-1.83a27.1,27.1,0,0,0,5.45-6.69c3.2-4.86,5.77-8.16,12-8.78a44.19,44.19,0,0,0,5.86-.56c7.09-1.65,7-8.34,13.11-10.24C181.83,112,187.75,110,192,101.93a.28.28,0,0,0-.5-.26c-3.38,5.15-7.7,9.67-13.84,11.28-2.19.57-5.41,0-7.4,1.31-1.09.74-.93,1.59-1.52,2.1-.32.87-.63,1.73-.95,2.59a9.59,9.59,0,0,1-7.06,4.64A33.16,33.16,0,0,1,154.89,124.27Z"/><path class="cls-4" d="M210,34.16c1.86,3-.78,6.19-2.95,7.46a23.4,23.4,0,0,1-4.61,2.1c-2.55.8-5.45.54-7.94,1.57-3,1.25-1.89,1.44-2.72,3.34-1.86,4.28-.47,4-4.21,5.66-1.51.68-3.1,1.17-4.63,1.78A67.18,67.18,0,0,0,176.83,59c-8.08,4.25-15.94,7.46-23.26,13.05-9.46,7.24-24.11,15.15-28.44,27.16-2.44,6.79-.24,14.79-3.39,21.34-2.19,4.57-7.63,7.24-8.26,12.57a.44.44,0,0,0,.44.53,8.09,8.09,0,0,0,5.69-2c.14-.1,0-.33-.15-.24q-5.49-.9-2.3-3.33c.43-.45.85-.91,1.27-1.36a31.14,31.14,0,0,0,3.51-4.1,21.46,21.46,0,0,0,2.58-8.82c.64-5.43.11-11,2.58-16,2.58-5.28,7.27-9.2,11.76-12.68,9.18-7.13,18.29-15,28.82-20,4.16-2,8.25-4.2,12.41-6.15,3.41-1.59,7.52-2.35,10.67-4.45,1.84-1.23,2-2,3.1-3.47.52-.7-.31-1.08-.05-1.61.81-1.64,3.47-2.76,6-3.49C203.56,44.8,210,43.56,212,39.47c.67-1.37.09-2.6.49-3.76s-.9-.61-.09-1.69c.54-.71,3.66-.72,4.57-1,3.21-.81,7.29-1.71,6.41-5.83-.17-.79-1.51-.57-1.37.23.71,4.16-9.2,4.71-11.6,5.55A.77.77,0,0,0,210,34.16Z"/><path class="cls-5" d="M125.92,10.23C87.73,32,74.68,81.55,96.78,120.85c.93,1.66,1.92,3.25,3,4.82a36.05,36.05,0,0,0,7.91,3.71c19.82,6.45,43.62,1.86,59.42-11.2,15-12.41,26.28-35.92,28.31-55.48,1.5-14.49-.81-30.69-8-43.66A45.17,45.17,0,0,0,168.26.11,77.34,77.34,0,0,0,125.92,10.23Z"/><path class="cls-6" d="M235.07,41.92A82.07,82.07,0,0,0,197.29,7.14c.11.18.25.36.36.55,17.39,28.69,17.14,67.47-4.05,93.23a128.83,128.83,0,0,1-37.33,30.51,77.25,77.25,0,0,1-44.66,8.63c25,24.11,63.22,30.23,94.32,12.48C244.11,130.74,257.16,81.21,235.07,41.92Z"/><path class="cls-6" d="M235.07,41.92A83.49,83.49,0,0,0,224.35,27c.22,1.31.48,2.54.68,3.48,5.64,27,6.29,52.92-9.22,76-4.45,6.61-7.92,13.58-13.58,19.29a92.93,92.93,0,0,1-19.66,14.54c-6.21,3.58-12.9,6-19.6,8.45-11.49,4.29-20.23,5.88-30.5,5.89a80.86,80.86,0,0,0,19.14,6.51,120.81,120.81,0,0,0,22-2.89,50.63,50.63,0,0,0,20.23-9.82c8.21-6.36,17-12.43,23.83-20.37,5.2-6,10.64-12,15.15-18.57C240,99,242.09,89,242.76,76.11c.24-4.77.43-9.49.38-14.17A83.76,83.76,0,0,0,235.07,41.92Z"/><path class="cls-7" d="M229.2,32.91a86.11,86.11,0,0,1,5,7.46c28.1-8,47.21-10.5,49.31-5.37,3.65,8.94-45.76,37.59-110.36,64S53.17,139.55,49.52,130.61c-2.1-5.13,13.29-16.75,39-30.7a84.8,84.8,0,0,1-1.67-8.81C32.14,117.75-3.48,141.56.27,150.73c5.19,12.71,83.82-7.41,175.62-44.93s162-78.23,156.82-90.93C329,5.69,286.87,13.64,229.2,32.91Z"/><path class="cls-5" d="M128.8,21.19c-8.67-3.07-20.9,12.53-24.21,18.71-8.42,15.74-11.51,37.27.59,52.84,5.6,7.21,15.67,7.2,23.73,5.17,12.39-3.11,23.19-10.5,29.62-21.49,6.76-11.56,10.53-23.21,7.33-36.86-1.44-6.12-3.44-12-9.07-15.33C150,20.16,139.86,19.55,128.8,21.19Z"/><path class="cls-5" d="M112.45,42.5c-5.11,5.18-10,21.38,1.69,21.74C129.26,64.7,125.35,37.1,112.45,42.5Z"/><path class="cls-8" d="M231.81,36.64c.73,1.09,1.43,2.2,2.11,3.34,41-13.84,69.44-20.25,71.52-15.15,3.2,7.83-56.84,39.77-134.09,71.34S28.88,147,25.68,139.17C23.57,134,48.84,118.44,88.37,99.39c-.31-1.29-.6-2.57-.85-3.86C43,117.31,14.34,135.89,17.11,142.67c4.06,9.93,73.81-9.19,155.79-42.7S318.06,31.25,314,21.33C311.26,14.6,278.3,21.23,231.81,36.64Z"/><path class="cls-9" d="M235.3,42.35q1.74,3.12,3.17,6.33c4.17-.45,6.72-.13,7.22,1.1,2.09,5.1-31.72,23.75-75.51,41.65s-81,28.27-83.08,23.16c-.49-1.2,1-3.16,4.18-5.67-.83-2.25-1.55-4.51-2.18-6.79-23.16,12.28-37,22.11-35.38,26.11,3,7.26,55.82-7.48,118.05-32.92S282.05,43.39,279.08,36.13C277.44,32.12,260.56,34.84,235.3,42.35Z"/></g></g></g></svg>