<svg xmlns="http://www.w3.org/2000/svg" viewBox="0 0 160.17 160.15"><defs><style>.cls-1{isolation:isolate;}.cls-2{fill:#8d705c;}.cls-3{fill:#5c2000;}.cls-10,.cls-11,.cls-12,.cls-3,.cls-5,.cls-7,.cls-9{opacity:0.72;}.cls-4,.cls-5,.cls-6{fill:#96c4d1;}.cls-4{opacity:0.89;}.cls-6,.cls-8{opacity:0.83;}.cls-7{fill:#f2902b;}.cls-8{fill:#205673;}.cls-15,.cls-17,.cls-18,.cls-8{mix-blend-mode:overlay;}.cls-9{fill:#c6aa89;}.cls-10{fill:#edd8ab;}.cls-11{fill:#913e12;}.cls-12,.cls-14{mix-blend-mode:multiply;}.cls-13{fill:#9f9cad;}.cls-14{opacity:0.46;}.cls-15{opacity:0.3;}.cls-16{fill:#faeccf;}.cls-17{opacity:0.44;}.cls-18{fill:#05afea;opacity:0.21;}</style></defs><title>planet_jupiter</title><g class="cls-1"><g id="Layer_2" data-name="Layer 2"><g id="jupiter"><circle class="cls-2" cx="80.08" cy="80.08" r="80.06" transform="translate(-33.17 80.08) rotate(-45)"/><path class="cls-3" d="M160,74.82h-.85c.26-.37.52-.75.77-1.14a80.08,80.08,0,0,0-12.53-37c-14.4-7.13-34.23-7.47-47.44-8.27L17.59,30.68,17,30.8a80,80,0,0,0-1.44,96.62c14.87,4.88,29.1,8.89,45.32,10.1,15.81,1.17,32.17,0,48.05,0,5,0,10.22.43,15.1-.73,7-1.68,11.45-6.73,17.48-10.43a26.64,26.64,0,0,1,5.77-2.68A80.24,80.24,0,0,0,160,74.82Z"/><path class="cls-4" d="M138.08,24.91c-5.66-1.37-11.81-1.38-18.08-1.09-4.82.23-10.37-.72-15.29-.24-1.27.13-2.06-1.66-3.51-1.42-1.28.21-2,2.79-3.71,3.11-2.76.51-5.63-.24-8.42.4-6.59,1.51-8.68,2.64-15.17,2.07C67,27.13,60.11,25.91,53,25c-4.63-.6-8.22.87-12.79.61-4.27-.24-7.48-3.1-11.79-3.15a22.66,22.66,0,0,0-4.55.58A79.61,79.61,0,0,0,13,36.38l2.33-.23c8.65,9.65,11.84.06,21,.47C42.12,36.87,51.63,50,55,39.71c1.19.49,2.91.3,3.8.6.26-.76.21-1.4.55-2.18,7.39,1.55,28.17,13.14,34.74,7.68,4.86-4.05-.45-5.33,6.15-7.3,2.06-.61,9.93-.48,12.55.75,2.72-3.7,15.22-3.18,19.62-2.38s12.7,7.6,16.21,6.19c.2,1.71,1.83,3.18,2.12,4.68a11.87,11.87,0,0,0,2.11-1A80.16,80.16,0,0,0,138.08,24.91Z"/><path class="cls-5" d="M157.64,60.27c-.6-2.36-1.31-4.67-2.12-7-2,.18-3.92.57-6-.17-3.2-1.16-5.4-5.67-8.82-6.93-9.46-3.49-20.27-.47-29.69.05-2.8.16-5.54-1.42-8.49-.76-2.77.62-3.67,2.72-5.79,3.57-5.53,2.19-12.86,3.39-19,2.38-2.88-.47-5.72-2.62-8.67-2.15-3.49.55-4.92,4.61-9.28,4.38-3.59-.19-4.09-2.87-7-3.76-3.45-1-6.06.31-9.33,0-3-.31-5.58-2.56-8.13-2.75-3.49-.26-6.18,1.64-9.33,1.65-7.8,0-12.78-3.2-17.82-4A80.29,80.29,0,0,0,2.87,59c4.2-1.82,8.85-4.26,11.64-3.71-.76,6.44,8.28,7.74,12.59,5.91.68,14.12,20-.86,25-.84s26.43,17.41,28.75,6a5,5,0,0,0,8,1.35c2.5,2,10,2.79,13.2,1.61,4.24-1.57,5.93-7.52,10.53-8.22,6.72-1,16.48,9.57,21.37-1.23C134.34,66.35,150.22,65.72,157.64,60.27Z"/><path class="cls-6" d="M159.7,71.71c-13-1.66-25.95,1.25-38.61,4.3-5.54,1.34-25-.24-25.76,3.55-2.6-1.28-6.62-2.16-9.58-1.44-1.31.32-3.87,3.61-4.52,3.58-3.16-.12-3.76-3.56-7.27-4.64-4.37-1.34-6.11,1.47-10,1.93-6.43.76-11.7-1.36-18.55-.11-9.23,1.68-12.72,1.53-25.63.75-5.66.58-13.52-3.47-19.71-3A79.46,79.46,0,0,0,2.39,99.4c7.48,1.55,16.07.88,23.36,2.67,13.51,3.31,30.15,4.72,44.52,2.8,8.44-1.13,12.46-2.63,19.84.89,4,1.93,8.78,5,14.09,1.39,2.46,6.33,9.49.62,14.09.47s7.64.68,13.19-.56c7.92-1.78,18.07-3.57,26.25-7.6.09-.37.2-.73.29-1.1A79.9,79.9,0,0,0,159.7,71.71Z"/><path class="cls-5" d="M149.49,120c-7-.65-16.16,5.51-21.49,5.63-2.89-5.51-18.2,3.46-24.42,2.38-4.47-.78-7.37-5-11.3-5.23-4.1-.25-10.4,3.4-14.77,4.09-3.64.59-7.88,1.93-11.37.43-1.54-.66-3.39-4.24-4.85-4.56-2.59-.56-2.64,1.26-5.36,1.85-9.08,2-25.59,7.69-34.85-.31a29.35,29.35,0,0,0-6.53,1.8,80,80,0,0,0,12.2,13.75A26.43,26.43,0,0,0,38,135.47c1,4.8,5.73,4.73,9.81,5.11,2.36.23,4.55-.71,6.36-.45,2.6.37,6.17,2,8.82,2.73,8.51,2.42,15.3,1.39,24.12-.14,4-.69,12.38-4,16-3.28,3.14.64,5.47,4.3,9.64,5.52a43,43,0,0,0,12.67,1.14A80,80,0,0,0,149.49,120Z"/><path class="cls-7" d="M42.81,125.62c-7.81,4.41-31.7,1.13-21-12.07,6.09-7.5,26.34-8.53,32.65-1.1,6.87,8.1-2.74,9.49-9.46,11.68Z"/><path class="cls-7" d="M125.13,127.84c-3.09-2.79-7.41-.6-11,.87a8.9,8.9,0,0,0,0,3.45c3.92,1.78,8.36,2.55,11.73-.61Z"/><path class="cls-7" d="M154.06,107.07c2.47-5.88-6.26-5.44-8.94-1.74,1.3-9.8-12.08-9.62-17-4.5-5-2.75-10.71-.61-14.86,3-3.94-5.93-10.82-3.92-16.13-1.26-3.29-11-29.75-5.26-35.82.82C51,113.75,82.67,114.1,88.84,111.06c-.48,11.16,15.55,2.53,19.38-.19,4.68,3.46,10,3.85,13.78-.74,2.36,4,9.09,2.11,11.09-1.52C136.75,115.52,153.89,119.06,154.06,107.07Z"/><path class="cls-7" d="M156.15,55.1c-3-1.74-6.59-1.36-8.73,3.87-4.3-3.7-15.3-12.24-18.38-2.59-6.23-4.72-7.47.54-12.47,1.37-4.45.73-5.73-1.28-10.36-2.23-7.4-1.51-7.47,2.41-14,4.88-7.11,2.68-10.58-2-16.78-4-7-2.18-9.29,2.45-14.82,2.48-3.81,0-5.94-4.36-10.2-3.67-2.19.36-3.88,3.82-6.14,4.24s-3.44-1.15-5.14-1.2c-5.1-.16-11.24.19-19.32-.17,3.75-7.29-8.11-10-12.07-4.54A11.71,11.71,0,0,0,5.12,52,79.42,79.42,0,0,0,.26,73.73a22.43,22.43,0,0,0,17.92-1.42c4.23,6.32,8.59,5,14.84,4.19,5-.61,12.14-.65,18-4,3.15,12.75,17.28.82,24.1.41,6.51-.38,11.2,4.81,18.82,3.19,5.58-1.19,7.79-2.91,14.25-2.58,2.08.11,3.85,1.22,6,.94,3.46-.44,5.4-3.51,8-4,4.36-.84,3.94.91,8.47,2.42,7.57,2.54,8.55-1.58,13.72-3.62,5.72-2.27,4.81.69,10.42,0a9.15,9.15,0,0,0,4.38-1.53A80.53,80.53,0,0,0,156.15,55.1Z"/><path class="cls-8" d="M159.93,85.89a26.84,26.84,0,0,1-5.16-3.12,27.64,27.64,0,0,0-.88,8.33c-8.73.9-13.73-10-23.62-9.12-.29,2.06-1,3.66-.25,5.78a21.71,21.71,0,0,1-8.8-1.14c.15.95-.38,2.19-.25,3.14-5.89.84-28.1-10.89-28-1.31-5.68-1.42-20.2-11-22.27,0-3.24-3-7.85-2.74-7.34,1.82-5.15-2-10.6-3-13,2.18C46,90.57,29.83,78.41,28.79,89.81c-2.53-2.12-9.9-8.34-11.56-2-2.16-2.57-6.3-2.87-8,4.72C10.4,88.37,4.11,82.22.05,82.46a78.63,78.63,0,0,0,1.46,13c3.31,2.91,7.81,5,11.64,5,2.06-6.87,9,.35,13.31,1.79,8.32,2.76,9.69-.17,4.86-5.67.38-.27,1.38-1.09,1.73-1.4,4.49,3.05,8.85,5.51,14.64,6.63,1.63-5.13,2.9-4.89,8.42-4.08,2.36.35,4,3.2,7.2,2.73,2.56-.37,4.31-3.76,6.36-4.9,5.7-3.18,10.49-3.8,16.45-1.31,3.39,1.42,8.77,8.46,10.43,2.45,3.65-1.5,7,.61,8.75,3.16-.62-5.64,9.71-7.43,13.39-2.85a18,18,0,0,1-.18-2.2c5.36,1.88,15.45,3.83,14.27-3.51,4.07,4.6,7.91,8.19,13,1.88,2.23,4,6.6,4.61,11.38,5.28a8.06,8.06,0,0,1,1.5-3.13A80.11,80.11,0,0,0,159.93,85.89Z"/><path class="cls-8" d="M30.2,32.17C29,28,21.28,26.81,22.71,32A5.76,5.76,0,0,0,16,35.87c2.79,4.43,9.75,1.89,13.61.93,2.08-.52,4.31-2.4,6.53-2.48,2-.08,2.87,2.38,5.91,1.87C45.34,38.86,53.74,36,58,35.83c6.12-.23,13.53,4.55,18.82,1.62,1.06,4.95,7.19,4.11,9.92.76,7.93,5.22,9.58-.42,15.83-2.29,1.56-.46,4.7,1.34,6.79,1.29s5.22-1.36,7.07-1.54c.59-.05,1.61,1.71,2.79,1.59,1.37-.14,3.74-2.13,4.8-2.13,2.41,0,3.66.76,6.42,1.34,4.1.85,11.45,4.77,13.3-.59-3-4.68-11.51-5.29-16.17-5.2-2.25.05-5.88,1.34-7.88,1.14s-2.66-1.52-4.18-1.73c-5.8-.8-8.33,1.62-13.79,2-4.41.32-8.2-2.36-12.78-2.22C85.71,30,81.66,31,78.43,31.48c-9.2,1.33-17.36-3.22-26.76.59C49.16,28.94,31.51,29.93,30.2,32.17Z"/><path class="cls-9" d="M107.31,148.61c-8.86.31-15.49-4.5-23.71-4.46-7.27,0-14.69,1.48-22.25,1.49s-16.52-5.14-22.86-3.58a6.39,6.39,0,0,1-4.3,3.62c1.91,1.33,3.87,2.59,5.9,3.76a22.63,22.63,0,0,1,5.5-1c2.66,0,6.17,1.3,9.45,2,17.27,3.87,31.68,3,49,1.86a88.66,88.66,0,0,1,9.27.59,79.78,79.78,0,0,0,10.23-5.6C118.11,147.62,112.83,148.41,107.31,148.61Z"/><path class="cls-9" d="M87.47,19.3c5.47-.36,9.1-1.39,14.64-.56,7.46,1.13,12.7-.89,19.87-.92,4.35,0,7.39,2,11.18,2.89,0-.22,0-.43-.07-.64a80.46,80.46,0,0,0-8.66-6.65c-8.42-2-20.56-1-25.29-.78C84.41,13.45,71,11.5,63.57,11.16c-4.54.36-9.18,2.34-13.75,2.26-3.37-.06-7-1.56-10.73-2.09A80.59,80.59,0,0,0,30.76,17c2.12.2,3.85.78,4.76,2.16,12.69,4.47,27.05-.68,40.62-.65C80.38,18.54,83.41,19.56,87.47,19.3Z"/><path class="cls-10" d="M146.05,118.6c-2,4.27-6.25,2.71-10,3.23a7.32,7.32,0,0,0-3.4,1.36,25.08,25.08,0,0,1-2.46,1.89,5.92,5.92,0,0,1-5.07.08,19.26,19.26,0,0,0-10.62-.47c-4.37.89-8.43,2.14-12.88.82a43,43,0,0,0-12.26-2.25c-4.55,0-9.1.39-13.66.38a29.25,29.25,0,0,1-13.09-2.77c-3.83-1.93-6.6-5-9.24-8.34-1.89-2.36-3.71-5-6.41-6.49-3.17-1.76-6.75-1.48-10.18-.83a.4.4,0,0,0,.1.78c3.77-.21,7.77-.13,10.78,2.45,2.55,2.2,4.39,5.23,6.58,7.77,5.59,6.5,13.36,9.35,21.85,9.08,4.76-.15,9.35-1.36,14.13-1.22a25.47,25.47,0,0,1,6.88,1c2.4.76,4.66,1.87,7.18,2.23,3.68.52,7-.53,10.61-1.24,2.46-.49,5.3-.92,7.77-.25,2,.52,3.65,1.52,5.75,1.33,1.82-.15,3-1.16,4.43-2.25,2.25-1.75,4.34-1.69,7-1.69,3.36,0,6.22-.65,7.43-4.11C147.55,118.4,146.38,117.9,146.05,118.6Z"/><path class="cls-10" d="M47.9,113.6c-3.95-3.89-11.78-4.21-16.9-3.71-5.35.52-13,3-11.24,9.81,0,.06.12,0,.11,0-.91-11.2,18.22-9.93,24.55-6.9,1.49.71,3.5,1.87,3.69,3.72.23,2.13-2.11,4.13-3.74,5.06-2.86,1.64-20.36,7.06-19.68.17.37-3.69,7-4.77,9.76-4.87,1.39,0,4.42-.12,5.46,1.08.73.85.3.26-.21,1.07a6,6,0,0,1-2.86,1.85,12.5,12.5,0,0,1-5.16.5c-.71,0-.68,1,0,1.09,4,.46,7.56-.69,9.92-4a.59.59,0,0,0-.09-.71c-2.54-2.57-6.92-2.35-10.18-1.67-2.71.57-7,1.93-7.72,5.06s2.41,4.88,5.1,5.1c4.52.37,9.5-.88,13.7-2.45C46.22,122.4,52.18,117.81,47.9,113.6Z"/><path class="cls-10" d="M141.24,122.64c-2.55,1-4.84,2.34-7.29,3.54-1.83.9-4.11,1.9-6.14.82-1-.52-1.65-1.82-2.61-2.41-2.91-1.81-6.58-1.47-9.83-1-6.42.94-12.06,4.35-18.63,2.19-5-1.62-7.14-4.2-12.6-3.28-4.86.82-12.17,6.42-17.09,4.89-3-1-5.19-4.16-8.87-3.77a7.68,7.68,0,0,0-2.88,1.2,21.47,21.47,0,0,1-9.92,2.08,41.56,41.56,0,0,0-17,4.17c-.56.26-.19,1,.28,1,3.42.43,5.77-.57,9-1.46,3.86-1,7.29-.71,11.18-1,4.84-.38,8.45-4.24,13-1.79,2.6,1.41,3.89,3.08,7,2.87,6.41-.41,12.18-6,18.73-5.19,2.24.26,4.28,1.89,6.31,2.77a21.26,21.26,0,0,0,7.92,1.87c5,.12,9.62-2.23,14.42-3.17,3.65-.71,6.63-1.31,9.69,1,.83.63,1.14,1.28,2.1,1.65,4.64,1.78,10.38-3.31,13.74-5.57C142.53,123.61,142.12,122.29,141.24,122.64Z"/><path class="cls-10" d="M89.68,123.14c-4.24-3.18-7.85-.67-12.53.41-3.23.74-5,1.46-7.57-1-1.16-1.11-1.55-2.32-3.25-3-2-.74-3.85.09-5.87.18-3.55.15-4.13-1.71-6-4.45-2.05-2.94-3.8-6.56-6.76-8.71-3.16-2.3-7-2.35-10.79-2.13-1.91.12-3.81.66-5.53-.34-1.91-1.1-1.51-2.91-2.74-4.47-2.82-3.56-6-.69-9.26,0C13.23,101,8.41,99,2.86,97.05a.4.4,0,0,0-.49.49c1,4.19,5.67,5.92,9.57,6.52a30.54,30.54,0,0,0,7.4.22c1.82-.17,4.45-1.56,5.81-.46.8.66,1.25,2.58,2.35,3.48a10,10,0,0,0,4,2.13c4.72,1,10-2,14.06,1.68,3.28,3,4.89,7.66,7.78,11,2.45,2.81,5.63,2.69,9,2.14,1.87-.31,2.34-.72,3.93.64.28.24.5.86.79,1.17a8,8,0,0,0,4.22,2.06c7.16,1,10-9.32,18.11-4.45C89.72,123.85,90,123.36,89.68,123.14Z"/><path class="cls-10" d="M156.09,74.78c-4-4-11.41-2.9-16-.82-3.7,1.69-6.86,4.53-10.88,5.48s-6.88-1-10.65-1.66c-3.26-.57-6.33.27-9.47,1.08a44.58,44.58,0,0,1-11.56,1.4c-3.88,0-7.2,1.49-10.88,2.48-5.11,1.38-8,.23-12.27-2-6.08-3.1-11.84.69-17.82,2.23-5.08,1.3-8.48-.92-13-2.69a19.6,19.6,0,0,0-9.75-1.22c-9.17.9-18.42,2.74-27.41-.23a0,0,0,0,0,0,0c6.38,3.12,11.91,5.14,19.12,4.6,3.37-.26,6.8-.67,10.14-1.19,2.4-.38,4.36-1,6.76-.41,1.91.45,3.18,1.42,4.88,2.3,5.92,3.08,10.91,1.13,16.79-1,2.3-.85,4.79-1.89,7.25-1.24,1.65.43,2.34,1.33,3.69,2.22a12.16,12.16,0,0,0,5.33,2c3,.38,5.76-.38,8.59-1.23,4.5-1.34,8.22-1.52,12.89-1.75,7.26-.36,12-5.27,19.46-2.5,4.66,1.74,8.25,1.85,12.86-.38,3.21-1.55,6.11-3.93,9.63-4.77a12.54,12.54,0,0,1,7.05.37c4.69,1.68,2.53,4.89.21,7.47-.63.69,0,2.1,1,1.71C156.46,83.43,160.25,79,156.09,74.78Z"/><path class="cls-10" d="M146,34.34l-1.15-1.15c-.34-.36-.62-.92-1.06-1.14a.14.14,0,0,0-.2.15c.08.52.67,1,1,1.37a3.67,3.67,0,0,0,1.31.89C146,34.48,146,34.39,146,34.34Z"/><path class="cls-10" d="M140.75,30.61a5,5,0,0,0-3.77-.74c-.09,0,0,.15,0,.14a4.78,4.78,0,0,1,3.64.75C140.76,30.82,140.84,30.67,140.75,30.61Z"/><path class="cls-10" d="M116.28,28.41c-6.58-5.85-11.92-3.08-19.49-.77-6.21,1.89-11.71-.36-17.93-.15-4.72.16-9.36,1.49-14,2.2-5.85.89-11.82-.25-17.78.15a28.9,28.9,0,0,1-14.92-2.56c-4.25-1.84-12-4.29-13.26,2.41-.13.73.67,1.61,1.41,1.08,3.78-2.74,6.61-3.38,11.21-1.95,2.6.81,5.05,2.17,7.75,2.62,3.73.63,8-.17,11.68-.55,4.86-.5,9.33.54,14.14.47,4.33-.06,8.48-1.7,12.79-2.05s8.45.89,12.73.9c3.74,0,7-1.3,10.39-2.55,5.62-2.05,9.81-1.84,15.21.86C116.26,28.55,116.34,28.46,116.28,28.41Z"/><path class="cls-10" d="M125.18,15c-6.19-3-10.89-.29-17,1.41-5.11,1.44-8.57-.81-13.13-2.63a17.3,17.3,0,0,0-10.64-.64,47.89,47.89,0,0,1-17.37.89c-4-.52-8.14-1.24-12.14-.68a35.94,35.94,0,0,0-6.19,1.88c-3.62,1.18-5.65.82-9.2-.22-2.48-.73-4-.51-6,1.2-1.21,1.07.09,2.92,1.51,2.58,3.92-.93,7.15,1.26,11,1S53.41,17.41,57.33,17c8.8-.85,16.66,2.36,25.53,0,5.37-1.42,8.64-.83,13.66,1.1a11.4,11.4,0,0,0,7.36.82c7.61-1.52,13.15-6.51,21.23-3.79C125.2,15.22,125.26,15.08,125.18,15Z"/><path class="cls-10" d="M143.67,38c-6.11-.12-9.62-4.87-15.35-5.81-6.34-1-11.47,3.64-18,2-4.8-1.22-7.56-1-11.86,1.45-3,1.71-5,.21-8.19.53-2,.21-3.56,1.38-5.18,2.41-4.06,2.56-6.8,3.08-11.32.85-2.47-1.22-4.84-2.79-7.53-3.51-4.36-1.16-8.19-.38-12.36.91-6.08,1.88-10.35-.9-16.3-1.9-5.52-.94-10.85-.16-16.27,1-.11,0-.06.19.05.17,7.81-1.32,14.55-1.54,21.83,1.91,3.65,1.74,6.26,2.43,10.26,1.38,2.43-.64,4.85-1.89,7.42-1.74,3.47.19,6.39,2.8,9.19,4.54,4.32,2.68,8.84,4.63,13.78,2.39,2.17-1,4-3.18,6.32-3.87s4.73.68,7.13,0c2.6-.71,4-3.27,6.71-4,2.85-.73,5.53.87,8.27,1.29,6.24.95,11.88-4.1,17.91-1.69,4.8,1.92,8,5.54,13.53,5C145.73,41,145.82,38,143.67,38Z"/><path class="cls-10" d="M61.28,68c-2.4-5-10.42-6.43-12.8-.84-.42,1,.5,2.27,1.59,1.59,1.5-.94,3.34-2,5.17-1.71,1.54.23,4.42,2,3.79,3.9-1,3-7.57,2.43-9.8,1.73-2.89-.91-4.73-3.13-6.53-5.42-2.08-2.65-4-5.44-7.23-6.74-2.19-.88-4.29-.75-6.58-.87-4.3-.21-6.06-1.77-9.41-3.7-5.57-3.21-11,3.45-7.15,8.44,2.87,3.74,12.3,7.22,15.44,2.2.37-.58-.33-1.09-.85-.86-4.08,1.79-13.45,1.83-14.47-4.18-.75-4.42,3.62-5.11,6.08-3.4.74.51,1.27,1.4,2,2a12.7,12.7,0,0,0,6.38,2.36c3.17.32,6.27-.43,9.16,1.41,2.12,1.35,3.47,3.63,5,5.55,2.37,3,5,5.38,8.82,6.13C54.38,76.42,64.56,74.86,61.28,68Z"/><path class="cls-10" d="M124,61.19a1.28,1.28,0,0,0,1.09,1.91c2.25.09,6.78.43,3.59,3.87-1.14,1.24-5.67,1.92-7,1.12-.41-.25-1.06-1.94-1.54-2.39-1.89-1.76-4.83-2.26-7.23-2.84-3.17-.76-8.84-1-5.18-5.13a1.56,1.56,0,0,0,.24-1.86c-5.13-6.79-14.52-4.26-20.19.66a1.21,1.21,0,0,0,.25,1.89c1.94,1,6.33,3.55,4.27,6.39s-9,1.58-11.41.18c-4-2.29-6.47-6.3-10.56-8.54a.22.22,0,0,0-.27.35c5.75,6.54,11.51,16.3,22,11.32,6-2.85,2.76-8.14-1.26-10.88,4-2.87,10.92-5.22,14-.74-1.92,2.49-2.71,5.32.55,7.35,2.55,1.59,12.78,1.8,13.22,5.27a1.71,1.71,0,0,0,1.2,1.58c5,1.35,13.52,1.08,13.29-6.17C132.91,59.79,127.07,56.91,124,61.19Z"/><path class="cls-10" d="M153,63c-.74-2.81-3-6.56-5.79-7.7a4.09,4.09,0,0,0-5.61,4.29c.07,1,1.48,1.9,2.26.93,1.2-1.5,1.61-2.74,3.62-1.32a7.84,7.84,0,0,1,2.4,2.94,7.29,7.29,0,0,0-2.86.27c-1.14.5-1.74,1.94-2.95,2.45-2.33,1-3.37-1.3-4.25-3.11-1.28-2.66-2.32-6.91-5.78-7.44a.09.09,0,0,0-.06.16c1.87,1.27,2.49,4.53,3.32,6.51.76,1.81,1.5,4,3,5.28A4.25,4.25,0,0,0,145,67c1-.4,1.84-1.53,2.82-1.86a28.85,28.85,0,0,1,4.31-.49A1.31,1.31,0,0,0,153,63Z"/><path class="cls-10" d="M21.51,106c-4.69-1.26-9.53,2.3-11.4,6.47-.87,1.92-1.11,4.65.47,6.32a2.78,2.78,0,0,0,2.67.76c1.2-.27,1.12-1,1.61-1.94a.28.28,0,0,0-.24-.42,3.9,3.9,0,0,1-1.31-.17c-.36.38-.51.3-.44-.26a4.43,4.43,0,0,1-.2-1A5.62,5.62,0,0,1,13.79,112a9,9,0,0,1,2.41-2.24c2.56,2.14,5.45,1,6.18-2.28A1.26,1.26,0,0,0,21.51,106Zm-4.14,3.18a8.35,8.35,0,0,1,2.29-.66C19.24,109.27,18.38,109.3,17.37,109.17Z"/><path class="cls-10" d="M15.39,115.42a.77.77,0,0,0-1.54,0l0,.55a.8.8,0,0,0,1.6,0Z"/><path class="cls-10" d="M123.59,127a4.51,4.51,0,0,0-3.31-.48,3.65,3.65,0,0,0-1.11.57l-.44.08c-.12,0-.67,0-.22,0l-.74.1a3.48,3.48,0,0,0-1.93,1.38l-.13.16a3.44,3.44,0,0,0-.3.71,2.81,2.81,0,0,0,2,3.4,1.93,1.93,0,0,0,1.28,0c.69,0,1.4-.18,2-.27s1.45-.24,2.19-.34a3,3,0,0,0,.7-5.36Z"/><path class="cls-10" d="M115.8,128.68l0,0,.3-.38Z"/><path class="cls-10" d="M95.21,130.47c-1.89-.37-6.6-1.19-7.86,1-1.51.49-1.07,2.7.25,3.2,2.11.79,5.53,1,7.63-.24C96.94,133.78,97.39,130.89,95.21,130.47Z"/><path class="cls-10" d="M119.94,138.33a1.38,1.38,0,0,0,0,2.75A1.38,1.38,0,0,0,119.94,138.33Z"/><path class="cls-10" d="M58.5,136.47c-3.22-2-7.85-4.59-10.81-.64a1.66,1.66,0,0,0-.36,1.07,1.35,1.35,0,0,0,.61,1.95,13.88,13.88,0,0,0,10.12,1A1.88,1.88,0,0,0,58.5,136.47Z"/><path class="cls-10" d="M79.43,101.07c-3,0-3,4.6,0,4.6S82.4,101.07,79.43,101.07Z"/><path class="cls-10" d="M70.15,105.25c-2-.8-6.08-.84-6.42,2a11.79,11.79,0,0,0-1.45-.11c-2.38,0-3,3.78-.58,4.26a13.34,13.34,0,0,0,6.39-.27l.35,0a7.36,7.36,0,0,0,1.75.29,1.48,1.48,0,0,0,1.43-2C72.7,108.08,71.75,105.9,70.15,105.25Z"/><path class="cls-10" d="M80.4,100.56a5.32,5.32,0,0,0-2.93.57,3.83,3.83,0,0,0-2,.76,1.82,1.82,0,0,0-.8,2,1.73,1.73,0,0,0,.21.46s0,.08,0,.12c.31,1.09,1.69,1.27,2.56,1.21a26.13,26.13,0,0,0,3.49-.75v0a2.19,2.19,0,0,0,1.56-1.52A2.26,2.26,0,0,0,80.4,100.56Z"/><path class="cls-10" d="M131.07,101.5c-2,0-5.5,0-6.34,2.29-.1.14-.22.28-.32.43-1.15,1.86,1.27,3.62,2.73,2.84a5.39,5.39,0,0,0,.66-.06H128l.62,0a18.85,18.85,0,0,0,3.18-.33C134.68,106,134,101.56,131.07,101.5Z"/><path class="cls-10" d="M111.24,106.33a1.64,1.64,0,0,0-1-1.5,2.81,2.81,0,0,0-2-.8,3.19,3.19,0,0,0-2.14.83,2.09,2.09,0,0,0,0,3,3.19,3.19,0,0,0,2.14.83,3,3,0,0,0,2-.81A1.57,1.57,0,0,0,111.24,106.33Z"/><path class="cls-10" d="M135.56,89.85a41.58,41.58,0,0,1-4.87-1l-.08-.08c-1.09-.81-2.35-1.46-3.65-.12a1.71,1.71,0,0,0,1.65,2.82,48.94,48.94,0,0,0,6.95-1.3C135.71,90.14,135.74,89.87,135.56,89.85Z"/><path class="cls-10" d="M130.25,89a.27.27,0,0,0,0,.53c3,.65,5.95,0,9-.25,0,0,0,0,0,0C136.2,89,133.28,88.36,130.25,89Z"/><path class="cls-10" d="M98.62,87.86c-2.65-1.61-7-1.45-8.46,1.66a.64.64,0,0,0-.06.18c-.15,0-.31,0-.46-.09a.42.42,0,0,0-.32.77,6.69,6.69,0,0,0,4.33,1.28,9.58,9.58,0,0,0,2-.31c.54-.14,1.22-.57,1.71-.5C99.1,91.12,100.32,88.89,98.62,87.86Z"/><path class="cls-10" d="M68.26,90.32A1.4,1.4,0,0,0,67,91.42a.31.31,0,0,0,.38.38,2.75,2.75,0,0,0,.75-.46c.09,0,.2,0,.14-.06.11.06.19.29.23.39.14.3.63.14.62-.17C69.07,91,68.9,90.36,68.26,90.32Z"/><path class="cls-10" d="M62,91.11c-3.07-.3-5.95-1-9.06-.53-1.75.28-6.08,1.09-5.82,3.65.19,1.9,2.37,1.55,3.73,1.21l1.35-.32c3.08,3,8.13,2.24,11.23-.56C64.86,93.28,63.62,91.27,62,91.11Z"/><path class="cls-10" d="M30.42,89a3.26,3.26,0,0,0-2.32.17,2.24,2.24,0,0,0-.57.31.81.81,0,0,0-.18.19l-.06,0a.69.69,0,0,0-.91.55c0-.1,0-.07-.05.08a.65.65,0,0,0,0,.31,1.12,1.12,0,0,0,0,.13,2.93,2.93,0,0,0-.23.47,1.29,1.29,0,0,0,.33,1.25,1.73,1.73,0,0,0,1.36.52l.12,0,.29,0h0a4.44,4.44,0,0,0,2.58-.62,1.79,1.79,0,0,0,.87-1.82A1.87,1.87,0,0,0,30.42,89Z"/><path class="cls-10" d="M148.65,90.23c-1.13-1-2.53-1.88-4.23-1.33a4.07,4.07,0,0,0-3,3.83,1.75,1.75,0,0,0,2.19,1.67,4.49,4.49,0,0,0,1.27-.55c.36-.25.63-.5.86-.64,0,0,.27-.1.43-.16l.27,0,.09,0C148.19,94,150.2,91.62,148.65,90.23Z"/><path class="cls-10" d="M127.49,69c-3.3-1.55-5.6-1.09-9.23-.79-5.56.45-7.84-.78-11.65-4.14-2.48-2.19-5.83-4.8-9.29-5-3-.2-5,1.91-4.55,5,.56,3.81,3.74,3.69,6.35,4.54a31.61,31.61,0,0,0-11.21,3.63A1.9,1.9,0,0,0,87,73.46C77.87,69.89,73,57.16,61.86,60A1.22,1.22,0,0,0,61,61.2a5.84,5.84,0,0,0,2.56,4.54,26.65,26.65,0,0,0,6.57,4,.55.55,0,0,0,.67-.38c.73-4-5-4.08-6.83-6.79C74.35,64.34,78.27,78,90.2,77.28a1.52,1.52,0,0,0,1.33-2.19c4.15-1.19,8.36-2.18,12.47-3.5a1.79,1.79,0,0,0,1-2.6c-1.55-2.6-3.41-2.3-5.84-3.5-2.89-1.43-1.92-2.62.69-1.48a38.6,38.6,0,0,1,3.5,1.81c3.19,1.81,5.88,4.14,9.5,5.12,4.71,1.27,10.08.28,14.53-1.44C127.61,69.43,127.71,69.13,127.49,69Z"/><path class="cls-10" d="M21.25,68.42c-5.6,2.36-14.33.8-15.83-6a.46.46,0,0,0-.89.12c.15,8,11.31,10.41,16.84,6C21.47,68.5,21.34,68.38,21.25,68.42Z"/><path class="cls-10" d="M52.33,72.75c-3.52,1.81-10,2.46-11.69-2A1.77,1.77,0,0,0,39,69.46c-4.24.36-12-10.72-14.86-4-.06.16.22.28.29.12,2.31-5.27,6.73,2.75,8.56,4.47a8.88,8.88,0,0,0,4.89,2.8,8.47,8.47,0,0,0,14.81.19A.24.24,0,0,0,52.33,72.75Z"/><path class="cls-10" d="M30.14,49.9c-1.58,2-4.26,2.35-6.62,2.67a.37.37,0,0,0-.18.68,5.19,5.19,0,0,0,4.55.23c1.51-.6,2-2,2.39-3.49C30.3,49.91,30.19,49.83,30.14,49.9Z"/><path class="cls-10" d="M142.93,51.23c-4.15.24-7.4.52-9-4.33a.81.81,0,0,0-.75-.56c-3.19-.11-3.86-.22-6.46,1.62-1.49,1-2.7,3.18-5,1.17-1-.84-.81-2.48-1.8-3.25-5.89-4.57-8.14,6.35-10.63,7.92-3.25,2.05-5.36-2.42-7.53-3.7s-4.13-.69-6.26.2c-4.6,1.92-7.45,6.71-12,1-2.2-2.79-3.5-3.77-7.24-3.76a1.85,1.85,0,0,0-1.82,1.83c.63,10.53-11.68-.23-16.72,0a1.51,1.51,0,0,0-1.42,1.09c-2.52,9.12-12.81,1.92-18.21-.63a30.35,30.35,0,0,0-7-2,17.28,17.28,0,0,1-2.83-.64c-1.32-.52-3.85-3.36-1.63-4.57,1.39-.76,5.18,4.06,5.72,5.23,0,.06.14,0,.1-.06-1-1.91-4.34-7-7.09-6.27-1.85.48-1.8,3.24-1.19,4.67,1.69,4,7.39,4.22,10.83,5.59,4,1.59,7.4,4.28,11.54,5.63,3.25,1.08,7.34,1.79,10.18-.67,1.12-1,1.59-4.07,2.36-4.57A31.16,31.16,0,0,1,64,53.93c6,2.73,14,5.58,14.14-2.87,3.17.76,6,6.83,10.35,6.34,4.87-.55,4-8.76,10.57-7,3.08.82,4.14,4.94,7.14,6.17s5.52.6,6.81-2.14c.92-1.95,2.24-9.2,5.42-6,.68.69.66,2.06,1.57,2.86a6,6,0,0,0,7.62.14c.76-.72,1-2.48,1.75-3,3.2-2.24,3,2.43,4.3,3.95,2.54,2.86,6.73,2.31,9.7.58A1,1,0,0,0,142.93,51.23Z"/><path class="cls-10" d="M108.82,150.62a21.29,21.29,0,0,1-9.35-1.44,10.09,10.09,0,0,0-4.75-.83c-2.51.36-9.84,5.74-10,.37a1.24,1.24,0,0,0-1.24-1.23c-2.53.12-4.45,1.15-6.88,1.7-4.36,1-6.48-1.3-10.34-1.8-5.17-.68-10.19,3.32-14.27-1.95a1.46,1.46,0,0,0-1.76-.23c-2.64,1.3-7,.69-9.6-.4-.09,0-.23.08-.12.16a15.68,15.68,0,0,0,3.92,2.49c1.64.6,3.47,0,5,.5s2.67,2,4.25,2.67a10.89,10.89,0,0,0,4.74.51c1.6-.12,3.14-.59,4.72-.84,2.92-.44,4.51.24,7.22,1.12,4.55,1.47,7.66-.86,11.92-1.37.52,4,3.88,4.27,7.79,2.9,3.68-1.29,5.57-1.56,9.48-.39,3.49,1.05,6.55,2.1,9.7-.16C110,151.91,109.86,150.52,108.82,150.62Z"/><path class="cls-10" d="M88.05,3.4A5,5,0,0,0,84.4,4.67a1.16,1.16,0,0,0,0,1.59,5,5,0,0,0,3.65,1.27,2.12,2.12,0,0,0,2.07-2.06A2.1,2.1,0,0,0,88.05,3.4Z"/><path class="cls-10" d="M63.57,4.78a1.43,1.43,0,0,0,0,2.85A1.43,1.43,0,0,0,63.57,4.78Z"/><path class="cls-10" d="M107.12,9.9c-.46-1.69-2.25-2-3.77-2.16a10,10,0,0,0-1.9-.1A6.37,6.37,0,0,0,99,8.41c-1.3.6-1,3,.41,3.18.61.09,1.18.28,1.81.32s1.15,0,1.72.08c1.15.16,2.19.71,3.29,0A1.92,1.92,0,0,0,107.12,9.9Z"/><path class="cls-10" d="M74,19.49a1.55,1.55,0,0,0,0,3.1A1.55,1.55,0,0,0,74,19.49Z"/><path class="cls-10" d="M36.62,19.1A2.18,2.18,0,0,0,36.1,23a9.89,9.89,0,0,0,1.19.55c-.54-.22.18.1.48.17s.63.09.95.13a2.45,2.45,0,0,0,2.8-1.95C41.93,19.26,38.54,18.64,36.62,19.1Z"/><path class="cls-10" d="M55.46,8.23a9.86,9.86,0,0,0-1.53-.12,1.06,1.06,0,0,0,0,2.12,8.77,8.77,0,0,0,1.53-.12A1,1,0,0,0,55.46,8.23Z"/><path class="cls-10" d="M67.56,17c-2.47-3.2-8-3.27-11-.7a5.08,5.08,0,0,0-2,1.41A2.35,2.35,0,0,0,55,21.4c3.87,1.91,7.5,1.32,11.4-.1A2.6,2.6,0,0,0,67.56,17Z"/><path class="cls-10" d="M115.49,18.8a1.5,1.5,0,0,0,0,3A1.5,1.5,0,0,0,115.49,18.8Z"/><path class="cls-10" d="M82,4.93c-3.21-3.59-9.58-3.27-12.93,0a2.91,2.91,0,0,0-.75,2.86,2.58,2.58,0,0,0,2.52,2,1.82,1.82,0,0,0,1.2,1.07c3.51,1,6.19,0,9.38-1.43C83.24,8.63,83.12,6.15,82,4.93Z"/><path class="cls-10" d="M83.6,20.21a.83.83,0,0,0,0,1.66A.83.83,0,0,0,83.6,20.21Z"/><path class="cls-10" d="M99,24.28a3.07,3.07,0,0,0-3-2.69,8.16,8.16,0,0,0-3.12,1,4.49,4.49,0,0,0-2.49-.43,2.76,2.76,0,0,0-.73,5.39c.46.19.9.36,1.35.51a1.64,1.64,0,0,0,.56.24,7.49,7.49,0,0,0,2,.14,12.24,12.24,0,0,0,3.21-.72A3.13,3.13,0,0,0,99,24.28Z"/><path class="cls-10" d="M59.13,45.82a2.46,2.46,0,0,0-.73-.62,2.38,2.38,0,0,1-.68-.51c-1-1.11-2.69.57-1.65,1.65.65.67,1.78,1.36,2.72.81C59.33,46.84,59.75,46.13,59.13,45.82Z"/><path class="cls-10" d="M52.71,44.87a1.69,1.69,0,0,0,1.13,2c1.48.53,2.53-.18,4-.3.77-.07,1.52.44,2.34.54a2.26,2.26,0,0,0,.37.11A1.77,1.77,0,0,0,62.67,46C63.59,40.39,53.56,39.91,52.71,44.87Z"/><path class="cls-10" d="M38.7,44a2.12,2.12,0,0,0-1.37-.92,1.72,1.72,0,1,0,0,3.32,2.07,2.07,0,0,0,1.37-.91A1.47,1.47,0,0,0,38.7,44Z"/><path class="cls-10" d="M126.83,37.22a7,7,0,0,0-5.41-.74,5,5,0,0,0-3.14,2.06,3.19,3.19,0,0,0-.79-.37c-1.07-.31-2.39.8-1.94,1.94a4.87,4.87,0,0,0,4.79,2.83,10.37,10.37,0,0,0,3.12-.53c1-.32,2-1.24,2.88-1.45C128.2,40.56,128.17,38.16,126.83,37.22Z"/><path class="cls-10" d="M15.11,38.91l-.29-.27a2.38,2.38,0,1,0,0,3.37l.29-.27A2,2,0,0,0,15.11,38.91Z"/><path class="cls-10" d="M140.84,39c-.72-1.23-2.33-1.69-3.65-1.89a6.75,6.75,0,0,0-3.45.31,4.14,4.14,0,0,0-2.63,2.89,1.93,1.93,0,0,0,1.32,2.33l.35.07a2.79,2.79,0,0,0,2.76,2.6c1.21-.06,2.41-.18,3.61-.36a2.78,2.78,0,0,0,2-2A4.89,4.89,0,0,0,140.84,39Z"/><path class="cls-10" d="M104.22,115.72c-5.73,3.15-11.46,3.74-16.34-1.19a1.92,1.92,0,0,0-2.67,0c-6.12,6-13,1.89-20.15,1.56a.63.63,0,0,0-.54.94c4.56,6.88,15.9,5.9,22,1.35a11.91,11.91,0,0,0,8.64,3.21c4.28-.3,6.47-2.68,9.43-5.41C104.83,116,104.5,115.56,104.22,115.72Z"/><path class="cls-10" d="M151.09,113.52c-2.37.13-4.37,1.56-6.76,1.83-3.56.41-6.48-.57-9.7-1.95a1.21,1.21,0,0,0-1.41.18c-2.93,2.77-8.39,7.69-12,2.34a1.72,1.72,0,0,0-2.31-.61c-3.19,2.09-11.31,5.47-13-.08a0,0,0,0,0,0,0c-3,8.72,8.45,6.31,13.57,3.7,4.31,4.39,10.06.52,14.51-3,4.51,4.16,18.49,6.55,18.15-1.49A1,1,0,0,0,151.09,113.52Z"/><path class="cls-11" d="M145.26,45.14a9.64,9.64,0,0,0-7.89.17c-1.8.94-3,3.53-5.34,3-1.54-.34-3.84-3.39-5.14-4.45a10.89,10.89,0,0,0-5-2.75,10.2,10.2,0,0,0-7.15,1.83c-2.93,2-4,4.18-8,3.59-2.28-.35-4.39-1.76-6.77-1.78-2.8,0-5.18,1.75-7.83,2.37-6.56,1.52-9.93-5.52-16.46-3.36-2.21.73-3.48,2.12-5.24,3.49-3.54,2.75-5.23.75-8.92-.1-3.36-.78-6.23-.76-8.42,1.09A11,11,0,0,1,51.67,45a2.42,2.42,0,0,0-3.53-1.43c-3.16,2-11.24,5.24-13.87,1-1.4-2.27-1.14-4.88-3.68-6.51-5.18-3.33-9.33.68-11,5.29-1-.21-1.95-.4-2.9-.7-2.86-.86-3.81,3.29-1.2,4.36a48.3,48.3,0,0,0,5.18,1.56,2.46,2.46,0,0,0,3.06-2.33c-.05-2.6,1.55-3.75,4.81-3.47a12.13,12.13,0,0,1,.78,2.16,16.66,16.66,0,0,0,.86,2.36,7.18,7.18,0,0,0,4.42,3.53C38.83,52.1,43.93,51,48,49.07a13.88,13.88,0,0,0,3.47,4.61,2.39,2.39,0,0,0,3.73-.48c2.36-4.64,8.53.9,12.4.3,4.62-.73,7-6.37,11.56-5.84S86,52,91.07,51.16c2.84-.47,5.08-2.59,7.89-3.06,2.62-.44,5.1.62,7.65,1.28,3.16.82,5.65.66,8.36-1.29,3.64-2.63,6.17-3.55,9.92-.47a27.11,27.11,0,0,1,3.46,3.74c2.1,2.43,5.06,2.64,8.16,1.82,1.55-.41,3.32-2,4.86-2.1,4-.31,5.84,4.88,8,7.29a2.47,2.47,0,0,0,4.09-1.08C155,52.18,149.77,46.84,145.26,45.14Z"/><path class="cls-11" d="M90.13,116.55c-1.61-5.4-7.68-5.22-12.32-4.51a73.44,73.44,0,0,1-9.89,1.34c-3,.05-5.14-1-7.87-1.78a.72.72,0,0,0-.79.31c-3.37,5.51,5.78,7.32,9.3,7.27a72.14,72.14,0,0,0,10.12-1.27c3.69-.58,7.52.63,11-.59A.63.63,0,0,0,90.13,116.55Z"/><path class="cls-11" d="M33.8,111c-3.69.25-14.87,3.25-12.67,9a1,1,0,0,0,1.16.66c2.42-.34,4-3,6.16-4.14,3-1.5,6.19-1.56,9.45-1.72,1.39-.07,3.91-.54,4.6,1.1,1,2.27-2,4.36-3.7,5a10.13,10.13,0,0,1-5.36.56,11.48,11.48,0,0,1-2.16-.66.65.65,0,0,0-.23-.06l.23-.11a1.69,1.69,0,0,0-.85-3.13c-1.93.06-4.13.94-4,3.26.14,2.17,2.55,3.43,4.34,4.06,4.95,1.75,12.7-.31,14.19-5.95C46.56,112.79,38.31,110.67,33.8,111Z"/><path class="cls-11" d="M97.87,128.73c-1.41-3.1-7.91-3.3-8.8.26a1.27,1.27,0,0,0,.57,1.41c1.42.77,2.6.19,4.08.13.37,0,1.12,0,1.28,0a4.91,4.91,0,0,1,1.57.18c-.19-.12.08.23.1.38a1.66,1.66,0,0,1-.18,1,4.84,4.84,0,0,1-3.06,2,9.31,9.31,0,0,1-7.77-1c-.75-.44-1.71-1.3-1.66-2.26.08-1.43,2.26-1.88,3.32-2.22,0,0,0-.07,0-.07-1.83,0-4.65.79-4.08,3.17s3.25,3.85,5.41,4.34A10,10,0,0,0,97.15,134C98.86,132.45,98.74,130.64,97.87,128.73Z"/><path class="cls-11" d="M130.07,128.6a1.44,1.44,0,0,0-2.6.35c-.3,1.3.27,2.41.09,3.66a2,2,0,0,1-1.16,1.72,10,10,0,0,1-2.56.24,10.61,10.61,0,0,1-2.66-.42,13.41,13.41,0,0,1-5.2-2,5.58,5.58,0,0,1-1.46-1.56c-.29-.51-.36-.74-.17-1.18,0,.11.25-.36.31-.41a3.84,3.84,0,0,1,1.27-.58c1.7-.51,3.5-.7,5.18-1.24a1.59,1.59,0,0,0-.42-3.1c-2.92-.16-6.91,1.14-8.57,3.74-1.22,1.9-.32,4,1.11,5.52a16.28,16.28,0,0,0,2.82,2.08,12.6,12.6,0,0,0,3.49,1.81c2.19.64,5.64.78,7.41-.91C129,134.43,131.33,131.49,130.07,128.6Z"/><path class="cls-11" d="M75.39,155.1a8.59,8.59,0,0,1-4.35.3c-.41-.1-3.3-1.24-2.21-1.5a1.08,1.08,0,0,0-.57-2.08c-1.85.64-6.34,1.61-8,.11-1.36-1.23-3.38.84-2,2,2,1.66,5.33,1.42,8.09.74a3.42,3.42,0,0,0,1.16,1.57c2.38,1.9,6.34,1.88,8.09-.85A.19.19,0,0,0,75.39,155.1Z"/><path class="cls-11" d="M96.21,154.34c-1.66-.11-2.33.93-3.93,1.39a7.4,7.4,0,0,1-6.51-1.37,1.39,1.39,0,0,0-1.69.21c-2.53,3-6.06,2.4-8.48-.19-.12-.13-.41,0-.39.16.58,4.67,6.39,4.65,9.75,2.75,3.56,2.43,12.36,3.53,12.19-2A1,1,0,0,0,96.21,154.34Z"/><path class="cls-11" d="M126.44,17.23a6.1,6.1,0,0,0-3.53-1.84c-2.52-.44-6.38.17-8,2.35a.66.66,0,0,0,.57,1c2.05-.26,3.86-1.16,6-1.12,2.44.06,3.69,1.42,4.47,3.61a.69.69,0,0,0,1.31,0A3.91,3.91,0,0,0,126.44,17.23Z"/><path class="cls-11" d="M114,17.28a16.58,16.58,0,0,0-6.23,1c-3.48,1-5.53-.11-8.86-1.29-3.64-1.28-6.21-.68-9.11,1.3-2.79-3.51-8.47-4.29-11.55-1-3.7-2.76-11.48-1.4-10.9,3.82a.68.68,0,0,0,.84.64c2.61-.76,6.6-5.62,9-1.66a1.37,1.37,0,0,0,2.35,0c1.88-3.69,7.35-2.7,8.85.65a1.26,1.26,0,0,0,1.72.46c5.81-4,8.27-.69,14.27-.49,3.6.12,6.14-2.6,9.62-3.26C114.08,17.37,114.06,17.28,114,17.28Z"/><path class="cls-11" d="M67.28,25.62c-2.9.32-6.11,1.16-7.12-3.09a1,1,0,0,0-1.25-.7c-2.17.74-4.88,2.06-6.44-1.64a1,1,0,0,0-.88-.67,31.12,31.12,0,0,0-4.21-.08.23.23,0,0,0-.22.17c-1.22,4-6.42,6.06-10.27,5.34-3.38-.64-5.05-3.14-6.67-5.84-.55-.92-1.75-.26-1.62.68.95,6.68,11,10.17,15.9,5.29,1.53-1.55,2.6-7,6-3.68.57.55.42,2.26,1.36,3.07,2,1.71,4.66,1.26,6.72,0a5.58,5.58,0,0,0,9.1,2.18A.62.62,0,0,0,67.28,25.62Z"/><g class="cls-12"><path class="cls-13" d="M1.84,97.11A80.06,80.06,0,1,0,146.66,35.65c.3,10.51-2.56,20.69-5.77,30.81C128.69,105,81,131.12,41.9,121.14,28.06,117.61,13.07,108.82,1.84,97.11Z"/></g><g class="cls-14"><path class="cls-13" d="M131.23,18.49c-4.85,7.2-9,14.83-12.47,20C93.12,76.88,43.51,77.46,2,62.65a80,80,0,0,0,29.37,80.92c20.06,10,42.5,11.26,64.5,5.61,26.1-6.7,43.54-23.8,59.37-45.46.78-1.07,1.53-2.13,2.26-3.18.19-.73.4-1.45.57-2.18A80.06,80.06,0,0,0,131.23,18.49Z"/></g><g class="cls-15"><path class="cls-16" d="M74.7,6.21C61,9.59,46.59,12.34,34.63,21.19,23.53,29.4,5.62,46.93,5,61.48c-2,43,50.34,38.49,78.46,24.85,31.14-15.11,61.51-72.19,5.38-76.41Z"/></g><g class="cls-17"><path class="cls-16" d="M70.25,24.75c-6.29-8-21.87-3.36-28.76,1.69A31.18,31.18,0,0,0,33,35.85c-3.65,5.79-5.56,5.13-10.4,9.48-11.69,10.52.46,22,10.2,27.07,14,7.2,31.63,4.62,44.88-3.13,10.41-6.09,30.79-28.55,6.89-32.63C93.26,34.71,84.67,25.75,70.25,24.75Z"/></g><path class="cls-18" d="M158.18,63a1.21,1.21,0,0,0-2.36.32c.13,8.16.46,16.71-1.11,24.77a114.42,114.42,0,0,1-6.79,21.34c-4.83,11.87-11.5,22.1-21.92,29.79-11,8.12-24.94,12.11-38.39,13.51A89.31,89.31,0,0,1,64,152.25c-6.33-1-12.64-4.33-19-4.68a.3.3,0,0,0-.25.45c3.66,5.35,12,7.28,18,8.5a87,87,0,0,0,24.79,1.29c14.65-1.26,29.67-5.57,41.59-14.43,10.48-7.79,17.15-19.83,22.27-31.62C158.24,96.16,163.06,79.72,158.18,63Z"/></g></g></g></svg>