<svg xmlns="http://www.w3.org/2000/svg" viewBox="0 0 302.06 156.08"><defs><style>.cls-1{isolation:isolate;}.cls-2{fill:#e5b883;}.cls-3,.cls-7,.cls-8{fill:#ac2024;mix-blend-mode:multiply;}.cls-3{opacity:0.41;}.cls-4,.cls-5,.cls-6{fill:#ffeacc;}.cls-4{opacity:0.82;}.cls-5{opacity:0.23;}.cls-10,.cls-5,.cls-6,.cls-9{mix-blend-mode:screen;}.cls-6,.cls-8{opacity:0.28;}.cls-7{opacity:0.21;}.cls-9{fill:#ffe4cc;}.cls-10,.cls-9{opacity:0.74;}.cls-10{fill:#edcbae;}</style></defs><title>planet_saturn</title><g class="cls-1"><g id="Layer_2" data-name="Layer 2"><g id="saturn"><circle class="cls-2" cx="149.58" cy="78.04" r="78.03" transform="translate(-11.37 128.63) rotate(-45)"/><circle class="cls-2" cx="149.58" cy="78.04" r="78.03" transform="translate(-11.37 128.63) rotate(-45)"/><path class="cls-3" d="M123.16,105.8c-15.48,1.76-30.17,3-45,3.71a77.89,77.89,0,0,0,25.46,31.58c21.72,5.55,47.07,7.15,55.08-2.94-10.55-.33-21.66-1.47-31.39-5.77,7.69,2.92,35,1.86,40.57-4.74-2.24-.24-4.23-1-6.44-1.35,14.56-2.39,50-3.31,58.27-16.42-8.52-.89-17,5.44-24.84.69,7.31-4.64,18.39-5,28.36-6.86a78.15,78.15,0,0,0,2.77-10c-22.95,4.92-48.67,22.41-69.28,13.29,9.57-4.58,24.08-2,31.31-11-10-2-22.43,5.75-32.28,8.47-15.73,4.35-34.28,10-50.63,8.82C111,112.19,119,109.42,123.16,105.8Z"/><path class="cls-3" d="M76,52c-.18.49-.36,1-.52,1.45,10.42-2.32,24.74-10.9,35.55-13.91,15.16-4.23,30-3.2,45.36-4.37-8.35.57-15,5.87-22,9.28,9.25,1.52,19.23-3.37,28-6,15.73-4.83,31.89-10.13,45.19-12.65-1.16-1.29-2.36-2.52-3.6-3.72-23.6-2-47-.57-70.73,1.86S95.63,42.83,76,52Z"/><path class="cls-3" d="M73.07,93.25c9.53-.37,24.73-6.37,30.42-7.21a196.08,196.08,0,0,1,25.44-2.27,25.92,25.92,0,0,0,9.19,1.4c1.66-.07,3.33-.22,5-.44.55.09,1.1.18,1.64.29l-1.47-.32c11-1.48,22-5.94,31.77-9.93,15.12-6.19,34.66-9.5,49.7-17.59q-.47-1.66-1-3.3a539.82,539.82,0,0,1-59.27,22C157.71,78,145.89,84,137.2,83.4l-3.9-.83c-19.78-8,11.08-22.77,13-10.12-1.39-3.84-13-1.09-10.3,6.23,6.66-.61,16.94-2.37,20.07-8.81-8.52-4.23-27.08-11.37-33.84-.44-3.11,5-1.84,8.81,1.27,11.42-15.37.24-36.51-.07-51.32,7,.17,1.37.38,2.74.63,4.12C72.89,92.42,73,92.83,73.07,93.25Z"/><path class="cls-4" d="M98.48,25.77c-1.94.6-5.13,1.33-8.77,2.25a78.12,78.12,0,0,0-9.44,14.23c5.26-2.19,10.13-4.72,11.55-5.42,10.31-5.13,21.84-10.64,33.35-13.75,16.39-4.42,33.23-2.21,49.55-4.74-5.39-2.53-13.92-1.25-18.66-4.2,9.95-6.62,25.82-.44,39.51.9a78.73,78.73,0,0,0-14.1-8.21c-7.73.09-15.23.68-21,1.15C141.2,9.57,124,16,98.48,25.77Z"/><path class="cls-4" d="M175,79.82c5.35.11,10.76-1.47,16.23-.79-11.48,9.6-33.3,10.45-47.71,11.62-22.36,1.82-46.7,4.75-68.42,10.56l.06.18c25.11.47,52.81-9.66,77.95-6.85-2.87,6.07-13,7-18.62,11.23,11.46,5.32,33.58-9.57,44.52-13.92,14.68-5.83,33.44-10.39,48.46-18.21-.13-2.32-.37-4.66-.71-7C209.35,71,189.19,72.16,175,79.82Z"/><path class="cls-4" d="M183.49,48.19c-2.88,9.79-14.65,7.68-21.92,11.28,6.71,2.11,13.63-3.54,20.15-2.27-2,4.71-8,7.37-12,11.16C181.31,66.92,192,60.88,202,55.24c5.06-2.84,12.1-6.07,18.53-9.79a76.78,76.78,0,0,0-4.07-7.67c-6.51.3-13.37.12-19.89,1.18-10,1.62-19.95,4-29.74,6.53-15.69,4.09-31,4.77-46.41,8.39,2.45.33,4.65,1.65,7,2.16-10.09,12.69-45.58,6.35-55.65,17.6,0,.8-.09,1.6-.11,2.4C109.3,70.82,145.77,50.87,183.49,48.19Z"/><path class="cls-4" d="M189.45,135.67c-7.17-.54-25.5,7.9-29.65,13.16,10,4.51,47.44-14.54,50.83-24.54-8.78-1.84-31.22,7-38.71,12.66,2,.75,3.28,0,5.53-.2Z"/><path class="cls-5" d="M135.62,1.27A78,78,0,0,0,72.81,92c.37,2,.85,4,1.37,6a48.47,48.47,0,0,0,7.36,5.46c27.09,16.44,56.27,10.08,80-8.66,17.72-14,30.68-35.21,30.05-58.34-.41-15.47-6.51-25.53-16-32A77.67,77.67,0,0,0,135.62,1.27Z"/><path class="cls-6" d="M123.94,13.11C92.57,12.48,74.78,64.29,100,82.45,156.66,123.2,185.63-7.12,123.94,13.11Z"/><path class="cls-7" d="M226.35,64.08a77.69,77.69,0,0,0-20.94-40.56c.15.88.29,1.75.4,2.61a88.85,88.85,0,0,1-5.14,42.29c-16.33,43.07-61,65.69-105.2,56a114.4,114.4,0,0,1-11-3.41,78,78,0,0,0,141.89-57Z"/><path class="cls-8" d="M226.35,64.08A78.07,78.07,0,0,0,219.29,43c-2.4,9.87-3.12,20.39-4.6,30.19-2.61,17.31-9.74,26-23.29,37.54-17.17,14.66-39.6,28.05-62.82,27.88-10.15-.08-19.93-2.65-29.64-1.21A78.41,78.41,0,0,0,124.78,152a195.87,195.87,0,0,0,22-.93c38.9-4.06,66.34-27.79,79.9-60.77A78,78,0,0,0,226.35,64.08Z"/><path class="cls-9" d="M190.93,11.93a77.91,77.91,0,0,1,7.95,5.71c37.58-5.54,65.52-1.28,70.67,13.15,7.86,22-40.26,59.3-107.49,83.32S34,139.75,26.11,117.75c-5.19-14.53,14-35.72,47-55.36a79.69,79.69,0,0,1,2.32-8.71C24.9,80.24-6.18,110.9,1,131.1c9.68,27.11,84.69,25.1,167.53-4.49S310.71,51.05,301,23.94C293.67,3.33,248.54-.45,190.93,11.93Z"/><path class="cls-10" d="M161.08,112.44c64.26-23.16,110.09-58.66,102.37-79.29-4.75-12.69-28.65-16.79-61.28-12.69a77,77,0,0,1,6.43,6.6c16.3.16,27.57,4,30.4,11.53,6.27,16.74-30.92,45.55-83.07,64.35S56.45,123.4,50.18,106.66C46.93,98,55.45,86,71.69,73.84q.21-3.8.76-7.5C42.8,84.57,25.83,103.83,30.76,117,38.48,137.66,96.83,135.6,161.08,112.44Z"/></g></g></g></svg>