<svg xmlns="http://www.w3.org/2000/svg" xmlns:xlink="http://www.w3.org/1999/xlink" viewBox="0 0 1917.99 1926.8"><defs><style>.cls-1{fill:none;}.cls-2{fill:#ad82ff;}.cls-3{clip-path:url(#clip-path);}.cls-4{fill:#fff;}.cls-5{fill:#371a45;}.cls-6{opacity:0.35;}.cls-7{opacity:0.7;}.cls-8{fill:#111a28;}</style><clipPath id="clip-path"><circle class="cls-1" cx="947" cy="947" r="947"/></clipPath></defs><title>Asset 1</title><g id="Layer_2" data-name="Layer 2"><g id="Layer_1-2" data-name="Layer 1"><circle id="SVGID" class="cls-2" cx="947" cy="947" r="947"/><g class="cls-3"><path class="cls-4" d="M898.8,1926.8c3.8-1.6,7.6-3.4,11.4-4.8a176.92,176.92,0,0,1,18.6-6.3c14-3.5,28.7-.8,42.8.2,14.5,1.1,28.6-1.9,42.6-5.2a277,277,0,0,1,43.4-7.3c13.4-1.1,25.5-4.1,38.2-8.3,12.4-4.1,24.8-8.2,37.4-11.5,12.8-3.4,25.8-5.8,38.5-9.4,12.9-3.6,25.6-7.7,38.4-11.5,24.7-7.3,49.9-12.7,74.5-20.3s47.4-18.6,71.1-28.5c12.2-5.1,24.4-10.1,36.2-16a375.85,375.85,0,0,0,33.1-19.3l.1-.1V1560.4a202.85,202.85,0,0,0-4.1-40.4,205.42,205.42,0,0,0-200.4-164H633.4c-87.7,0-163,55.9-191.8,133.9a202.51,202.51,0,0,0-12.6,70.6v193.7c.2.1.3.3.5.4,24.6,18.4,51.2,33.8,78.6,47.6,30.2,15.2,61.3,28.7,92.5,41.7,15.8,6.6,31.6,13,47.4,19.5s31.3,13.1,47.4,18.6c31.6,10.7,64.4,18.5,96.7,26.6,33,8.3,66.5,15,100.4,17.9C894.6,1926.5,896.7,1926.7,898.8,1926.8Z"/><path class="cls-5" d="M1409.9,1560.4V1788c5.1-3,10.1-6.2,15.1-9.3,5.2-3.3,10.3-6.6,15.4-10V1560.5c0-121.1-98.5-219.7-219.7-219.7H633.4c-121.1,0-219.7,98.5-219.7,219.7V1742c5.2,4.3,10.3,8.6,15.7,12.6,4.9,3.6,9.8,7.1,14.8,10.5V1560.5c0-104.3,84.9-189.2,189.2-189.2h587.4C1325.1,1371.2,1409.9,1456.1,1409.9,1560.4Z"/><path class="cls-4" d="M392.7,1724.8c12.6,9.4,24.2,20.2,36.8,29.6,24.6,18.4,51.2,33.8,78.6,47.6,30.2,15.2,61.3,28.7,92.5,41.7,15.8,6.6,31.6,13,47.4,19.5s31.3,13.1,47.4,18.6c18.8,6.3,38,11.7,57.3,16.7l160-271.2L560.1,1415.6S443.7,1548,368.4,1708.4C376.6,1713.9,384.9,1719,392.7,1724.8Z"/><path class="cls-4" d="M392.7,1724.8c12.6,9.4,24.2,20.2,36.8,29.6,24.6,18.4,51.2,33.8,78.6,47.6,30.2,15.2,61.3,28.7,92.5,41.7,15.8,6.6,31.6,13,47.4,19.5s31.3,13.1,47.4,18.6c18.8,6.3,38,11.7,57.3,16.7l160-271.2L646.9,1467.7l-86.8-52.1S443.7,1548,368.4,1708.5C376.6,1713.9,384.9,1719,392.7,1724.8Z"/><path class="cls-5" d="M508,1802c30.2,15.2,61.3,28.7,92.5,41.7,15.8,6.6,31.6,13,47.4,19.5s31.3,13.1,47.4,18.6c18.8,6.3,38,11.7,57.3,16.7l160.1-271.2L646.9,1467.7c-40.3,49.7-132.4,171.3-188.5,306.5C474.5,1784.4,491.1,1793.5,508,1802Z"/><path class="cls-5" d="M381.5,1717c62.3-133.3,154.2-248.3,182-281.6L892,1632.6,737.4,1894.4c10.2,2.8,20.5,5.4,30.7,8l165.5-280.3-376.5-226-8.4,9.6c-7,8-119,136.6-193.2,293.8C363.8,1705.8,372.7,1711.3,381.5,1717Z"/><path class="cls-4" d="M1364.8,1810.1c9.2-3.9,18.3-7.8,27.2-12.2a375.85,375.85,0,0,0,33.1-19.3c21.7-13.7,42.5-28.7,64.1-42.5,20.3-13,41.4-24.1,59.5-40.3,9-8.1,16.9-17.3,25.9-25.4s18.5-15.8,26.4-25.1l.1-.1c7.1-11.1,16.5-20.6,25.6-29.9a201.87,201.87,0,0,0,15.3-16.7c4.8-6.2,9.5-12.5,14.4-18.6,14.9-18.7,31.7-35.8,48-53.2L1473.9,1438s16.9,93.1-22.5,93.1c-44.1,0-122.9-103.8-191.7-135l58.4,370.3C1318.1,1766.3,1334.5,1786.8,1364.8,1810.1Z"/><path class="cls-5" d="M1641.9,1598.5l.1-.1-21.3,11.4a62.35,62.35,0,0,1,9,2.3A156,156,0,0,0,1641.9,1598.5Z"/><path class="cls-5" d="M1364.8,1810.1c9.2-3.9,18.3-7.8,27.2-12.2a375.85,375.85,0,0,0,33.1-19.3c5.2-3.3,10.3-6.7,15.5-10.1-95.7-67.3-150-210.4-150-210.4l-12.5-46.3,40.2,254.5C1318.1,1766.3,1334.5,1786.8,1364.8,1810.1Z"/><path class="cls-5" d="M1348.5,1817c2.4-1,4.8-2.1,7.3-3.1,8.5-3.6,17-7.1,25.4-10.9-32.6-23.6-50.7-45.7-51.1-46.3a15.26,15.26,0,0,0-23.8,19.1C1307.8,1777.8,1322.5,1795.8,1348.5,1817Z"/><path class="cls-5" d="M1693,1538.7c7.2-7.6,14.4-15.2,21.5-22.9a11,11,0,0,1,1-1.1L1454,1414l4.8,26.7c4.1,22.9,5.9,62-3.5,73.2a4.19,4.19,0,0,1-4,1.8c-17.8,0-52.6-30.9-83.4-58.1-33.4-29.5-67.8-60.1-102-75.5a15.26,15.26,0,0,0-12.6,27.8c30,13.6,62.7,42.6,94.3,70.6,39.8,35.3,74.3,65.8,103.6,65.8a34.66,34.66,0,0,0,27.4-12.8c14.3-17.1,15.1-48.9,13.4-72.1Z"/><path class="cls-4" d="M898.8,1926.8c3.8-1.6,7.6-3.4,11.4-4.8a176.92,176.92,0,0,1,18.6-6.3c14-3.5,28.7-.8,42.8.2,14.5,1.1,28.6-1.9,42.6-5.2a277,277,0,0,1,43.4-7.3c13.4-1.1,25.5-4.1,38.2-8.3,12.4-4.1,24.8-8.2,37.4-11.5,12.8-3.4,25.8-5.8,38.5-9.4,12.9-3.6,25.6-7.7,38.4-11.5,24.7-7.3,49.9-12.7,74.5-20.3s47.4-18.6,71.1-28.5l5.1-2.1c-6.8-42-14.2-82.1-21.6-119.6-13.2-66.4-26.7-124.7-38.3-171-2.6-10.2-5-19.8-7.4-28.9-14.2-54.6-24-86.3-24-86.3H580.9s-9.9,32-24.1,86.9c-8.4,32.1-18.2,72.2-28.5,118.2q-6,27-12.1,56.7c-8.1,39.2-16.1,81.6-23.6,126.3,5.1,2.8,10.3,5.4,15.5,8.1,30.2,15.2,61.3,28.7,92.5,41.7,15.8,6.6,31.6,13,47.4,19.5s31.3,13.1,47.4,18.6c31.6,10.7,64.4,18.5,96.7,26.6,33,8.3,66.5,15,100.4,17.9C894.6,1926.5,896.7,1926.7,898.8,1926.8Z"/><path class="cls-5" d="M507.8,1801.9c7.4-44.4,15.3-89,23.2-133,10.2-51.4,19.9-103.1,30.5-154.5v-.1a5,5,0,0,0-2.9-5.6,5.08,5.08,0,0,0-6.8,2.5c-11.1,24.4-19.8,49.6-27.9,74.8-4,12.7-7.8,25.3-11.4,38.1s-7.1,25.5-10.3,38.4c-9.7,41-17.9,81.9-24.8,123.1C487.4,1791.3,497.5,1796.7,507.8,1801.9Z"/><path class="cls-5" d="M1346,1818.1c3.2-1.4,6.5-2.8,9.8-4.2,6.6-2.8,13.1-5.5,19.7-8.3l-3.1-18.3c-2.3-12.9-4.9-25.8-7.4-38.7-5-25.8-10.7-51.4-16.7-77-12.1-51.1-25.8-101.8-42.4-151.6h0a5.12,5.12,0,0,0-9.9,2.5C1313.1,1621.2,1330.9,1719.4,1346,1818.1Z"/><path class="cls-4" d="M350.3,1231.1h0a11.83,11.83,0,0,0,10.1-13.3h0L314.2,881.6A11.86,11.86,0,0,0,301,871.5h0a123.54,123.54,0,0,0-105.6,139.2h0l15.7,114.6A123.55,123.55,0,0,0,350.3,1231.1Z"/><path class="cls-5" d="M333.2,1235a126.44,126.44,0,0,1-124.9-109.2l-15.7-114.6a126.34,126.34,0,0,1,108-142.3h0A14.61,14.61,0,0,1,317,881.3h0l46.2,336.2a14.61,14.61,0,0,1-12.4,16.4h0A148.5,148.5,0,0,1,333.2,1235ZM302.6,874.2a6.15,6.15,0,0,0-1.3.1A120.94,120.94,0,0,0,198,1010.5l15.8,114.6a120.82,120.82,0,0,0,136.1,103.3h0a9,9,0,0,0,7.7-10.2L311.4,882A9,9,0,0,0,302.6,874.2Z"/><g class="cls-6"><path class="cls-5" d="M203.7,1071.7l7.4,53.8a123.58,123.58,0,0,0,139.3,105.6,11.83,11.83,0,0,0,10.1-13.3l-12.2-89.4a11.85,11.85,0,0,1-9.7,8.4l-8,1.1A123.44,123.44,0,0,1,203.7,1071.7Z"/></g><path class="cls-5" d="M333.2,1247.5a139,139,0,0,1-137.3-120l-15.7-114.6A138.8,138.8,0,0,1,298.9,856.5a27,27,0,0,1,30.5,23v.1l46.2,336.2a27.12,27.12,0,0,1-23.1,30.5h0A157.47,157.47,0,0,1,333.2,1247.5ZM299.6,887.3a108.28,108.28,0,0,0-89.1,121.5l15.7,114.6a108.34,108.34,0,0,0,118.6,93Z"/><path class="cls-4" d="M1410.5,719.3h0a11.83,11.83,0,0,0-10.1,13.3h0l46.2,336.2a11.83,11.83,0,0,0,13.3,10.1h0a123.54,123.54,0,0,0,105.6-139.2h0l-15.8-114.8A123.54,123.54,0,0,0,1410.5,719.3Z"/><path class="cls-5" d="M1458.2,1081.6a14.63,14.63,0,0,1-14.4-12.6l-46.1-336.1a14.61,14.61,0,0,1,12.4-16.4h0a126.27,126.27,0,0,1,142.3,107.9v.1l15.7,114.6a126.27,126.27,0,0,1-107.9,142.3h-.1A5.84,5.84,0,0,1,1458.2,1081.6ZM1410.9,722a9,9,0,0,0-7.7,10.2l46.2,336.2a9,9,0,0,0,10.1,7.7h.1a120.94,120.94,0,0,0,103.3-136.2l-15.7-114.6C1537.9,759.2,1477,712.9,1410.9,722Z"/><g class="cls-6"><path class="cls-5" d="M1433.8,975.4l12.8,93.3a11.83,11.83,0,0,0,13.3,10.1,123.45,123.45,0,0,0,105.6-139.1v-.1l-6.6-48.3a123.56,123.56,0,0,1-101.7,87.2l-12.3,1.7A11.94,11.94,0,0,1,1433.8,975.4Z"/></g><path class="cls-5" d="M1458.2,1094.1a27.13,27.13,0,0,1-26.8-23.4l-46.2-336.2a27.12,27.12,0,0,1,23.1-30.5h0a138.79,138.79,0,0,1,156.4,118.6h0l15.8,114.6a138.79,138.79,0,0,1-118.6,156.4A11.42,11.42,0,0,1,1458.2,1094.1ZM1416,734l45.2,329.2a108.28,108.28,0,0,0,89.1-121.5l-15.7-114.6A108.28,108.28,0,0,0,1416,734Z"/><g class="cls-6"><path class="cls-5" d="M441.6,1489.8q15.3,16,31.7,30.9c228.4,206.9,575.6,209.6,807.1,6.3,6.1-5.3,12-10.8,17.8-16.4a588.66,588.66,0,0,0,48.2-51.7q13.95-16.8,26.6-34.5a203.84,203.84,0,0,0-152.3-68.4H633.4C545.7,1356,470.5,1411.9,441.6,1489.8Z"/></g><circle class="cls-4" cx="880.3" cy="975.2" r="578.2"/><path class="cls-5" d="M879.2,1556.3c-111.5,0-220.6-32.2-316.2-94.5-130-84.8-219.2-215.1-251.1-366.9s-2.9-307,81.9-437,215-219.2,366.9-251.2c313.5-66,622.2,135.4,688.2,448.8s-135.4,622.2-448.9,688.1A578.38,578.38,0,0,1,879.2,1556.3Zm1.3-1156.6a577.1,577.1,0,0,0-118.7,12.4c-150.4,31.7-279.5,120-363.5,248.7s-112.8,282.5-81.1,432.9,120,279.5,248.7,363.5,282.5,112.8,432.9,81.1c310.5-65.4,510-371.2,444.6-681.7C1386.5,586,1146.7,399.7,880.5,399.7Z"/><g class="cls-6"><path class="cls-5" d="M303.5,1014.8a575.77,575.77,0,0,0,11,79.5C380.3,1406.8,687,1606.8,999.4,1541s512.5-372.4,446.7-684.9q-2.85-13.5-6.3-26.7c19.8,283.5-171.9,545.3-457.8,605.5C678.6,1498.7,380.7,1311.9,303.5,1014.8Z"/></g><path class="cls-5" d="M879.1,1568.9c-113.9,0-225.4-32.9-323-96.6-132.8-86.6-223.9-219.7-256.5-374.8h0c-32.6-155.1-2.9-313.7,83.7-446.4S603,427.2,758.1,394.6c320.2-67.4,635.6,138.3,703,458.5s-138.3,635.6-458.5,703A617.08,617.08,0,0,1,879.1,1568.9Zm1.4-1156.7a566.43,566.43,0,0,0-116.1,12.1C617.2,455.3,491,541.7,408.8,667.6s-110.3,276.3-79.4,423.5h0c31,147.1,117.4,273.4,243.3,355.6s276.4,110.3,423.5,79.4c303.8-63.9,498.9-363.1,434.9-666.8C1375.5,594.4,1141,412.2,880.5,412.2Z"/><path class="cls-5" d="M319.4,1108.4c21.6,111.1,77.8,207.2,156,280.4,58.7,54.9,270.5,129.9,505.5,86.3,217.9-40.4,393.3-195,427.1-267.9,45-97.3,61-207.5,39.4-318.5-57.2-293.9-333.5-366.6-645-305.9S262.1,814.5,319.4,1108.4Z"/><path class="cls-5" d="M835.7,1503.8C654,1503.8,511,1443.1,465,1400c-83.5-78.2-139-178-160.6-288.7-28.1-144.2,8.1-266.7,107.6-364,86.7-84.9,220.7-146.9,387.5-179.4s314.3-25.3,426.6,20.8c128.7,52.9,208.2,152.8,236.3,297.1,21.6,110.7,7.6,224-40.5,327.8-35.5,76.7-212.2,234.6-438.1,276.5A809.72,809.72,0,0,1,835.7,1503.8ZM334.4,1105.5c20.3,104.3,72.7,198.4,151.5,272.2,52.3,49,256.8,126.1,492.3,82.4,212.6-39.4,383.8-189.8,416-259.3,45.3-98,58.6-204.9,38.3-309.2-26-133.5-99.3-226-218-274.7-106.7-43.9-248.2-50.5-409.1-19.1s-289.6,90.6-372,171.3C341.6,858.8,308.4,972,334.4,1105.5Z"/><g class="cls-7"><ellipse class="cls-4" cx="494.93" cy="1032.84" rx="74.2" ry="102.3" transform="translate(-341.23 250.18) rotate(-21.29)"/></g><g class="cls-7"><ellipse class="cls-4" cx="622.81" cy="1214.53" rx="40.3" ry="47" transform="translate(-513.75 458.74) rotate(-29.23)"/></g><g class="cls-6"><path class="cls-8" d="M375.7,812.9c-56.1,79.2-79.3,177.5-56.3,295.5,21.6,111.1,77.8,207.2,156,280.5,58.7,54.9,270.6,129.9,505.6,86.3,83-15.4,159.8-47.3,225-85-290.1,47.4-548.3-44.9-621.1-113.1-99.3-93-170.6-215-198-355.9A579.32,579.32,0,0,1,375.7,812.9Z"/></g><path class="cls-5" d="M317.7,856.5a15.3,15.3,0,0,1-15.3-15.3,15.08,15.08,0,0,1,1.8-7.2c73.8-161.2,251.2-280,487-325.9,237.7-46.3,447.4.1,575.6,127.3l-10.7,10.9-9.6,11.8,9.6-11.8-9.6,11.8-1.2-1.1C1224.4,537,1024.6,493.7,797,538,570.7,582.2,401.1,695,331.6,847.5l-.7,1.5-1.5,2A15,15,0,0,1,317.7,856.5Z"/><g class="cls-7"><path class="cls-4" d="M1354.8,1088.2s34.6-307.7-144.2-392.8-403.5-40.8-395.4-27.5c0,0,260.6,11.8,396.3,189.6C1316.1,994.7,1354.8,1088.2,1354.8,1088.2Z"/></g><path class="cls-5" d="M898.8,1926.8c3.8-1.6,7.6-3.4,11.4-4.8a176.92,176.92,0,0,1,18.6-6.3c14-3.5,28.7-.8,42.8.2,14.5,1.1,28.6-1.9,42.6-5.2a277,277,0,0,1,43.4-7.3c13.4-1.1,25.5-4.1,38.2-8.3,12.4-4.1,24.8-8.2,37.4-11.5,12.8-3.4,25.8-5.8,38.5-9.4,12.9-3.6,25.6-7.7,38.4-11.5,6.5-1.9,13-3.7,19.6-5.4a81.92,81.92,0,0,0-78.8-60.3h-446a81.84,81.84,0,0,0-78.1,57.6c7.1,2.9,14.1,5.8,21.2,8.7,15.7,6.4,31.3,13.1,47.4,18.6,31.6,10.7,64.4,18.5,96.7,26.6,33,8.3,66.5,15,100.4,17.9C894.6,1926.5,896.7,1926.7,898.8,1926.8Z"/><path class="cls-4" d="M898.8,1926.8c3.8-1.6,7.6-3.4,11.4-4.8a176.92,176.92,0,0,1,18.6-6.3c14-3.5,28.7-.8,42.8.2,14.5,1.1,28.6-1.9,42.6-5.2a277,277,0,0,1,43.4-7.3c13.4-1.1,25.5-4.1,38.2-8.3,12.4-4.1,24.8-8.2,37.4-11.5,12.8-3.4,25.8-5.8,38.5-9.4,12.1-3.4,24-7.2,36-10.8v-13a75.48,75.48,0,0,0-75.3-75.3H721a75.56,75.56,0,0,0-75.4,75.3h0v11.8c.8.3,1.6.7,2.4,1,15.7,6.4,31.3,13.1,47.4,18.6,31.6,10.7,64.4,18.5,96.7,26.6,33,8.3,66.5,15,100.4,17.9C894.6,1926.5,896.7,1926.7,898.8,1926.8Z"/><path class="cls-4" d="M898.8,1926.8c3.8-1.6,7.6-3.4,11.4-4.8a176.92,176.92,0,0,1,18.6-6.3c14-3.5,28.7-.8,42.8.2,14.5,1.1,28.6-1.9,42.6-5.2a277,277,0,0,1,43.4-7.3c13.4-1.1,25.5-4.1,38.2-8.3,12.4-4.1,24.8-8.2,37.4-11.5,12.8-3.4,25.8-5.8,38.5-9.4,12-3.4,24-7.2,35.9-10.7v-13.1a75.54,75.54,0,0,0-75.3-75.3H721a75.5,75.5,0,0,0-75.4,75.3v11.8c.8.3,1.6.7,2.4,1,15.7,6.4,31.3,13.1,47.4,18.6,31.6,10.7,64.4,18.5,96.7,26.6,33,8.3,66.5,15,100.4,17.9C894.6,1926.5,896.7,1926.7,898.8,1926.8Z"/><path class="cls-5" d="M1192.5,1850.4v17.7c5.9-1.8,11.7-3.6,17.6-5.3q6.45-2,12.9-3.6v-8.7a90.78,90.78,0,0,0-90.6-90.6H721a90.78,90.78,0,0,0-90.6,90.6v5.6c5.9,2.4,11.8,4.8,17.6,7.2,4.3,1.8,8.6,3.5,12.9,5.3v-18.1a60.09,60.09,0,0,1,60.1-60.1h411.5A59.92,59.92,0,0,1,1192.5,1850.4Z"/><path class="cls-5" d="M1057.7,1903.4c1.6-.1,3.2-.3,4.8-.5.1-1.5.2-3.1.2-4.6V1775a15.3,15.3,0,1,0-30.6,0v123.3a41.41,41.41,0,0,1-.9,8.7A252.27,252.27,0,0,1,1057.7,1903.4Z"/><path class="cls-4" d="M1641.9,1598.5c4.8-6.2,9.5-12.5,14.4-18.6,18-22.5,38.7-42.8,58.2-64.1,9.1-10,18.4-19.7,25-31.6,6-10.7,10.4-22.1,16-33a132.15,132.15,0,0,1,7.1-12.1l-22.1-29.2-31-49.9-37.1-11.2c-29.1-53.1-91.2-113.3-126.8-92.1-.1,0-110.9,93.8-79.8,222.7,24.9,103.5,105,128.7,165.6,131A131.39,131.39,0,0,0,1641.9,1598.5Z"/><path class="cls-4" d="M1758.6,1467.7c-5.1,11.1-10.1,22.4-17.3,32.3-7.8,10.6-17.2,20.2-26.1,29.8-19.4,20.9-39.6,41.3-57.1,63.9-4.3,5.6-8.4,11.5-12.9,16.8h0c20.9-.3,38.4-3.1,48.9-5.7,49.8-12.1,80.8-44.3,98.1-69.4.8-1.5,1.6-3.1,2.4-4.6,5-9.8,9.6-20.1,14.7-30l-40.1-53C1765.4,1454.3,1761.8,1460.9,1758.6,1467.7Z"/><path class="cls-5" d="M1701.1,1530.2c4.5-4.8,9-9.6,13.4-14.4,9.1-10,18.4-19.7,25-31.6,6-10.7,10.4-22.1,16-33,5.8-11.3,13.6-21.3,20.1-32.2,2.2-3.8,4.4-7.6,6.4-11.5-46.7-27.7-120.4-48.7-151.1-48.7a84.31,84.31,0,0,0-84.3,84.3c0,46.6,38.1,78.9,84.3,84.3C1657.1,1530.5,1680.4,1531.3,1701.1,1530.2Z"/><path class="cls-4" d="M1890.6,1142.6c-5.2,18-10,36.2-15.2,54.2-5.5,19.2-10.3,38.6-17.7,57.2q-2.55,6.45-4.8,12.9c45.4-51.1,83.6-108.6,55.5-135.2a37.56,37.56,0,0,0-12.6-7.9C1894.2,1130.2,1892.4,1136.4,1890.6,1142.6Z"/><path class="cls-4" d="M1847.4,1253c7.7-19.2,12.7-39,18.3-58.8,5.3-18.6,10.3-37.2,15.7-55.8,1.6-5.5,3.2-11,4.6-16.6-68.3-5.7-187.2,152.8-187.2,152.8s62-246.9-31.7-252.7c-52.1-3.2-68.2,121.9-73.1,206.2-2.5,42.6-2.1,74.8-2.1,74.8l65.3,159.5,96.8-99s30.2-25.5,64.7-60.1c6-6,12.2-12.4,18.3-18.9A268.45,268.45,0,0,1,1847.4,1253Z"/><g class="cls-6"><path class="cls-5" d="M1818.6,1303.2c-34.5,34.6-64.7,60.1-64.7,60.1l-96.8,99-65.3-159.5s-.4-32.2,2.1-74.8c25.1,19.9,72,55.9,88.4,77.4C1710.6,1342.5,1780.7,1295.9,1818.6,1303.2Z"/></g><path class="cls-5" d="M1833.7,1297.6a277,277,0,0,1,13.7-44.6c.7-1.9,1.5-3.7,2.2-5.6-32.6,38.2-73.9,77.6-105.4,104.3-.4.3-.7.7-1.1,1l-80.5,82.4-55.4-135.3h0c-.4-61.8,6.9-220.2,45.5-256.9,5.9-5.6,10.5-6,13.5-5.8,9.3.6,16.3,4.5,21.9,12.2,31.5,43.1,7.7,174.6-4.1,221.6a15.26,15.26,0,0,0,27,12.9c29.5-39.3,117.4-142.4,168.4-146.8a18.48,18.48,0,0,1,2.3-.1c2.8-9.8,5.7-19.9,7.3-30a56,56,0,0,0-12.3-.2c-48.7,4.2-110.9,65.1-150.9,110.7,9.6-59.3,16.6-145.1-13.3-186-11-15-26.4-23.5-44.7-24.7-13.2-.8-25.9,4.1-36.5,14.1-55.9,53.1-55.2,259-54.9,282.3a15.51,15.51,0,0,0,1.1,5.6l65.3,159.5a15.21,15.21,0,0,0,25,4.9l96.2-98.4c7.8-6.6,35.5-30.5,66.4-61.6C1831.4,1307.4,1832.7,1301.9,1833.7,1297.6Z"/><path class="cls-4" d="M1638.4,1404.7c6.6,31.5,44,43,44,43s-.8.6-2.2,1.9c-8.7,7.7-39.5,38.2-8.7,62.1,8.8,6.8,21.1,10.9,35.1,12.7l8-8.6c9.1-10,18.4-19.7,25-31.6,6-10.7,10.4-22.1,16-33,5.8-11.3,13.6-21.3,20.1-32.2a252.29,252.29,0,0,0,17.2-35c4.8-12.1,9.4-24.6,15.9-35.7-7.5-4.7-17.9-8.5-32.1-10.8-44.1-7.1-141.3,24.3-139,60.7A23.57,23.57,0,0,0,1638.4,1404.7Z"/><path class="cls-5" d="M1682.3,1447.7s-.8.6-2.2,1.9c31.9-1.3,62.1-8.9,87.2-17.6,2.8-4.3,5.7-8.5,8.3-12.9a245,245,0,0,0,11.9-22.7c-54.7,24.9-121.5,14.4-149.2,8.4C1644.9,1436.2,1682.3,1447.7,1682.3,1447.7Z"/><path class="cls-5" d="M1671.4,1511.6c8.8,6.8,21.1,10.9,35.1,12.7l8-8.6c6.5-7.1,13.1-14.1,18.8-21.9-26.3,2.1-51.7-1.7-66.6-13.3a50.39,50.39,0,0,1-5.9-5.4C1656,1486.6,1656.3,1499.9,1671.4,1511.6Z"/><path class="cls-5" d="M1656.7,1452.2c-7.2,9.3-13.9,21.7-13.9,35.5,0,9.6,3.4,23.6,19.3,35.9,8.3,6.5,19.2,11.1,31.9,14,6.9-7.3,13.8-14.5,20.5-21.9,1.7-1.9,3.5-3.8,5.2-5.7-16.7-.6-30.8-4.2-38.9-10.5-6.7-5.2-7.5-9.2-7.5-11.8-.1-10,12.4-23.2,18.4-28a15.3,15.3,0,0,0-4.9-26.6c-.3-.1-32.5-10.6-34.1-35.8-.2-3,2.5-7.3,7.5-11.8,21.6-19.7,70.8-33.8,102-33.8h0a79.46,79.46,0,0,1,11.9.9c9.2,1.5,20.1,4.3,27.6,9.4,4.2-9.4,9.1-18.4,15.7-26.2-9.9-6.3-22.7-10.8-38.5-13.4-36.4-5.8-106.6,10.9-139.2,40.4-15.4,14-18,27.5-17.4,36.3C1624,1426.2,1641.7,1442.8,1656.7,1452.2Z"/><path class="cls-5" d="M1681.5,1462.9c4.4.3,8.8.4,13.1.4a255.35,255.35,0,0,0,58.5-7.1c.8-1.7,1.6-3.3,2.4-5,5.8-11.3,13.6-21.3,20.1-32.2a25.29,25.29,0,0,1,1.3-2.2c-22.4,8.5-56.3,17.8-93.6,15.6h-.7a15.26,15.26,0,1,0-1.1,30.5Z"/><path class="cls-4" d="M1545.6,1256.7c47.3-28.2,141.1,87,142.8,138.8,1.3,39.5-45.4,72.4-101.3,22C1530.4,1366.5,1471.3,1301.1,1545.6,1256.7Z"/><path class="cls-4" d="M1641.9,1598.5c4.8-6.2,9.5-12.5,14.4-18.6s9.7-11.8,14.8-17.5l-118.7-68.3c55.3-43.1,29.4-106.2,29.4-106.2,49.1,69.5,107.8,47.1,106.5,7.6-1.7-51.8-95.5-167-142.8-138.8,0,0-110.8,93.8-79.8,222.7,25,103.5,105,128.7,165.6,131A118.68,118.68,0,0,0,1641.9,1598.5Z"/><path class="cls-4" d="M1578.2,1463.8l-2.6-1.5a62,62,0,0,0,5.4-4.6A55.12,55.12,0,0,1,1578.2,1463.8Z"/><g class="cls-6"><path class="cls-5" d="M1584,1376.2c-6.9-25.5,66.3,39.4,104.4,22.7-1.8,32-44,50.7-86.2,12.3C1599.7,1390.7,1584,1376.2,1584,1376.2Z"/></g><path class="cls-5" d="M1641.9,1598.5c4.8-6.2,9.5-12.5,14.4-18.6.3-.4.6-.7.9-1.1-60.9-1.7-143-26-168.3-131.1-16.1-66.9,6-124.3,31-164.1-30.7,36.7-75.2,108.2-54.1,195.8,24.9,103.5,105,128.7,165.6,131A131.39,131.39,0,0,0,1641.9,1598.5Z"/><path class="cls-5" d="M1526.3,1583a66.63,66.63,0,0,1-23.4-10,87,87,0,0,1-18.9-16.9,136.33,136.33,0,0,1-24.8-43.7c-10.6-31.2-16.3-64.5-13.2-97.7,2.9-33.1,13.8-64.8,29.5-93.2a294.76,294.76,0,0,1,26.8-40.4c5-6.4,10.2-12.5,15.7-18.5,2.8-3,5.5-5.9,8.4-8.8s5.7-5.6,9.3-8.7a8.32,8.32,0,0,1,1.8-1.3l.3-.2c9.8-5.9,21.8-7.4,31.7-6a82,82,0,0,1,26.4,8.7,141.3,141.3,0,0,1,21.4,13.7,187.8,187.8,0,0,1,18.5,16,284,284,0,0,1,31.4,36.2,255.42,255.42,0,0,1,24.9,41.4,144.66,144.66,0,0,1,8.8,23.8,79.34,79.34,0,0,1,2.5,13.6l.3,3.7c0,1.3-.1,2.7-.2,4-.2,2.7-.1,5.3-.8,7.9-1.8,10.7-7.9,20.7-16,27.8a52.81,52.81,0,0,1-28.4,12.8,37.84,37.84,0,0,1-7.5.5,61,61,0,0,1-7.4-.2c-4.8-.7-9.7-1.3-14-2.9-2.2-.7-4.5-1.4-6.7-2.2l-6.2-2.9a79.9,79.9,0,0,1-11.6-6.8c-14.6-10-25.8-22.7-35.6-36l26.6-14.6a90.55,90.55,0,0,1,2.9,8.8,82.69,82.69,0,0,1,1.9,8.3,125.66,125.66,0,0,1-.3,50.9c-1,5.8-3.2,11.3-5.5,16.7-1.4,2.6-2.9,5.1-4.4,7.7s-3.6,4.7-5.3,7a47.1,47.1,0,0,1-29.6,16.7,5.92,5.92,0,0,1-6.6-5h0a5,5,0,0,1,.1-2.1l.2-.9c1.4-5.8,3.7-9.9,5.4-14.2s3.8-7.9,5.4-11.8a172,172,0,0,0,9.3-22.1,60.8,60.8,0,0,0,3.1-24.3,104.17,104.17,0,0,0-1.6-12.5c-.4-2.1-.9-4.1-1.4-6.1s-1.3-4.2-1.7-5.3l-.1-.2a15.31,15.31,0,0,1,26.7-14.4c8.2,11.1,17.3,21.2,27.8,28.4,10.3,7,22.1,11.2,31.9,9.6a22.84,22.84,0,0,0,12.4-5.4,18,18,0,0,0,6.2-10.7c.4-1,.1-2.2.3-3.3l.2-1.7-.2-2a53.13,53.13,0,0,0-1.6-8.7,113.77,113.77,0,0,0-7-18.7c-11.9-25-29.7-48.9-49.8-68.6-10.1-9.8-21.2-18.6-32.6-24.5a52.24,52.24,0,0,0-16.4-5.6c-5.1-.6-8.9,0-12.2,1.9l2-1.5c-2.2,1.9-5,4.6-7.5,7.1s-5,5.2-7.5,7.8c-4.9,5.3-9.6,10.9-14.1,16.7a265.76,265.76,0,0,0-24.1,36.3c-14,25.3-23.3,53-25.8,81.3a170.6,170.6,0,0,0,13,83.2,269.62,269.62,0,0,0,19.3,36.9c7.5,11.7,15.4,22.9,23.5,37.1v.1a5.56,5.56,0,0,1-2.1,7.6,5.1,5.1,0,0,1-3.8.6Z"/><path class="cls-5" d="M1419.4,1782.2l5.7-3.6c4.8-3,9.5-6.1,14.3-9.3-39.7-131.7,21-231.1,21.7-232.3a11.46,11.46,0,0,0-19.4-12.2c-2.8,4.4-67.9,110.2-23.5,253.6C1418.6,1779.7,1419,1780.9,1419.4,1782.2Z"/></g></g></g></svg>