<svg xmlns="http://www.w3.org/2000/svg" viewBox="0 0 1320.18 685.52"><defs><style>.cls-1{fill:#f6fbf7;stroke:#413eff;stroke-miterlimit:10;stroke-width:0.5px;}.cls-2{fill:#f64c50;}</style></defs><title>starts</title><g id="Layer_2" data-name="Layer 2"><g id="starts"><path class="cls-1" d="M54.89,21.28a4.61,4.61,0,1,1-4.6-4.6A4.6,4.6,0,0,1,54.89,21.28Z"/><path class="cls-1" d="M590.61,312.48a4.6,4.6,0,1,1-4.6-4.6A4.6,4.6,0,0,1,590.61,312.48Z"/><path class="cls-1" d="M1085.59,495.22a4.61,4.61,0,1,1-4.61-4.6A4.6,4.6,0,0,1,1085.59,495.22Z"/><path class="cls-1" d="M453.89,23.91a4.6,4.6,0,1,1-4.6-4.6A4.6,4.6,0,0,1,453.89,23.91Z"/><path class="cls-1" d="M1301.85,342.72a4.6,4.6,0,1,1-4.6-4.6A4.6,4.6,0,0,1,1301.85,342.72Z"/><circle class="cls-1" cx="1066.52" cy="4.85" r="4.6"/><path class="cls-1" d="M242.06,280.27a3.12,3.12,0,1,1-3.12-3.12A3.12,3.12,0,0,1,242.06,280.27Z"/><path class="cls-1" d="M15.45,576.73a3.13,3.13,0,1,1-3.12-3.12A3.12,3.12,0,0,1,15.45,576.73Z"/><path class="cls-1" d="M370.9,500a3.12,3.12,0,1,1-3.12-3.12A3.12,3.12,0,0,1,370.9,500Z"/><path class="cls-1" d="M52.26,206a3.13,3.13,0,1,1-3.12-3.13A3.12,3.12,0,0,1,52.26,206Z"/><circle class="cls-1" cx="610.99" cy="35.91" r="3.12"/><path class="cls-1" d="M1201.77,110a3.13,3.13,0,1,1-3.12-3.12A3.13,3.13,0,0,1,1201.77,110Z"/><path class="cls-1" d="M379.94,298.84a1.65,1.65,0,1,1-1.64-1.64A1.65,1.65,0,0,1,379.94,298.84Z"/><path class="cls-1" d="M532.44,456.77a1.65,1.65,0,1,1-1.64-1.65A1.64,1.64,0,0,1,532.44,456.77Z"/><path class="cls-1" d="M807.21,292.43a1.65,1.65,0,1,1-1.65-1.64A1.65,1.65,0,0,1,807.21,292.43Z"/><path class="cls-1" d="M1044.83,645.09a1.65,1.65,0,1,1-1.64-1.64A1.64,1.64,0,0,1,1044.83,645.09Z"/><path class="cls-1" d="M1319.93,491a1.65,1.65,0,1,1-1.65-1.64A1.64,1.64,0,0,1,1319.93,491Z"/><path class="cls-1" d="M736.21,496.21a1.64,1.64,0,1,1-1.64-1.65A1.63,1.63,0,0,1,736.21,496.21Z"/><path class="cls-1" d="M57.52,370.33a3.13,3.13,0,1,1-3.13-3.12A3.13,3.13,0,0,1,57.52,370.33Z"/><path class="cls-1" d="M892.33,178.39a3.12,3.12,0,1,1-3.12-3.12A3.12,3.12,0,0,1,892.33,178.39Z"/><circle class="cls-1" cx="1190.76" cy="599.9" r="3.12"/><circle class="cls-2" cx="1269.64" cy="60.07" r="4.6"/><path class="cls-2" d="M729.31,351.27a4.6,4.6,0,1,0,4.6-4.61A4.6,4.6,0,0,0,729.31,351.27Z"/><path class="cls-2" d="M234.34,534a4.6,4.6,0,1,0,4.6-4.6A4.6,4.6,0,0,0,234.34,534Z"/><path class="cls-2" d="M866,62.7a4.6,4.6,0,1,0,4.6-4.6A4.6,4.6,0,0,0,866,62.7Z"/><path class="cls-2" d="M18.08,381.5a4.6,4.6,0,1,0,4.6-4.6A4.6,4.6,0,0,0,18.08,381.5Z"/><path class="cls-2" d="M248.8,43.63a4.6,4.6,0,1,0,4.6-4.6A4.6,4.6,0,0,0,248.8,43.63Z"/><path class="cls-2" d="M1077.86,319.06a3.13,3.13,0,1,0,3.12-3.13A3.12,3.12,0,0,0,1077.86,319.06Z"/><path class="cls-2" d="M1304.48,615.51a3.12,3.12,0,1,0,3.12-3.12A3.13,3.13,0,0,0,1304.48,615.51Z"/><circle class="cls-2" cx="952.15" cy="538.77" r="3.12"/><path class="cls-2" d="M1267.67,244.78a3.12,3.12,0,1,0,3.12-3.12A3.12,3.12,0,0,0,1267.67,244.78Z"/><path class="cls-2" d="M705.81,74.69a3.13,3.13,0,1,0,3.12-3.12A3.13,3.13,0,0,0,705.81,74.69Z"/><path class="cls-2" d="M118.16,148.81a3.12,3.12,0,1,0,3.12-3.12A3.12,3.12,0,0,0,118.16,148.81Z"/><path class="cls-2" d="M940,337.63a1.64,1.64,0,1,0,1.64-1.65A1.64,1.64,0,0,0,940,337.63Z"/><path class="cls-2" d="M787.49,495.55a1.64,1.64,0,1,0,1.64-1.64A1.63,1.63,0,0,0,787.49,495.55Z"/><circle class="cls-2" cx="514.36" cy="331.22" r="1.64"/><path class="cls-2" d="M275.09,683.88a1.65,1.65,0,1,0,1.65-1.65A1.65,1.65,0,0,0,275.09,683.88Z"/><path class="cls-2" d="M0,529.73a1.65,1.65,0,1,0,1.64-1.64A1.65,1.65,0,0,0,0,529.73Z"/><path class="cls-2" d="M583.71,535a1.65,1.65,0,1,0,1.65-1.64A1.64,1.64,0,0,0,583.71,535Z"/><path class="cls-2" d="M1262.41,409.11a3.12,3.12,0,1,0,3.12-3.12A3.12,3.12,0,0,0,1262.41,409.11Z"/><path class="cls-2" d="M427.6,217.17a3.12,3.12,0,1,0,3.12-3.12A3.12,3.12,0,0,0,427.6,217.17Z"/><path class="cls-2" d="M126,638.69a3.13,3.13,0,1,0,3.13-3.13A3.13,3.13,0,0,0,126,638.69Z"/></g></g></svg>