<svg xmlns="http://www.w3.org/2000/svg" viewBox="0 0 30.44 43.47"><defs><style>.cls-1{fill:#fff;}</style></defs><title>icon_location</title><g id="Layer_2" data-name="Layer 2"><g id="build"><g id="location"><path class="cls-1" d="M15.36,9.53a5.56,5.56,0,1,0,5.56,5.55A5.56,5.56,0,0,0,15.36,9.53Zm0,9.52a4,4,0,1,1,4-4A4,4,0,0,1,15.36,19.05Z"/><path class="cls-1" d="M26,4.46a15.22,15.22,0,0,0-21.53,0C-.86,9.78-1.52,19.79,3,25.85L15.22,43.47,27.4,25.88C32,19.79,31.31,9.78,26,4.46ZM26.11,25,15.22,40.68,4.32,24.93C.19,19.42.78,10.38,5.58,5.58a13.65,13.65,0,0,1,19.29,0C29.67,10.38,30.26,19.42,26.11,25Z"/></g></g></g></svg>