<svg xmlns="http://www.w3.org/2000/svg" viewBox="0 0 29.14 29.14"><defs><style>.cls-1{fill:none;stroke:#fff;stroke-linecap:round;stroke-miterlimit:10;}.cls-2{fill:#fff;}</style></defs><title>icon_neptune</title><g id="Layer_2" data-name="Layer 2"><g id="artwork"><circle class="cls-1" cx="14.57" cy="14.57" r="14.07"/><path class="cls-1" d="M2.17,8.51h0a12.57,12.57,0,0,0,4.73-1A12.64,12.64,0,0,0,13,2h0A16,16,0,0,1,13.78.5"/><path class="cls-1" d="M.88,12.46h0a22.9,22.9,0,0,0,2.33.13,22.07,22.07,0,0,0,6-.83h0A16.72,16.72,0,0,0,17.88,6a15,15,0,0,1,3.6-3.28"/><path class="cls-1" d="M4.39,24.24A17,17,0,0,1,6.82,25h0a18.72,18.72,0,0,0,6.73,1.25,18.83,18.83,0,0,0,5.62-.86l4.74-1.5c.47-.14.95-.27,1.43-.38"/><path class="cls-1" d="M1.53,19.54a13,13,0,0,1,3.79,1.13h0a15.05,15.05,0,0,0,6.39,1.43h.36a15.11,15.11,0,0,0,6.67-1.74h0a24,24,0,0,1,9.36-2.7"/><path class="cls-1" d="M.78,16.31H.91a17,17,0,0,1,3.63.4h0a18.53,18.53,0,0,0,4,.45A18.52,18.52,0,0,0,21.39,12a17.82,17.82,0,0,1,5.5-3.6"/><ellipse class="cls-2" cx="25.61" cy="12.27" rx="0.92" ry="0.93"/><ellipse class="cls-2" cx="17.98" cy="10.13" rx="0.92" ry="0.93"/><ellipse class="cls-2" cx="15.19" cy="3.67" rx="0.92" ry="0.93"/></g></g></svg>