<svg xmlns="http://www.w3.org/2000/svg" xmlns:xlink="http://www.w3.org/1999/xlink" viewBox="0 0 97 50.89"><defs><style>.cls-1{fill:none;}.cls-2{clip-path:url(#clip-path);}.cls-3{fill:#fff;}</style><clipPath id="clip-path" transform="translate(-20 -17.42)"><rect class="cls-1" width="121" height="84"/></clipPath></defs><title>icon_wind</title><g id="Layer_2" data-name="Layer 2"><g id="build"><g id="last_day_data" data-name="last day data"><g class="cls-2"><path class="cls-3" d="M112.7,26.78a22.8,22.8,0,0,0-12.87-8.7,21.34,21.34,0,0,0-5.31-.66A18.23,18.23,0,0,0,76.2,33.2a15,15,0,0,0,5.66,14.19,14.79,14.79,0,0,0,8.78,2.9A12,12,0,0,0,97,48.61c4.82-2.9,6.94-9.22,4.72-14.1a9.62,9.62,0,0,0-6-5.15,9.14,9.14,0,0,0-2.3-.38l-.09,1.76a7,7,0,0,1,1.86.38,7.63,7.63,0,0,1,4.54,4.29,7.38,7.38,0,0,1,.58,3,9.78,9.78,0,0,1-.59,3.19,9.61,9.61,0,0,1-4.1,4.83c-3.31,2-8.59,1.4-12-1.35a12.17,12.17,0,0,1-4.31-11.47,14.93,14.93,0,0,1,7-10.62,14.75,14.75,0,0,1,6.09-2.14,17.15,17.15,0,0,1,3.32-.05,21.43,21.43,0,0,1,3.3.56,19.56,19.56,0,0,1,10.87,7.47,19.18,19.18,0,0,1,3.69,12.75,24.62,24.62,0,0,1-4.39,12.91,25.37,25.37,0,0,1-10.69,8.73,25.94,25.94,0,0,1-6.73,1.84,40.53,40.53,0,0,1-5.23.28l-56.84.76L20,66.5l0,1.75,64.24,0h3.6a37,37,0,0,0,4.19-.19,28.84,28.84,0,0,0,7.58-2,28.47,28.47,0,0,0,12.14-9.73A28.1,28.1,0,0,0,117,41.73,23,23,0,0,0,112.7,26.78Z" transform="translate(-20 -17.42)"/><path class="cls-3" d="M54.42,62.1h.72l1.75,0h1.42a22.6,22.6,0,0,0,3.37-.21A14.58,14.58,0,0,0,73.76,45.55a11.87,11.87,0,0,0-10.18-9.8,9.73,9.73,0,0,0-7.23,1.81A9.52,9.52,0,0,0,52.6,44a7.66,7.66,0,0,0,9.7,8.61A6.26,6.26,0,0,0,66,49l-1.59-.74a4.31,4.31,0,0,1-2.83,2.25,4.74,4.74,0,0,1-1.08.13,5.23,5.23,0,0,1-3.74-1.58,5.14,5.14,0,0,1-1.33-4.77,7.18,7.18,0,0,1,2.75-4.23A6.36,6.36,0,0,1,63.16,39a8.5,8.5,0,0,1,7.13,7.17,11.1,11.1,0,0,1-3.93,10.2,11.3,11.3,0,0,1-5.24,2.46,15.07,15.07,0,0,1-2.47.2l-33.74.89c-1.6.14-3.25.26-4.91.38l.06,1.76Z" transform="translate(-20 -17.42)"/></g></g></g></g></svg>