<?xml version="1.0" encoding="utf-8"?>
<!-- Generator: Adobe Illustrator 23.0.2, SVG Export Plug-In . SVG Version: 6.00 Build 0)  -->
<svg version="1.1" id="Layer_1" xmlns="http://www.w3.org/2000/svg" xmlns:xlink="http://www.w3.org/1999/xlink" x="0px" y="0px"
	 viewBox="0 0 43 43" style="enable-background:new 0 0 43 43;" xml:space="preserve">
<style type="text/css">
	.st0{fill:none;stroke:#FFFFFF;stroke-linecap:round;stroke-miterlimit:10;}
</style>
<title>icon_solarsystem</title>
<g>
	<g id="artwork">
		<circle class="st0" cx="21.5" cy="21.5" r="4"/>
		<path class="st0" d="M29.7,15.8c3.2,4.5,2,10.8-2.5,13.9s-10.8,2-13.9-2.5s-2-10.8,2.5-13.9c2.5-1.7,5.6-2.2,8.5-1.4"/>
		<path class="st0" d="M6.8,26.9c-3-8.1,1.1-17.2,9.3-20.2S33.2,7.9,36.2,16S35.1,33.2,27,36.2c-5.3,2-11.3,0.9-15.6-2.7"/>
		<path class="st0" d="M9.2,4.5c3.5-2.7,7.9-4.1,12.3-4c11.6,0,21,9.4,21,21s-9.4,21-21,21s-21-9.4-21-21c0-3.7,1-7.4,2.9-10.6"/>
		<circle class="st0" cx="6.7" cy="6.7" r="3.2"/>
		<circle class="st0" cx="8.2" cy="29.5" r="2.3"/>
		<circle class="st0" cx="28.2" cy="14.2" r="2"/>
		<line class="st0" x1="21.5" y1="25.5" x2="21.5" y2="26.8"/>
		<line class="st0" x1="21.5" y1="16.2" x2="21.5" y2="17.5"/>
		<line class="st0" x1="24.4" y1="24.4" x2="25.3" y2="25.3"/>
		<line class="st0" x1="17.7" y1="17.7" x2="18.5" y2="18.5"/>
		<line class="st0" x1="25.6" y1="21.5" x2="26.8" y2="21.5"/>
		<line class="st0" x1="16.2" y1="21.5" x2="17.5" y2="21.5"/>
		<line class="st0" x1="24.3" y1="18.7" x2="25.3" y2="17.7"/>
		<line class="st0" x1="17.7" y1="25.3" x2="18.6" y2="24.4"/>
	</g>
</g>
</svg>
