<svg xmlns="http://www.w3.org/2000/svg" viewBox="0 0 40.67 40.67"><defs><style>.cls-1{fill:none;stroke:#fff;stroke-linecap:round;stroke-miterlimit:10;}</style></defs><title>icon_jupiter</title><g id="Layer_2" data-name="Layer 2"><g id="artwork"><circle class="cls-1" cx="20.33" cy="20.33" r="19.83"/><path class="cls-1" d="M5.93,33.59c3.62.28,7.28.46,10.89.52a5.93,5.93,0,0,1,3.53,1.26,6.81,6.81,0,0,0,4.26,1.44h.25A6.94,6.94,0,0,0,29,35.27a6,6,0,0,1,3.59-1.52l1.86-.13"/><path class="cls-1" d="M38.33,27.62h0c-1.79.17-3.61.32-5.42.43A5.72,5.72,0,0,1,29,26.86a6.83,6.83,0,0,0-4.24-1.42h-.25A6.88,6.88,0,0,0,20.3,27a6.13,6.13,0,0,1-4,1.43C11.6,28.3,6.81,28,2.1,27.55"/><path class="cls-1" d="M10.35,21.53a1.79,1.79,0,0,1-1,.26c-.74-.05-1.35-.51-1.32-1s.69-.88,1.43-.84,1.35.51,1.33,1a.82.82,0,0,1-.39.58Z"/><path class="cls-1" d="M4.5,20.41c-1.23-.1-2.49-.16-3.64-.2"/><path class="cls-1" d="M39.91,20.48c-1.31.22-2.41.37-3.43.46a60.62,60.62,0,0,1-6.32.09c-1.43,0-2.91-.06-4.37,0s-2.93.15-4.35.26a60.49,60.49,0,0,1-6.32.26"/><path class="cls-1" d="M29.06,12.83a12.8,12.8,0,0,0,3.3-.14c1.88-.16,3.77-.34,5.61-.54"/><path class="cls-1" d="M14.73,12.17c2.83,0,2.45-.43,5.33-.34"/><path class="cls-1" d="M6.81,6.12h0c2.25.18,4.2.32,5.47.4a2,2,0,0,1,1.43.73,2.83,2.83,0,0,0,4.14.12,2,2,0,0,1,1.49-.69c4.79,0,9.63-.14,14.39-.48"/><path class="cls-1" d="M2.53,12c2.73.08,5.48.12,8.2.13h0"/><path class="cls-1" d="M22.9,12.21c.13-.86.89-1.12,1.74-1.18s1.71.31,1.82,1.3a1,1,0,0,1-.49.8,2.1,2.1,0,0,1-1.33.37c-.76-.07-1.63-.33-1.74-1.29Z"/><path class="cls-1" d="M23,28.37a3.15,3.15,0,0,0-2.37,2.9,2.74,2.74,0,0,0,1.35,2.18,4.92,4.92,0,0,0,2.65.73h.19a5,5,0,0,0,2.78-.93A2.72,2.72,0,0,0,28.75,31a3.17,3.17,0,0,0-2.61-2.73h0"/></g></g></svg>