<svg xmlns="http://www.w3.org/2000/svg" viewBox="0 0 30 30"><defs><style>.cls-1{fill:none;stroke:#fff;stroke-linecap:round;stroke-miterlimit:10;}.cls-2{fill:#fff;}</style></defs><title>icon_venus</title><g id="Layer_2" data-name="Layer 2"><g id="artwork"><circle class="cls-1" cx="15" cy="15" r="14.5"/><path class="cls-1" d="M26.88,23.17c-2.93.4-5.72,2.1-7.15,2.57a11.6,11.6,0,0,1-3.81.77,11.37,11.37,0,0,1-4.75-1.22A14.13,14.13,0,0,0,5,23.8c-.46,0-.94,0-1.43.05"/><path class="cls-1" d="M28.88,17.51c-4.77.34-7.22,2.23-9,2.83a10.48,10.48,0,0,1-3.67.77,10.44,10.44,0,0,1-4.56-1.22,13.34,13.34,0,0,0-6-1.49,20.23,20.23,0,0,0-4.14.45"/><path class="cls-1" d="M23.54,3.76c-.51.32-1,.65-1.4,1a6.62,6.62,0,0,1-4.3,1.77c-2.17,0-3.45-1.06-4.81-2.17A10,10,0,0,0,9,2"/><path class="cls-1" d="M27.49,8.63a15.23,15.23,0,0,0-5.59,2.52,7.77,7.77,0,0,1-4.78,1.76c-2.41,0-3.83-1.05-5.34-2.17A10.17,10.17,0,0,0,5.07,8.17a22.09,22.09,0,0,0-2.86.2"/><circle class="cls-2" cx="26.64" cy="12.25" r="0.68"/><circle class="cls-2" cx="13.1" cy="16.99" r="0.68"/><circle class="cls-2" cx="15.79" cy="3.11" r="0.68"/></g></g></svg>