<?xml version="1.0" encoding="utf-8"?>
<!-- Generator: Adobe Illustrator 23.0.2, SVG Export Plug-In . SVG Version: 6.00 Build 0)  -->
<svg version="1.1" id="Layer_1" xmlns="http://www.w3.org/2000/svg" xmlns:xlink="http://www.w3.org/1999/xlink" x="0px" y="0px"
	 viewBox="0 0 71.4 71.4" style="enable-background:new 0 0 71.4 71.4;" xml:space="preserve">
<style type="text/css">
	.st0{fill:#FFFFFF;}
</style>
<title>icon_compass</title>
<g>
	<g id="artwork_weather">
		<path class="st0" d="M60.9,10.5C47-3.5,24.4-3.5,10.5,10.4c0,0,0,0,0,0c-11.4,11.4-13.8,29-5.8,43C5,54,5.6,54.1,6.1,53.9
			s0.7-0.9,0.4-1.4C-2.7,36.4,2.9,15.9,19,6.7S55.6,3,64.8,19.1s3.6,36.6-12.5,45.8c-9.8,5.6-21.7,5.9-31.8,0.8
			C16,63.4,12,60.1,8.9,56c-0.4-0.5-1-0.6-1.5-0.2s-0.6,1-0.2,1.5l0,0c3.3,4.3,7.5,7.8,12.3,10.3c17.6,8.9,39.1,1.9,48-15.7
			c2.5-5,3.8-10.5,3.8-16.1C71.4,26.2,67.7,17.1,60.9,10.5z"/>
		<path class="st0" d="M51.5,19.9c-2.3-2.3-5-4-8-5.2c-0.5-0.2-1.1,0-1.3,0.5c0,0,0,0.1,0,0.1c-0.2,0.5,0.1,1.1,0.6,1.3c0,0,0,0,0,0
			c5.6,2.1,9.9,6.4,12,12c0.1,0.4,0.5,0.7,1,0.7c0.1,0,0.3,0,0.4-0.1c0.5-0.2,0.8-0.8,0.6-1.3c0,0,0,0,0,0
			C55.7,24.9,53.9,22.2,51.5,19.9L51.5,19.9z"/>
		<path class="st0" d="M15.7,29.3c0.4,0,0.8-0.3,1-0.7c2.1-5.5,6.5-9.9,12-11.9c0.6-0.2,0.8-0.8,0.6-1.4s-0.8-0.8-1.4-0.6l0,0
			c-6.1,2.3-11,7.1-13.2,13.2c-0.2,0.5,0,1.1,0.5,1.3c0,0,0.1,0,0.1,0C15.4,29.3,15.6,29.3,15.7,29.3z"/>
		<path class="st0" d="M43.1,56.8c0.1,0,0.3,0,0.4-0.1c6.1-2.3,10.9-7.1,13.2-13.2c0.2-0.6-0.1-1.2-0.6-1.4
			c-0.6-0.2-1.2,0.1-1.4,0.6l0,0c-2.1,5.6-6.4,9.9-12,12c-0.6,0.1-0.9,0.6-0.8,1.2S42.5,56.9,43.1,56.8L43.1,56.8z"/>
		<path class="st0" d="M19.9,51.5c2.3,2.3,5,4,8,5.2c0.1,0,0.2,0.1,0.4,0.1c0.6,0.1,1.1-0.3,1.2-0.8s-0.3-1.1-0.8-1.2
			c-5.5-2.1-9.9-6.5-12-12c-0.2-0.5-0.8-0.8-1.3-0.6c0,0,0,0,0,0c-0.5,0.2-0.8,0.7-0.7,1.3c0,0,0,0.1,0,0.1
			C15.8,46.5,17.6,49.2,19.9,51.5L19.9,51.5z"/>
		<path class="st0" d="M34.3,18.3V15l3.1,3.8c0.4,0.5,1,0.5,1.5,0.2c0.3-0.2,0.4-0.5,0.4-0.8V12c0-0.6-0.5-1.1-1-1.1
			c-0.6,0-1.1,0.5-1.1,1c0,0,0,0,0,0v3.2L34,11.4c-0.3-0.4-0.7-0.5-1.1-0.4c-0.4,0.2-0.7,0.6-0.7,1v6.3c0,0.6,0.5,1,1,1
			S34.3,18.9,34.3,18.3L34.3,18.3z"/>
		<path class="st0" d="M58.9,33.3c0.6,0,1-0.5,1-1c0-0.6-0.5-1.1-1-1.1h-3.6c-0.8,0-1.4,0.6-1.4,1.4c0,0,0,0,0,0v6.2
			c0,0.8,0.6,1.4,1.4,1.4c0,0,0,0,0,0h3.6c0.6-0.1,1-0.6,1-1.2c0-0.5-0.4-0.9-1-1H56v-1.4h1.6c0.6,0,1-0.5,1-1.1c0-0.6-0.5-1-1-1H56
			v-1.4H58.9z"/>
		<path class="st0" d="M13.6,35.9l-0.4,0.5L12.3,33c-0.1-0.6-0.7-0.9-1.3-0.8c-0.5,0.1-0.9,0.6-0.8,1.2c0,0,0,0.1,0,0.1l1.3,5.6
			c0.1,0.5,0.6,0.9,1.1,0.9c0.3,0,0.6-0.2,0.7-0.5l1-1.2l0.9,1.2c0.2,0.3,0.5,0.4,0.8,0.4h0.2c0.4-0.1,0.7-0.4,0.8-0.8l1.3-5.6
			c0.1-0.6-0.2-1.1-0.8-1.2s-1.1,0.2-1.2,0.8l-0.8,3.4l-0.4-0.5c-0.3-0.5-0.9-0.6-1.4-0.3C13.8,35.7,13.7,35.8,13.6,35.9L13.6,35.9z
			"/>
		<path class="st0" d="M35.1,53.6H38c0.6-0.1,1-0.6,1-1.2c0-0.5-0.4-0.9-1-1h-2.9c-1.3,0-2.4,1.1-2.4,2.4v0.9c0,1.3,1.1,2.4,2.4,2.4
			h1.6c0.1,0,0.3,0.1,0.3,0.3v1.2c0,0.1-0.1,0.3-0.3,0.3h-2.9c-0.6,0-1,0.5-1,1s0.5,1,1,1h2.9c1.3,0,2.4-1.1,2.4-2.4l0,0v-1.2
			c0-1.3-1-2.4-2.3-2.4c0,0,0,0,0,0h-1.6c-0.1,0-0.3-0.1-0.3-0.2c0,0,0,0,0,0v-0.9C34.8,53.7,34.9,53.6,35.1,53.6z"/>
		<path class="st0" d="M38.2,47c0.8-0.1,1.4-0.6,1.7-1.4l2.5-8.8c0.2-0.6-0.2-1.1-0.7-1.3c-0.6-0.2-1.1,0.2-1.3,0.7L38,44.6L34.4,38
			c-0.2-0.4-0.6-0.7-1.1-0.9l-7.1-2.5l16.9-8.1l-1.5,5.1c-0.2,0.6,0.2,1.1,0.7,1.3c0.6,0.2,1.1-0.2,1.3-0.7l1.6-5.4
			c0.2-0.7,0-1.5-0.6-2l0,0c-0.6-0.5-1.4-0.6-2.1-0.3L25.1,33c-0.7,0.4-1.1,1.1-1.1,1.9c0,0.5,0.3,1,0.7,1.4
			c0.2,0.2,0.4,0.3,0.6,0.3l7.3,2.6l3.7,6.9C36.7,46.7,37.5,47.1,38.2,47L38.2,47z"/>
	</g>
</g>
</svg>
