<?xml version="1.0" encoding="utf-8"?>
<!-- Generator: Adobe Illustrator 23.0.2, SVG Export Plug-In . SVG Version: 6.00 Build 0)  -->
<svg version="1.1" id="Layer_1" xmlns="http://www.w3.org/2000/svg" xmlns:xlink="http://www.w3.org/1999/xlink" x="0px" y="0px"
	 viewBox="0 0 37.7 29.7" style="enable-background:new 0 0 37.7 29.7;" xml:space="preserve">
<style type="text/css">
	.st0{fill:none;stroke:#FFFFFF;stroke-linecap:round;stroke-miterlimit:10;}
</style>
<title>icon_uranus</title>
<g>
	<g id="artwork">
		<path class="st0" d="M33.2,13.7c3.2-2.5,4.5-4.6,3.8-6.1s-3.4-2.1-7-1.6l-1.3,0.2c-4.2,0.8-8.2,2-12.1,3.6
			c-3.9,1.6-7.6,3.6-11.1,6l-1,0.7c-3.2,2.5-4.5,4.6-3.8,6.1c0.4,0.9,1.5,1.8,4.5,1.8c0.8,0,1.7-0.1,2.5-0.2"/>
		<path class="st0" d="M32.8,11.2c0.9-0.9,1.3-1.7,1-2.3C33.4,8,32.1,8,31.7,8c-1.2,0-2.4,0.2-3.6,0.4c-3.6,0.8-7.2,2-10.6,3.5
			c-3.5,1.4-6.8,3.1-9.9,5.1c-0.8,0.5-1.6,1.1-2.3,1.7c0,0-0.1,0.1-0.1,0.1l-0.4,0.4c-0.3,0.3-1.2,1.2-0.8,2.1s1.7,0.9,2.2,0.9l0,0
			h0.2"/>
		<path class="st0" d="M19.7,26.5c-2.3,0.2-4.6-0.4-6.6-1.6"/>
		<path class="st0" d="M31.3,8c3.8,6.9,1.3,15.7-5.6,19.5S10,28.8,6.2,21.9C5.7,21,5.3,20.1,5,19.1"/>
		<path class="st0" d="M4.4,16.5c-0.1-0.6-0.1-1.1-0.1-1.7c0-7.9,6.4-14.3,14.3-14.3c4.4,0,8.5,2,11.2,5.4"/>
	</g>
</g>
</svg>
