<svg xmlns="http://www.w3.org/2000/svg" viewBox="0 0 58.76 58.77"><defs><style>.cls-1{fill:none;}.cls-2{fill:#fff;}</style></defs><title>m02</title><g id="Layer_2" data-name="Layer 2"><g id="moon_animation" data-name="moon animation"><g id="wax"><path class="cls-1" d="M18.86,2a.86.86,0,1,0,.62,1.61A27.47,27.47,0,0,1,40.18,4C44.84,6.3,46.44,7,50.72,11.82a27.71,27.71,0,0,1,4.42,7.58,27.39,27.39,0,0,1,1.29,15.66,38.65,38.65,0,0,1-4.63,10.5,27.68,27.68,0,0,1-44.15.93c-.53-.31-3.25-5.07-4-7.11a27.51,27.51,0,0,1-1.8-12.12,22.87,22.87,0,0,1,2.29-9A27.41,27.41,0,0,1,16.24,5.08a.87.87,0,0,0,.35-1.17.86.86,0,0,0-1.17-.35A29.38,29.38,0,0,0,2,40,29.37,29.37,0,0,0,40,56.77,29.36,29.36,0,0,0,41.23,2.53,29.16,29.16,0,0,0,18.86,2Z"/><path class="cls-2" d="M13.93,41.51a3.15,3.15,0,0,0,5.44,3.18,3.15,3.15,0,0,0-5.44-3.18Zm1.47.86a1.44,1.44,0,1,1,.52,2A1.45,1.45,0,0,1,15.4,42.37Z"/><path class="cls-2" d="M45.53,52.34a1.09,1.09,0,0,0-1-.51A27,27,0,0,1,20.63,31.42a28.1,28.1,0,0,1-.71-4.36,1.11,1.11,0,0,0-2.21.18A30.55,30.55,0,0,0,18.48,32,29.2,29.2,0,0,0,41.14,53.59,27,27,0,0,1,6.5,43.46a12.18,12.18,0,0,0,2.94-3.37,11.83,11.83,0,0,0,1.47-4,.85.85,0,1,0-1.68-.3A10.25,10.25,0,0,1,8,39.23,10.43,10.43,0,0,1,5.64,42,26.88,26.88,0,0,1,2.9,24.36,11.94,11.94,0,0,1,4.25,25a10.38,10.38,0,0,1,5,7.42.85.85,0,0,0,1,.71.84.84,0,0,0,.71-1,12.06,12.06,0,0,0-5.85-8.63,11.55,11.55,0,0,0-1.85-.87A27,27,0,0,1,23,3a26.53,26.53,0,0,1,5.45-.78,29.15,29.15,0,0,0-9.81,15.2,1.11,1.11,0,1,0,2.14.57A27,27,0,0,1,32.2,2.22a1.13,1.13,0,0,0,.66-.93,1.11,1.11,0,0,0-1-1.19h0a29.23,29.23,0,1,0,13.35,53.8h0A1.11,1.11,0,0,0,45.53,52.34Z"/><path class="cls-2" d="M18,22a1.11,1.11,0,0,0-.07,1.32,1.11,1.11,0,0,0,2-.7A1.12,1.12,0,0,0,18,22Z"/></g></g></g></svg>