<svg xmlns="http://www.w3.org/2000/svg" viewBox="0 0 58.76 59.05"><defs><style>.cls-1{fill:none;}.cls-2{fill:#fff;}</style></defs><title>m01</title><g id="Layer_2" data-name="Layer 2"><g id="moon_animation" data-name="moon animation"><g id="wan"><path class="cls-1" d="M18.86,2.26a.86.86,0,1,0,.62,1.61,27.42,27.42,0,0,1,20.7.37c4.66,2.34,6.26,3.05,10.54,7.86a27.76,27.76,0,0,1,5.71,23.24,38.65,38.65,0,0,1-4.63,10.5,27.68,27.68,0,0,1-44.15.93c-.53-.31-3.25-5.07-4-7.11a27.51,27.51,0,0,1-1.8-12.12,22.87,22.87,0,0,1,2.29-9A27.36,27.36,0,0,1,16.24,5.36a.87.87,0,0,0,.35-1.17.86.86,0,0,0-1.17-.35A29.38,29.38,0,0,0,2,40.28,29.37,29.37,0,0,0,40,57.05,29.36,29.36,0,0,0,41.23,2.81a29.16,29.16,0,0,0-22.37-.55Z"/><path class="cls-2" d="M49.12,33.34a4.28,4.28,0,1,0-5.86,1.54A4.29,4.29,0,0,0,49.12,33.34Zm-5.93-3.46a2.58,2.58,0,1,1,.93,3.53A2.59,2.59,0,0,1,43.19,29.88Z"/><path class="cls-2" d="M36.16.87A29.37,29.37,0,0,0,26.69.1h0a1.11,1.11,0,0,0-.36,2.13A27.25,27.25,0,0,1,37.86,18.16,1.12,1.12,0,0,0,40,17.59,29.43,29.43,0,0,0,30.13,2.26,27,27,0,0,1,35.62,3,27.43,27.43,0,0,1,42.8,6a6.77,6.77,0,0,0,9.26,9A27.15,27.15,0,0,1,55.49,36a22.18,22.18,0,0,1-.65,2.19,6.08,6.08,0,0,0-5.52,9.44,27.27,27.27,0,0,1-32,6.37A29.43,29.43,0,0,0,40.12,32.22a29.9,29.9,0,0,0,.78-4.76,1.12,1.12,0,0,0-2.23-.18,26.56,26.56,0,0,1-.72,4.4A27.2,27.2,0,0,1,13.87,52.26a1.09,1.09,0,0,0-1,.51,1.12,1.12,0,0,0,.33,1.54h0l0,0A29.47,29.47,0,1,0,36.16.87ZM46.33,13.33a5.09,5.09,0,0,1-2.07-6.45,27.13,27.13,0,0,1,6.84,6.63A5.08,5.08,0,0,1,46.33,13.33ZM50.6,42.08a4.41,4.41,0,0,1,3.62-2.17,27.49,27.49,0,0,1-3.74,6.37A4.39,4.39,0,0,1,50.6,42.08Z"/><path class="cls-2" d="M40.72,23.48a1.11,1.11,0,1,0-1.2.47A1.13,1.13,0,0,0,40.72,23.48Z"/></g></g></g></svg>