<svg xmlns="http://www.w3.org/2000/svg" viewBox="0 0 58.76 58.75"><defs><style>.cls-1{fill:#fff;}</style></defs><title>moon_deimos_new</title><g id="Layer_2" data-name="Layer 2"><g id="artwork_weather" data-name="artwork weather"><path class="cls-1" d="M18.86,2a.87.87,0,0,0,.62,1.62,27.42,27.42,0,0,1,20.7.36C44.84,6.29,46.44,7,50.72,11.8a27.61,27.61,0,0,1,4.42,7.59A27.35,27.35,0,0,1,56.43,35a38.52,38.52,0,0,1-4.63,10.5,27.67,27.67,0,0,1-44.15.94c-.53-.32-3.25-5.07-4-7.12a27.47,27.47,0,0,1-1.8-12.11,22.82,22.82,0,0,1,2.29-9A27.32,27.32,0,0,1,16.24,5.07a.87.87,0,0,0,.35-1.17.86.86,0,0,0-1.17-.35A29.36,29.36,0,0,0,2,40,29.35,29.35,0,0,0,40,56.75a29.35,29.35,0,0,0,16.76-38A29.36,29.36,0,0,0,18.86,2Z"/></g></g></svg>