<svg xmlns="http://www.w3.org/2000/svg" viewBox="0 0 160.9 160.9"><defs><style>.cls-1{isolation:isolate;}.cls-2{fill:#d4803a;}.cls-3{fill:#552805;opacity:0.49;}.cls-10,.cls-12,.cls-4{fill:#542b24;}.cls-4{opacity:0.56;}.cls-5,.cls-6,.cls-8{fill:#c6bdba;}.cls-5,.cls-7{opacity:0.57;}.cls-11,.cls-5,.cls-6{mix-blend-mode:screen;}.cls-6{opacity:0.76;}.cls-7{mix-blend-mode:overlay;}.cls-9{opacity:0.34;}.cls-11{opacity:0.31;}.cls-12{opacity:0.33;mix-blend-mode:multiply;}</style></defs><title>planet_venus</title><g class="cls-1"><g id="Layer_2" data-name="Layer 2"><g id="venus"><circle class="cls-2" cx="80.45" cy="80.45" r="80.45"/><path class="cls-3" d="M6.4,49c2.44.11,5.31.58,7.11-.81-2.75,13,8.53,21.27,20.25,22.93,7.4,1,16.75-3.94,19.45-10.81,1.2-3,3.34-8.49,1.76-11.51,1.21,3.12,5.51,3.75,5.18-.55,1,2,3.27,3,4.88,1.4,1.82,4,1,7.83,2.61,11.33,1,2.23,4.82,5.48,6.34,2.43a6.88,6.88,0,0,1,1.19,0c1,3.46,7.71,7.51,8.45,1.87C96,66.48,90.81,48.86,87.33,43.48c3.56,2.15,11.69,1.86,9-4.39,6.61,5,5.43-6.61,3-9.87,8.06-2.9,15.38-5.79,17-15.4a16.63,16.63,0,0,0,0-5.41A80.47,80.47,0,0,0,6.4,49Z"/><path class="cls-3" d="M75.27,81.26c-.55-3-1.42-7.12-5-8s-5.43,2.29-3.5,5.6c-2.23-.56-3.88-2.85-6.18-3.73s-6.45-1.51-8.86-.5c-9,3.76-10,19.76-1.5,24.21-9.51,2.65,6,25.18,14.91,16.15.5,8.5,15.59,6.15,15.58-3.29,3.06,6.61,6.36-.76,6.06-4.7,7.54.47,15.62,1.11,18.25-8.09a13.84,13.84,0,0,0-3.47-13.24C94.57,78.48,86.29,80.07,75.27,81.26Z"/><path class="cls-4" d="M32.46,52.71c4-10.8-12.22-17.32-10-5.12-5.47-8.43-13.8,4.65-7.1,5.68-5.17,6-12,20.11-5,27.48,8.86,9.32,14.7-8.81,16.54-14.15,1.68,2.1,4.12,2.3,4.71-.48,4.1.95,10.16,2.29,9.56-4.69C40.59,54.83,33.74,55.33,32.46,52.71Z"/><path class="cls-4" d="M74.35,102c-.43-5.35-8.59-5.66-6.95-1.47-5.86-.91-5.62,9.3-2,11.86,4.09,2.9,10.66.52,9-5.15,5.47.71,6-5.52,0-4.32Z"/><path class="cls-4" d="M125.91,61.46c6.41-1.81,3.61-13.45,1.85-17.47-1.29-2.93-4.06-8.18-8-6C117,39.54,117,44.39,118,46.66c-7.49-3.48-12.76,1.35-12.85,10.05,0,4.07,7.11,17.57,10.5,9.84.74,2.86,2.85,6.46,6.46,5.54C126.52,71,125.42,65,125.91,61.46Z"/><path class="cls-4" d="M80.8,24.63c-.46-7.72,11.87-7.73,7.54,1.67,4.59-3.06,5.76,5.17,4.89,8-1.35,4.47-7.08,7.42-11.51,7.37a12.54,12.54,0,0,1-11.06-7.2c-1.69-3.55-1.11-11.31,3.72-5.88-1.17-5,1.75-8.82,4.57-2.14Z"/><path class="cls-4" d="M78.49,9.44c.92,5.88-2.44,2.85-4.6,5.52-2.43,3,1.16,4.09,4.07,3.75a18.49,18.49,0,0,1,.15,2.66c1.64-1.23,1.09-2.85,1.76-4.67.36-1,1.68-3,1.85-3.84.74-3.65-1.38-7.25-4.61-9.41Z"/><path class="cls-4" d="M44.89,13.58c-3.08.13-2.21,2.34-3.79,3.68-1.92,1.64-2.7,1.46-5,2.31-5.59,2.09-3,5.33-6.09,7.92-1.16,1-12.35,3.62-6.81,6.37s11-7.92,12.53-11a4.1,4.1,0,0,0,6.45-3.23c4.56,1.85,11.91-2.31,13.51-7,.94-2.75.81-5.22-2.36-6.21C48.87,5,46.49,10.1,44.89,13.58Z"/><path class="cls-4" d="M107,130.06c2.35-1.6,4.49-5.08,3.56-8.19-1.32-4.44-6.14-4.64-6.9.32-4.39-3.44-8.25-2-10.93,3.15-5.33,10.26,6.8,8.61,12.43,3.8Z"/><path class="cls-3" d="M114.86,133.28c-7.19-6.69-22.79,1.8-24,10.6C88.54,161.7,119.17,153.18,114.86,133.28Z"/><path class="cls-3" d="M159,62.9A80.16,80.16,0,0,0,144,31.2c-7.18,2.26-8.91,14.29-6.64,22.07,2.71,9.27,5.24,20.62-3.86,27.54-4.26,3.23-10.79,2.55-14.29,6.52-2.79,3.16-2.6,8.33-1.56,12.24-5.09-1-8.78,2.68-7,7.87-3.56-.17-5.92,2.58-6,6-8.67-7.74-16.25,5.45-19.72,12-4.84-1-7.34-3.69-11.35.57-3.76,4-3.53,13.48-12.13,10.41-8.43-3-4.65-13.6-9.47-18.9-5.29-5.81-9.43-1.87-15-.82-2.19-5.44,2.05-10.39,1.91-15.9-.1-3.81-4.72-10-7.92-5.22,1.82-2.76.1-7.66-3.43-5.24-.08-3.38-3.16-3.14-5.78-3.24-5.47-.19-7.74,1-9,2.84,2-4,.55-9.36-3.26-4-.84,1.2-.34,6.24-3,4.64-2.07-1.26-.13-5.43-.12-7.29C6.48,77.51.2,69.17.32,79c.11,8.19,4.77,22.53,14.55,22.58,3.13,5.18-1.22,10.06-.35,15.64,1,6.47,6.21,8.48,11.89,7.87-.19,5.07,1.15,4.37,4.32,6.83,3.69,2.86,3.26,7,6.89,10.59,3.42,3.43,3.36,2.3,7.33,2,2.1-.19,1.79-2.59,4.62.45,1.85,2-.2,4.7,1.82,6.5,2.6,2.31,6.67.16,7.28-2.84,2.31.59,7.94,9.9,9.76,3.1,3.64,3.27,8,6.15,9.16-.4,3.21,3.78,6.16,1.92,7.58-2,1.89-5.19-1.83-10.2-2.08-15.26-.51-10.5,5.47-2.9,10.94-4.6-.48-5.4,5.55-2.06,7.91-5.83,6,2.91,11.77,4,18.33,2.28,3.52-.94,16.07-8,11.3-12.45,7.81,5.44,14.94-4.9,8.58-10.65,5.86-.91,8.17-1.94,11.14-7.95,2.55-5.13,4.8-12.07,4.93-17.76.11-4.54-1.83-8.77-1.8-13.28A6.69,6.69,0,0,0,159,62.9Z"/><path class="cls-5" d="M94.15,93.23c1.76,4.64,6.9.22,5.77-3.69-.92-3.17-9.74-7.6-8.63-2.79-.23-4.93-6.86-3.49-8.33.07-2.53,6.12,2.11,10.09,8,9.63Z"/><path class="cls-6" d="M155.09,108.38c-.55-1.36.95-4.1.22-6-.45-1.18-2.22-1.54-2.83-2.7s.52-3,.08-4.11c-1-2.57-7.86-9.85-12.11-9.9,5.07-2.75,6.33-10,3.94-15.22-.16-3.21-.58-6.58,2.74-6.39-.15-1.38.59-2.37.73-3.52,2.77,3.55,6.57-.89,4.79-4,1.87,1.26,3.61.16,4-1.77a80,80,0,0,0-4.65-11c-.69.88-.85,2.5,0,5.21-2.42-4.6-5.16,2.3-5,5-.25-.47-.71-1-.92-1.33-3.59,2.86-3.69,8.09-3.76,12.44a3.38,3.38,0,0,0-1.95.85,8.76,8.76,0,0,0-1.75-.82c2.08-2,4.12-9.06-.39-11,.77,0,2.83-1.5,3.31-3.82,1.15-5.69-6.2-11.46-8.82-17.38.35-3.78-.77-8-4.15-10-3.76-2.23-7-1.32-6.21,3.37.73,4.15,5.93,6.32,7,10.08.93,3.31-2.26,8,3.7,9.51-3.54,3.62-1.73,8.52,1.46,11.53-1.72,3.76-10.19,17.19-2.35,19.47-2.26.25-2.88,4.45-1.05,7.3-1.52.17-3,.5-4.09.59-2.59.22-5.35-3-6.63,1.34-.67,2.25,1.68,4.75,3.43,5.71-3.34,1.11-.87,5.89-1.69,8.77-1.68-1-3-2.52-4.81-2.47A10.1,10.1,0,0,0,113,93.23c7.48-1,3-18.61-4.45-14.68,2.24-2.54-.42-6.81-3.67-6.94,1.81-2.08-.31-6-2.82-7-3.94-1.45-3.81,1.66-6.45,3.74-8.22,6.48-2.36-11.47-3.29-14.75-1-3.52-13.4-13.16-12.4-7.83.55,2.88,6.53,4.53,7.92,7.22,1.9,3.65-2.49,9.93.19,11.63-3.85,2.25-3.76,9.6,1.45,9.75C86.72,79,90.8,79.88,94,80c1.18,0,2.46-1.76,3.82-1.09s.09,3.16.93,3.74c3.39,2.37,5.84,0,6.43,4.72.41,3.3-2.06,9.55,5.41,8.22-2,2.52-2.37,6.06.43,7.55-2.06-.16-3.59,1.51-2.63,4.85-2-.09-9,3-9.94,4.83-4.84-4.17-9.45,4.07-12.75,9.49.84-3.86-8.62-9.87-8.7-2.45-3-.87-8,1.8-6.42,5.43-4.31-2.34-8.93-7.09-14.49-3.72-4.07,2.47-3,7.76.58,10.2a6.73,6.73,0,0,0-2.94,3.42c-2.25-1.59-5-2.58-7-2.35.42-10.92-32.19-8.93-27.72-20.71,2.46-6.5,6.35,1.28,8.29,2.25a5,5,0,0,0,5.36-.78c4.6-4.85-3.58-9.22-4.4-5.64.67-4.33-6.92-12.43-8.65-7.06.93-3-3.66-5.2-6.1-3.23C14,94.53,11,94.42,9.07,95.94c.47-3.62-3-7.44-6.57-6.57.2-3.09,1.66-5.81-.52-8.57A6.28,6.28,0,0,0,0,79.11c0,.45,0,.89,0,1.34a80.43,80.43,0,0,0,4.67,27l.91-.51a4.41,4.41,0,0,0-.41,1.85c.26.69.53,1.38.81,2.06a3.91,3.91,0,0,0,3.88.79c-2.18,6.74,4.44,13.4,11.05,12.89-.83,6.6,10.27,12.11,15.16,7.89a5.85,5.85,0,0,0,1,2.46c-1.1,1.76-.65,4.56-2.31,6.64a5.25,5.25,0,0,1-4.22,2q1.86,1.46,3.79,2.82a9.78,9.78,0,0,1,4.76-1.52c2-.13,4.77,2.12,4.86-2.54,0-1.15-1.87-3.56-3.33-5.62a9.43,9.43,0,0,0,4.15-1c.85,2.93,3.36,3.86,6,2.66-.46,3,2,6.1,5,5.68,1.47,2.84,6.34,6,10,5.79,8-.5-.17-12.06-7.89-8a5.31,5.31,0,0,0-.67-2.84c1.56-.26,3.16-1.63,3.81-4.74,2.84,3.48,7.56,1.41,8.76-2.77,5.83,1,4.94-6.47,9.88-6.51-4.42,3.09-7.8,20.9,1.77,18,6-1.85-1-20.66,7.15-14.81.74-2.8.89-7.23,3.3-9.16,1-.79,2.25.26,2.66,0,.6-.31,1.7-1.06,2.88-1.85,1.41-1,1.91-2.71,3.92-3.24s2.58.6,4.18.52c2.18-.12,5.12-1.55,7,.95,2.18,2.89-1.09,8,4.78,7.79,9-.26,2-12.08,6.25-14.14a8.67,8.67,0,0,0,1.39.67c.21-5.41,2-2.34,4.62-4.52,3.61-3,2.06-7.59-.38-11,4.32,3,4.12-3.21,8.07-2.35.13,3.07,1.92,5.23,5.11,4.64-.52,4.42,1.55,4.06,3.22,6.85,1.94,3.23.83,5.89,6,6.61a10.89,10.89,0,0,0,1.6,4.71q1.28-2.72,2.35-5.53A2.06,2.06,0,0,1,155.09,108.38Zm-42.2-4.65c.26,0,.52.08.81.1h.24a5.16,5.16,0,0,0,.77,1.39A6.63,6.63,0,0,0,112.89,103.73Zm25-16.54c-.07-.2-.15-.37-.23-.55l.76-.16A3.65,3.65,0,0,0,137.88,87.19Z"/><path class="cls-5" d="M61.45,60.29s0,0,0,0a1.12,1.12,0,0,0-1.15.13,6.3,6.3,0,0,0-.78.77.18.18,0,0,0-.1,0A8.32,8.32,0,0,0,57,66.48a18.5,18.5,0,0,0-.38,2.35c-.08.74.91.81,1.26.34a6.53,6.53,0,0,0,.61-1,1,1,0,0,0,.56-.38,13.17,13.17,0,0,0,1.57-2.73c.72-1.16,1.37-2.36,2-3.59A.87.87,0,0,0,61.45,60.29Z"/><path class="cls-5" d="M62,83.46c-.51-1.31-2.21-2.5-3.6-1.46A11,11,0,0,0,57,83.32a5.72,5.72,0,0,0-3.18,4.77A2.92,2.92,0,0,0,55,90.71c.07.08.12.18.19.26a1.49,1.49,0,0,0,2,.37,4.68,4.68,0,0,0,2-.47c.12-.06.22-.15.33-.21a3.55,3.55,0,0,0,2.89-3.37,3.69,3.69,0,0,0-.06-.81A5.81,5.81,0,0,0,62,83.46Z"/><path class="cls-5" d="M54.46,78.69l0,0s0,0,0-.05a.83.83,0,0,0-.28-.28.7.7,0,0,0-.23-.08h0a.65.65,0,0,0-.24,0,.41.41,0,0,0-.16,0,.14.14,0,0,0-.09,0,.42.42,0,0,0-.19.06.75.75,0,0,0-.28.28s0,0,0,.05l0,0a.73.73,0,0,0-.06.78l0,.41a.85.85,0,0,0,1.69,0c0-.13,0-.27,0-.41A.74.74,0,0,0,54.46,78.69Z"/><path class="cls-5" d="M86.74,8.87C86.55,5.71,82.63,4.16,80.83,2a.05.05,0,0,0-.08.06C82,4,84.12,5.11,85.26,7c1.88,3.13-1.27,4.49-2.67,6.71a4.12,4.12,0,0,0-.65,2.15c-.21,1.6-1.08,2.85-1.43,4.54a.3.3,0,0,0,.54.22,29.74,29.74,0,0,1,2.26-3.22.53.53,0,0,0,.08-.62C81.89,14.07,86.9,11.71,86.74,8.87Z"/><path class="cls-5" d="M63.18,8.06c-.57.11-.36.87.12.93,3,.37,6.38,2.65,5.77,5.78-.31,1.62-2.12,4-3.15,5.12-4.5,5.1-9.73,5.95-15.8,3.66a.82.82,0,0,0-1,.57c-1,3-.61,6.25-5.79,5.51a1,1,0,0,0-1.2.92c-.27,5.72-4.8.73-6.5,1.12a14.63,14.63,0,0,0-5.71,2.85c-1.15.83-2.45,2.24-3.95,2.62-4.16,1.07-6.41-1.8-5.59-5.44.56-2.47,3.33-5,5.22-6.55.07-.07,0-.16-.1-.13C21,27,12.89,38.2,21.75,39.72c2.33.41,4.51-.55,6.47-1.69,4.16-2.42,4.5-3.83,9.46-3.54,1.81.11,3.39.59,5.08-.42,1.06-.63,1-1.76,2.16-2.32,1.4-.69,2.58.27,3.85-1.08,1-1,.6-4,1.46-4.62,1.22-.9,6.5.66,8.21.34a15.42,15.42,0,0,0,7.65-4.48C71.13,17,73.88,6.12,63.18,8.06Z"/><path class="cls-5" d="M66,31.31a.45.45,0,0,0-.78.45c.87,1.8,2.3,3.62,2.8,5.55.58,2.25-.92,6.28-3.6,5.28-.38-.15-.63-.84-1.06-1a17.62,17.62,0,0,0-2-.6c-1.09-.24-1.48,2.61-2-.32a.69.69,0,0,0-1.32,0c-1.63,1.7-2.71,1.78-3.23.26a8.75,8.75,0,0,1-.89-2.46c-.16-.63-1.21-.69-1.33,0C51.86,42.63,51.23,47.36,49,51c-4.91,7.91-9.54-5.53-6.3-10.22.06-.09-.08-.19-.15-.12C39.3,43.87,39.54,54,45,54.91c5.71,1,7.64-8.33,8.55-13.69C55,43.88,57.31,45.7,58.71,43c.3.24.75.16,1.65.34.24,0,1.08-.41,1.71-.31,1.34.19,1.14.88,2.09,1.22s.85.49,1.9.36C73.39,43.73,68.21,34.2,66,31.31Z"/><path class="cls-5" d="M46.69,71.8a.49.49,0,0,0-.91.25c-.08,1.58-1.44,9.14-4.34,6a.84.84,0,0,0-1.4.37c-.13.74-.61,4.7-2.78,3-.68-.51-.41-2.73-.35-3.41.09-.86-1.27-1-1.47-.2-.64,2.53-3.35,7-6.67,6.28-5.14-1.17-.89-8.43.16-10.61a.18.18,0,0,0-.31-.18c-2,3.1-6.14,10-.34,11.94,2.93,1,5.63-1.39,7.25-4a3,3,0,0,0,2.26,2.63c2.15.4,3.13-1.91,3.6-3.78C45,82,48.47,75,46.69,71.8Z"/><path class="cls-5" d="M30.61,60.08a.65.65,0,0,0-1.08.63c.63,1.84-.49,4.07-2.57,2.09a.92.92,0,0,0-1.42.18c-.92,1.91-3,3.88-4.56,1.36s.65-4.43,2.85-5.18a.85.85,0,0,0,0-1.62c-3.4-1.23-2-6.48,1.48-6.16,2.76.25,5.18,4.85,2.41,6.63a.26.26,0,0,0,.26.45c4-2.18.44-8.3-3.33-8.19-4.44.14-5.49,5.37-2.79,7.92-2.69,1.47-4.38,4.37-2.27,7.36s5.32,1.77,7-.78a3.2,3.2,0,0,0,4-.07A3.07,3.07,0,0,0,30.61,60.08Z"/><path class="cls-5" d="M88.1,31.64c1.51-1.15,2.47-2.87,1.27-4.78-1.62-2.6-4.71-1-5.61,1.26-.29.73.75,1.18,1.25.72.68-.64,2.15-2.27,2.82-.76s-1.69,2.69-2.8,3-.69,2,.51,1.86c3.53-.52,5,4.92,1.63,6.12-1.81.63-6.33.25-6.11-2.4a.89.89,0,0,0-.66-.86c-3.49-.56-3.64-5,0-5.56.09,0,.09-.18,0-.19-5.29-.79-5.43,5.94-1.08,7.3.36,3.92,7.14,4.81,9.83,2.84C92.46,37.76,91.13,33.26,88.1,31.64Z"/><path class="cls-5" d="M125.56,46.91a4.19,4.19,0,0,0-5.41-.13,5.21,5.21,0,0,0-2,3,2.29,2.29,0,0,0-1.19.32c-1.61.9-2.69,3.26-3,5s.24,4.29,1.84,5.34c1.84,1.2,2.6-.65,2.89-2.18,0-.18-.24-.33-.33-.13-.84,1.78-1.65,1.24-2.2-.18a4.29,4.29,0,0,1-.22-2.69,7.38,7.38,0,0,1,1-2.07c.17-.26.52-.89.83-1s.32-.09.37,0c0,.24.09.48.16.71.31,1.41,2.45.81,2.15-.59-.71-3.38,3.41-6,4.45-1.75.81,3.25-1.45,5.23-2.91,7.75a.82.82,0,0,0,.91,1.19C127.89,58.68,128.87,49.91,125.56,46.91Z"/><path class="cls-5" d="M90.5,86.87a4.12,4.12,0,0,0-4.65,1.61A2.84,2.84,0,0,0,87,92.16a3.47,3.47,0,0,0,4.33-.72,1.3,1.3,0,0,0,.27-.43.73.73,0,0,0,1.09-.26C93.47,89.08,92.09,87.39,90.5,86.87Z"/><path class="cls-5" d="M41.36,120a2.39,2.39,0,0,0-1.21-1,1.14,1.14,0,0,0-.32,0c-.07-.08-.13-.16-.2-.23A.38.38,0,0,0,39,119l0,.5a.94.94,0,0,0-.11.45,1.7,1.7,0,0,0,.51,1.37,1.32,1.32,0,0,0,1.6.11.89.89,0,0,0,.37-.57A1,1,0,0,0,41.36,120Z"/><path class="cls-5" d="M47.57,118.74a.85.85,0,0,0-1.68,0,1.55,1.55,0,0,0,.54,1.7.59.59,0,0,0,.6,0A1.56,1.56,0,0,0,47.57,118.74Z"/><path class="cls-5" d="M48.33,124.68a5.67,5.67,0,0,0-1-.61c-.23-.22-.46-.45-.7-.66a1.36,1.36,0,0,0-1.22-.33,1.94,1.94,0,0,0-.62.09,1,1,0,0,0-.45,1.7l.11.12a1.46,1.46,0,0,0,.22.43,3.72,3.72,0,0,0,1.39,1,.29.29,0,0,0,.1,0,2.11,2.11,0,0,0,.31.21,1.47,1.47,0,0,0,.68.13,1.48,1.48,0,0,0,1.53-.24C49.21,126,48.83,125.14,48.33,124.68Z"/><path class="cls-5" d="M143.93,123.39c-.83-4.61-6.93-6.11-10.47-3.94a.55.55,0,0,0,.56,1q10.18-3.78,2.34,9a9.16,9.16,0,0,1-5.5-2c-.58-.39-1.08.35-.86.86q-2.3,9.6-6.34,5.3a.66.66,0,0,0-1.08.29c-1,4.09-5.69-.7-6.65-1.76a.65.65,0,0,0-1,.79c5.47,8.35-4.39,17.25-12,19.26-11.74,3.07-15.16-8-10-16.47,0-.08-.07-.17-.13-.1-8.09,10.31-.12,22.09,12.56,17,5.63-2.23,12.36-7.58,12.75-14.14a9.47,9.47,0,0,0-.24-2.94,5.8,5.8,0,0,0,3.64,1.44c1.39-.1,1.55-1.5,2.74-1.41,2.38.18,2.88,3.25,5.87,1.88,2.5-1.16,2-3.72,2.42-5.81a5.39,5.39,0,0,0-.39-1.93c1,.36,2.9.83,2.64.78C138.89,131.2,144.86,128.54,143.93,123.39Z"/><path class="cls-5" d="M118.55,17.15c-.63,0-.8,1-.16,1.13,2.27.36,2.23,3,1.23,4.77-1.21,2.15-4.17,2.66-6.35,2.21a.81.81,0,0,0-1,1c.18.86,1.58,6.43-1.56,4.73-.5-.27-1.34.05-1.25.72.14,1.14.88,7.94-2.64,5.2a.79.79,0,0,0-1.3.76c.53,3.59-1.33,7.61-3.41,10.45-1.27,1.74-5.74,6.94-7.47.91a.06.06,0,0,0-.11,0c.57,3.49,2.75,4.15,5.74,2.37,3.91-2.33,6.24-8,6.69-12.58,3.54,1.93,4.44-2.18,4.27-5.81,1.52.52,2.5.12,3.18-1.88.31-.91-.72-3.31-.33-4a21.52,21.52,0,0,0,3-.37C121.07,25.45,125.08,17.31,118.55,17.15Z"/><path class="cls-5" d="M99.23,96.32c-.15-.59-.91-.39-1,.13-.35,3-3.21,9.24-6.18,3.1a.68.68,0,0,0-1.23.16c-1,3.45-6.44,3.6-5.34-.64a.6.6,0,0,0-.74-.74c-9,2.31-11.77-9.75-5.78-14.74,0,0,0-.1,0-.07-7.5,5-3.76,17.41,5.23,16.15-.5,4.4,5.21,5.22,7.4,1.67C94.78,105.86,100.57,101.69,99.23,96.32Z"/><path class="cls-5" d="M65.73,111.77c-1.48,1.22-7.51,1.3-4.91-1.11a.6.6,0,0,0-.42-1c-4-.4-6.81-3.13-5.56-7.28.93-3.06,4-5.37,6.31-2.06.26.37.87,0,.62-.36-2.41-3.7-6.19-2-7.68,1.54-1.94,4.63.86,8.18,5.18,9.15-2.14,3.18,5.09,4.75,7.2,1.7C66.8,111.87,66.11,111.44,65.73,111.77Z"/><path class="cls-5" d="M111.19,137.78c-3-2.76-8.24,1.85-9.61,4.41a.65.65,0,0,0,.38.95,4.45,4.45,0,0,0,5.51-2.24.5.5,0,0,0-.79-.61c-1.06,1-2.1,1.9-3.48,1.79,1.6-2.12,5.58-5.47,7.42-3.06,2.65,3.45-3.84,6.14-6.1,6.7-3.82.93-8.86-.91-5.82-5.44,2.78-4.14,8-5.44,12.49-6.49.07,0,0-.1,0-.11-5-.47-13.69,3.15-14.48,8.81-.73,5.2,6.21,5.07,9.47,4C109.17,145.44,115.13,141.45,111.19,137.78Z"/><path class="cls-5" d="M23,93.46a2.41,2.41,0,0,0,.17-1.66c-.25-.63-1-1-1.48-1.38a.63.63,0,0,0-.92.37,4.27,4.27,0,0,0-.14,2.52,1.51,1.51,0,0,0,.08.53A2,2,0,0,0,21.8,95a1,1,0,0,0,.58,0A1.09,1.09,0,0,0,23,95C24,94.77,23.47,93.9,23,93.46Z"/><path class="cls-5" d="M33.55,100.3a.61.61,0,0,0-.15.13.16.16,0,0,0-.19.12A4.8,4.8,0,0,0,33,102a.46.46,0,0,0,.85.23,5.3,5.3,0,0,0,.27-.59.62.62,0,0,0,.36-.55,1.33,1.33,0,0,0,0-.2A.64.64,0,0,0,33.55,100.3Z"/><path class="cls-5" d="M13.41,104.46a3.23,3.23,0,0,0-2.3-1.89,1,1,0,0,0-1.21.92,3.69,3.69,0,0,0,.19,1.44.22.22,0,0,0,0,.08,5.44,5.44,0,0,0,1.48,2.64.9.9,0,0,0,1.42-.18A3.81,3.81,0,0,0,13.41,104.46Z"/><g class="cls-7"><path class="cls-8" d="M5.56,51.08c.9,7.06,4.44,13.3,11.73,16.82C27,72.57,38.9,69.9,45,61.13c1.39,3,2.33,5.62,6,5.85,5.61.36,4.63-3.9,6.73-7.24C65,85.59,102.25,69.91,95.58,45.88c5,1.87,10.59-6.14,7.81-10.59,3.87,1.76,4.64-3,3.82-5.94,2.46-.21,5.58-2.74,5-5.21,4,.81,6.84-2.4,7.7-6,.64-2.73-.24-5.8-1.52-8.59A80.46,80.46,0,0,0,5.56,51.08Z"/></g><g class="cls-7"><path class="cls-8" d="M56.86,9c-4.79-2.76-17.14,7.14-21.17,10.14C28,24.83,20.5,34.8,19.16,44.62A12.26,12.26,0,0,0,31.45,58.27c8.85-.14,19.85-13.43,20-21.63,3.6,3.11,9.11,7.37,11.48,0C73.64,45.19,84.71,20.28,78.51,19c5.82,2.91,13.26-7,11.93-12.33C87.5-5.17,60.7,4.72,56.86,9Z"/></g><g class="cls-9"><path class="cls-10" d="M80.45,160.9A80.43,80.43,0,0,0,132.54,19.17c1,2.91,11.61,19.58,4,50.58C127.29,107,87,128.21,42.12,116.24,14.5,108.88,2.86,93.33.58,89.93A80.44,80.44,0,0,0,80.45,160.9Z"/></g><g class="cls-9"><path class="cls-10" d="M156.65,54.66c-1.58,3.33-2.45,7.63-3.36,10.51-2.13,6.77-4.54,13.39-6.76,20.12-4.92,14.93-15.31,30.43-29.82,37.22-8,3.75-15.45,9.6-24,12.23-7.3,2.25-15.11,2.9-22.54,4.67-11,2.62-18.61,6.35-30.11,4.24a56.37,56.37,0,0,1-15.37-5.2,80.59,80.59,0,0,0,13.52,10.49c2.35.86,4.7,1.64,7,2.32a69.2,69.2,0,0,0,37.36.67c18.41-4.63,40.82-15.21,54.57-28.58,10.48-10.18,17.4-21.82,22.05-35.63.47-1.39,1.05-3.51,1.62-6,0-.41,0-.82,0-1.23A80.34,80.34,0,0,0,156.65,54.66Z"/></g><g class="cls-11"><path class="cls-8" d="M67.44,29.23c5.4-1.16,9.45-7.56,10.81-12.52,2.07-7.55-1.36-10.26-8.49-10-3,.09-5.58.11-8.31,1.65-2.21,1.24-3.86,4.18-6.07,5.16-2.53,1.12-5.87.11-8.65,1.57-3.6,1.9-3.6,3.46-5.14,7.1-13.71-6.65-27,19.68-18.5,29.87,5.52,6.62,18.2,2.91,24.51-.78,5.9-3.44,11.19-13.16,12-19.6C62.07,34,69.67,37.56,67.44,29.23Z"/></g><g class="cls-11"><path class="cls-8" d="M57.78,29.69c5.5.75,12.65-5.87,6.42-9.67s-14,1.83-17.44,6.52C39.92,22.26,31.43,29,31.08,36.74c-.19,4.06,2,7,6.2,7.64,6.49,1,11-5.59,15.89-8.7Z"/></g><path class="cls-12" d="M65.59,80.17c-4.05-6.58-14.76-7.56-18.88-.64-2.78,4.68-3,16.19,3.46,18.12,0,0,.09-.05,0-.09-4.23-3.29-5.38-10.11-3.69-15.1,2.92-8.67,12.81-6.85,17.83-1.34C65,81.79,66.06,80.93,65.59,80.17Z"/><path class="cls-12" d="M69.87,73.94a3.54,3.54,0,0,0-3.19,1.27c-.81,1.28,0,2.67.89,3.62.12.13.31,0,.24-.18-.42-.88-1.08-2.28-.29-3.13A3.12,3.12,0,0,1,70.28,75a4.8,4.8,0,0,1,2.86,1.63c1,1.17.81,2.45,1.08,3.84a.38.38,0,0,0,.69.09C76.6,77.25,72.86,74.08,69.87,73.94Z"/><path class="cls-12" d="M74.55,83c-.12,0-.11.24,0,.24,8.47,0,22-3.68,26.74,5.65.24.47.86.18.91-.25C103.41,77.84,80.05,80.93,74.55,83Z"/><path class="cls-12" d="M117,47.82a.2.2,0,0,0,0-.34c-3.58-2.4-9.91.56-11.45,4.24-2.17,5.22,1.11,13.85,6.23,16.22.46.21,1.16-.27.78-.78-3.06-4.12-7.79-9-5.4-14.74C109.12,47.81,113.49,49.46,117,47.82Z"/><path class="cls-12" d="M122.13,38.63c-3.19-.26-4.77,2.82-2.94,5.36,0,0,.12,0,.1,0a3.89,3.89,0,0,1,.26-3.53c1-1.32,3.1-.82,4.2.15,1.59,1.41,2,3.65,3.27,5.28.26.33.72,0,.65-.38C127.07,42.64,125.43,38.9,122.13,38.63Z"/><path class="cls-12" d="M85.18,19.27c-4.22.56-3.81,4.2-5.81,6.69-.58-1.4-1.16-3-3-2.6s-2.66,2.56-2.83,4.45c-.86-.85-2-1.46-3-.63-2.16,1.66,0,5.51,1.21,7,.07.08.17,0,.13-.11a16.46,16.46,0,0,1-1.17-3q1.53-4.53,2.92-1.33a.58.58,0,0,0,1.07-.29c0-1.12.15-5.69,3.23-3.37a9.81,9.81,0,0,1,.66,1.49.67.67,0,0,0,1.05.14,6.49,6.49,0,0,0,1.78-2.76c.51-1.2.85-3.28,2.36-3.68l4,1c.11.62.22,1.24.32,1.86s.92.38,1-.13C89.42,21.27,88.14,18.88,85.18,19.27Z"/><path class="cls-12" d="M27.78,40.53c-4-1.34-5.16,2.48-5.59,5.7-1.71-1.88-5-1.87-7.1-.3a4,4,0,0,0,2.63,7.37.36.36,0,0,0,.18-.66c-7.79-5.12,2.32-9.64,4.15-4.93a.48.48,0,0,0,.94-.13c.17-2.8.47-8,4.88-6.33,3.29,1.22,5.92,6.31,4.52,9.58,0,.09.08.16.13.08C34.82,47.49,31.28,41.7,27.78,40.53Z"/><path class="cls-12" d="M13.2,58.51c.05-.08-.08-.18-.14-.1C9.42,62.68,3.55,77,11.45,80.09c.24.1.34-.22.22-.38C7,73.73,9,64.42,13.2,58.51Z"/><path class="cls-12" d="M53.87,9.4C52.61,7.21,51,7,48.85,8.29c-1.63,1-2.13,2.55-3.25,3.94-.93,1.17-1.36,1.11-2.42,2-2,1.71-3,3.89-5.71,5-1.44.57-2.58.28-3.72,1.45-3.24,3.35.36,4.9-5.91,8.14-2.06,1.07-3.56,1.16-5.28,2.85a.43.43,0,0,0,.41.71l1.47-.22c.16,0,.15-.28,0-.31a46,46,0,0,0,6.78-3.36c1.37-1.16,1.46-2.37,2.2-3.91,2.48-5.16,2.89-2.89,6.37-4.86,1.93-1.1,3.19-4.91,5.75-4.61a.62.62,0,0,0,.59-.45c.32-1.59,3.88-8.86,6.81-4.71C53.33,10.5,54.22,10,53.87,9.4Z"/><path class="cls-12" d="M77.66,3.77a.62.62,0,0,0-.43.75,61.54,61.54,0,0,1,1.2,6.31c.23,1.17.5,1.38-.44,2.19s-1,.45-1.92.63a3.33,3.33,0,0,0-1.36.46c-1.52,1-2.2,3.92.35,3.44,0,0,0-.08,0-.1-.39-1.92.14-2.82,1.6-2.71a11.69,11.69,0,0,0,1.19-.09,3.37,3.37,0,0,0,.83-.21A1.86,1.86,0,0,0,79.87,13c.23-1.21-.39-2.68-.55-3.86a36.46,36.46,0,0,0-.72-4.2c1.75.25,2.18,4.33,3,5.31a.44.44,0,0,0,.74-.19C82.88,7.85,80.37,2.87,77.66,3.77Z"/><path class="cls-12" d="M108.07,119.33c-2.71-1.12-3.81,1.37-5.24,3.08-1.4-1.2-3-2.21-4.9-1.54s-3.24,2.68-4.19,4.38c-.79,1.4-3.16,7,.68,5.89a.17.17,0,0,0,0-.33c-2.47-.74-.17-4.2.61-5.42a10.59,10.59,0,0,1,1.3-1.75c2-2.08,4.12-1.56,6,.29a.74.74,0,0,0,1,0c.52-.49,1.14-1.8,1.71-2.15l3.29-.15c.13.34.26.68.4,1a7,7,0,0,1,0,2.33c-.07.64.8.74,1.1.3A4.21,4.21,0,0,0,108.07,119.33Z"/><path class="cls-12" d="M70.79,96.81c-2.34-.78-3.84.94-4.05,3-1.87-.3-3.12,1.22-3.53,3.36s-.88,6.12,1,7.5a.44.44,0,0,0,.64-.26c.36-1.58-1.25-10.53,2.35-8.64a.88.88,0,0,0,1.28-1c-.41-1.61.65-3,2.32-2.26a3.39,3.39,0,0,1,1.88,2.31,16.55,16.55,0,0,1,.83,2.82.13.13,0,0,0,.25,0C74.41,101.15,73.47,97.71,70.79,96.81Z"/><path class="cls-12" d="M77.87,104a2.8,2.8,0,0,0-1.85-.89c-.63,0-1.64.3-1.78,1a.22.22,0,0,0,.27.27c.49-.09.8-.41,1.34-.35a1.89,1.89,0,0,1,1.1.52c.17.16.47.51.4.78s-.64.39-.9.46a.55.55,0,0,0-.39.39.51.51,0,0,0,0,.3.56.56,0,0,0,.53.4A1.65,1.65,0,0,0,77.87,104Z"/><path class="cls-12" d="M108.84,132.89c-3.15.86-6.74.78-9.48,2.77a11.87,11.87,0,0,0-4.49,6.94.45.45,0,0,0,.74.43c2-1.8,2.59-4.53,4.78-6.23,2.56-2,6-1.77,8.57-3.61C109.1,133.09,109,132.84,108.84,132.89Z"/><path class="cls-12" d="M108.42,136.21a7.88,7.88,0,0,0-6.15,1.75c-1.36,1.15-3.07,3.83-1.89,5.57a.25.25,0,0,0,.43,0,10.64,10.64,0,0,0,.79-2.51,5.71,5.71,0,0,1,1.63-2.36,13.72,13.72,0,0,1,5.21-2.33A.06.06,0,0,0,108.42,136.21Z"/><path class="cls-12" d="M110.29,138.77s-.09,0-.07,0c.86,2.19-1.31,3.61-3,4.41-.9.42-1.83.79-2.76,1.13-.56.2-1.36.35-1.7.89a.48.48,0,0,0,.17.65c.78.36,1.8-.24,2.51-.54a17.75,17.75,0,0,0,3.58-2C110.4,142.29,112.15,140.29,110.29,138.77Z"/><path class="cls-12" d="M107.09,132c-3.8-2.48-9.94,1.14-12.79,3.66-3.19,2.84-6,8.2-2,11.61.2.17.6,0,.49-.29-3.39-8.93,6.77-14.25,14.22-14.77A.12.12,0,0,0,107.09,132Z"/><path class="cls-12" d="M77.86,126.54c-1.8,1.06-4.75,7.38-7.16,5.38a.73.73,0,0,0-1.21.32c-.81,2.72-2.18,5.11-5.61,3.9a11.47,11.47,0,0,1-3.32-2.21s-.08,0-.06.06c1.4,2.34,2.81,4.23,5.88,3.67,2.36-.43,3.48-2.14,4.21-4.18,3.24,1.3,7.11-3.76,7.78-6.55A.35.35,0,0,0,77.86,126.54Z"/><path class="cls-12" d="M94.63,120.65c-.73-1.91-2.06-2.12-3.69-.76-1.38,1.15-1.75,2.84-2,4.53-.08.48-.36,3.68-1.13,3.88-.28.08-.81-1-1.26-.86-1.65.67-2.48,1-2.07,3.29.29,1.56.89,2.41.85,4.15a7.7,7.7,0,0,1-1.11,4.19c-1.64,2.87-5,6.24-8.15,2.87-.1-.1-.25,0-.19.15,3.17,5.78,9.38-.58,10.73-4.62.74-2.21.12-3.54-.06-5.71-.41-5,.15-1.06,1.41-1.62a3.54,3.54,0,0,0,1.58-.84,4.88,4.88,0,0,0,.67-2c0-.38.11-.76.16-1.14a4.29,4.29,0,0,1,2.92-4.92C93.67,122,94.94,121.45,94.63,120.65Z"/><path class="cls-12" d="M142.89,32a5.56,5.56,0,0,0-2.67,1.75,13,13,0,0,0-2.2,3.06c-.34.67-1,1.84-.45,2.56a.37.37,0,0,0,.57.07,5.86,5.86,0,0,0,.74-1.74,11.28,11.28,0,0,1,1.61-2.6,8.49,8.49,0,0,1,1.94-1.89c.51-.33,1.26-.31,1.71-.64,0,0,0,0,0-.06C144.11,31.92,143.3,31.88,142.89,32Z"/><path class="cls-12" d="M36.5,95.63a3.88,3.88,0,0,0-4-1.45c.11-3.37-1.94-6.4-5.09-4.67-1.89-4.15-9.65-2.28-13.65-.24.39-2,.73-4.62-.89-5.33-2.37-1-3,3.86-3.48,4.91,0,0,0,0,0,0a23,23,0,0,1,1.73-2.44c2-.86,1,2.84.76,4.23-.1.6.54,1.34,1.15.89,2.31-1.67,12.26-5.18,13.06-.46.12.69,1,.75,1.43.38q4.74-.27,3.06,4a.86.86,0,0,0,1.43.83q5.81,1.89,3.79,6.78c-.31,1.05-.66,2.08-1,3.1-.26.72.83,1.12,1.21.51C37.91,103.64,39.26,98.59,36.5,95.63Z"/><path class="cls-5" d="M94,28.16c-.43-2.37-1.89-4.15-4.31-2.84a.54.54,0,0,0,.27,1c5.84-.48,1.18,11-.52,12.85-2.91,3.13-6.91,2.77-10.66,1.7-4-1.14-5.79-3.24-7.83-6.63-.07-.12-.24,0-.19.11C73,39.47,76,41.56,81.59,42.58c4.1.73,7.48-.35,9.9-3.84A15.09,15.09,0,0,0,94,28.16Z"/><path class="cls-5" d="M37.18,55.05c-.47-.2-.77.56-.34.81C45.42,60.78,40,74.39,31.5,67.11a.56.56,0,0,0-.86.12l-3.44.68a.53.53,0,0,0-1,.13,29.18,29.18,0,0,1-4.37,10.7C15.68,87.41,6.93,81.3,5.77,73.2c0,0,0,0,0,0,.21,6,5.11,13.56,12,10.67,3.47-1.44,5.7-5.25,7.19-8.48.52-1.13,1.16-5.1,2-5.67-.05,0,1.65.58,1.43.69,1-.5,2.48-1.51,3.47-1.54,2.69-.09,4.51,1.78,7.62.51C47.3,66.19,43.05,57.51,37.18,55.05Z"/><path class="cls-5" d="M63.69,116.18c-7.59,5.08-13.31-4.48-16.25-10.07,0,0,0,0,0,0,1.8,6.74,8.89,16.79,16.9,11.11C64.92,116.78,64.34,115.75,63.69,116.18Z"/><path class="cls-5" d="M87.72,107.2a.26.26,0,0,0-.5,0c-.51,1.91-.22,4-1.21,5.82-1.14,2.07-3.33,1.73-4.68.16,0-.06-.17,0-.18,0-.36,2.46,3.14,2.68,4.61,1.69C87.9,113.47,88.21,109.48,87.72,107.2Z"/><path class="cls-5" d="M83.18,118.59c-2.35-4.2-6.59-1.76-7.08,2.07-2.63-.19-7.36,1.41-5.24,4.58a0,0,0,0,0,.08,0c0-3,2.77-4.32,5.53-3.37a.58.58,0,0,0,.72-.55c0-1.35.32-2.88,1.63-3.56,1.52-.79,2.73.2,3.79,1.3A.37.37,0,0,0,83.18,118.59Z"/><path class="cls-5" d="M106.07,92.94c0-.23-.35-.14-.38.06-.49,3.75-.58,7.4-3.1,10.48-2.24,2.74-6.85,4.8-10.49,4.15-.12,0-.17.16,0,.19C100.81,110.11,107.2,100.77,106.07,92.94Z"/><path class="cls-5" d="M131.16,52.89a.19.19,0,0,0-.37,0c-.4,2.45-.06,5.89-2,7.76-.88.84-2.42.81-3.14,1.8-1.1,1.53-.68,3.36-.84,5.1a14.34,14.34,0,0,1-.48,2.6l-4.16,2.6c-2.34.14-3.69-3.24-4.48-4.9a.11.11,0,0,0-.2.06c.37,5.36,8,8.89,9.78,2.5.54-2-.21-4.82.63-6.53s2.37-1.54,3.5-2.63C131.46,59.21,131.59,55.58,131.16,52.89Z"/><path class="cls-5" d="M56.87,11.91c-1.16,5.24-7.52,11.69-13.37,8.34a.36.36,0,0,0-.53.21l-7,3.93c-.17-.08-.35.08-.41.23-1.07,3-7,13.36-12.49,8.93a.07.07,0,0,0-.1.11c2.15,2.53,6,.54,8.22-1.11s3.1-5.17,5.28-6.42c1.39-.8,2.79-.26,4.28-1.15s1.82-2.87,3.59-3.4,3.54.55,5.76-.4C53.76,19.61,57.05,16,57.31,12A.22.22,0,0,0,56.87,11.91Z"/><path class="cls-5" d="M63.87,50.65c-1.65.37-2.43,1.07-4.1-.73A.48.48,0,0,0,59,50q-.63,1.76-2.88,1a.48.48,0,0,0-.92.26c2,8.85-6.64,17.95-15,19.12,0,0,0,0,0,.06,8,1.27,15.67-8.61,16.19-15.82a10.94,10.94,0,0,0,0-1.62,1.66,1.66,0,0,0,1.31,0c.49-.18.69-.83,1.11-1,1.55-.81.29-.17,1.58-.16a14,14,0,0,0,3.67-.28C64.7,51.42,64.45,50.53,63.87,50.65Z"/><path class="cls-5" d="M83.27,65.66c-1.16,1.64-3.15,3.48-5.39,2.39-.9-.44-1.36-1.49-1.95-2.23A3.67,3.67,0,0,0,74,64.24a.48.48,0,0,0-.55.22c-1.16,2.44-4.06-.8-4.78-1.9-.06-.09-.22,0-.18.08a5.69,5.69,0,0,0,3.22,3.51c.72.23,1.06,0,1.73-.1.18,0,.41-.54.54-.53.74,0,1.08,1.14,1.42,1.63,1.11,1.6,2.15,2.79,4.27,2.6a4.37,4.37,0,0,0,4.21-3.92C83.91,65.47,83.45,65.42,83.27,65.66Z"/><path class="cls-5" d="M115,20.05c-2.09,3.41-10,9.42-14.37,8.64-.4-.08-.9.26-.73.72a16.83,16.83,0,0,1,1.1,6.65c0,.59-1.29,6.26-2.6,4.22a.6.6,0,0,0-1,.6c2.18,4.24-6.52,3.39-8.34,3.69a.33.33,0,0,0,0,.63c3,.42,5.32,1.35,8-.58a3.68,3.68,0,0,0,1.8-2.36c2.33.66,3.41-6.91,3.23-8.68-.11-1-.72-3-.37-3.52,0,0,4.25-1.64,4.68-1.88,3.7-2.12,7.78-3.59,9.37-7.81C115.89,19.92,115.2,19.67,115,20.05Z"/><path class="cls-5" d="M77.7,53a1.47,1.47,0,0,0-2-.52,3,3,0,0,0-1.62,2c0,.09-.09.18-.12.27a1,1,0,0,0,0,.68,3.71,3.71,0,0,0,0,1.33,1.38,1.38,0,0,0,1.7,1A3.46,3.46,0,0,0,77.7,53Z"/><path class="cls-5" d="M82,58.26a.44.44,0,0,0,0,.88A.44.44,0,0,0,82,58.26Z"/><path class="cls-5" d="M108.16,14.83c-.78-3.46-4.1-7.76-7.76-8.48s-6.73,3.23-6.29,6.54c0,0,.07,0,.07,0a5.77,5.77,0,0,1,2.55-5.3c2.71-1.84,5-.63,7.07,1.21a12,12,0,0,1,3.74,5.36,8.35,8.35,0,0,1-1,7.44c-2,2.68-5.31,3.51-7.73,1a9.31,9.31,0,0,1-2.37-5.8c-.12-2.42,1.39-9.23,5.78-4.89,1.3,1.28,2.28,6.79.2,7.93-1.52.83-3.56-2-2.84-3.29,1.38-2.47,1.66,0,1.94.76a.22.22,0,0,0,.42-.11c-.23-1.16-.73-4.12-2.43-2.63-1.36,1.18-.46,5.36,1,6.13,4.14,2.17,5.1-10.15-.32-11.18C97.56,9,96.36,12.65,96,14.64a9.76,9.76,0,0,0,2.41,8.42,5.05,5.05,0,0,0,6.78.61A8.27,8.27,0,0,0,108.16,14.83Z"/></g></g></g></svg>