<svg xmlns="http://www.w3.org/2000/svg" viewBox="0 0 164.78 164.78"><defs><style>.cls-1{isolation:isolate;}.cls-2,.cls-3{fill:#3264ae;}.cls-3,.cls-7{mix-blend-mode:multiply;}.cls-4,.cls-5,.cls-6{fill:#60bfee;mix-blend-mode:screen;}.cls-4,.cls-7{opacity:0.47;}.cls-5{opacity:0.3;}.cls-6{opacity:0.26;}.cls-7{fill:#329693;}</style></defs><title>planet_neptune</title><g class="cls-1"><g id="Layer_2" data-name="Layer 2"><g id="neptune"><circle class="cls-2" cx="82.39" cy="82.39" r="82.39" transform="translate(-19.76 138.45) rotate(-73.76)"/><path class="cls-3" d="M59.19,41.36c9.23,1.36,18.38,3.56,27.75,3.78s17.52-2.35,26.29-5.63c4.36-1.62,8.84-3.19,13.52-3.51,5.61-.39,10.4,1.75,15.4,4a28.71,28.71,0,0,0,12.49,2.81l-.36-.63a21.1,21.1,0,0,1-5.88-.62c-6.56-1.74-12.1-6.05-19.07-6.32-7.52-.3-14.62,3-21.52,5.55A59,59,0,0,1,80.41,44c-8.09-.86-16-3-24.13-3.73-10.9-1-21.86,4.05-32,7.41-5.9,2-12.28,3.9-18.56,4.5l-.4,1C22.88,51.88,42.69,38.93,59.19,41.36Z"/><path class="cls-3" d="M22.21,138.63a151.39,151.39,0,0,0,21.27-2.2c4.75-.79,9.52-2.05,14.3-2.54,7.18-.74,13.55,2,20.09,4.49,14.09,5.47,27.85,4.08,42.36,1,8.86-1.85,17.78-3.62,26.61-5.73.29-.37.58-.73.86-1.1-6.26,1.55-12.57,2.93-18.93,4.24-15.4,3.16-31.24,7.43-46.7,2.25-5.64-1.89-11-4.72-16.94-5.71-4.83-.81-9.42,0-14.16.94a176.77,176.77,0,0,1-29.43,3.62C21.76,138.17,22,138.4,22.21,138.63Z"/><path class="cls-4" d="M121,111.8c-1.45.27-.87,2.41.46,2.43,7.7.12,15.41-.94,23,.2-3.85,2.69-9.93,2.29-14.3,3.65-7,2.17-12.63,5.91-20.24,4.78-4.51-.67-8.22-1.35-12.77-.52-7.53,1.38-11.42,2.64-18.46-.75-9.19-4.42-19.17-2.43-28.93-1.56-1.65.15-18.5,0-18.22,2.33,0,.19,0,.39.07.58a1.86,1.86,0,0,0,1,1.56c9.28,3.95,19.91,1.74,29.68,1.64s19.08,5.54,28.45,3.22c2.69-.66,5.19-1.94,7.89-2.53,4.39-1,8.11.22,12.4.62,4.73.44,8.75-.68,13.14-2.5a111.65,111.65,0,0,1,17.49-5.38,11.92,11.92,0,0,0,7.93-5.46,1.79,1.79,0,0,0-1.19-2.55C139.51,109.52,129.9,110.14,121,111.8Z"/><path class="cls-4" d="M113.7,50.14c-8.48,2.18-16.81.18-25.33,1.45-7.47,1.12-13,8.71-20.62,8C62,59,56.38,57.17,50.55,56.68A80.23,80.23,0,0,0,31.33,57C23.29,58.3,7,62.12,5.94,72.29c-.14,1.3.94,2.75,2.41,2.18,4.11-1.59,7.53-4.42,11.68-6,5.13-2,10.58-2.72,15.94-3.79,5.52-1.1,11-2.15,16.62-2.74C58.43,61.32,64,63.7,69.7,63c4.76-.61,7.22-3.45,11-6,7.35-4.9,15.58-3.13,23.83-3.32,14.11-.32,27.57-10.91,40.71-1.17a.94.94,0,0,0,1.26-1.39C137.34,41.85,124.44,47.37,113.7,50.14Z"/><path class="cls-4" d="M123.17,79.55c-6,1.24-10.29,5.32-16.8,5.9s-13-.53-19.44-.48c-13.24.11-25.59,3.54-38.37,6.51C34.3,94.8,20.15,96.18,5.65,97.72,2.9,98,2.2,102.3,5.21,102.8c14.19,2.36,28.82-.75,42.33-5.11,15.32-5,29.11-9.71,45.52-9.5,6.33.09,12.92.92,19.06-1.11,7.08-2.35,11.85-6.52,20-5.18,9.83,1.62,19.38,5.25,27.41-2.66.68-.67-.34-1.91-1.11-1.29C146.54,87.49,135.81,77,123.17,79.55Z"/><path class="cls-4" d="M89.29,21.76c-4.71.74-7.18,4.38-10.94,6.91-9.57,6.46-19.41,1.55-29.68.68a51.61,51.61,0,0,0-22,3.19.08.08,0,0,0,.05.15c11.14-3.8,21-3.12,32.45-1.08,6.16,1.09,12.14,1.82,17.75-1.55C79.51,28.48,81.4,26,84,24.32c4.53-3,9.35-2.66,14.35-1.09,6.59,2.07,11.27,3.89,17-.7a.08.08,0,1,0-.1-.12C106.64,30,98.47,20.32,89.29,21.76Z"/><path class="cls-4" d="M125.3,143.58c-3.71,8-10.31,5.47-17.08,6.51-6,.91-9.91,5.91-15.62,7.5-8.62,2.42-15.67-2.78-24-4.08A75.6,75.6,0,0,0,50,153.05c-.1,0-.09.16,0,.15,10.33-.9,19.57.61,29.35,3.82,5.32,1.74,10.36,2.74,15.62.3,3.45-1.6,6.11-4.4,9.66-5.82,4-1.59,7.54-1,11.65-1.26,4.73-.34,7.23-2.17,9.15-6.58C125.48,143.57,125.34,143.49,125.3,143.58Z"/><path class="cls-5" d="M22.52,73.7a4.45,4.45,0,0,0-2.75,5.64,5.45,5.45,0,0,0,2.32,4.09,18.36,18.36,0,0,0,10.5,3.17c4.06.92,8.39.15,11-3.42a4.47,4.47,0,0,0-.3-6.11C38.05,71.72,29.25,71.11,22.52,73.7Z"/><path class="cls-5" d="M55.21,78.72c.13,2.57,4.13,2.38,4-.2S55.09,76.14,55.21,78.72Z"/><path class="cls-5" d="M121.79,59.23c-6.15-2.5-15.88-1.73-14.42,6.3,1.38,7.59,11.26,7.31,18,5.37,7.66,6.13,22.57,4.92,20.33-7.42C143.62,51.9,127.33,50.72,121.79,59.23Z"/><path class="cls-5" d="M120.55,52a1.7,1.7,0,0,0-.62,2.22,1.13,1.13,0,0,0,2.16-.11s0,0,0,0l.06-.06.18-.15a1.79,1.79,0,0,0,.34-.43,1,1,0,0,0,0-1A1.59,1.59,0,0,0,120.55,52Z"/><path class="cls-5" d="M92.5,99.07a4.91,4.91,0,0,0-1.27,1.17,13.79,13.79,0,0,0-4.68,3.3,4,4,0,0,0-.9,1.61,5.81,5.81,0,0,0-.89.55.86.86,0,0,0-.39.76c.69,4.83,6.66,8.61,11.38,9.29,5.2.74,11.15-3.36,11.74-8.75.49-4.59-3.63-7.39-7.71-8-.43-.06-.86-.08-1.3-.1A6.15,6.15,0,0,0,92.5,99.07Z"/><path class="cls-5" d="M141,93.81a7.8,7.8,0,0,0,.89,3.28c.14.28.3.54.46.8l.28.47c.08.14.4.8.11.17.66,1.43,2.32,2.83,4.05,2a7.64,7.64,0,0,0,3.69-3.16,3,3,0,0,0-.4-3.36,2.85,2.85,0,0,0-2-1,4.38,4.38,0,0,0-3.57-2.19A2.92,2.92,0,0,0,141,93.81Z"/><path class="cls-5" d="M15.37,121.53a14.54,14.54,0,0,0,.81,3.62,9.31,9.31,0,0,0,6.91,7.53l.26,0a5.92,5.92,0,0,0,4.59-.23c1.79-.89,1.43-3.28.36-4.48a5.67,5.67,0,0,0-1.76-1.22,11,11,0,0,0-6.49-8.26C18,117.58,15.13,119,15.37,121.53Z"/><path class="cls-5" d="M65.39,11.71A15,15,0,0,0,61.77,14a3,3,0,0,0-.38,4.72,5.91,5.91,0,0,0,4,1.64,6.55,6.55,0,0,0,3.15-1.23,2.81,2.81,0,0,0,1.24-1.77,2.63,2.63,0,0,0,2.41-1.72,2.68,2.68,0,0,0-1.27-3.32C69.15,11.65,67.27,11.07,65.39,11.71Z"/><path class="cls-5" d="M87.35,67.15A1.8,1.8,0,0,0,90.94,67,1.8,1.8,0,0,0,87.35,67.15Z"/><path class="cls-5" d="M120.09,17.92l.21.49a2.4,2.4,0,0,0,4.59-.22l.16-.51a2.58,2.58,0,1,0-5,.24Z"/><path class="cls-5" d="M95.46,11.52a1.94,1.94,0,0,0-.93,2.17,1.78,1.78,0,0,0,2.07,1.14,1.47,1.47,0,0,0,1.06-2.3,1.25,1.25,0,0,0-.31-.72A1.45,1.45,0,0,0,95.46,11.52Z"/><path class="cls-5" d="M65.4,142c9,4.77,23.84,9.72,33.94,6.14A1.6,1.6,0,0,0,99.2,145c-5.34-1.46-11.21-.6-16.71-1.58s-10.75-2.74-16.11-4.17A1.44,1.44,0,0,0,65.4,142Z"/><path class="cls-6" d="M124.79,11.75A82.4,82.4,0,0,0,4.61,109.57c18,9.52,41,10.08,60.85,4.28C114.09,99.65,140.19,49.56,124.79,11.75Z"/><path class="cls-7" d="M145.76,29.74c-.18.34-.35.68-.51,1.06-4.06,9.45-3.28,22.58-7.63,33-8.15,19.45-20,36.5-39,46.65-31,16.58-60.22,19.35-88.34,11.77A82.39,82.39,0,1,0,145.76,29.74Z"/><path class="cls-7" d="M164.68,78.38a82.15,82.15,0,0,0-6.35-28C155,61,154,72.4,149.84,82.81c-6.12,15.39-15.91,27.51-29,37.61-15.06,11.59-36.11,18.52-54.42,23a95.15,95.15,0,0,1-36.83,2.13,82.84,82.84,0,0,0,8.25,6.06c23.33,4.56,47.86,2.41,69.62-6.87,22.72-9.7,41-22,51.49-45.31a161.39,161.39,0,0,0,5.84-15.75C164.78,82,164.77,80.17,164.68,78.38Z"/><path class="cls-6" d="M80.73,12.76c-11.1-8.39-32.6,3.35-42.13,9.91-15.16,10.45-32.41,35.15-22,54.45,9.2,17.11,32.05,16.42,47,9.38,14.68-6.92,26.71-15.79,33.84-30.9C105,39.41,103.5,16,80.73,12.76Z"/><path class="cls-6" d="M44.11,20.53C26.59,25.67,9,66.17,39.56,63.61,70.39,61,66.73,10.33,44.11,20.53Z"/></g></g></g></svg>