<?xml version="1.0" encoding="utf-8"?>
<!-- Generator: Adobe Illustrator 23.0.2, SVG Export Plug-In . SVG Version: 6.00 Build 0)  -->
<svg version="1.1" id="Layer_1" xmlns="http://www.w3.org/2000/svg" xmlns:xlink="http://www.w3.org/1999/xlink" x="0px" y="0px"
	 viewBox="0 0 160.9 160.9" style="enable-background:new 0 0 160.9 160.9;" xml:space="preserve">
<style type="text/css">
	.st0{fill:#0084E3;}
	.st1{opacity:0.53;fill:#015589;enable-background:new    ;}
	.st2{opacity:0.53;fill:#7D7FDC;enable-background:new    ;}
	.st3{fill:#A3CA47;}
	.st4{opacity:0.6;fill:#47F13E;enable-background:new    ;}
	.st5{fill:#9CB42A;}
	.st6{opacity:0.87;fill:#47F13E;enable-background:new    ;}
	.st7{opacity:0.75;fill:#7BF43A;enable-background:new    ;}
	.st8{fill:#65E66B;}
	.st9{fill:#4C9C3E;}
	.st10{fill:#80573C;}
	.st11{fill:#6FD119;}
	.st12{fill:#83EC3D;}
	.st13{fill:#ABFBB8;}
	.st14{opacity:0.29;fill:#9188CB;enable-background:new    ;}
	.st15{opacity:0.33;fill:#658E27;enable-background:new    ;}
	.st16{opacity:0.44;fill:#015589;enable-background:new    ;}
	.st17{opacity:0.38;fill:#40E6F9;enable-background:new    ;}
	.st18{opacity:0.41;fill:#39BD5C;enable-background:new    ;}
	.st19{opacity:0.27;fill:#BBB6FF;enable-background:new    ;}
	.st20{opacity:0.59;fill:#BBB6FF;enable-background:new    ;}
	.st21{opacity:0.64;fill:#39BD5C;enable-background:new    ;}
	.st22{fill:#C4E55C;}
	.st23{fill:#93C513;}
	.st24{opacity:0.24;}
	.st25{fill:#A8FF99;}
</style>
<title>planet_venus</title>
<g>
	<g>
		<g id="earth">
			<path class="st0" d="M159.9,80.5c0,43.9-35.6,79.6-79.6,79.6S0.8,124.4,0.8,80.5S36.4,0.9,80.4,0.9l0,0
				C124.3,0.9,159.9,36.5,159.9,80.5z"/>
			<path class="st1" d="M10,62.8c-3.7,3.3-5.2,9.7-3.2,14.4c1,2.1,2.4,2,3.7,3.4c1.5,1.6,0.3,2.6,0.4,4.6c0,1.6,1.2,2.2,1.4,3.5
				c0.2,1.6-1.2,3.7-1.8,5.2c-1.6,4.4-2.1,9.4,3,11.5c1.9,0.8,4.2,0.4,5.3,2.4c1,1.8-0.5,4,0.7,5.7c1,1.4,2.7,1.5,3.3,3.5
				c0.7,2.2,0.7,4.4,1.5,6.6c0.7,2,0.2,3.2,0.5,5.1c0.3,2.4,1.4,1.6,2.4,3c0.7,1,0.5,2.2,1.1,3.3c1,1.6,2.9,2.3,4.7,2.9
				c1.4,0.5,3.5,0.7,4.5,1.9c0.9,1.1,0.7,2.6,1.5,3.8c1.4,1.7,3.2,3.1,5.2,4.2c2.7,0.9,4.1-1.7,6.6-1.2c2.8,0.6,4.8,3.7,7.6,4.5
				c3.1,0.9,5.2-1,7.9,1c0.8,0.6,1.3,1.6,2.2,2c1.2,0.5,2.2-0.4,3.4-0.3c1.8,0.2,4,1.3,5.9,1.7c4.2,0.9,6.8,3.1,10.2-0.5
				c1.7-1.9,3.7-4.7,6.6-4.2c1.1,0.2,2.2,1.2,3.5,1.4c3.6,0.6,7.3,0.1,10.6-1.4c2.9-1.4,4-4.1,6.1-6.4c1.9-2.1,3.5-2,6.1-2.6
				c5.9-1.1,8.6-4.2,11.6-9.4c2.3-3.8,2-8.5,4.7-12c1.7-2.2,4.1-3.2,6.3-4.9c1.8-1.5,3.5-3.2,5.1-4.9c2.8-2.7,3.2-5.2,4.2-8.9
				s2.1-8,2-12.1c-0.1-3.5-2-6.6-1.2-10.1C155,73,157,65.1,148,63.7c-6.1-1-8.5,3.4-11.9,7.8c-2,2.7-3.3,4.6-6.3,6.1
				c-2.4,1.2-5.4,2.5-6.5,5.2c-1,2.4,0.7,4.1,0.7,6.5c0.1,5.3-4.6,9.6-8,12.9c-2.6,2.5-4.9,4.8-6.6,8.1c-1.3,2.5-1.7,5.2-2.8,7.7
				c-2.2,4.9-7.8,7.3-13,6.2c-3.1-0.7-5.4-1.8-8.8-1.6c-3.4,0.2-6.8,0.9-10.1,1.9c-6.3,1.9-11.9,2.8-16.7-2.9
				c-3.5-4.1-2.2-9.5-2.6-14.4c-0.5-6.1-3.7-12.1-9.4-14.7c-2.2-1-4.6-1.4-6.9-1.2c-1.4,0.1-3.7,1-5.1,0.4c-3.5-1.4-3.3-5.3-3.3-8.3
				c0-3.8-1.1-6.8-4.9-8.1c-2.8-1-3-0.2-2.6-3.2c0.3-1.9,1.3-4.2,0.3-6c-1.3-2.4-1.7-0.7-3.5-1c-3.3-0.4-3.4-5.6-2.2-8.2
				c1.7-3.9,8.1-6.3,7.7-11c-0.4-4.2-7-3.6-6.5,0.5c-4.2-1.3-6.5,2.9-5.8,6.5c0.2,1.3,1.1,2.5,1.2,3.9c0,0.8-0.5,4.1-1.4,4.3
				c-1.8,0.4-4-5.8-6-3.1C5.6,59.5,8.4,62.1,10,62.8z"/>
			<path class="st2" d="M67.1,13.1c-1.5-0.9-1.9-2.9-3.3-3.7c-3-1.8-5.8-0.8-8.9-0.7c-3.6,0.1-5.3-0.3-8.6,1.9
				c-8.5,5.5-19.6,11.6-25.7,19.6c-3,4-5.7,7.7-8.9,11.6c-1,1.2-1.9,2.3-2.7,3.5c-4,8.3-6.7,17.2-7.7,26.4C2,77.1,3.6,82.4,6.2,87.3
				c2.1,3.6,8.9,9.5,11.4,3.3c2.4,3,3.3,8.1,4.7,11.6c0.7,1.7,0.4,4.2,2.9,4.7c1.6,0.3,2.8-0.2,3-1.6c0.7,4.4,6.8,3,9.6,1
				c5.1-3.6,4.2-8.5,5.3-13.9c4.4,0.6,10.4,4.9,12-2.4c8-0.6,10-12.9,8.1-19c-2-6.5-11.8-15.6,0.4-19c3.4-0.9,7,0.7,10.3-0.1
				c6.3-1.5,8.2-7.8,8.4-13.5c0.2-5.2-0.2-10.2-2.4-15C76.8,16.7,72.6,16.5,67.1,13.1z"/>
			<path class="st1" d="M149.6,63c4.2-1.1,0.3-7.6,0.1-10.7c-0.1-3.4,0-6.8,0.4-10.2C128.9,3.6,80.5-10.4,42,10.8
				c-17.8,9.8-31.1,26-37.4,45.3c0.6,0.1,1.2,0.2,1.8,0.3c7.3,0.6,7.8-6.9,12.5-11.4c3.5-3.4,10.1-4.4,12.9-7.9
				c2.3-2.9,1.1-6.3,2.3-9.6c2.1-5.9,14.1-15.2,20.3-11.8c-3.1,3.5-9.8,3.1-12.2,7.7c-2.5,4.8,1.2,5.9,5.3,6.5
				c5.9,0.9,17.4-1,22,3.4c-2.3,2.4-4.8-0.5-7.4-0.4c-2.9,0.1-4.2,2.3-6.6,2.3c-2,0-3.5-2.1-5.6-2s-3.4,1.8-5.3,2.5
				c-6.4,2.4-8.1,3-11.7,15.3c-7.5,6.7-8.7,19.4-4.3,28c2.9,5.7,12.9,16.5,20.1,12.9c0.5,2.4,3,2,5.3,2c-2.3,5.1,6.1,8.5,7.3,12.9
				c0.6,2.5,1.3,4.8,2,7.1c0.8,2.7,0.8,3.8-0.2,6.7c-1.7,4.8-3.4,8.3,1.8,12.1c1.9,1.4,3.6,1.1,5.2,3.1s1.8,4.7,3.5,6.8
				s4.8,4,6.6,5.2c2.1,1.5,2.2,2.8,5.3,1.8c3.5-1.1,7.3-5.4,10.8-7.3c3.5-1.8,7.7-2.7,10.7-4.9c3.1-2.2,2.7-3.1,4-6.6
				c1.3-3.6,3.7-5.8,5.7-9.2c2.8-4.7,1.2-9.1,3-13.9c1.2-3.1,4.7-4.7,6.6-7.3c8.2-10.8-1.1-22.8,3.9-33.4c2-4.2,4.5-4.9,3.8-10.6
				s-3.8-7.6-7.8-10.8C132.4,38.2,142.5,64.9,149.6,63z"/>
			<path class="st1" d="M19.4,126.4c1,4.2,7,15.6,9.6,7.2c1-3.2-0.9-6.1-0.8-9.6c0.1-4.4,1.2-5.1-2-8.8c-2.8-3.2-3-4.8-4.7-8.5
				c-1.5-3.1-4.5-2.9-6.4-5.4c-2.1-2.8-0.4-6.4-0.5-9.5c-0.1-4.4-1.2-4.6-3.8-7.2c-3-3.1-3.4-4.4-3.4-9.2c0-3.7,2.3-12-1.4-13.9
				C0.4,65.8,5.9,87,7.2,92.6C9.5,103.2,13.6,116.6,19.4,126.4z"/>
			<path class="st3" d="M146,42.8c-0.2-0.7,0.5-2.4,0.3-3.4c-0.4-1.6-1.6-2.9-2-4.6c-0.1-0.7-0.2-1.3-0.2-2
				C117.8-2.4,67.9-9.5,32.7,16.8C20.5,26,11.1,38.5,5.8,52.9c3.4,0.6,6.6-7.5,7.8-9.6c1.9-3.3,2.8-2.7,4.9-4.7
				c3.5-3.5,5.6-8.4,9.2-12c7-7.2,18.6-16.5,29.3-15.8c-0.9,0.5-3.1,1.4-2.5,2.8c1.8,1.6,6.7-0.3,7.7,2c2,4.7-9.6,4.2-11.6,4.7
				c-3.4,0.7-11.3,5.6-3.7,6.7c1.5,0.2,3.1-1.6,4.7-1.4c1.4,0.1,2.6,1.6,3,1.7c3.9,0.6,8.2-1.7,12.4-1.2c4.7,0.5,12.5,5.6,11.5,11
				c-0.6,2.7-2.9,4.8-5.7,4.9c-5.2-0.1-3.1-3.9-5.6-6.7c-3.5-3.8-3.4,0.4-7.6,0.4C59,33,58,29.6,55.1,30.8c-0.9,0.6-0.9,0.6-0.1,1.9
				c-8.3,2.4-15.7,9.8-19.8,16.8c-4,6.8-7.3,18.8-2,25.6c0.7,0.8,2.1,0.6,2.5,1.3c0,0.1,1.6,5.6,5.2,4.4c-1,6.5,5.6,5.3,12.5,3.2
				c1.3,2.3,3,4.4,4.3,6.4s2.3,2.9,3,5c0.2,0.6-0.5,2.8-0.4,3c0.7,1.3,1.7,0.8,2.4,1.6c2.8,3.6,2.1,6.4,4.3,10.6
				c2.8,5.3,0.7,7.6,0.5,13.9c-0.2,5.1,2.1,7.3,5.3,11.3c2.1,2.6,5,8.8,8.2,9.5c2.2,0.5,5-2,6.8-2.9c5.1-2.6,11-4.1,15.7-7.6
				c1.8-1.3,4.2-3.1,5.2-5.1s0.4-2.1,0.8-3.6c1.1-4,2-3.9,4.9-7c3-3.1,2-2.7,1.7-6.5c-0.4-4.4-0.3-4.6,2.1-8.4
				c1.9-1.7,4.2-3,5.6-5.1c3.7-5.6,1.7-11.1,1.5-16.9c-0.1-2.1,1.1-4,0.9-5.9c-0.1-1.4-1.3-2-1.5-3.4c-0.6-4.3,1.1-5.1,3.7-9.2
				c1.9-3,5.1-9.3,1-11.8c-2,3.3-2.6,0.9-4.5-0.4c-1.7-1.2-3.6-3-5.6-4.3c-4.4-2.7-10.9-7.9-11.2-13.4c5.7-1.4,8.9,7.1,13.6,8.8
				c4,1.5,6.2-0.9,9.9,0c3.9-1.2-4.3-6.7-7.7-8.9c8.6-11.9,19.5,26.2,25,23C151.8,54.8,146.9,46.7,146,42.8z"/>
			<path class="st4" d="M81.9,2.3c-5.3-2.6-12,0.4-17.5,1c-1.8,0.1-3.6,0.4-5.3,1.1c-0.9,0.6-1.9,1.1-3,1.4C55,6,49.3,7.5,51.5,9
				c1.3,0.9,4,0.2,5.6,0.2c1.2,0,3.4-0.3,4.5,0.4c-1.3,0.5-3.5,1.1-4.3,2.5c-1,1.6,1.3,1.7,2.5,1.8c0.9,0.1,5.2-0.2,5.7,0.7
				c0.4,0.9-1.6,1.8,0.1,2.6c-1.3,0.8-3.9,0.9-4.1,2.8c-0.4,3.3,8.2,0,9.5-0.4c2.8-0.7,5.8-1.7,8.7-1.6c2,0.1,1.6,0.9,3,1.8
				c1.8,1.2,4.7-1,6,0.4c0.6,0.7,0.6,1.4,1.7,1.9c1.5,0.6,3.1,1,4.7,1.4c5.3,1.2,10.6,2,16,2.4c2.7,0.3,5.5,0.4,8.2,0.1
				c1.2-0.1,2.4-0.5,3.5-0.6c-0.3,1.4,1.2,1.8,2.3,1.9c1.8,0.2,2.5-0.5,4-1.1c0.9,2.1,3.7,1.6,5.2,2.8c0.9,0.7,0.9,1.8,1.6,2.6
				c0.7,0.8,1.5,0.7,2.4,1.1c-0.7,2.2,1.2,3.6,2.2,5.4c0.5,0.9,1.1,2.2,2,1.8c1.3-0.5,1.2-2.4,1-3.4c-0.8-3.2-2.2-6.2-4.3-8.8
				c-2.3-2.9-5.6-6.8-9.4-7.6c0,0.1,0.1,0.3,0.1,0.4c0.1-1.8-3.1-3.4-4.5-4c-2.6-1.3-5.4-2.1-8.2-2.2c-0.1-2-3.7-4-5.2-4.7
				c-1.9-0.9-4.2-1-5.9-2c-1-0.6-0.3-0.7-1-1.6c-1.1-1.5-4.9-1-6.5-1c-1.7,0.1-3.4-0.1-5.1-0.5c-1.4-0.5-2.5-1.6-4-2
				C86.9,1.9,84.3,1.8,81.9,2.3z"/>
			<path class="st5" d="M23.3,115.8c-0.7-1.1-2.6-2.3-3-3.2c-1.3-2.5-1-4.5-2.8-6.3c-1.9-1.8-4.3-0.8-5.7-4.2
				c-1.1-2.8-0.1-5.7,0.5-8.4c0.5-2.3,1.5-4.8,0.2-6.7c-0.2-0.2-3-0.9-3.6-1.4c-1.4-1.3-1.9-3.1-2.5-4.8c-2.2-5.7,1-22.4-1.9-19.9
				c-1.6,2.3-1.5,2.3-1.7,2.4C-3,89,4.5,116,22.6,135.1c0.9-0.1,1.8-0.4,2.6-1c2-1.7,1.1-3,0.9-5.9
				C25.9,123.8,25.8,119.6,23.3,115.8z"/>
			<path class="st6" d="M83.2,23.4c1.8-1.8,5.3-1.8,7.7-1.4c1.2,0.2,4.7,1,2.8,2.3c0.2,0.3,0.4,0.6,0.8,0.7c0.8,0.4,0.8,0,1.4-0.1
				c1.3-0.3,3.8-0.9,4.9,0.4c-0.2,0.1-0.4,0.4-0.5,0.6c0.7,0.5,1.9,0,2.5,0.6c-0.4,0.2-1,0.3-1.1,0.8c-0.2,1.3,4,1.5,4.8,1.3
				c-0.6,0.3-0.7,0.6-0.5,1.1c0.7,1.5,3.8,1.4,5.3,1.2c-1.5,0.5-3,0.9-4.5,1.1c-0.9,0.2-2.3,0.2-2,1.1c0.1,0.5,0.9,0.5,0.8,1.1
				c-0.1,1.4-5.7,1.5-6.8,1.5c-5.7,0.4-12.6,0.4-16.5-4.4C80,28.1,80.5,25.4,83.2,23.4z"/>
			<path class="st7" d="M123.5,26.4c-2.7,0.5-10.7,6.4-4.6,7.9c-1.6,1.5,3.6,3,4.7,2.5c2-0.8-0.8-1.5-1.5-2.2
				c-1.3-1.5,0.2-1.1,1.6-1.3c0.1-1.3-1.9-2-1.3-3.7c0.8-2.3,3.7-1.2,4.9-2.8c-0.6-1-2.5-0.4-3.5-0.5L123.5,26.4z"/>
			<path class="st8" d="M130.5,25.7c-0.5,0.8-1.3,1.4-2.2,1.8c-0.9,0.3-1.8,0.7-2.6,1.2l0,0c1-0.5,2-0.8,3-1.3
				C129.3,27.1,130.3,26.6,130.5,25.7C130.6,25.7,130.5,25.6,130.5,25.7z"/>
			<path class="st9" d="M105.4,26.1L105.4,26.1"/>
			<path class="st9" d="M105,27.4L105,27.4"/>
			<path class="st9" d="M105.6,26.3L105.6,26.3"/>
			<path class="st10" d="M51.1,23.4L51.1,23.4C51.1,23.5,51.2,23.4,51.1,23.4C51.2,23.4,51.2,23.4,51.1,23.4L51.1,23.4z"/>
			<path class="st7" d="M80,19.9c1.8-0.9-1.5-3.5-3.1-1.3c-1.4-1.2-2.4-0.3-3.7-0.3s-2-0.9-3.6-0.5c-1.1,0.2-2.1,0.8-2.9,1.7
				c-1.2,1.5-1.4,3.9,0.4,4.9c1.4,0.8,2.5,1.4,4,0.6c-0.1,1,0.6,1.9,1.6,2c0.6,0.1,1.2-0.2,1.6-0.7c0.1,1.4,2,4.7,3.9,4
				c1.8-0.7,1.1-4.6,1.2-6.1c0.9,0.1,2.4-0.7,2.1-1.7c1,0.6,3.7-0.8,3.6-2.1C84.9,18.5,81.5,19,80,19.9z"/>
			<path class="st7" d="M79.2,7c-0.2-1.2-1-4-2.9-3.3c-1.2-1.5-6.2-1-6.1,1.3c0,2.5,4.4,3,6.1,3.1c-0.2,1.8,1.8,2.1,3.1,1.4
				c0.6,0.6,1.5,0.7,2.2,0.1l0.1-0.1C82.5,8.4,80.2,7.8,79.2,7z"/>
			<path class="st7" d="M107.8,10.3c1.5-1-1.2-3.2-2.2-3.5c-1.6-0.5-3.3-0.3-4.8,0.5c-0.4-0.8-1.1,0-0.6,0.7c0.7,1.1,2.2,1,3.2,1.2
				c-0.7,0.5-2,1.3-1.9,2.3c0.1,1.3,2,1.5,3,1.2c-0.7,0.7,2.8,1.4,3.7,0.8c0.8-0.6,1.1-1.7,0.5-2.5
				C108.6,10.6,108.2,10.4,107.8,10.3z"/>
			<path class="st6" d="M68.3,8.6c-2.4-1.4-5.9-0.9-8.5,0c-2,0.7-4,2.6-1.3,3.7c1.2,0.4,2.5,0.6,3.8,0.5c-0.5,0.5,0.2,1,1,0.7
				c-1.3,1,0,2,1.4,2.3c2,0.3,4.1-0.3,5.8-1.4c1.2,0.6,2.5,0.5,3.7-0.1c1.1,2.2,9.9,1.3,10.5-0.7c0.9-2.9-9.6-2.3-11.4-2.4
				c-0.1-0.5-1-0.6-1.7-0.6c1.1-1.1-2.4-1-3.2-0.8C69.4,9.6,70.4,8.7,68.3,8.6z"/>
			<path class="st11" d="M123,61.4c4.2-5.2-2.4-17.5-9.3-12.9c-1.4-1.6-3.3-4.1-5.4-3.5c-1.1-12.9-26.6-3.2-13.2,8
				c-4,1.2-6.1,7.9-6.6,11.4c-0.8,5.2,1.8,7.4,6.3,9.1c-2.1,5.3,5.4,8.7,9.6,7.4c1.6,3.9,4.8,4.2,8.4,4.6c1.9,0.2,3.5,0.6,5.5-0.2
				c6.2-2.5,3.4-10.9,1.3-15.5c2.2-0.3,4.5-1.8,4-4.2C126,65.6,127.2,62.1,123,61.4z"/>
			<path class="st11" d="M84.6,97.9c7.5-3.5,6.9-19-3.2-16.4c-0.4-2.3-3.5-6.3-6.1-4.2c-3.2-6.9-15-8.5-20.6-4
				c-7.4,5.9,0.8,13.2,8,12.4c-1.6,3.2-0.1,6.9,3.6,7.4c-1.1,1.5-1.3,3.5-0.5,5.2c1.1,2.5,3,2.1,4.4,3.7c1.1,1.3-0.1,3.2,2.4,4.5
				C77.3,108.9,82,103.2,84.6,97.9z"/>
			<path class="st11" d="M41.2,60.3c-0.6-5.3-5.1-5.1-6.4-0.2c-0.9,3.2,0.5,7.9,3.7,9.4c-3,0.1-1.4,4.6,1.3,4.2
				c-0.8,1.7,0.2,3.6,2.1,2.8c-0.8,4.1,8.6,4.7,10.9,3.1c6.2-4.3-3.6-5-6.2-5.2c0.8-0.5,0.5-0.8,1-1.3c-2.2-0.6-2.8-4.6-5.5-4
				C45.4,67.4,47.1,61.9,41.2,60.3z"/>
			<path class="st12" d="M109.3,83.7c3.4,1.9,3.6,4.8,0.9,7.7c-2.5,2.7-6.7,3.1-8.9,5.9c-2.4,3.1-1.1,7.4,0.8,10.4
				c1.4,2.1,1.8,2.7,2,4.9c0.1,2,1.2,2.6,1.6,4.3c0.5,2-1.5,3.1-1.5,4.9c0,0.5,0.9,1.5,1,2.4s-0.4,1.8-0.2,2.8
				c0.9-0.3,3.4-3.6,3.8-4.5c1-2.3,2.4-3.2,2.4-5.9c0-2.7-1.1-4.9-1.7-7.5c-1.7-6.8,4.3-8.8,8.7-12.3c2.4-1.9,5.8-6.2,4.4-9.4
				c-1.7-3.7-6.5-4.6-8.5-7.7L109.3,83.7z"/>
			<path class="st12" d="M96.3,62.5c-1.4,0-4.8-0.5-5.4-2c-0.9-2.4,2.6-1.7,4-1.5c3.8,0.5,8.5,2,11.9-0.6c5.3-4-2.5-4.4-2-7.8
				c0.2-1.1,1.2-1,1-2.3c-0.3-1.2-1.2-2.2-2.4-2.6c-1.8-0.8-5.1-0.8-3.8-3.5c1-2,4.8-1.7,5.7-3.7c0.7-1.6-1.3-3.3,1.9-4.3
				c-1,1.6-0.4,2.5,0.8,3.8c1.5,1.6,1.6,1.4,1.5,3.2c-0.1,1.6-1.1,1.6,1.2,2.8c1.1,0.6,4.3,1,4.3,2.7c0,1.2-2.5,1.6-2.6,3.2
				c-0.1,1.6,2.1,2.6,2.4,4.3c0.4,1.9-1.3,2.8-1.7,4.5c-0.3,1.5,0.5,3-2.2,3.3c-0.9,0.1-2-0.9-2.9-0.8c-1.8,0.1-0.5,0.8-1.4,1.3
				s-1.9,0.4-3.2,0.2C100.9,62.5,99.7,62.9,96.3,62.5z"/>
			<path class="st12" d="M97.2,71.1c-2.1-1.4-4.8-4.8-3-7.6s4.3-1.3,5.8-0.3c1,0.7,2.3-0.8,3.2,0.3c3.5,4,5.7,1.9,7.1,3.6
				c0.6,0.8-0.1,1.2,0.5,1.9c1.2,1.2,2.6,2.2,4,3.2c0.9,0.6,1.6,1.4,2.1,2.4c0.2,0.8,0.5,1.5,1,2.1c1,1.1,3.5,1.6,2.2,3.6
				c-2.1,3.3-7.7,2.1-9.9,1.3c-2.5-1-5.5-2.5-7.2-4.2c-1.1-1.2-2-2.6-3.2-3.7C99.3,73,96.5,71.6,97.2,71.1z"/>
			<path class="st13" d="M110.3,75.9L110.3,75.9L110.3,75.9L110.3,75.9L110.3,75.9z"/>
			<path class="st14" d="M51.4,16.4c2.1-1.6,0.3-4.2-2.1-3.8c-0.4,2.7-2.7,0.6-4.4,1.6c-2.5,1.3-0.9,3.8-3.5,5.1s-6.4,1.3-8.4,4
				c-2.2,3,0.8,2.2,2,4.3c-3,4.6-12.1,4.6-13.8,10.1c-0.8,2.7,2.1,2.3,2.2,4.1c0.1,2.2-3.2,1.9-4.3,2.8c-0.8,0.7-0.7,1.7-1.2,2.2
				c-0.9,1.1-1,0.7-2.1,1.1c-0.7,0.3-1.1-0.1-1.9,0.8c-0.8,0.9-0.3,2-1,2.7s-1.5,0.4-2.2,0.8c-1,0.7-1.1,1.4-2,2.1
				c-1.2,0.9-4.7,0.9-2.1,3.2c2,1.7,4.8,0,2.9,3.4c-0.9,1.5-3,3.5-0.3,4.6c-1.5,2.4,0.6,2.6,0.7,4.5c0.1,0.8-1.5,3-1.7,3.8
				c-0.5,1.7-0.8,4.1-0.2,5.7c0.9,1.8,2.3,3.3,4.2,4.1c1.2,0.5,3.2-0.2,4.3,0.6c2.3,1.7-0.5,4-0.3,6.1c0.3,3.2,3.7,1.7,3.3,4.6
				c-0.2,1.6-1.7,3-2,4.8c-0.5,2.4,0.5,4.9,2.4,6.5c0.7,0.6,2.3,0.9,2.9,1.4s0.4,0.9,0.8,1.7c1,1.9,0.7,2.1,2.8,3.2
				c1.2,0.6,1.6,0,2.4,1.1c0.7,1,0,2.8,0.7,3.9c1.5,2.4,5.6,2.2,7.8,3.3c2.6,1.2,2.2,3.8,4.6,5.4c2.5,1.7,6.5,1.9,7.8-1
				s-1-9,2.6-10.8c1.7-0.8,2.7,0.9,4.5,0.4c0.1-3,0.9-1.5,2.3-2.6c1.1-0.9,1.8-2.1,2.1-3.5c1.2-5.2-3-12-8.9-9.5
				c0.5-2,1.4-4.1-0.4-5.8c-1.6-1.5-3.9-0.6-5.6-1.6c-1.7-1-2.2-3.2-4.2-4.1c-2.5-1.1-5.2,0.6-6.5-2.5c-0.8-2,0-3.8-1.7-5.6
				c-1.7-1.8-6.3-2-7.2-3.9c-0.8-1.7,1-3.3,0.9-5.1c0.2-2.6-1.7-3.6-3.6-5.2c0.4-0.7,0.3-2.6,0.7-3.1c0.6-0.8,1.5-0.4,2.3-1.1
				c2.1-1.8,1.9-5.4,0.2-7.3c2.2-2.5,0.6-4.9,2-7.2c0.9-1.5,2.1-1.2,2.6-3.4c0.3-1.3-0.3-3.7,0.5-4.8c0.6-0.9,1.1-0.3,1.9-0.9
				c2.2-1.6,2-2.6,3.4-4.7c0.8-1.3,0.1-1,1.4-1.3c1.3-0.3,2.3,1,3.7-0.5c0.6,1.9,3.2,4.6,4.9,2.3c2.2-3-2.6-4.8-4-5.9
				C41.5,26,41.2,24,43,22c1.2-1.4,5.3-1.3,5.5-3c2.2-0.1,4.7,0.2,6.7-0.8C59.5,16.2,53.8,14.2,51.4,16.4z"/>
			<path class="st15" d="M40.9,80.9C40.9,80.8,40.9,80.8,40.9,80.9L40.9,80.9c0-0.2,0.1-0.4,0.1-0.5c-2.8-0.8-3.2-2.9-4-5.3
				c-4.5,1.4-6.1-3.9-6.2-7.4c-0.3-4.6,1.5-8.8,1.7-12.3c-2.4,6.6-3.4,14.7,0.7,19.8c0.7,0.8,2.1,0.6,2.5,1.3
				C35.8,76.5,37.3,82,40.9,80.9z"/>
			<path class="st16" d="M4,60.6c3-2.2,2.6,10.1,2.6,11.3c0,4.4-0.6,10.8,3.5,13.8c2,1.4,3.3,0.9,3.6,4c0.3,3.8-2.6,8.7-0.4,12.3
				c1.5,2.5,4.9,1.6,6.4,4.1c0.9,1.6,0.9,3.8,1.7,5.4c0.6,1.2,1.6,2.2,2.3,3.4c2.5,4.7,3.6,10,3.2,15.2c-0.1,1-0.2,3.3-0.9,4.1
				s-1.8,0.5-2.5,1.3c-0.6-0.1-1-0.4-1.4-0.8c1.1-0.2,1.9-1.5,2.3-2.5c0.9-2.1-0.5-3.5-0.6-5.7c-0.1-4,0.7-7.1-1.6-10.7
				c-1.2-1.9-2.1-1.9-4.3-2c-0.2-3.3-1-6-3.7-7.8c-3.6-2.6-5.9-7.2-4.7-11.6c0.4-1.4,2.3-5.9,1.2-7.2C10.5,87,9.5,87,9.1,86.8
				c-0.8-0.4-1.4-0.9-2-1.6C3.3,81,2.8,75,4.2,69.7c0.3-1.1,0.8-2,0.6-3.1c-0.1-0.7-0.6-1.1-0.6-2c0-1.4,1.1-2.7,0-4
				C3.8,60.8,3.5,61,4,60.6z"/>
			<path class="st17" d="M20.9,54.6c-2.2,1.6-7.1,8.6-9.8,3.6l0,0c1.1,2.3,3.2,2.3,5.3,1.2c1.2-0.6,2.2-1.5,3-2.5
				c0.6-0.8,1.4-1.4,2.2-2c1.8-0.9,2.8,0.1,3.9,1.4c0,0.1,0.2,0,0.1-0.1C25.1,53.8,22.9,53.2,20.9,54.6z"/>
			<path class="st17" d="M22.9,63.5c-1.6,2.2-3.4,4.5-6.5,3.5c-1.1-0.3-2-1-3.1-1.3c-1.2-0.3-2.4,0.4-2.8,1.6
				c-0.1,0.3-0.1,0.5-0.1,0.8c0,0.1,0,0.2,0.1,0.2s0.2,0,0.2-0.1c2.1-3.7,4.4-0.3,7.4-0.6C20.4,67.3,22,65.4,22.9,63.5
				C23,63.4,22.9,63.4,22.9,63.5z"/>
			<path class="st17" d="M25.2,72.1c-0.5,1.7-0.8,4.8-2.5,5.7c-1,0.5-2.3-0.3-3.3,0c-1.4,0.3-1.7,1.9-3.1,2.4
				c-2.1,0.8-4.2-0.5-5.7-1.8 M10.5,78.4c0.4,1.6,1.7,2.8,3.3,3c1.6,0.4,3.3-0.1,4.4-1.3c0.7-0.9,1.8-1.4,3-1.5
				c0.3,0.1,0.7,0.1,1,0.1c0.4-0.1,0.5-0.2,0.8-0.5c1.6-1.3,2.3-4.2,2.3-6.1c0.1-0.2-0.1-0.2-0.1-0.1L10.5,78.4z"/>
			<path class="st17" d="M26.8,52.4c-1.1-2.9-3.7-4-5.9-1.5c-0.7,0.7-0.9,1.5-2,1.5c-0.4,0-0.7-0.3-1.2-0.3c-1.5,0-3.2,1.5-3.9,2.7
				c0,0.1,0,0.1,0.1,0.2H14c1.7-1.4,3.1-3.1,5.4-1.6c0.1,0.1,0.2,0.1,0.3,0c0.6-0.7,1.1-1.5,1.8-2.2c0.9-0.8,2.2-1.1,3.5-0.8
				c0.8,0.3,1.3,1.6,1.6,2.3C26.6,52.7,26.9,52.6,26.8,52.4z"/>
			<path class="st18" d="M111.9,85c-0.1-0.3-0.6-0.3-0.6,0.1c0.2,1.2,0.1,2.5-0.2,3.7c-0.5,0.8-1,1.5-1.5,2.2
				c-1.4,2.1-3.1,2.9-5.2,3.9c-3.2,1.5-5,4-4.4,7.6c0.4,2,1.3,3.8,2.4,5.5c1.3,2.2,1.1,4.7,2.2,6.9c0.9,1.3,0.9,3,0.2,4.4
				c-0.4,0.5-0.7,1.1-0.8,1.8c-0.2,1.9,2,2.7,1.2,4.8c0,0.1,0.1,0.1,0.1,0c0.6-1.3,0.1-1.8-0.4-3c-1.3-2.9,1.6-3.4,1.4-5.8
				c-0.1-0.6-0.3-1.2-0.6-1.7c-0.7-1.4-1.1-2.9-1.3-4.4c-0.4-2.4-2.1-4.2-3-6.5c-1.3-3.2-0.9-6.5,2.2-8.3c1.6-1,3.6-1.4,5.1-2.7
				C110.8,91.7,113.1,88.1,111.9,85z"/>
			<path class="st18" d="M38.3,16.9c0-0.1-0.1-0.3-0.1-0.4s0-0.1,0-0.2c0,0,0-0.1-0.1-0.1c0-0.1-0.2-0.1-0.2-0.1
				c-0.1,0.1-0.1,0.1-0.2,0.1c-0.1,0.1-0.1,0.2-0.1,0.3c0,0.2,0,0.4,0.1,0.7C37.9,17.4,38.4,17.2,38.3,16.9z"/>
			<path class="st18" d="M12.7,88.4c-0.1-0.3-0.5-0.5-0.8-0.4c-0.2,0-0.3,0.2-0.4,0.3c-1.4,2.4-1.6,5.7-1.6,8.4
				c0,2.1-0.3,5.5,1.8,6.8c0.1,0.1,0.2,0,0.1-0.1c-1.3-2.7-1.2-4.8-0.8-7.6c0.2-1.4,0.4-2.9,0.7-4.3c0.2,0,0.4-0.1,0.5-0.2
				C12.9,90.4,13.1,89.3,12.7,88.4z"/>
			<path class="st18" d="M20.7,113.2c-0.3-0.1-0.7-0.2-1-0.1c-0.2,0-0.6,0.2-0.9,0.1c-0.4-0.2-0.4-1.6-0.4-1.9
				c-0.1-0.9-0.1-1.8,0-2.7c0-0.2-0.1-0.3-0.2-0.4c0.1-0.6-0.3-1.1-0.9-1.2c-0.3-0.1-0.6,0.1-0.7,0.4s-0.1,0.7,0.1,1
				c0.1,0.3,0.4,0.5,0.6,0.6c0.2,1,0.3,2,0.5,3c0.1,0.5,0.1,1.4,0.5,1.8s1.6,0.1,2.2,0.2c0.2,0,0.3-0.1,0.3-0.3
				C20.9,113.4,20.8,113.3,20.7,113.2z"/>
			<path class="st18" d="M24.9,120.5c0-0.1,0-0.1,0-0.2c0-0.4,0-0.9-0.1-1.3c-0.1-0.7-1.1-0.5-1.2,0.2l0,0l0,0
				c-0.1,0.2-0.1,0.5,0,0.7c0.1,0.8,0.3,1.6,0.6,2.4c0.4,1.7,0.6,3.4,0.7,5.2c0.1,0.9,0.3,1.9,0.4,2.8c0.1,2.1-1.3,3-2.6,4.3
				c-0.1,0.1,0,0.2,0.1,0.1C27.9,131.7,25.2,125.5,24.9,120.5z"/>
			<path class="st18" d="M72.4,132.1c-1.3-2-1.7-4.1-2.4-6.4"/>
			<path class="st18" d="M114.5,115.4c0-0.2-0.4-0.1-0.4,0c-0.2,2.6-1.7,3.2-3.1,4.9c-1.1,1.4-2,3-2.6,4.7c-0.6,2-1.1,4.1-2.5,5.7
				c-1.3,1.4-3.2,2.2-4.7,3.5c-1.9,1.7-4.1,3-6.5,3.8c-2,0.6-4,1.4-5.9,1.8c-1.4,0.2-2.7,0.7-3.9,1.4c-1.7,1-3.2,2.2-5.2,1
				c-0.1,0-0.2,0-0.1,0.1c1.5,3.2,5.6-0.7,7.5-1.3c1.1-0.4,2.3-0.4,3.4-0.7c1.3-0.4,2.4-1,3.7-1.4c2.1-0.6,4.1-1.7,5.8-3.1
				c1.1-1.1,2.3-2.1,3.6-3c0.8-0.4,1.6-1,2.3-1.6c1.2-1.4,2-3,2.5-4.8c1-3.1,2.2-5.6,4.8-7.6C114.3,118.2,114.9,116.8,114.5,115.4z"
				/>
			<path class="st18" d="M118.9,100.5c-1.5,0.6-2.8,1.8-3.4,3.4c-0.6,1.4-1.1,3.8-0.6,5.3c0,0.1,0.1,0.1,0.1,0.1s0.1,0,0.1-0.1
				c0.5-1.3,0.3-2.9,0.6-4.3c0.4-1.8,1.6-3.3,3.2-4.2C119.2,100.6,119.1,100.5,118.9,100.5z"/>
			<path class="st18" d="M116.1,38.2c0-0.2-0.1-0.4-0.1-0.6c0-0.1,0-0.2,0-0.3s0-0.3,0-0.4c0,0,0-0.1-0.1,0s-0.2,0.2-0.3,0.3
				c-0.1,0.1-0.2,0.3-0.2,0.4c-0.1,0.3,0,0.6,0.1,0.9c0.1,0.1,0.3,0.2,0.5,0.1C116.1,38.5,116.2,38.3,116.1,38.2z"/>
			<path class="st18" d="M131.3,39.9c-0.4-0.4-0.9-0.8-1.3-1.2c0,0-0.1-0.1-0.1,0l0,0c-0.2,0.5,0.2,1,0.5,1.4s0.4,0.4,0.6,0.6
				c0.2,0.3,0.3,0.6,0.5,0.9c0.1,0.2,0.4,0.2,0.6,0.1c0.1-0.1,0.2-0.2,0.2-0.3C132.3,40.8,131.7,40.3,131.3,39.9z"/>
			<path class="st18" d="M148.3,48.5L148.3,48.5c0.3,1.3,0.7,2.5,0.9,3.8c0.1,0.8,0.1,1.6,0,2.3c-0.1,0.6-0.4,1.1-0.4,1.8
				c0,0.2,0.2,0.2,0.3,0.2C151.7,55.5,149.3,50.1,148.3,48.5z"/>
			<path class="st19" d="M126.5,132.3c-0.5,1-1.4,1.7-2.4,1.9c-1.3,0.3-2.6-0.2-3.5-1.1c-1-1.2-1-3.1-1.3-4.5l0,0
				c-0.3,2.1-0.3,4.8,2,5.9c2,1,5.1,0.5,5.8-2c0-0.1,0-0.3-0.2-0.3C126.7,132.1,126.6,132.2,126.5,132.3z"/>
			<path class="st1" d="M68.4,128.4c-0.6-2-0.7-4.1-0.4-6.2c0.3-3.5,1.1-7.2-0.3-10.5 M67.7,111.6c0.2,2.1,0.3,4.3,0.2,6.5
				c-0.2,2.2-0.6,4.3-0.6,6.5c0,3.3,1.4,6.5,3.8,8.8c0.1,0.1,0.2,0,0.2-0.1c-0.7-1.7-2.1-3-2.8-4.8L67.7,111.6z"/>
			<path class="st1" d="M114.9,118.7c-1.6,1-3,2.3-4.2,3.8c-1.4,2-1.3,4.2-2.3,6.3c-2,4.2-6,6.8-10.2,8.7c-4,1.8-8,3.3-11.9,5.3
				c-1.1,0.6-2.2,1.2-3.3,1.7c-2.5,1.1-4-0.4-5.5-2.1c-1.8-2-2.8-4.6-4.6-6.6c-0.1,0-0.2,0-0.1,0.1c1,2.4,2.3,4.7,4,6.7
				c1.3,1.4,2.5,3.4,4.6,3.2s4.7-2.1,6.7-3.1c2.4-1.3,5-2.5,7.5-3.5c4.1-1.7,8.4-3.5,11.3-6.9c1.3-1.5,2.2-3.2,2.6-5.1
				c0.3-2,1.1-3.8,2.5-5.2c1-1,2.2-1.7,3.2-2.7C115.4,118.8,115.1,118.5,114.9,118.7z"/>
			<path class="st1" d="M149.1,56.6c-2.6,0.8-3.5-2.4-4.7-4.1c-1.2-1.6-2.5-2.4-3.2-4.2c-1.2-3-3.2-5.3-4.8-8.1S133.5,35,131,33
				c-1.5-1.1-3.3-2.6-5.2-1.4c-0.1,0.1-0.1,0.3,0.1,0.3c3.9-1.2,7.4,4.6,8.9,7.3c1.7,3.2,4,5.9,5.4,9.3c0.4,1.1,1,2,1.8,2.9
				c1.2,1.4,2.3,2.8,3.3,4.3c1.1,1.3,2.5,2.7,3.9,1.1C149.3,56.7,149.3,56.5,149.1,56.6z"/>
			<path class="st1" d="M61.7,14.9c-1-0.7-2.2-1.1-3.4-1c-0.7,0-1.4,0-2.1,0c-0.7-0.1-1.3-0.6-1.9-0.6l0,0c-0.6,1.6,2.8,1.6,3.6,1.5
				c1.1-0.2,2.3,0.1,3.3,0.7c1.8,1.6-1.4,2.5-2.2,3.4c-0.1,0.1-0.1,0.2,0,0.3c0,0,0,0,0.1,0C61.1,19.8,63.7,16.6,61.7,14.9z"/>
			<path class="st1" d="M59.3,32.3c-0.6-0.9-1.4-1.7-2.5-2.1c-0.1,0-0.1,0-0.1,0.1c0,0,0,0,0,0.1c0.6,0.9,1.7,1.4,2.1,2.5
				c0.3,0.8,0.1,1.8,0.6,2.6c0.1,0.1,0.3,0.2,0.4,0.1c0.1-0.1,0.1-0.2,0.1-0.3C59.9,34.3,59.7,33.3,59.3,32.3z"/>
			<path class="st1" d="M71.3,41.2c-0.8-0.9-1.7-1.2-2-2.5c-0.1-0.8-0.4-1.6-0.8-2.3c-0.7-1.4-2-2.3-3.5-2.7c-0.1,0-0.1,0.1,0,0.1
				c0.7,0.8,1.5,1.3,2.2,2.1c0.7,0.9,1.1,1.9,1.2,3c0.3,1.6,1.1,2.1,2.6,2.7C71.3,41.7,71.4,41.4,71.3,41.2z"/>
			<path class="st1" d="M40.4,80.6c-0.6,0.6-1.7,0-2.2-0.4c-0.4-0.4-0.8-0.9-1.1-1.3c-0.4-0.6-0.6-1.2-1-1.8
				c-0.9-1.5-2.4-1.1-3.4-2.5c-1.5-2.1-2.3-4.5-2.4-7c0-2.4,0.5-4.9,0.1-7.3l0,0c-0.5,2.9-1,6.6-0.4,9.5c0.4,1.4,1,2.7,1.7,4
				c0.3,0.9,0.8,1.6,1.5,2.3c1,0.8,2.2,1,2.9,2.3c0.4,0.9,1,1.7,1.7,2.4c1,0.9,2,1.4,3,0.4c0.1-0.1,0.1-0.3,0-0.4
				C40.7,80.5,40.5,80.5,40.4,80.6z"/>
			<path class="st1" d="M53.5,83.7c-4.2,0.8-12.5,4.9-12.6-2.6l0,0c-0.9,1.8-0.1,3.9,1.7,4.8c0.1,0,0.2,0.1,0.3,0.1
				c3.4,1.4,7.6-0.7,10.8-1.7c0.2,0,0.3-0.2,0.2-0.4S53.7,83.7,53.5,83.7z"/>
			<path class="st1" d="M66.9,109.3c-0.8-1.7-1.5-3.5-2.1-5.4c-0.3-1.3-0.9-2.5-1.5-3.7c-0.9-1.3-2.1-1.5-2.5-3.3
				c-0.3-1.3-0.2-2.4-0.7-3.6c-0.4-0.8-0.9-1.6-1.5-2.3c-1.8-2.2-4.1-4-4.7-6.9c-0.1-0.3-0.6-0.2-0.5,0.1c0.5,2,1.5,3.8,2.9,5.3
				c0.9,1,1.8,2.1,2.6,3.2c1,1.6,0.9,3.1,1.3,4.9c0.1,0.7,0.4,1.4,1,1.8c1.5,1.4,2.5,3.2,3.1,5.1c0.8,2.7,2,5.2,3.6,7.5
				c0.1,0.1,0.3,0,0.3-0.1C67.9,110.9,67.5,110,66.9,109.3z"/>
			<path class="st1" d="M26.2,125.4c-0.1-2.5-0.6-5-1.3-7.3c-0.9-2.1-2.4-3.9-4.2-5.2c-0.1-0.1-0.3-0.1-0.3,0
				c-0.1,0.1-0.1,0.2,0,0.3c1.4,1.7,3.2,2.9,4,5c0.7,2.1,1.1,4.2,1.3,6.3c0.2,2,0.4,4,0.4,5.8c0.3,1.5-0.5,3.1-1.8,3.8
				c-0.5,0.3-1,0.6-1.5,0.9v0.1h0.1c1.4-0.2,2.7-1,3.5-2.2C27.3,131,26.4,127.6,26.2,125.4z"/>
			<path class="st1" d="M21.2,112.9c-0.4-1.3-1.3-2.4-1.8-3.7c-0.2-0.9-0.6-1.8-1.1-2.6c-0.7-0.8-1.7-1.4-2.7-1.7
				c-1.8-0.7-3.2-2.3-3.7-4.2c-0.9-3.4,1-6.6,1.4-9.9c0.2-1.7,0.2-3.8-1.5-4.7c-0.1,0-0.1,0-0.1,0v0.1c2.9,5.2-2.6,10.7-0.1,16.1
				c1,2.1,2.5,2.6,4.5,3.7c2.5,1.3,2.9,4.9,4.6,7.1C20.9,113.4,21.3,113.2,21.2,112.9z"/>
			<path class="st1" d="M9.6,85.4c-2.4-1.5-3-5.9-3.3-8.5c-0.1-1.5-0.2-3-0.3-4.5s0.2-3,0.3-4.6c0-1.1-0.2-2.2-0.4-3.3
				C5.8,63.6,6,61.8,5.4,61c-0.7-1-1.4-0.6-2.2,0.1v0.1c0,0,0,0,0.1,0c1.8-0.7,1.8,1.8,2,3c0.3,1.4,0.3,2.8,0.2,4.2
				c-0.3,2.6-0.4,5.2-0.1,7.7c0.2,3.2,0.8,8.1,3.8,10C9.6,86.4,10,85.7,9.6,85.4z"/>
			<path class="st1" d="M138.4,106.2c0,0-0.1-0.1-0.1,0l0,0c-0.8,1.5-8.3,8.7-4.2,10c0.2,0.1,0.4-0.2,0.2-0.4
				c-2.1-1.7,0.8-4.5,2-5.9C136.9,109.1,138.8,107.3,138.4,106.2z"/>
			<path class="st14" d="M139.7,47.5c-0.5-0.9-0.7-2-1.3-3c-0.8-1.5-2-2.8-2.7-4.3c0,0,0,0-0.1,0l0,0c0,1.5,1.3,2.6,2.1,3.8
				c0.5,1,1,2,1.4,3.1c0.4,0.8,1,1.6,1.5,2.4c0.1,0.1,0.2,0,0.2-0.1C140.5,48.8,140.2,48.1,139.7,47.5z"/>
			<path class="st14" d="M46.7,27.6c-0.6-0.2-1.7,0.7-2-0.3c0-0.1-0.1-0.2-0.3-0.2l0,0c-0.8,0.3-1.1-0.9-1.1-1.4
				c0-0.6,0.1-1.2,0.3-1.8c0-0.1,0-0.1-0.1-0.1l0,0c-0.9,0.2-0.8,1.8-0.7,2.5c0.2,0.8,0.7,1.5,1.6,1.3c0.2,0.4,0.5,0.6,0.9,0.6
				s1.2,0,1.4-0.5C46.8,27.7,46.8,27.6,46.7,27.6L46.7,27.6z"/>
			<path class="st20" d="M27.2,130.3c-0.1-1.8-0.1-3.6-0.4-5.4c-0.1-0.8,0-1.7-0.2-2.5S26,121,26,120.3c0-0.5,0-1-0.1-1.5
				c-0.2-1.1-1-1.6-1.3-2.7c-0.2-0.9-0.8-1.6-1.5-2.1c-1-0.6-1.8-1.5-2.3-2.6c-0.2-0.7-0.4-1.3-0.7-2c-0.4-1.1-1-2.1-2-2.8l0,0
				c1.2,2.1,1.7,4.7,3.1,6.6c0.7,1,1.7,1.6,2.4,2.5c0.5,0.6,0.3,1.1,0.7,1.6c0.3,0.4,0.7,0.6,0.9,1c0.7,1.3,0.7,3.6,0.9,5
				c0.2,1.4,0.5,2.9,0.5,4.3c0,1.2,0.6,4.4,0,5.4c-0.1,0.1,0.1,0.2,0.2,0.1C27.2,132.2,27.3,131.3,27.2,130.3z"/>
			<path class="st20" d="M58.5,92.1c-0.5-0.9-1-1.7-1.6-2.5c-1.5-1.5-2.6-3.4-3.2-5.4c0-0.1-0.1-0.1-0.1-0.1c-0.1,0-0.1,0.1-0.1,0.1
				c-0.2,1.1,0.2,2.3,0.9,3.2c0.4,0.6,0.9,1.3,1.4,1.8c0.6,0.7,1.5,1,2,1.9s0.4,1.5,1,2.2c0.8,1,1.5,1.2,1.6,2.8
				c0,0.1,0.1,0.1,0.1,0C61.3,94.3,59.4,93.3,58.5,92.1z"/>
			<path class="st20" d="M68.2,112c0-0.1-0.1-0.2-0.3-0.3c-0.4-0.9-0.8-1.8-1.2-2.7c-0.6-1.1-1.5-1.7-1.7-3.1s0.1-2.6-1.2-3.6l0,0
				c1.4,1.6,0.3,3.4,1.1,4.9c0.7,1.4,2.6,3,2.5,4.8c0,0.2,0.1,0.4,0.3,0.4l0,0c-0.1,0,0.6,4.6,0.5,5.4c-0.2,1.7-0.3,3.3-0.3,5H68
				c0.2-2,0.3-3.9,0.4-5.8C68.5,115.3,68.8,113.7,68.2,112z"/>
			<path class="st20" d="M81.3,144.4c-3.7,1.4-6.2-5.9-7.8-8c-0.7-0.9-1.7-1.4-2.2-2.4s-0.8-2.1-1.4-3c-1.7-2.6-2.5-5.7-2.4-8.8
				 M67.4,122.2c-0.8,2.6,0,6.3,1.1,8.7c0.7,1.6,1.5,3.1,2.6,4.5c1,1.1,2,2.2,2.8,3.4c1.3,2.1,2.9,4.1,4.7,5.8
				c0.9,0.8,2.2,1.7,3,0.2c0.1-0.2-0.1-0.5-0.3-0.4L67.4,122.2z"/>
			<path class="st20" d="M108.5,129.9c-1.9,2.1-3.2,3.8-5.9,4.9c-0.4,0.2-0.9,0.4-1.2,0.7c-1.3,0.9-2.7,1.7-4.1,2.3
				c-1.9,0.7-3.5,1.9-5.4,2.5c-0.2,0.1-5.1,2.1-4.9,2.3c-0.1-0.1-0.3-0.1-0.4-0.1c-0.9,0.7-1.8,1.2-2.8,1.7c-0.3-0.1-0.5,0-0.8,0.1
				h-1.1c-0.1-0.1-0.3-0.1-0.4-0.1s-0.1,0-0.2,0l-0.3,0.2c-0.2,0.1-0.2,0.3-0.1,0.5L81,145c0.5,0.3,0.5,0.3,1,0.2
				c0.7,0.3,1.4,0.2,2-0.3c0.3,0,0.5-0.1,0.8-0.2c0.4-0.2,1.9-1.8,2.1-1.6c0.1,0.1,0.3,0.1,0.4,0.1c1.8-1.1,3.7-2.1,5.6-3
				c1.1-0.5,2.1-1.2,3.2-1.7c1.2-0.6,2.6-0.9,3.9-1.5c0.9-0.4,1.4-1.1,2.3-1.6c0.8-0.5,2-0.6,2.8-1.2c1.6-1.2,3-2.7,4-4.5
				c0-0.1,0-0.2-0.1-0.2C108.7,129.8,108.6,129.8,108.5,129.9z"/>
			<path class="st20" d="M116.5,115.5L116.5,115.5c-0.7,2.3-2,4.2-3.9,5.6c-1.3,1-2.7,1.8-2.5,3.7l0,0c0.4-1.7,1.4-2.4,2.7-3.3
				c0.6-0.5,1.2-1.1,1.6-1.8C115.2,118.6,117.3,116.9,116.5,115.5z"/>
			<path class="st20" d="M131.1,42.7c-1.7-0.1-3.4,0-5.1,0.3c-2,0.2-4.1-0.2-5.9-1.1c-0.6-0.2-1.1-0.4-1.7-0.7
				c-0.9-0.6-1.1-1.4-1.7-2.1s-1.3-0.6-1.8-1.2c-0.1-0.1-0.3-0.1-0.4-0.1c-0.7-0.4-1.4-0.9-2.1-1.5c0.2,0.1,0.3,0.3,0.5,0.5
				c0.3,0.3,0.3,1.1,0.6,1.4c0.3,0.3,0.3,0.2,0.7,0.5c0.2,0.1,0.4,0.2,0.6,0.3c1,0.5,1.5,1.5,2.4,2.2c0.6,0.5,1.4,0.9,2.1,1.1
				c1.3,0.7,2.7,1.2,4.1,1.6c2.5,0.4,5.4-0.5,7.8-1C131.2,42.8,131.2,42.8,131.1,42.7z"/>
			<path class="st20" d="M112.4,36.4L112.4,36.4L112.4,36.4z"/>
			<path class="st20" d="M148.5,57.4c-2.6-0.7-3.4-2-4.6-4.3c-0.6-1.2-1.7-2.1-2.4-3.3c-0.5-1-0.8-2.1-1.4-3c-1.1-1.5-2.1-3-3-4.6
				c-0.6-1.2-1.4-2.3-2.1-3.5c-0.6-1.2-1.3-2.4-2.1-3.5c-1.2-1.4-3.1-3.5-5.1-3.5c-0.1,0-0.1,0-0.1,0.1s0,0.1,0.1,0.1c0,0,0,0,0.1,0
				c1.6,0.1,4.3,2.7,5.2,4.1c1,1.5,1.8,3.1,2.3,4.8c0.9,2.8,3.2,4.5,4.6,7c0.4,1,0.9,2,1.5,3c0.9,1,1.7,2.1,2.3,3.3
				c1,2.1,2.3,3.5,4.7,3.8C148.7,57.8,148.7,57.4,148.5,57.4z"/>
			<path class="st20" d="M75.7,31.1c-1.2-1.3-2.7-2.4-4.3-3.3c-1.5-0.6-2.9-0.5-4.4-0.5c-2-0.1-4,0.2-5.9,1v0.1
				c3-0.6,7.2-1.4,10-0.1c2.7,1.3,4.8,3.6,5.9,6.4c0,0.1,0.2,0,0.2-0.1C77,33,77,32.2,75.7,31.1z"/>
			<path class="st20" d="M77.3,36.9c-0.3,0.5-0.5,0.9-0.6,1.5c-0.1,0.3-0.2,0.5-0.3,0.7c-0.2,0.3-0.5,0.3-0.8,0.4
				c-0.1,0-0.1,0.1-0.1,0.2c0,0,0,0.1,0.1,0.1c0.6,0.1,1.2-0.3,1.3-0.8C77.1,38.3,76.9,37.6,77.3,36.9L77.3,36.9z"/>
			<path class="st20" d="M46.2,27.1c-0.6,0-1.1,0-1.7,0.1c-0.3,0-0.8,0.1-1-0.2c0,0,0-0.4-0.1-0.4c-0.3-0.7-0.9-1-0.6-1.8
				c0.2-0.6,0.5-1.1,0.9-1.6l0,0c-0.6,0.1-1,1.1-1.2,1.6c-0.1,0.3-0.1,0.6,0,0.9c0.2,0.4,0.9,0.9,0.6,1.4c-0.1,0.1-0.1,0.2,0,0.2
				c0.7,0.8,2,0.6,3,0.5C46.8,27.8,46.9,27.2,46.2,27.1z"/>
			<path class="st20" d="M60.2,14.5c-1.2-0.5-6.8,0.3-6.3-1.4c0-0.1-0.1-0.1-0.1-0.1c-0.4,0.4-0.3,0.2-0.5,0.8c0,0.1,0,0.2,0.1,0.2
				l0,0c1.4,0.4,2.9,0.7,4.4,0.7c0.9-0.1,4.3-0.1,4,1.7c0,0.1,0.2,0.2,0.2,0.1C62.7,15.4,61.1,14.8,60.2,14.5z"/>
			<path class="st20" d="M11,49.3c-0.6,0.6-1.1,1.5-1.7,2.1c-0.7,0.8-1.5,1.4-2.5,1.8l0,0C8.7,52.9,10.2,50.9,11,49.3L11,49.3z"/>
			<path class="st20" d="M42.6,15c-1.4,0.5-2.7,1.2-4,2c-1,0.8-1.8,1.5-2.8,2.2c-1.3,0.9-2,2.2-3.2,3.2c-0.1,0-0.2,0-0.3,0.1
				s-0.2,0.2-0.3,0.4V23c-0.5,0.6-1.6,1.6-1.9,2c-1,1-2,1.7-2.8,2.7c-2,2.5-3.8,5-5.7,7.5c-1.6,1.9-3.4,3.7-5.2,5.4
				c-2,1.9-2.8,4.8-4.2,7c-0.1,0.2,0.2,0.4,0.3,0.2c1.7-2.7,2.8-5.5,5.2-7.6c2-1.8,3.8-3.8,5.3-5.9c1.8-2.3,3.2-4.9,5.2-6.9
				c1.1-1.1,2.2-2.1,3.5-3c0.4-0.3,0.7-0.5,1-0.7h0.1c0.7-0.4,1.2-0.9,1.8-1.5s1.2-1.1,1.8-1.6c0.7-0.6,1.4-1.4,2-2
				c1.3-1.4,3.1-1.8,4.6-2.9c0.2-0.1,0.2-0.2,0.2-0.4S42.8,14.9,42.6,15L42.6,15z"/>
			<path class="st20" d="M52,85c-1.3,0-2.4,0.8-3.7,0.8c-0.9,0-1.2,0-2,0.1c-1.1,0.2-2.3,0.4-3.4,0.5c-2.6-0.1-2.4-2.8-2.2-4.7
				c0-0.1-0.1-0.2-0.2-0.2l0,0c-0.7,0-3.6-2-3.8-2.5c-0.4-0.9-0.3-1.7-1-2.5c-0.1-0.1-0.2-0.1-0.3,0c-0.6,0.4-0.8-0.4-1.3-0.6
				c-1.7-0.7-2.3-1-2.9-2.8c-0.8-2.9-1.3-5.9-1.5-8.9l0,0c-0.2,2.8,0.1,5.5,0.9,8.2c0.3,1.2,0.7,2.7,1.8,3.5
				c0.8,0.5,2.1,0.7,2.8,1.3c1.3,1,0.8,2.7,2.4,3.6c0.8,0.3,1.5,0.7,2.2,1.3c0.4,0.4,0.4,0.3,0.4,1c0.1,1.3-0.3,2.8,1.1,3.5
				c1.2,0.6,3.4,0.3,4.7,0.1c1-0.1,1.6,0,2.5-0.1c1.1-0.1,2.5-0.9,3.6-1.2c0.1,0,0.1-0.1,0.1-0.2C52.1,85,52,84.9,52,85z"/>
			<path class="st20" d="M139.1,104.6c-0.1-0.1-0.2,0.1-0.2,0.2c1.1,2.2-1.8,3.9-3,5.4c-0.7,1-1.4,2-1.9,3.2c-0.3,0.5-0.3,1.2,0,1.7
				c0,0.1,0.1,0,0.1,0c-0.3-1.6,1.6-4.3,2.7-5.3c0.7-0.7,1.4-1.3,2-2.1C139.5,106.7,140.2,105.4,139.1,104.6z"/>
			<path class="st20" d="M154,66.7c-0.9,0.5-1.6,1.2-2.2,2c-0.8,1.3-0.7,3.2-1.9,4.3c-1.7,1.5-3.4-0.3-5.3-0.5
				c-1.1-0.1-2.2,0.2-3,0.9c-1.7,1.2-5.2,0.9-4.6,4.1h0.1c0.1-1.1,0.6-2,1.5-2.6c0.9-0.5,1.8-0.1,2.6-0.4c0.4-0.2,0.4-0.6,0.8-0.9
				c1.9-1.4,3.6-0.4,5.5,0.3c0.5,0.3,1.1,0.3,1.7,0.2c1.5-0.4,2-2.2,2.4-3.5c0.3-1,0.8-1.9,1.5-2.6c0.6-0.6,2.4-2.2,2.8-0.6
				c0,0.1,0.1,0.1,0.2,0.1c0,0,0.1,0,0.1-0.1C156.5,65.9,154.9,66.2,154,66.7z"/>
			<path class="st20" d="M152.6,57.8h-0.1v0.1c0.6,0.6,0.7,1.5,0.1,2.2c-0.1,1.5-1,2.1-2.7,1.8c-0.2,0.1-0.5,0-0.6,0
				c-0.9,0.2-0.4,0.6-1.7,0.5c-0.5-0.1-1-0.3-1.6-0.4c-0.9,0.1-1.8,0.3-2.7,0.8c-3.1,1.8-4.5,8.2-8.8,6.8l0,0c1.5,0.7,3.2,0.3,4.2-1
				c0.8-0.9,1.5-1.9,2.1-3c0.3-0.5,0.7-1,1.1-1.4c0.4-0.4,0.9-0.8,1.5-1c1.2-0.8,2.8-0.9,4-0.2c0.4,0,0.7,0,1.1,0
				c1.2-0.2,2.3-0.5,3.4-1.1C153.3,60.9,153.9,59,152.6,57.8z"/>
			<path class="st20" d="M152.9,80.6C152.9,80.6,152.8,80.6,152.9,80.6c-0.6,2.3-2.1,4.3-4.2,5.4c-1.1,0.5-2.2,0.8-3.4,0.9
				c-0.6,0-1.3-0.6-1.8-0.6c-0.3,0-2.6,1.3-2,0.9c-0.7,0.4,0.6-0.8-0.7,0.4c-1,0.9-0.6,1.2-2.2,1.2c-1.7,0-1-0.1-1.8-1.1
				c-0.2-0.3-0.4-0.6-0.8-0.9c-0.4-0.2-0.9-0.3-1.3-0.1c-1.5,0.6-2,2.9-2,4.3l0,0c0.2-1.7,1.6-5.6,3.8-3.2c0.5,0.5,0.6,1.6,1.3,1.9
				c0.6,0.2,1.2,0.1,1.7-0.4c0.5-0.4,0.3-0.4,0.7-0.9c2.2-2.4,0.6-0.6,2-1.3c0.2-0.1,0.3-0.2,0.4-0.3c1.4-0.5,0.8-0.3,1.9,0
				c1.2,0.1,2.5-0.1,3.6-0.6C150.4,85.6,153.1,83.1,152.9,80.6z"/>
			<path class="st20" d="M153.4,75.1c-1.5,1.4-3.4,2.5-5.3,3.2c-1.5,0.4-2.7-0.2-4.2,0.1c-2,0.4-7.1,6.9-8.6,3.1 M135.2,81.4
				c0.7,3.3,4.7,0,5.9-1.1c1.3-1.4,3.2-1.9,5-1.3c0.5,0.1,1,0.2,1.4,0.1c0.7-0.3,1.3-0.6,2-1c0.6-0.1,1.1-0.3,1.7-0.5
				c0.9-0.6,1.7-1.4,2.4-2.3c0.1,0,0.1-0.1,0-0.2c0-0.1-0.1-0.1-0.2,0l0,0L135.2,81.4z"/>
			<path class="st20" d="M151.3,88.7c-0.2,1.5-2,5.3-4.3,3.1c-0.1-0.1-0.2-0.1-0.2,0c0,0,0,0,0,0.1c-0.6,1.5-2.3,2.3-3.8,1.7l0,0
				c-0.4-0.2-0.8-0.5-1.2-0.8c-0.1,0-0.2,0-0.2,0.1c-0.4,0.8-0.9,1.5-1.4,2.1c-2.5,1.9-1.4,0-2.6-0.2c-1.1-0.2-2.3,0-3.4,0.4
				c-2.3,0.9-4.1,2.7-4.9,4.9l0,0c1.1-2.3,3.1-4,5.5-4.8c1.5-0.5,2.1,0.2,3.5,0.5c0.3,0.1,0.6,0.2,0.9,0.1c1.1-0.2,1.3-1.5,2-2.1
				c1-1,1.9,0.7,3.2,0.7c0.9,0,1.7-0.5,2.1-1.2c0.9-1.1,0.4-0.7,1.7-0.6c2,0.2,3.4-2.4,3.3-4.1C151.5,88.6,151.4,88.5,151.3,88.7z"
				/>
			<path class="st20" d="M152.8,91.9c0,0-0.1,0-0.1,0.1c0.4,1,0,5.1-2.1,4.1c-0.1,0-0.2,0-0.2,0c-0.4,0.8-0.9,0.8-1.6,0.2
				c0-0.1-0.2-0.2-0.3-0.1h-0.1c-1,0.9-1.4,2.2-2.5,3c-1.2,0.9-2.8,1.2-4.2,0.8c-0.3-0.1-0.6-0.4-0.9-0.5c-1.5-0.4-2.2,0.8-2.2,2.1
				h0.1c1-1.7,1.9-2.1,2.9-1.3c0.1,0.1,0.3,0.2,0.5,0.3c0.4,0.2,0.8,0.2,1.3,0.1c1.3-0.2,2.5-0.8,3.5-1.6c0.7-0.6,1-2,1.8-2.1
				c0.3,0,0.5,0.4,0.9,0.3c0.5-0.2,0.9-0.4,1.4-0.6c0.6-0.2,0.9,0,1.4-0.6C153.2,95.1,153.8,92.9,152.8,91.9z"/>
			<path class="st20" d="M153.2,100.1c0-0.1-0.1-0.1-0.2,0c-0.7,2.3-0.8,5.2-2.4,7.1c-0.7,0.8-1.1,0.6-1.8,0.7
				c-1.1,0.2-1.5-0.2-2.4-0.8c-1.4-1-4.8-1-4.1,1.6l0,0c-0.5-2.7,2.7-1.9,3.6-1.4c0.4,0.3,0.7,0.8,1.2,1c0.2,0.1,0.4,0.2,0.7,0.3
				c0.5,0.1,1.1,0.1,1.6,0.1c0.6,0,0.4,0.1,0.8-0.2c0.9-0.5,1.5-2.3,1.8-3.2C152.6,103.8,153.5,101.7,153.2,100.1z"/>
			<path class="st20" d="M145,58c-0.1-0.2-0.4,0-0.3,0.1c0.2,1.2-4.2,0.6-4.8,0.8c-0.5,0.2-1,0.5-1.3,1c-0.3,0.4-0.6,0.9-0.9,1.3
				c-1,1.2-2.8,1.5-4,0.5c-0.3-0.2-0.5-0.5-0.7-0.8c0,0-0.1-0.1-0.1,0c0,0-0.1,0.1,0,0.1c0.3,1.3,1.5,2.1,2.8,2c2,0,2.2-1.4,3.4-2.6
				c0.7-0.6,1.7-0.9,2.6-0.8c0.8,0,1.7,0.6,2.4,0.4c0.7-0.1,1.1-0.8,1-1.5C145.1,58.3,145.1,58.1,145,58z"/>
			<path class="st20" d="M143.3,54.8c-0.3-0.9-0.8-2.4-1.9-2.4c-0.1,0-0.1,0.1-0.1,0.1s0,0.1,0.1,0.1
				C142.3,53.1,142.9,53.9,143.3,54.8c0,0.4,0.3,0.3-0.4,0.5c-1.2,0.3-0.1,0.1-0.6,0c-0.1,0-0.2-0.1-0.4-0.2c-0.7,0-1.3,0.2-1.9,0.5
				c-0.4,0.2-2,1.5-2.3,0.6h-0.1c0,0.9,0.5,0.9,1.1,0.5c0.5-0.4,1.1-0.8,1.6-1.1c0.6-0.4,1.4-0.4,2,0c0.1,0,0.2,0.1,0.3,0.1
				C143.4,56.1,143.5,55.3,143.3,54.8z"/>
			<path class="st20" d="M138.7,47.9c0-0.1-0.1-0.1-0.2,0c-0.1,0.4-0.1,0.8-0.6,0.5h-0.1c-0.2,0.3-0.3,0.9-0.7,1.1
				c-0.3,0.1-0.6,0.1-0.9,0.1c-0.6-0.1-1.2,0-1.7,0.2c-0.8,0.3-1.2,1.1-0.9,1.9c0.1,0.2,0.2,0.3,0.3,0.5l0,0
				c-0.6-1.3,0.4-2.2,1.7-2.2c0.5,0.1,0.9,0.1,1.4,0.1c0.3-0.1,0.6-0.3,0.7-0.5c0.3-0.4,0-0.9,0.6-0.6c0,0,0.1,0,0.2,0
				C138.6,48.5,138.7,48.2,138.7,47.9z"/>
			<path class="st20" d="M136.2,44.3C136.2,44.3,136.1,44.3,136.2,44.3C136.1,44.4,136.1,44.4,136.2,44.3c0.1,0.7,0.1,1-0.5,1.5
				c-0.3,0.2-0.6,0.3-1,0.4c-0.1,0-0.1,0.1-0.1,0.2c0.7,2.3-2.2,2.2-3.5,1.3l0,0c0.8,0.9,3,1.4,3.8,0.1c0.2-0.4,0.1-0.6,0.2-1
				s-0.2-0.1,0.2-0.4c0.1-0.1,0.4-0.2,0.6-0.3C136.5,45.7,136.9,45,136.2,44.3z"/>
			<path class="st20" d="M76.4,35.7c-0.9,1.6-2.2,0.2-3.3,1.1c-0.8,0.6-1.1,1.6-2.4,1c-0.9-0.6-1.5-1.7-1.5-2.9l0,0
				c-0.1,1.4,0.9,4.1,2.8,3.3c0.3-0.2,0.6-0.4,0.9-0.7c0.5-0.5,0.7-0.8,1.4-0.8c0.2,0,0.5,0.1,0.7,0.1c0.8,0,1.3-0.2,1.6-1
				C76.5,35.7,76.5,35.7,76.4,35.7z"/>
			<path class="st20" d="M71.8,29.7c-0.1-0.1-0.3,0.1-0.1,0.2c1.5,1.4-0.1,2.5-1.8,2.1c-0.4-0.1-0.8-0.3-1.2-0.4
				c-1.1-0.3-1.9-0.9-3-1.2c-1.7-0.5-2.8,0.6-3.3,2.2l0,0c0.4-0.8,0.5-0.9,1.4-1.5c1.1-0.7,1.5-0.6,2.6,0c0.5,0.3,1.1,0.6,1.7,0.8
				c0.9,0.2,1.6,0.6,2.4,0.9c0.3,0.2,0.7,0.2,1.1,0.2C73.3,32.6,73.2,30.3,71.8,29.7z"/>
			<path class="st20" d="M52.6,16.5c-1.1,0.3-2.2,0.5-3.3,0.6c-1.8-0.1-1.2-1.2-2.4-1.7c-1.3-0.4-2.3,0.7-2.7,1.8c0,0,0,0.1,0.1,0
				c0.9-1.6,2-1.9,3.3-0.5c0.1,0.2,0,0.3,0.2,0.4c0.3,0.2,0.7,0.4,1.2,0.3c1-0.1,1.9-0.3,2.9-0.6c0.5-0.1,1.1-0.2,1.7-0.2l1,1.4
				c0,0.2-1.1,0.5-1.3,0.6v0.1l0,0c0.7,0,2.4-0.6,2.3-1.5C55.4,16.2,53.3,16.4,52.6,16.5z"/>
			<path class="st20" d="M47.3,18.2c-2.2-0.9-4.2,1.7-5.6,2.9c-2.1,1.8,0-1-1.4-1.5c-1.2-0.4-2.8,1.7-3.3,2.6c0,0,0,0.1,0,0
				c0.4-0.7,1-1.3,1.7-1.7c0.6-0.3,1.4-0.4,1.6,0.1c0.1,0.2-0.1,0.5-0.1,0.7S40,22,40.4,22.2s1.1-0.5,1.4-0.7
				c0.6-0.5,1.1-1.1,1.7-1.6c0.5-0.5,1.1-0.9,1.8-1.1c0.3-0.1,0.6-0.2,1-0.3c0.8-0.3,1.1,0.2,0.8,1.6v0.1h0.1c0.6-0.1,1-0.7,0.9-1.3
				C48,18.7,47.7,18.4,47.3,18.2z"/>
			<path class="st20" d="M46.4,29.3c-0.6-0.4-1.4-0.7-2.1-0.8c-1.1-0.4-1.2-1.3-2-1.8c-0.4-0.3-1.5-0.5-1.6-0.7s0.7-1.6,0.6-2
				c-0.1-1.3-1.2-1.8-2.4-1.8c-0.8,0-1.5,0.2-2.2,0.5c-0.6,0.4-1.2,0.7-1.8,0.9c-0.3,0-0.7-0.1-1.1-0.1c-1.1,0.1-1.5,0.6-1.3,1.6
				c0,0,0,0,0.1,0c0.3-2,2.1-1,3.2-1.2c0.2-0.1,0.3-0.2,0.5-0.3c0.4-0.3,0.9-0.6,1.4-0.8c1.3-0.5,2.3,0,3,1.6
				c-0.2,0.6-0.5,1.1-0.8,1.6c-0.1,0.1,0,0.3,0.1,0.4c0,0,0,0,0.1,0c1.6,0.3,2,1.6,3.2,2.2c0.7,0.4,1.7,0.3,2.4,0.7
				c1.2,0.7,1.9,2.2,0.9,3.3s-2.1,0.8-3-0.6l0,0c0.9,1.7,3.6,2.7,4.1,0.1C47.8,31.1,47.3,30,46.4,29.3z"/>
			<path class="st20" d="M42.2,29c-1-0.5-2.2-0.5-3.3-0.1c-0.9,0.3-1.7,1.5-2.6,1.6c-1.1,0.2-0.6-0.9-0.6-1.7c0-0.1-0.1-0.2-0.2-0.2
				c-0.6,0.1-1.2,0-1.8-0.1c-0.1,0-0.1-0.4-0.2-0.4c-0.5-0.2-0.5-0.4-1.1-0.5c-2.2-0.3-2.8,2.4-4.2,3.4l0,0c0.5-0.3,0.9-0.7,1.2-1.1
				c0.3-0.4,0.6-0.8,0.9-1.1c0.3-0.3,3.1-2.2,3,0.2c0,0.1,0.1,0.2,0.2,0.2c1.9-0.4,1.6,0.5,1.1,1.8c0,0.1,0,0.2,0.2,0.2l0,0
				c1.6,0,2.3-0.9,3.6-1.6c0.6-0.3,1.2-0.5,1.8-0.5c0.4,0,2,0.5,1.5,1.3c-0.2,0.3-1.1,0.3-1.4,0.7c0,0-0.1,0.1,0,0.2l0,0
				C41.7,31.7,43.8,30.1,42.2,29z"/>
			<path class="st20" d="M39.8,35.2c-0.1-1.1-0.6-2.2-1.5-3c-1.4-1-2.4,1.2-4,0.5c-0.7-0.3-1-1.3-2-0.8c-0.5,0.2-0.3,0.4-0.7,0.6
				c-1,0.5-2.1,0.2-3,0.4c-0.5,0-1.1,0.2-1.5,0.4c-0.9,0.6-1.1,1.4-2.3,1.7c-0.5,0.1-1,0.1-1.5,0.3c-0.9,0.2-1.5,1.1-1.3,2l0,0
				c0,0.1,0.1,0.1,0.1,0c0.3-2.7,2.2-1.1,3.5-1.8c0.4-0.2,0.5-0.5,0.8-0.8c0.9-0.7,2.1-1.1,3.3-1c0.8-0.1,1.1,0.1,1.8-0.5
				c0.2-0.2,0.5-0.5,0.7-0.7c1-0.2,1.6,0.1,1.9,0.8c0.1,0.1,0.2,0.3,0.4,0.4c0.7,0.3,0.9-0.2,1.4-0.4c3.7-1.5,3.6,3.2,1.3,4.8
				c-0.9,0.5-1.7,1.1-2.4,1.8c-0.9,1.2-0.9,2.7-1.2,4.2l0,0c0.6-0.8,0.6-1.4,0.9-2.4c0.5-1.7,1.6-2.3,3-3.2
				C38.7,37.8,39.9,36.7,39.8,35.2z"/>
			<path class="st20" d="M32.4,37.2c-1.1,0-1.6,0.3-2.8,0.1c-0.5-0.1-0.4-0.3-0.9-0.2c-0.1,0-0.3,0.1-0.4,0.2
				c-0.2,0.3-0.7,0.4-1,0.2c-0.4,0.2-0.8,0-1-0.4l0,0c-0.4-0.2-0.6-0.4-1.2-0.5c-1-0.1-1.8,0.6-2.1,1.5c-0.3,1.6,1.4,2.7,2.2,3.8
				l0,0c-0.3-0.5-0.6-0.9-0.9-1.3c-1.1-1-1-2.1,0.1-3.5c0.8,0,1.6,0.3,2.1,1c0.4,0.1,0.4,0.3,1,0.2c1.2-0.3-0.2-0.7,2.2-0.5
				c0.2,0.1,0.4,0.1,0.6,0.1C31,37.9,31.7,37.7,32.4,37.2C32.4,37.4,32.5,37.3,32.4,37.2C32.5,37.2,32.4,37.2,32.4,37.2z"/>
			<path class="st20" d="M30.7,42.4c-0.5-0.9-1.1-0.7-1.7,0c-0.4,0.6-0.7,1.3-1,2c-1.1,2.4-2.9,2.2-5,1.2c-1-0.5-3.2-1.4-4.1-0.1
				c-0.7,1,0.8,2.3,1.4,2.8l0,0c-0.7-0.7-1.5-1.5-1-2.4c0.8-1.4,2.9-0.2,4,0.4c0.9,0.5,2,0.7,3,0.5c0.9-0.3,1.6-1,1.9-1.9
				c0.4-0.9,0.9-3.2,2.2-2.3c0,0.1,0.2,0.1,0.2,0.1C30.7,42.6,30.7,42.5,30.7,42.4z"/>
			<path class="st20" d="M27.4,78c-0.1,0-0.1,0-0.2,0c0,0.1,0,0.1,0,0.2c0.8,0.8,0.8,2,0,2.8c-0.1,0.1-0.2,0.2-0.3,0.2
				c-0.3,0.2-0.3,0-0.7,0.3c-0.3,0.3-0.5,0.6-0.5,1c-0.3,1.9,1.8,4.1-2,4.7c-1,0.2-2-0.2-3-0.1c-4,0.5-4.4,4.9-0.5,6.1
				c0,0,0.1,0,0,0c-0.9-0.4-1.7-1.1-2.2-2c-1.1-2.6,1.1-3.5,2.8-3.6c1.2-0.1,2.3,0.3,3.5,0.1c1.3-0.1,2.3-1.3,2.3-2.6
				c0-0.4-0.1-0.8-0.2-1.1c-0.2-1.2,0.2-1.5,1.2-2.2c0.7-0.5,0.3,0.3,1-0.5C29.7,80.1,28.7,78.5,27.4,78z"/>
			<path class="st20" d="M22.4,70.7c0-0.1-0.1-0.1-0.1,0c0,0.9-0.2,1.7-0.5,2.5c-1.5,2.4-3.5,0.8-4.8-0.1c-0.1,0-0.1,0-0.1,0l0,0
				c-0.2,1.1-0.7,2.2-1.4,3c-0.4,0.8-1.1,0.8-1.9,0.1c-0.9,0.1-1.4-0.2-1.6-0.9c-0.2-0.4-0.4-0.9-0.5-1.4c0-0.1-0.1-0.1-0.2,0
				c-0.2,0.4-0.2,0.2-0.1,0.6l0,0c0.1-0.5,0.4,0.9,0.4,0.9c0.1,0.3,0.3,0.6,0.6,0.9c0.4,0.4,0.8,0.8,1.4,0.9
				c1.7,0.3,2.5-1.3,3.1-2.6c0.6-1.6,0.7-0.7,2-0.2c0.7,0.3,1.5,0.3,2.2,0.1C22,73.8,22.8,72.2,22.4,70.7z"/>
			<path class="st20" d="M42.4,93.1C42.4,93,42.2,93,42.4,93.1c0,1.7-0.2,3.2-1.9,4c-0.5,0.3-1.2,0.1-1.7,0.4s-0.6,0.6-0.7,1.3
				c-0.1,1.6,0.8,2.8-0.5,4.3c-0.9,1.1-2.1,1-3.2,1.3c-1.3,0.3-1.9-0.1-3.1-0.8c-0.8-0.4-1.9-0.8-2.6-1.2c-1.5-1-2.3-1.1-3.4,0.6
				c-0.8,1.2-1.2,3.4-3.1,2.1c-2.2-1.5-1.1-5.9-0.8-8.3c0-0.1-0.2-0.1-0.2,0c-0.7,2.1-1.4,5.2-0.4,7.3c0.4,0.8,1.4,2.2,2.5,2.1
				c0.9-0.1,1.4-1.2,1.8-1.9c0.4-0.7,0.7-1.7,1.3-2s3.7,1.2,4.4,1.6c0.7,0.4,1.3,1.3,2.3,1.3c0.3,0,0.5-0.2,0.8-0.2
				c0.7,0.1,1.5,0.1,2.2,0c1.5-0.5,2.5-1.8,2.7-3.3c0.2-1.4-0.6-2,0.3-3.3c0.9-1.3,1.2-0.7,2.3-1.4C42.5,96.2,43,94.5,42.4,93.1z"/>
			<path class="st20" d="M36,84c-1.2,0.7-2.6,1-3.2,2.3c-0.2,0.5-0.1,1-0.3,1.5c-0.9,2.6-1.6,1.1-3.1,2c-1.1,0.7-1,1.8-1,3
				s0.4,2.4-0.8,3.1c-0.9,0.6-2.1,0.6-3-0.1c-1.3-1-2.1-2.6-1.8-4.2c0,0-0.1-0.1-0.1,0c-0.9,3.2,3.8,7.8,5.8,3.8
				c0.6-1.2,0-2.4,0.4-3.6c0.7-2.2,2.5-1.2,3.5-2.4c0.6-0.7,0.4-1.6,0.7-2.4c0.7-1.9,2.2-1.4,3-2.8C36.2,84.1,36.1,84.1,36,84
				C36.1,84,36.1,84,36,84z"/>
			<path class="st20" d="M50.4,97c-0.1-0.1-0.3,0.1-0.2,0.2c-0.6,0.8-1.2,1.5-1.8,2.3c-0.2,0-0.4,0.2-0.2,0.4
				c1.5,1.3,0.8,3.3-0.2,4.7c-0.4,0.7-1,1.2-1.7,1.6c-4.3,1.4-0.6-0.2-1.4-0.1c-0.5,0-0.9,0.2-1.2,0.6c-0.3,0.3-0.1,0.8-0.3,1.1
				c-0.6,1.3-1.2,1.4-2.5,1.3c-0.8-0.2-1.7,0-2.4,0.4c-1.4,1.1-1.5,3-3.5,3.5c-2.7,0.7-3.2-1.4-4.8-2.5c-1.1-0.8-2.5-1.1-3.8-1l0,0
				c1.1,0.1,2.1,0.4,3.1,0.9c0.9,0.6,1.3,1.4,2,2.2c0.3,0.5,0.8,0.9,1.4,1c1.7,0.4,3.5-0.3,4.6-1.7c0.7-1,1-2.1,2.5-2.4
				c0.5,0,1,0.1,1.5,0.1c0.6,0.1,1.2,0,1.7-0.2c0.6-0.4,0.5-1,0.7-1.6s-0.1-0.9,1.2-1.2c0.1,0,0.4,0.2,0.6,0.2
				c2.4-0.7,4-2.9,3.9-5.4c-0.2-0.4-0.4-0.9-0.6-1.3c0.2,0.1,0.8-0.3,0.9-0.4C50.8,98.9,51.2,97.9,50.4,97z"/>
			<path class="st20" d="M54.9,99.6c-0.1-0.1-0.3,0.1-0.2,0.2c2,1.7,3.5,3.6,3.4,6.4c-0.2,3.4-3.4,7.7-7.1,5.5c-0.1,0-0.2,0-0.3,0.1
				c-0.4,0.6-0.9,2.3-1.9,2c-0.1,0-0.2,0-0.2,0.1c0,0,0,0,0,0.1c0,2.2-1.9,1.4-2.3,3c-0.6,2.1,0.8,6.9-3,6.4c-2.6-0.4-1.9-3.8-4.3-4
				c-1.2-0.1-2.3,0.6-3.5,0.6c-2.3,0-3.9-1.7-4.6-3.8h-0.1c0.5,2.2,1.7,3.9,4.1,4.2c0.6,0.1,1.2,0,1.8-0.1l1.2-0.3
				c1.6,0.2,2.4,0.9,2.7,2.1c0.5,0.5,0.6,1,1.3,1.3c1.6,0.8,3.2,1,4-0.9c0.3-1.1,0.5-2.3,0.5-3.5c0.1-0.8-0.2-2.2,0.5-2.6
				c0.3-0.2,0.8,0,1.1-0.2c0.5-0.3,0.5-0.7,0.8-1.2c0.1-0.2,0.2-0.5,0.3-0.7c0,0.1,0.8-0.5,0.8-0.5c0.3-0.3,0.4-1,0.7-1.2
				c0.6-0.5,0.5-0.2,1.4,0c1,0.2,2,0.1,2.8-0.4C59.8,109.8,59.7,102.2,54.9,99.6z"/>
			<path class="st20" d="M49.9,113.9L49.9,113.9L49.9,113.9z"/>
			<path class="st20" d="M63.8,110.4C63.8,110.3,63.7,110.3,63.8,110.4c-0.2-0.1-0.2,0-0.2,0c0,2.3-0.2,6.4-3.8,5.7
				c-0.1,0-0.3,0-0.3,0.2c0,0,0,0,0,0.1c-0.6,0.5-1.2,1-1.9,1.4c-0.5,0.4-1.1,0.7-1.8,0.9c-0.6-0.1-1.2-0.3-1.8-0.6
				c-0.9-0.2-1.8-0.2-2,0.7c-0.2,0.6,0.2,1.5,0.4,2c0.6,1.7,0.9,3.6,0.9,5.4c0,0.9-0.3,1.8-0.7,2.7c-0.5,0.8-1.1,0.8-1.8,1.2
				c-0.2,0.2-0.4,0.3-0.6,0.6c-0.4,0.7-0.8,1.5-1.1,2.3c-0.8,1.4-0.9,1.4-2.5,1c-1.6-0.3-1.4-0.2-2.3-1.3c-0.5-0.6-1-1.6-1.9-1.3
				c-0.5,0.2-0.7,0.8-1.1,1.2c-1.9,2.1-5.2,1.7-7.5,0.6c-3.4-1.6-5.1-5.5-4-9.1l0,0c-2,4.8,1.8,9.6,6.6,10.3
				c1.1,0.2,2.2,0.2,3.3-0.1c1-0.4,1.3-1.1,2.1-1.7c1.6-1.1,1.9,0.4,2.8,1.3c0.6,0.7,1.4,1.1,2.3,1.2c1.7,0.1,2.4-1.3,3-2.6
				c0.4-1,0.5-1.4,1.4-1.9c0.2-0.1,0.5,0,0.7-0.1c0.6-0.5,1.1-1.3,1.3-2c0.5-1.2,0.6-2.5,0.4-3.8c-0.2-1.4-1.1-3.1-1.1-4.4
				c0.1-2.8,2.2-1,3.7-1.1c0.6,0,0.6-0.2,1.1-0.5c0.8-0.7,1.6-1.2,2.5-1.8c0.5-0.2,1.3-0.2,2-0.5C64.2,115.2,64.6,112.6,63.8,110.4z
				"/>
			<path class="st20" d="M65.1,118c0-0.1-0.1-0.1-0.2-0.1c0,0-0.1,0-0.1,0.1c-0.2,1.3-0.2,6-2.4,4.5c-0.1,0-0.2,0-0.2,0.1l0,0
				c-0.1,1.4-1.1,2.6-2.4,2.8c-0.5,0.2-1,0-1.4,0.4c-0.6,0.5-0.8,1.3-0.5,2c0.3,1.2,1.4,2,2.1,2.9s0.6,0.1,0.7,2.2
				c0,1.3,0.1,1.5-0.4,2.4s-2.5,3.8-3.9,1.9c0-0.1-0.1-0.1-0.2,0l-0.1,0.1c-0.3,2.4-3.4,5.7-5.8,2.5c-0.1-0.1-0.3-0.1-0.2,0.1
				c0.1,3.1-2.7,4.2-5.3,3.3c2,1,4.2,1.1,5.3-1.4c0-0.1,0.2-1.2,0.3-1.2c0.3-0.1,0.2,0.3,0.6,0.3c0.9,0.2,1.3,0.6,2.4,0.5
				c0.7-0.1,1.4-0.5,1.9-1c0.4-0.4,0.8-2.2,1.1-2.4s0.6,0.3,1,0.3c0.5,0,0.9-0.2,1.3-0.5c1.5-1.1,2.5-2.7,3-4.4
				c0.5-2.5-2.8-3.2-3.3-5.4c-0.1-0.1-0.1-0.3-0.2-0.4l2-1.9c0.1,0,0.4,0.1,0.5,0.1c0.3-0.2,0.5-0.1,0.8-0.3c0.7-0.5,0.5-1.6,1-2
				s1.4,0.6,2.2-0.5C65.2,121.8,65.3,119.4,65.1,118z"/>
			<path class="st20" d="M40.4,139.7L40.4,139.7c0.3,0.3,0.6,0.6,1,1L40.4,139.7z"/>
			<path class="st20" d="M44.1,142.8c0.2,0.1,0.4,0.2,0.6,0.3c-1.2-0.6-2.3-1.4-3.4-2.3C42.2,141.6,43.1,142.3,44.1,142.8z"/>
			<path class="st19" d="M65.2,139.6c-0.1,0-0.2,0.1-0.2,0.1l0,0c-0.1,1-0.1,3.9-2.3,3.1c-0.1,0-0.3,0-0.3,0.2
				c-0.3,0.9-0.3,2-0.6,2.9c-1,2.7-5.4,2-6-0.7l0,0c0.2,2.3,3,3.6,5,2.7c0.8-0.3,1.4-1,1.5-1.8c0.2-0.6,0-1.6,0.3-2
				c0.4-0.8,0.3-0.3,1-0.5s1.3-0.8,1.4-1.6c0.3-1,0.1-1.6,0.8-2.3c0.3-0.3,0.5-0.6,0.8-0.9C66.3,139.3,65.8,139.6,65.2,139.6z"/>
			<path class="st19" d="M66.7,138.8L66.7,138.8L66.7,138.8z"/>
			<path class="st19" d="M67.2,135.4L67.2,135.4c0.6,0.6,0.2,1.9,0,2.5c-0.1,0.3-0.3,0.6-0.5,0.9C67.6,137.7,68.3,136.3,67.2,135.4z
				"/>
			<path class="st19" d="M128.2,138.6c-1.1,1-2.5,1.6-4,1.8c-1.4,0.1-2.3-0.7-3.6-1.1c-0.7-0.2-2.8,0.1-3.1-0.2
				c-0.1-0.1-0.2-0.1-0.3,0l0,0c-1.7,2.3-1.8-2-1.8-2.2c0.2-1,0.3,0.2,0.4-0.9c0-0.6-0.3-1.2-0.7-1.7c-0.6-0.8-1.9-1.4-2.3-2.3
				c-1-2.1,0.5-4.4,2.1-5.6c0,0,0-0.1-0.1-0.1c-2.2,1.1-3.9,4.3-2.1,6.4c0.6,0.7,2.1,1.4,2.3,2.3c0.3,1.1-0.7,1.9-0.9,2.9
				c-0.1,0.8,0.3,1.5,1,1.9c0.9,0.5,1.3-0.1,2-0.1c0.2,0,0.5,0.3,0.7,0.3s0.6-0.2,0.9-0.2c1.9-0.1,3.3,1.1,5.3,1
				C125.7,140.7,127.2,139.9,128.2,138.6L128.2,138.6z"/>
			<path class="st19" d="M127,142c-1.6,1.4-3.5,2.3-5.5,2.8c-0.7,0.2-1.3,0.5-2,0.8c-1.2,0.8-2.8,0.7-4-0.1
				c-0.1-0.1-0.2-0.2-0.3-0.3c-0.6,0-0.8,0.2-1.6,0.3c-1,0.1-5.2-1.9-4.9-2.6c0.1-0.1,0-0.2-0.1-0.3c-0.1,0-0.2,0-0.2,0
				c-0.9,0.8-1.5,0.6-2-0.7c-0.7-0.4-1.1-0.8-1.1-1.3c-0.5,1.4-0.5,2.7,1.4,3c0.4,0,1.2-0.4,1.4-0.3c-0.2-0.1-0.2,0.6-0.1,0.7
				c0.6,1.2,1.1,1.3,2.5,1.5c1.8,0.2,1.9,0.8,3.6,0.5c1.3-0.2,2.1,1.1,3.5,0.9c1.9-0.2,4-1.4,5.8-2c1.5-0.4,2.8-1.3,3.8-2.6
				C127.5,142.1,127.2,141.9,127,142z"/>
			<path class="st19" d="M105.5,140.7c0.1-0.3,0.2-0.6,0.4-0.9C105.6,140.1,105.5,140.3,105.5,140.7z"/>
			<path class="st19" d="M106.9,138.2L106.9,138.2c-0.4,0.5-0.7,1.1-1,1.6l0.1-0.1C106.2,139.2,106.6,138.7,106.9,138.2z"/>
			<path class="st19" d="M70.3,139.7c-0.1-0.1-0.3,0-0.2,0.2c0.1,0.2,1.4,1.8,1.2,1.6c0.8,1.3,1,4-1.3,4.4c-0.1,0-0.2,0.2-0.1,0.3
				c0.3,1.7-1.1,0.3-1.9,1s-0.1,2.2,0,3c0.7,5.2-6.9,8.1-10.5,4.6l0,0c2,2.2,5.2,2.2,7.8,1c1.3-0.6,2.3-1.6,2.9-2.9
				c0.3-0.7,0.3-1.5,0.2-2.3c-0.1-1.3-0.7-3.2,1.7-2.8c0.1,0,0.3-0.1,0.3-0.2l0,0c0.1-1.5,1.5-1.8,1.8-3.3
				C72.6,142.3,71.8,140.6,70.3,139.7z"/>
			<path class="st19" d="M78,149.9c-0.1-0.2-0.3-0.4-0.5-0.5c-0.4-0.4-0.2-0.2-0.2-0.7c0-1.3-0.8-2.4-2-2.8c-0.1,0-0.1,0.1,0,0.1
				c1,0.6,2.4,1.9,1.5,3.1c0,0.1,0,0.2,0.1,0.2c1,0.4,1.4,1.6,0.9,2.5c-0.1,0.2-0.2,0.4-0.3,0.5c-0.5,0.5-2.8,0.9-2.3-0.6l0,0
				c-1.1,1.8,2.9,2.1,3.3-0.2C78.5,151,78.3,150.4,78,149.9z"/>
			<path class="st19" d="M115.1,147.8c-0.7,0.6-1.3,1.2-2,1.8c-0.5,0.4-1,0.8-1.5,1.1c-1.5,0.9-1.7,0.5-3.8,0
				c-0.2,0-0.3-0.3-0.5-0.3c-1.1-0.1-2.3,0.7-3.2-0.4c-0.1,0-0.1,0-0.2,0c-2.1,1.5-4.3-0.9-4.7-2.7c-0.3-1.2-0.1-2.5,0.4-3.6
				c0.9-1.7,2.1-3.1,3.6-4.4l0,0c-2.4,1.3-4.1,3.6-4.5,6.3c-0.2,2.6,1.2,4.9,4,5c0.7,0,1.3,0.1,2,0.2c0.5,0.1,1-0.1,1.6,0
				c2.2,0.1,1,0.5,2.2,0.8c2.8,0.7,5.2-1.8,6.9-3.8c0.1-0.1,0.1-0.1,0-0.2C115.2,147.8,115.1,147.8,115.1,147.8z"/>
			<path class="st21" d="M87.6,140c-1.5,0.5-3,1.1-4.3,2c-0.1,0.1-0.1,0.1-0.2,0.2c-0.5,0.2-1,0.4-1.6,0.6c-0.2,0.1-0.3,0.2-0.4,0.4
				c-0.2-0.1-0.4,0-0.5,0.1c-0.4,0.7,0.2,1.1,0.9,1.2c0.6,0,1.3-0.2,1.9-0.5c1.9-0.5,3.5-1.5,4.8-3C88.5,140.6,88.2,139.8,87.6,140z
				"/>
			<path class="st21" d="M109.3,125.3c-1.5,1.6-2,3.8-3.7,5.3c-1.9,1.6-3.8,3.1-5.8,4.5c-3.8,2.5-8.6,3.6-12.2,6.4
				c-0.3,0.2,0.1,0.5,0.3,0.4c4.7-2,10-3.7,14.1-6.8c1.8-1.3,3.4-2.6,4.9-4.2c1.5-1.6,1.9-3.6,2.5-5.6c0-0.1,0-0.1-0.1-0.2
				C109.4,125.2,109.3,125.2,109.3,125.3L109.3,125.3z"/>
			<path class="st21" d="M119.8,100.6l-0.3-0.1c-0.1,0-0.1-0.1-0.2-0.1c-0.9-0.1-1.7,0.3-2.2,1c-1.1,1.3-1.6,3.7-1.9,5.1
				c-0.2,2.1-0.2,4.2,0,6.3c0.1,1.6,0.1,3-1,4.3c-0.8,1-1.7,1.8-2.7,2.7c-0.2,0.2-0.2,0.4,0,0.6c0.1,0.1,0.3,0.1,0.4,0.1
				c1.4-0.4,2.5-1.9,3.3-3c1.2-1.6,1-3.4,1-5.3c0-2.3,0.2-4.6,0.6-6.9c0.1,0,0.2,0,0.2-0.1l0,0c0.1,0,0.1,0,0.2,0
				c1.5-0.6,2.2-2,2.9-3.5c0.2-0.4,0.2-0.8-0.2-1.1C119.9,100.6,119.9,100.6,119.8,100.6z"/>
			<path class="st22" d="M44.6,73.1L44.6,73.1L44.6,73.1z"/>
			<path class="st23" d="M77.3,95.7c0-0.1-0.1-0.3-0.3-0.4c-0.2-0.2-0.6-0.2-0.8,0l-0.1,0.1C76,95.5,76,95.6,76,95.7
				c0.1,0.3,0.3,0.5,0.6,0.6c0.3,0.1,0.5-0.1,0.6-0.4C77.3,95.9,77.3,95.8,77.3,95.7z"/>
			<path class="st23" d="M62.9,9.9L62.9,9.9L62.9,9.9z"/>
			<g class="st24">
				<path class="st25" d="M106.9,66.3c5-3.8,2.1-19.2-5.2-16c5.7,0.9,0.2-8.6-5.1-8.5c-4,0-5.5,1-5.3,5.1c0.2,3.8,3.3,7.6,3.8,11.4
					c0.5,4.2,1.3,1.7-1.5,4.7c-4,4.3-8,7.9-3,13.9c-4.4,1.4-9.5,7.9-7.7,12.5c-11.4-0.5-9.9,16.8-3.2,21.8
					c10.1,7.4,24.1-1.9,24-13.4c6.4,3.4,7.7-12.5,7.5-16.2c2.4,1.7,3.8,0.2,5.1-2.1C118.9,74.8,115.1,71.9,106.9,66.3z"/>
			</g>
		</g>
	</g>
</g>
</svg>
