<?xml version="1.0" encoding="utf-8"?>
<!-- Generator: Adobe Illustrator 23.0.2, SVG Export Plug-In . SVG Version: 6.00 Build 0)  -->
<svg version="1.1" id="Layer_1" xmlns="http://www.w3.org/2000/svg" xmlns:xlink="http://www.w3.org/1999/xlink" x="0px" y="0px"
	 viewBox="0 0 161.2 161.2" style="enable-background:new 0 0 161.2 161.2;" xml:space="preserve">
<style type="text/css">
	.st0{fill:url(#SVGID_1_);}
	.st1{opacity:0.11;fill:url(#SVGID_2_);enable-background:new    ;}
	.st2{fill:url(#SVGID_3_);}
	.st3{fill:url(#SVGID_4_);}
	.st4{fill:url(#SVGID_5_);}
	.st5{fill:url(#SVGID_6_);}
	.st6{fill:url(#SVGID_7_);}
	.st7{opacity:0.11;fill:url(#SVGID_8_);enable-background:new    ;}
	.st8{fill:url(#SVGID_9_);}
	.st9{opacity:0.11;fill:url(#SVGID_10_);enable-background:new    ;}
	.st10{fill:url(#SVGID_11_);}
	.st11{fill:url(#SVGID_12_);}
	.st12{fill:url(#SVGID_13_);}
	.st13{fill:#FFFF00;}
</style>
<title>planet_mars</title>
<g>
	<g>
		<g id="earth">
			
				<linearGradient id="SVGID_1_" gradientUnits="userSpaceOnUse" x1="54.1515" y1="151.7106" x2="110.8446" y2="0.7622" gradientTransform="matrix(1 0 0 -1 0 161.89)">
				<stop  offset="0" style="stop-color:#F64C50"/>
				<stop  offset="0.34" style="stop-color:#B84451"/>
				<stop  offset="1" style="stop-color:#3A3352"/>
			</linearGradient>
			<circle class="st0" cx="80.6" cy="80.6" r="80.6"/>
			
				<linearGradient id="SVGID_2_" gradientUnits="userSpaceOnUse" x1="-40.034" y1="502.8238" x2="159.136" y2="-342.3062" gradientTransform="matrix(1 0 0 -1 0 161.89)">
				<stop  offset="0" style="stop-color:#FF625E"/>
				<stop  offset="0.33" style="stop-color:#C1535A"/>
				<stop  offset="1" style="stop-color:#3A3352"/>
			</linearGradient>
			<path class="st1" d="M134.9,140.2c-2-1.5-7.8,1.8-12.3,4.2c-7.1,3.8-12.2,2.5-21,5s-13.4-0.8-22.6-4.6s-13.8,1.3-16.3-7.5
				s-5-7.1,1.7-17.2s15.1-12.2,15.5-25.6S70.6,76.1,51.3,66s-9.6-10-16.8-24.3c-4.2-8.5-11.8-10.6-17.3-10.9
				c-27.5,35-21.3,85.7,13.7,113.2C61.8,168.3,105.8,166.7,134.9,140.2z"/>
			
				<linearGradient id="SVGID_3_" gradientUnits="userSpaceOnUse" x1="16.816" y1="119.2698" x2="66.9033" y2="-14.0897" gradientTransform="matrix(1 0 0 -1 0 161.89)">
				<stop  offset="0" style="stop-color:#FF625E"/>
				<stop  offset="0.33" style="stop-color:#C1535A"/>
				<stop  offset="1" style="stop-color:#3A3352"/>
			</linearGradient>
			<path class="st2" d="M97.2,159.5c-0.7-1.7-2.2-2.8-4-2.9c-5-0.4-2.1,0.8-2.1,0.8c-4.9-0.2-9.6-1.6-13.8-4.2
				c-6.7-4.2-9.6,0-21-1.7s-13-4.2-13.4-8.8s5.4-4.2,7.1-11.7s-0.8-8.8,7.5-15.5s13-12.6,13-22.2s-10.9-13-24.7-20.1
				S33.7,60.2,27,48c-3.6-6.5-10.3-8.2-15.8-8.4C-11.4,78,1.4,127.4,39.7,150C57.1,160.2,77.6,163.6,97.2,159.5z"/>
			
				<linearGradient id="SVGID_4_" gradientUnits="userSpaceOnUse" x1="11.0508" y1="120.9502" x2="20.2608" y2="81.5602" gradientTransform="matrix(1 0 0 -1 -3.254544e-03 161.8932)">
				<stop  offset="0" style="stop-color:#FF625E"/>
				<stop  offset="0.33" style="stop-color:#C1535A"/>
				<stop  offset="1" style="stop-color:#3A3352"/>
			</linearGradient>
			<circle class="st3" cx="15.2" cy="58.9" r="6.7"/>
			
				<linearGradient id="SVGID_5_" gradientUnits="userSpaceOnUse" x1="-12.4149" y1="74.2851" x2="20.4951" y2="41.3651" gradientTransform="matrix(1 0 0 -1 0 161.89)">
				<stop  offset="0" style="stop-color:#FF625E"/>
				<stop  offset="0.33" style="stop-color:#C1535A"/>
				<stop  offset="1" style="stop-color:#3A3352"/>
			</linearGradient>
			<path class="st4" d="M7.7,101.6c-1.6,0-3.2,0.3-4.6,1c2,7,4.9,13.7,8.8,19.9c5.6-2.2,8.3-8.6,6.1-14.2
				C16.2,104.3,12.2,101.6,7.7,101.6L7.7,101.6z"/>
			
				<linearGradient id="SVGID_6_" gradientUnits="userSpaceOnUse" x1="26.6835" y1="100.3585" x2="29.8535" y2="86.8185" gradientTransform="matrix(1 0 0 -1 0 161.89)">
				<stop  offset="0" style="stop-color:#FF625E"/>
				<stop  offset="0.33" style="stop-color:#C1535A"/>
				<stop  offset="1" style="stop-color:#3A3352"/>
			</linearGradient>
			<circle class="st5" cx="28.1" cy="67.7" r="2.3"/>
			
				<linearGradient id="SVGID_7_" gradientUnits="userSpaceOnUse" x1="41.5266" y1="89.3992" x2="53.1566" y2="40.0692" gradientTransform="matrix(1 0 0 -1 0 161.89)">
				<stop  offset="0" style="stop-color:#FF625E"/>
				<stop  offset="0.33" style="stop-color:#C1535A"/>
				<stop  offset="1" style="stop-color:#3A3352"/>
			</linearGradient>
			<circle class="st6" cx="47.5" cy="97.9" r="4.2"/>
			
				<linearGradient id="SVGID_8_" gradientUnits="userSpaceOnUse" x1="87.2513" y1="172.0498" x2="85.7913" y2="6.2098" gradientTransform="matrix(1 0 0 -1 0 161.89)">
				<stop  offset="0" style="stop-color:#FF625E"/>
				<stop  offset="0.33" style="stop-color:#C1535A"/>
				<stop  offset="1" style="stop-color:#3A3352"/>
			</linearGradient>
			<path class="st7" d="M145.1,40.1c1.4-0.5,2.8-1.2,4-2c-23.5-37.8-73.2-49.5-111-26c-4.9,3-9.4,6.5-13.5,10.5c4,5.2,10.5,7.8,17,7
				c13-1.3,15.5-6.3,24.3-2.1s12.6,8.4,26,7.1s16.8,4.6,20.5,9.2s6.7,0,14.3-3.3S136.3,43,145.1,40.1z"/>
			
				<linearGradient id="SVGID_9_" gradientUnits="userSpaceOnUse" x1="87.841" y1="170.63" x2="86.591" y2="27.76" gradientTransform="matrix(1 0 0 -1 0 161.89)">
				<stop  offset="0" style="stop-color:#FF7F4B"/>
				<stop  offset="0.33" style="stop-color:#C1674D"/>
				<stop  offset="1" style="stop-color:#3A3352"/>
			</linearGradient>
			<path class="st8" d="M145.6,33C119.4-2.9,68.9-10.7,33,15.5c-1.2,0.9-2.4,1.8-3.6,2.8c2.2,2.8,6.7,5.8,16,5.8
				c16.8,0,13-10.5,30.6,0.4s24.3,0,30.6,2.9s3.3,8.8,8,11.3s0.8-2.5,10.9-6.3C132.7,29.8,140.5,35.1,145.6,33z"/>
			
				<linearGradient id="SVGID_10_" gradientUnits="userSpaceOnUse" x1="147.6396" y1="119.5516" x2="129.0996" y2="-0.4684" gradientTransform="matrix(1 0 0 -1 0 161.89)">
				<stop  offset="0" style="stop-color:#FF625E"/>
				<stop  offset="0.33" style="stop-color:#C1535A"/>
				<stop  offset="1" style="stop-color:#3A3352"/>
			</linearGradient>
			<path class="st9" d="M161.2,80.6c0-14.2-3.7-28.1-10.8-40.3c-4.1,1.5-13.7,5.9-17,14c-4.2,10.5,2.9,19.3-1.7,30.2
				s-4.2,10-7.1,21.8s-12.2,10.5-9.2,20.5s4.6,12.6,13,10.5c3.1-0.7,6.3-0.6,9.5,0.1C152.8,122.2,161.2,101.8,161.2,80.6z"/>
			
				<linearGradient id="SVGID_11_" gradientUnits="userSpaceOnUse" x1="150.6996" y1="115.6362" x2="133.9396" y2="7.1262" gradientTransform="matrix(1 0 0 -1 0 161.89)">
				<stop  offset="0" style="stop-color:#FF625E"/>
				<stop  offset="0.33" style="stop-color:#C1535A"/>
				<stop  offset="1" style="stop-color:#3A3352"/>
			</linearGradient>
			<path class="st10" d="M152.6,44.3c-1.5,1.4-3.8,3.4-7.4,6.2c-9.6,7.5-10.5,13-8,25.6s2.9,10-1.3,20.5s-2.9,6.7-5.9,17.6
				s-11.3,7.1-7.1,15.1s8.8-2.1,16.8-2.9c2.7-0.3,3.9,1.5,4.9,3.2C163.3,105,166.4,71.9,152.6,44.3L152.6,44.3z"/>
			
				<linearGradient id="SVGID_12_" gradientUnits="userSpaceOnUse" x1="85.3933" y1="133.0299" x2="83.7133" y2="42.1099" gradientTransform="matrix(1 0 0 -1 0 161.89)">
				<stop  offset="0" style="stop-color:#FF625E"/>
				<stop  offset="0.33" style="stop-color:#C1535A"/>
				<stop  offset="1" style="stop-color:#3A3352"/>
			</linearGradient>
			<path class="st11" d="M66.4,39.6c0,0-8.8,4.6-4.6,12.2s8.4,0,14.2,2.1s0,5.9,10.9,7.5s9.2,6.7,16.3,9.2s5-10.9,5.9-14.7
				s-0.4-11.7-4.6-12.6s-8.4,4.2-16.3,1.7s-18.8,1.7-21-0.4S66.4,39.6,66.4,39.6z"/>
			
				<linearGradient id="SVGID_13_" gradientUnits="userSpaceOnUse" x1="119.3937" y1="161.356" x2="82.3137" y2="-59.234" gradientTransform="matrix(1 0 0 -1 0 161.89)">
				<stop  offset="0" style="stop-color:#F64C50"/>
				<stop  offset="0.34" style="stop-color:#B84451"/>
				<stop  offset="1" style="stop-color:#3A3352"/>
			</linearGradient>
			<path class="st12" d="M108.3,89.5c0,0-9.2,1.3-8.8,7.1s2.1,6.7-2.5,11.3s-7.5,5-10,10.9s-8.8,6.3-7.6,11.3s4.2,0.8,10.1,0
				s8,0,15.1-4.2s2.9-11.3,8.4-16.8s9.6-12.2,9.6-17.2s0-15.9-4.2-12.6C114.7,82.6,111.4,85.9,108.3,89.5z"/>
			<path class="st13" d="M129.5,72c-1.3-1.3-3.3-1.3-4.6,0c-1.1,1.3-1.3,3.1-0.3,4.5l2.6,3.7l2.6-3.7
				C130.8,75.1,130.7,73.3,129.5,72z M127.3,75.4c-0.7,0-1.2-0.5-1.2-1.2s0.5-1.2,1.2-1.2s1.2,0.5,1.2,1.2S127.9,75.4,127.3,75.4
				L127.3,75.4z"/>
		</g>
	</g>
</g>
</svg>
