<svg xmlns="http://www.w3.org/2000/svg" viewBox="0 0 165.42 165.42"><defs><style>.cls-1{isolation:isolate;}.cls-2{fill:#fec20c;}.cls-3,.cls-5,.cls-6,.cls-7{fill:#eb9206;}.cls-3{opacity:0.38;}.cls-4,.cls-8,.cls-9{fill:#fffb64;}.cls-4{opacity:0.41;}.cls-6{mix-blend-mode:overlay;}.cls-7{opacity:0.16;mix-blend-mode:multiply;}.cls-9{opacity:0.6;}</style></defs><title>sun</title><g class="cls-1"><g id="Layer_2" data-name="Layer 2"><g id="loading"><circle class="cls-2" cx="82.71" cy="82.71" r="82.71"/><path class="cls-3" d="M22.92,96.08c-2.36-7.37-8,4.11-6.6,8.62-8.79-4.18-11.5,23,4.35,22.44-2.09,6.1,4.14,16.21,11.38,13,1.2,7.73,10.77,21,19,14.15,1.44,7.32,9,6.09,14.12,3.26,1.44,3.41,5.33,6.34,9.15,4.53s1.9-5.75,5.56-7.27c-.67,5,10.09,6.72,11,2,1.54,5.67,11.64,2.26,14-2,4.29,5,16.75-1.08,21.44-3.43,8.44-4.24,15.27-13.36,16.81-22.62,2.34.09,4.91-2.31,6.12-4.16,2-3,.54-4.71,1.7-7.35,3.13-7.11,10.59-11.16,11.69-20.07a24.67,24.67,0,0,0-1-10.91c-.77-2.05-3.63-4.14-4.12-5.94-1.63-6.09,5.91-15.47-1.95-20.14,2.87-5.45,1.28-22-8.25-18.13,1.32-7.93-7.84-16.51-15.07-11.52-8.32,5.73-6.26,22.24-6,31.15-1.33-2.94-5.25-4.88-8.24-3.17-2.82,1.62-2.69,5.86-3.33,8.57-3.74-8.92-13.65,2.65-15.92,6.68-3.73,6.63-7.16,19.06-4.7,26.58-2.71-3.29-5.43-6.35-10.3-5.09-6.11,1.59-7.26,8.49-11.75,11.61-6.75-8.58-14.73-2.12-20.17,2.64-1.42-12.69-14.29-3.69-18.52,1.09C35.3,103,31.23,99.6,22.92,96.08Z"/><path class="cls-4" d="M64.2,8.45c-9.82-.9-23.1,5.77-23.68,16.68-6.24-4.62-18.7,8.39-22.46,13.63-6.15,8.56-8.2,19.33-7.53,30,1.53,24.4,26.27,32,46.31,23.54C68.1,87.52,83.06,72.59,76.25,59.15c4.26-.18,6.37-3.43,5.54-7.78,11.45,3,24.83-7.1,27.63-17.95C116.1,7.48,91.6-4.65,64.2,8.45Z"/><path class="cls-5" d="M64.2,153.28c10,0,13.41-4.16,19.86-9.64,10.18,19.31,47-2,56.43-13.16,16.13-19.22,19.59-37.17,16.32-62.29-1.86-14.26-9.27-25.85-20.42-34.66-1.86,13.82,4.25,28.52-.06,42.19-2.41,7.65-5.81,11.27-12.4,7.56-3.61-2-3.28-5.61-8.94-5-5.06.55-9.14,6.64-11.48,11-4.67,8.67-1.09,39.12-15.14,39-4.43-5.47-13.15-11.41-20.5-8.6-6.71,2.56-12.28,11.67-21.34,10.23C35.7,128.13,34.89,111,24.1,108.47c-2.57-.61-4.91,2-6.94,1.49C10.46,108.41,30.38,153.36,64.2,153.28Z"/><path class="cls-6" d="M132.57,120.2c-13.55,2.89-9.34-16-.34-19.11,13-4.57,11.89,11,5.48,17.64Z"/><path class="cls-6" d="M145.07,70.94c-5.39-1.52-6.9-12.53.62-10.91-.07,4.83-.18,10,5.87,7.37,2.69,5.82,3.89,16.63-.6,22.3-7.84,9.89-15.12-4.43-8.84-12.87Z"/><path class="cls-6" d="M65.67,138.58c-3.38,7.16-10.19,11-16.57,5.58s-.92-13.36,5.55-8.84c5.32-8.6,28.29-8.91,17.63,4Z"/><path class="cls-4" d="M31.3,72.6C6,72.47,32.88,30.68,38,52.65c12.6,3,7.76-19.77,10.79-25.25,4.86-8.76,21.87-15.31,21.2-.19,1.85-3,7.84-5.11,6.47.53,9-8.83,27.66-5.95,20.89,9.5-2.83,6.46-10,9.81-16.45,11.08-5.71,1.14-9.67-1.08-14.82-1.55,1.73,3.93,1.32,9.54-3.83,10.49-.38,10.63-1.88,21.33-10.66,28.28-3.75,3-9.56,6.73-14.65,6.27C26.9,90.91,29.7,81.43,31.3,72.6Z"/><path class="cls-4" d="M88.64,15.25c-2.83,1.42-9.37,3.07-11.58-1.1C75,10.21,81.07,3.39,83.25,8c7.68-5.13,16.43,4.37,6.49,6.67Z"/><path class="cls-4" d="M36.81,37.86c3.91-5.14-1.41-10.49-6.85-8.27-3.21,1.31-8.68,8-4.11,9.36-3.47,1.13-6.78,4.72-2,6.08,3.5,1,9.2-3.14,11.86-5Z"/><path class="cls-4" d="M117.86,27.94c-8.46-6.88,7.37-15.15,4.94-5.71,8.85-7.82,7.83,13,3.36,17.84-9.54,10.36-20.93-2.46-8.85-10.48Z"/><path class="cls-4" d="M14.2,96.86c1.31-3.14-.23-11.51-4.41-13.11C3.6,81.38,4.43,90.85,6.41,94c-8.27,1,4.2,19.66,6.69,5.61Z"/><path class="cls-6" d="M103.53,21.32a14.74,14.74,0,0,0-4.13-14c-3-3-9-6-12.69-3C81.34-.82,71,2.63,68.6,9.05c-1.31-2.79-7.54-1.89-10.1-1.29a10.81,10.81,0,0,0-8.35,7.91C43.22,11,32.43,18.92,27.83,23.85A78.47,78.47,0,0,0,9.43,55.61C5.71,68.82,5.3,80.83,15.81,91.13c12.23,12,29.29,12.64,45.36,9.15,14.44-3.14,29-19.46,32-33.53,7,3.4,10.57-6.79,9-11.92C113.45,53.75,124.62,22.17,103.53,21.32Z"/><path class="cls-7" d="M47.65,119.1c-1.58-3.32-2.77-8.26-6.43-10.08-3.36-1.68-9.78.87-6.4,5.15-6.87-8-14.58,8-11.84,14-6,2.66,3.76,11.81,6.09,13.11,6.33,3.54,16.37,8.87,23,3.24.16,7,10.16,9.72,15.07,6.17-.65,8.22,10.82,9.11,15.14,4.15.51,7.57,23.94,3.1,28.19,1.91,7.11-2,12.91-5.81,18.64-10.39,4.15-3.32,10.89-9.08,11.28-14.76,5.12.41,9.52-6.65,11.74-10.42,3.69-6.28,3.56-11.13.1-17.13,7.24-4.09,12.84-18.66,6.87-25.35,6-2.3,3.3-19.14-2.49-20.38,6.91-4.59-3.46-20.66-8.22-23.47-12.68-7.5-24.83,4.13-27.56,16.27-1.94,8.68-1.41,17.7-3.62,26.34a40.8,40.8,0,0,1-20.52,26.2c-6.21,3.16-12.35-.29-18.4,2.48-6.34,2.92-8.31,7.7-10.37,14C65.05,110.37,53.13,116.61,47.65,119.1Z"/><path class="cls-6" d="M123.93,64.88c-4.33,1.35-12.41-.33-15.45-4.12s-1.66-14,4.76-12.93c-5.59-9.51-2.17-27.39,9.61-31.08,10.62-3.33,16.9,11.26,15,20,9.16-5,10,17.16,4,22.14,9.85-2.17,7.09,16.35,5.21,20.88-5.09,12.22-15,24.68-26.58,31.2C107,118.48,85,116.82,78.8,100.17c-4.35-11.71,5.5-22.66,17-17.85-1.37-7.62,7.8-13.81,13.21-7.15C110.49,67.45,120.64,70.15,123.93,64.88Z"/><path class="cls-6" d="M22.47,127.19c-4.06,3.83,1.8,7,3.88,9.63,2.92,3.72,2.37,8,6.48,10.92s8.33,1.95,12.25,5c4.59,3.6,7.43,6.79,13.81,5.46,2.62-.55,2.11-2.44,5.49-1.85,2.21.39,4.05,3.07,6.19,3.74,3.65,1.14,4.88-.85,8.37-.89,3.71,0,3.9,1.68,7.26,3.47,8.84,4.69,10.19-3.14,17.3-5.08,3.61-1,4.54.92,8-1.21,2.53-1.54,2.93-3.19,5.49-3.92,3.71-1.06,3.1.8,6.47-2.15,2.21-1.93,3.11-4.7,5.38-6.61,2.6-2.19,6-2.4,8.68-4.39,3.59-2.64,4.92-7,7.05-10.52,2.51-4.18,9.72-7.46,10.88-12.66.55-2.48-1.26-4.17-.71-6.65s3.76-4.09,4.93-6.38c1.73-3.4,6.66-32.5-.49-31-2.67.55-2.48,12.26-2.81,14-1.23,6.56-4.58,8.63-7.71,13.51-2.57,4-.81,8.68-2.71,12.81-2.16,4.73-6.64,10.13-9.41,14.54-3.54,5.64-6.11,3.24-12,4.62-8.29,1.94-8.06,11.51-14.48,15.07-4.75,2.64-12.51.74-17.27-.47-7.17-1.82-7.48.73-14.06,3.07-6,2.15-10.44-1-15.51-3.25-4-1.8-5.91-1.44-10.47-.91-6.42.74-7.93-.67-12.36-5.23-2.61-2.68-4.4-2.52-7.6-4.53C29.07,133,28.09,127,22.47,127.19Z"/><path class="cls-8" d="M82.57,51.26c-.14-.88-1.45-.61-1.49.2-.11,2.4-.24,8.41-4.59,7.19a.7.7,0,0,0-.79,1c3.9,8.44-2.22,19.52-8.43,25.22a43.24,43.24,0,0,1-18.86,10c-15.74,3.79-29.87-5.87-35.19-20.71a.13.13,0,1,0-.24.07c1.76,10.12,7.94,18.43,17.6,22.38,10,4.09,21.07,1,30-4.31,8.3-4.89,16.86-13.15,17.24-23.45,0-1.46-1.49-7.46-.58-8.57a15.65,15.65,0,0,0,2.56-.57C82.41,58.19,83,54,82.57,51.26Z"/><path class="cls-8" d="M83.79,2.52c-4.36-1.11-9.29-.11-13.33,1.74C67.23,5.74,65,7.05,61.35,7a18.17,18.17,0,0,0-7,1c-5.74,2.07-16.51,9.64-14.27,17a.2.2,0,0,0,.33.09c2.7-2.65,3.48-6.54,6.36-9.34A20.68,20.68,0,0,1,60.61,9.7c4.42,0,4.74-.38,8.57-2.68,4.66-2.79,9.62-2.28,14.61-3.66A.44.44,0,0,0,83.79,2.52Z"/><path class="cls-8" d="M91,8.17a.66.66,0,0,0-.46,1.11c1,1.1,3.65,1.69,1.88,3.3-1.51,1.37-4,1.9-6,2.26a15.8,15.8,0,0,1-6.67.17c-2-.54-2-1.73-1.88-3.62a.14.14,0,0,0-.22-.12c-2.22,1.33-1.93,3.93.28,5.11,2.67,1.43,6.39,1,9.22.4,2.38-.49,6.11-1.37,7.39-3.73S93.33,8.21,91,8.17Z"/><path class="cls-8" d="M37.45,34.19c0-.09-.15-.13-.17,0-.81,4-4.49,6.52-7.66,8.54a5.6,5.6,0,0,1-4.95.63c-.34-.11-1.33-1-1.71-.81-1.36.84-.21,2.31.86,2.72,2,.76,3.54-1.07,5.27-1.7C32.66,42.25,37.94,38.56,37.45,34.19Z"/><path class="cls-8" d="M128.56,24c-1.26-2.65-3.1-4.26-5.13-3.38a2.91,2.91,0,0,0-1.46-2,.13.13,0,0,0-.19.12,12.58,12.58,0,0,1-.39,3.69c-.27.94,1.22,1.64,1.63.69,1.51-3.56,3.91,1.51,4.18,2.33a8.33,8.33,0,0,1,.4,3c-.08,3.55-2,6.35-2.76,9.69a.39.39,0,0,0,.65.37C128.85,35.22,130.62,28.38,128.56,24Z"/><path class="cls-8" d="M48.81,60.7c-.33.36.11,1,.54.71,2.21-1.6,5.45-2.67,6,1.3.26,1.91-.72,3.95-1.71,5.51-2,3.2-5.44,6.43-9.07,7.65-3.43,1.16-7.5.41-8.74-3.39-1.17-3.58.56-7,4.36-7.43a1.08,1.08,0,0,0,.54-2c-1.63-1.16,1.2-4,2.52-4.16.66-.11,1.86.87,2.35.55,1-.64.58-2-.18-2.64-1.24-1.07-3.09-.45-4.32.29-2.24,1.35-4.17,4.32-2.91,6.46-3.14,1.64-4.55,5.9-3.61,9.27,1.49,5.33,6.63,6.14,11.27,4.34,5.31-2.07,11.22-6.86,11.74-13C58.09,58.27,52.45,56.72,48.81,60.7Z"/><path class="cls-8" d="M84.2,29.45c-2.21-2.16-5.17-.5-6,2a.69.69,0,0,0,1,.77c3.51-1.84,2.25,6.08-1.36,6.59-2.36.33-4.85-1.44-6.72-2.37-2.35-1.18-4.49-2.05-5.69-4.58a1.1,1.1,0,0,0-1-.56,6.25,6.25,0,0,0-4.07,1.48c-1.71-6.15-10.34,4.3-4.4,5.77a.32.32,0,0,0,.35-.46,3.28,3.28,0,0,1-.29-2.78c.13-.35,2.54-4.05,2.76-.78,0,.62.79,1.27,1.39.8,3.45-2.66,3.22-.45,5.3,1.17,1.7,1.33,4,1.43,5.85,2.76,3.57,2.58,5.9,2.38,9.71-.47C83.61,36.89,87.36,32.56,84.2,29.45Z"/><path class="cls-8" d="M33.9,46.39c-3.82-.79-7.15,2.72-9,5.54-3,4.61-10.12,20.3.68,20.79a.31.31,0,0,0,.22-.52c-2.15-2.11-3.94-3.69-3.61-7a22.74,22.74,0,0,1,2.16-6.81,27.54,27.54,0,0,1,4.16-7.21C29.66,50,33.62,47.05,34.6,50a.2.2,0,0,0,.29.12C37,48.91,36,46.83,33.9,46.39Z"/><path class="cls-8" d="M11.79,83.87c-4.2-3.34-7.77,3.39-6.13,7,0,.1.19,0,.19-.06.11-1.81.47-4.1,1.74-5.5,2.2-2.45,4.51.4,5.17,2.66.93,3.15.49,7.32-.33,10.48a.32.32,0,0,0,.53.31C16.31,95.41,15.46,86.79,11.79,83.87Z"/><path class="cls-8" d="M101.26,29.05c-.81-3.33-4.63-9.39-8.49-6-.1.08,0,.23.1.24,5.1.3,7.11,6.36,6.19,10.64-.78,3.56-3.37,6-4.45,9.31-.11.32.25.73.59.59C100,41.91,102.4,33.74,101.26,29.05Z"/><path class="cls-8" d="M106.24,14.26a1.45,1.45,0,0,0-1-1.08,2,2,0,0,0-1.67-.3,1.66,1.66,0,0,0-1.44,1.35l0,.21a5.73,5.73,0,0,0-.75,1.91,2,2,0,0,0,.74,2.06,2,2,0,0,0,3.06-.13,1.66,1.66,0,0,0,.5-.52A4.73,4.73,0,0,0,106.24,14.26Z"/><path class="cls-8" d="M110.88,12.19a1.41,1.41,0,0,0,0,2.82A1.41,1.41,0,0,0,110.88,12.19Z"/><path class="cls-8" d="M20.1,53.19a1.94,1.94,0,0,0-2.79-1.13c-.1,0-.18.12-.28.17h-.09a5.09,5.09,0,0,0-3.63,3A6,6,0,0,0,13,59.79a1.75,1.75,0,0,0,2,1.47,4.25,4.25,0,0,0,1.06.14C19.5,61.36,21.2,56,20.1,53.19Z"/><path class="cls-8" d="M15.67,48.57a1.79,1.79,0,0,0,0,3.58A1.79,1.79,0,0,0,15.67,48.57Z"/><path class="cls-8" d="M98.59,55.21c-1.93-1.84-4.2-1.57-6.38-.25-2.14.45-4.3,2.15-5.68,3.41a10.6,10.6,0,0,0-3.77,8.06c.09,2.43,1.48,4.47,4.1,4.23s3.61-2.27,4.72-4.23C96.05,69.12,103,59.37,98.59,55.21Z"/><path class="cls-8" d="M91.3,69.41a2.53,2.53,0,0,0-1.25.83A2,2,0,0,0,89.16,72a1.64,1.64,0,0,0,1.91,1.53,1.81,1.81,0,0,0,1.55-1.19c.08-.08.17-.16.24-.24C93.82,71,93,68.9,91.3,69.41Z"/><path class="cls-8" d="M60.29,45.57a4.55,4.55,0,0,0-.44-1.19,1.87,1.87,0,0,0-2.52-.66,5.63,5.63,0,0,0-2.72,5.55,1.43,1.43,0,0,0-.1.42,2.28,2.28,0,0,0,1.15,1.91c2.06,1.19,4.2-.83,4.79-2.71A4.86,4.86,0,0,0,60.29,45.57Z"/><path class="cls-8" d="M49.65,47.51l.09.35a1.66,1.66,0,0,0,3.17,0c0-.12.07-.23.1-.35C53.77,44.71,48.88,44.7,49.65,47.51Z"/><path class="cls-8" d="M40.84,86.68l.13-.13A1.55,1.55,0,0,0,41,84l-.13-.13c.63.24-.52-.3-.64-.33a1.82,1.82,0,0,0-.77,0h0a.41.41,0,0,0-.16,0,1.81,1.81,0,0,0,0,3.44.39.39,0,0,0,.15,0h.06a1.82,1.82,0,0,0,.77,0C40.44,86.94,41.44,86.45,40.84,86.68Z"/><path class="cls-8" d="M45.08,82.36a1.45,1.45,0,0,0,0,2.9A1.45,1.45,0,0,0,45.08,82.36Z"/><path class="cls-8" d="M46.57,89.07s0,0,0-.08a2,2,0,0,0-1.91-1.9c-1.87-.18-4.44.34-4.45,2.72a2.73,2.73,0,0,0,.14.69,2.9,2.9,0,0,0,1.88,2.83,1.3,1.3,0,0,0,.82.06A2.77,2.77,0,0,0,47,91,3.6,3.6,0,0,0,46.57,89.07Z"/><path class="cls-8" d="M60.9,20.33a2.43,2.43,0,0,0-2.11.23,2,2,0,0,0-.75.07,2.27,2.27,0,0,0-1.51,2.47,1.84,1.84,0,0,0,1.81,1.81,4.7,4.7,0,0,0,2.23-.38A4.43,4.43,0,0,0,62,23,1.86,1.86,0,0,0,60.9,20.33Z"/><path class="cls-8" d="M66.77,11.93a1.67,1.67,0,0,0,0,3.34A1.67,1.67,0,0,0,66.77,11.93Z"/><path class="cls-8" d="M72.4,66.84a4.32,4.32,0,0,0-2.21-3.63,3.55,3.55,0,0,0-3.28.1,1,1,0,0,0-.42,0c-1.72.56-2.55,2.49-3.18,4a9.26,9.26,0,0,0-.71,5.92c1,3.5,4.58,5,7.3,2.19C72,73.38,72.74,69.7,72.4,66.84Z"/><path class="cls-8" d="M68.7,57.82a3.37,3.37,0,0,0-3.07-.2,2.68,2.68,0,0,0-1,1,1.86,1.86,0,0,0-.95,3.06c1.81,2.28,4.53.79,5.69-1.25A1.87,1.87,0,0,0,68.7,57.82Z"/><path class="cls-9" d="M86.3,94.28c-4.45-.48-9,2.14-11.83,5.46-1.31,1.55-1.64,3.71-2.84,5.17-2.6,3.18-4-1-6.58-2-3.75-1.43-9.18,1.72-12.62,4.13-2.92-9.39-16-3.85-19.28,3.46-.07.15,0,.35.22.29,5.8-1.77,13.9-11.89,17.21-1.48a1.19,1.19,0,0,0,2.14.28c2.13-4.22,8-6.76,12.41-5.28,2.19.73,3.61,2.54,5.7,3.44a.56.56,0,0,0,.83-.48c-.2-4.43,6.22-8.86,9.87-10a9.12,9.12,0,0,1,6.37.11c1.82.79,2.95,2.43,4.71,3.34a.52.52,0,0,0,.77-.45C93.27,96.75,89.63,94.64,86.3,94.28Z"/><path class="cls-9" d="M144.8,40.32c-1.12-2.94-3.43-5.45-6.79-5.42-3.76,0-6.57,3.18-8.41,6.1A25.12,25.12,0,0,0,126,49.86c-.54,3.3.25,6.6-.33,9.84-4.7-3.75-11.23-.94-11.77,5.73a.26.26,0,0,0,.48.13c2.45-4.61,6.76-8.2,11.07-2.75.72.92,1.91,0,2-.84.5-3.92-.31-7.82.37-11.73.72-4.17,3.54-11.86,8.44-13s6.9,4.49,6.73,8.36c-.17,4.08-2.53,7.67-2.88,11.74-.11,1.35,2.15,1.68,2.39.33C143.61,51.75,147.11,46.42,144.8,40.32Z"/><path class="cls-9" d="M127.68,85c-3.68-2.87-8.39-7.94-13.39-8.14-5.44-.21-9.3,4.76-11.34,9.2-3.61,7.85-3.07,16.66-4.82,25a45.46,45.46,0,0,1-3.31,10c-1.7,3.59-3.45,5-7.29,5.8a.71.71,0,0,0-.31,1.18c8,7.62,13.75-16.05,14.3-19.82,1.21-8.39.77-19.32,7.29-25.78,7.57-7.49,11.51,5.09,18.71,3.18A.37.37,0,0,0,127.68,85Z"/><path class="cls-9" d="M65.12,124.76c-4.77,1.21-8.8,4.56-9.79,9.31-3.76-.85-8.66-.39-10.23,3.56-1.48,3.74.4,8.7,4.76,8.78a.48.48,0,0,0,.24-.89,7.12,7.12,0,0,1-2.61-3.86c-.77-3.31,1.4-4.94,4.63-5.32,1.45-.17,2.75.13,4.18-.22A1,1,0,0,0,57,135c-.62-3.59,4.28-6.59,7.09-7.57,3.82-1.35,6.67-1,8,3.17a.29.29,0,0,0,.56,0C74.42,125.72,69,123.76,65.12,124.76Z"/><path class="cls-9" d="M142.82,104.56c-1.11-4.24-5.85-5.41-9.72-4.55-5.13,1.15-8.45,5.85-10,10.6-1.33,3.93-1.68,9.13,2.37,11.59,3.16,1.91,8.79.64,10.69-2.59a.28.28,0,0,0-.37-.38c-2,1.23-3.62,2.2-6.18,1.91a5.54,5.54,0,0,1-4.91-4.2c-.89-3.66,1.63-8.81,4-11.42,3.12-3.39,8.27-4.48,11.63-1,.19.2,1.2,2,1.86,1.35l.38-.34A1,1,0,0,0,142.82,104.56Z"/><path class="cls-9" d="M142.39,58.62c-4.89,3.18-3.29,8.91,0,12.55-10.45,3.82-4.61,31.65,7.39,21,.31-.27,0-.69-.36-.63-6.12,1.09-9.39-.78-10.21-7.18-.53-4.15.46-11.27,5.87-11.13a1.26,1.26,0,0,0,.62-2.32,8.94,8.94,0,0,1-3.14-3.32q-3-6,4.43-7.13c1.82.68,3.87,4.73,4.55,6.5a.19.19,0,0,0,.37,0C152.36,62.08,147.68,55.19,142.39,58.62Z"/><path class="cls-9" d="M113.22,114.75c-6.68-2.27-11.39,6.07-10.44,11.87-2.12.69-2.87,3.24-2.59,5.53-6.61,1.85-17.47,10.09-9.5,16.51,3.55,2.87,8.93,2.33,12.92.76,2.78-1.09,8-4,7.09-7.68a.58.58,0,0,0-1-.26c-2,1.69-2.93,3.73-5.4,5-2.74,1.43-6.93,2.49-10,1.45-5-1.69-4.8-6.62-1.14-9.75,2.62-2.25,5.47-3,8.65-4.08a1.17,1.17,0,0,0,.69-1.7c.43-1.29.85-2.58,1.27-3.88a1.08,1.08,0,0,0,1.32-1.32c-1.41-4.54,2.22-13.94,8.57-10.66,6.5,3.35,1.14,12-1.52,15.67-.11.16.11.32.25.25C118.89,129.39,121.63,117.6,113.22,114.75Z"/><path class="cls-9" d="M124,95.73a3.71,3.71,0,0,0-4.69-2.23c.86-3.12.4-7.23-3.79-5.81-3.87,1.31-7.61,8.64-3,11.13a.35.35,0,0,0,.48-.48c-1.36-2.48-.37-6,1.69-7.81,3.49-3,3.38,1.85,2.09,4.08a1,1,0,0,0,1.5,1.15c4.92-4.2,5.22,5.63,2.62,8.26a10.17,10.17,0,0,1-5.27,2.76c-3,.47-3.52-1.36-4.47-3.67a.7.7,0,0,0-1.33,0c-1,3.09,1.35,5.76,4.48,5.61a12.3,12.3,0,0,0,8.51-4.54A8.73,8.73,0,0,0,124,95.73Z"/><path class="cls-9" d="M53.32,115.13a4.18,4.18,0,0,0-1.49-.72,1.82,1.82,0,0,0-.92-.24,4.74,4.74,0,0,0-2.5.69,7.93,7.93,0,0,0-3.79,4.46,2.07,2.07,0,0,0,1.42,2.5,5.19,5.19,0,0,0,.79.12,5.33,5.33,0,0,0,4.55-.89,8.88,8.88,0,0,0,2.09-1.64,2,2,0,0,0,.55-1.48l0,0A2.1,2.1,0,0,0,53.32,115.13Z"/><path class="cls-9" d="M44.71,113.21a1.85,1.85,0,0,0,0,3.69A1.85,1.85,0,0,0,44.71,113.21Z"/><path class="cls-9" d="M133.91,71.28c1.17-2.28,1.58-5.54-1.41-6.49-1.61-.51-3,.38-4.14,1.59A14,14,0,0,0,123,75.76a2,2,0,0,0,1.23,1.87,2,2,0,0,0,2.7.64c.27-.15.54-.33.82-.52a5.09,5.09,0,0,0,.6-.25,1.59,1.59,0,0,0,.88-.31A6.93,6.93,0,0,0,130.5,76a10.23,10.23,0,0,0,1.42-1.72A7.56,7.56,0,0,0,133.91,71.28Z"/><path class="cls-9" d="M123.49,65a2.52,2.52,0,0,0-.86,3.92,1.68,1.68,0,0,0,2,.27,2.38,2.38,0,0,0,.7-.64c.13-.12.3-.3.36-.37s.24-.39.37-.59A1.91,1.91,0,0,0,123.49,65Z"/><path class="cls-9" d="M31.39,119a4.33,4.33,0,0,0-2.15-2,7.48,7.48,0,0,0-1.9-1.53,2.07,2.07,0,0,0-3,1.22,5,5,0,0,0,.26,3.71,6.33,6.33,0,0,0,3.7,6.27,2.06,2.06,0,0,0,3-1.21.64.64,0,0,0,0-.07A2.54,2.54,0,0,0,32.35,124,7.32,7.32,0,0,0,31.39,119Z"/><path class="cls-9" d="M22.05,116.64a1.37,1.37,0,0,0-2.13.64,3.29,3.29,0,0,0-.09,1.56c.24,1.6,2.56,1.65,3.27.43A1.86,1.86,0,0,0,22.05,116.64Z"/><path class="cls-9" d="M31.81,102.66c-.86-2.49-3-4.13-4.95-3.64a6,6,0,0,0-4.95-5c-3.9-.44-5.63,3.32-5.43,6.69a.3.3,0,0,0,.58.08c.9-2.17,2.4-5.87,5.52-4,1.67,1,1.59,3.11,1.94,4.82.23,1.11,1.79,1,2.1,0,.52-1.6,2,.36,2.29.91a4.11,4.11,0,0,1,.34,3.58c-.71,2-2.44,2.31-3.84,3.59a.79.79,0,0,0,.35,1.31C30.13,112.58,33,106.09,31.81,102.66Z"/><path class="cls-9" d="M105.73,72.41c-5.64-5-10.75,2.66-12.48,8-2.73-1.3-7.13.12-9.64,1.16a11,11,0,0,0-6,13.77.56.56,0,0,0,1.08,0c1.32-3.72.43-7.47,3.78-10.4,1.69-1.47,9-5.11,10.23-1.64.4,1.09,2.31,1.41,2.54,0,.53-3.22,1.71-7,4.69-8.75,2.29-1.34,5.53-1.41,4.87,2.07-.37,2-2.61,3.15-4.25,3.79a.09.09,0,0,0,0,.16C105,82.6,109.37,75.65,105.73,72.41Z"/><path class="cls-9" d="M75.08,133.42a.48.48,0,0,0-.45,0c-.9.67-.62,1.58-.79,2.59A3.82,3.82,0,0,1,72,138.82a7.21,7.21,0,0,1-3.68.8c-.54,0-2.71.08-2.86-.7,0-.14-.23-.1-.23,0,0,1.44.44,2,1.95,2.38a8.22,8.22,0,0,0,5.11-.44,5.57,5.57,0,0,0,3.19-3.12C75.91,136.58,76.48,134.15,75.08,133.42Z"/><path class="cls-9" d="M82.14,107.2c-2.6.46-5.45,2-6.25,4.69a2.06,2.06,0,0,0,2,2.56l.25,0a3.17,3.17,0,0,0,.29.35c2.26,2.21,5.34.61,6.91-1.73a5.18,5.18,0,0,0,1.81-2.63C87.84,107.38,84.31,106.81,82.14,107.2Z"/><path class="cls-9" d="M76.68,116l-.29-.14a1.58,1.58,0,1,0,0,2.74l.29-.14A1.44,1.44,0,0,0,76.68,116Z"/><path class="cls-9" d="M43.59,153c-2.67-.65-4.48-2.49-6.15-4.55-1.41-1.75-3.4-4-4-6.21a.15.15,0,0,0-.29,0c-.51,4.1,2.28,8.2,5.44,10.62,1.54,1.18,3.8,2.34,5.81,2.05s3.55-3.65,5-.86a.1.1,0,0,0,.17-.08C48.65,150.33,46.27,153.64,43.59,153Z"/><path class="cls-9" d="M77.58,153.68a6.28,6.28,0,0,0-.74,1.78c-.8,2.66.18,2.47-2.89,4-3.45,1.77-2.44.94-4.49-1.91a12.86,12.86,0,0,0-1.28-1.75.46.46,0,0,0-.65,0c-3.67,4.28-5.4.69-9.25-.36-1.47-.4-2.46-.21-3.31,1.08a0,0,0,1,0,.07,0c1.62-2.2,6.49,3,8.44,3.24a3.93,3.93,0,0,0,3-.77c1.85-1.42,1.25-2.21,3,0,1.5,1.91,2.86,4.1,5.68,2.54,2.38-1.32,3.56-5.15,3.63-7.65A.68.68,0,0,0,77.58,153.68Z"/><path class="cls-9" d="M141.17,131.23a.89.89,0,0,0-1.77,0c-.5,4.22.57,5.28-5.7,8.4-.45.22-1.08,0-1.53.31a7.53,7.53,0,0,0-2.89,2.36c-1.4,2-1.59,4.67-2.94,6.72-2.79,4.24-6.57,2.26-10.42,3.19a8.91,8.91,0,0,0-3,1.89c-2.54,1.85-2.85,2.06-7.21,1.28-.71-.12-1.21-.71-2-.7a8,8,0,0,0-3.77,1c-.47.22-.6.91-1,1.14-2.27,1.2-4,.27-6-.74a.2.2,0,0,0-.29.23c.55,2.27,1.86,4.26,4.46,4.36,2,.09,2.13-1,3.58-1.83,3.72-2.21,6.8.85,10.33-.77,3.11-1.42,3.66-4.2,7.38-4.33,3-.11,5.09.47,7.53-1.78s2.6-5.3,4.09-7.86c2-3.43,6.38-2.19,9-4.95C141.09,137,141.52,134,141.17,131.23Z"/><path class="cls-9" d="M157.09,107.78a.27.27,0,0,0-.4-.31,19.09,19.09,0,0,1-4.15,2.31,1,1,0,0,0-.7,1.22c1,2.73,1.33,10.84-3.1,10.47a.2.2,0,0,0-.14.34c2.23,2.43,4.46.38,5.27-2.15a14.57,14.57,0,0,0,.19-8.43A5.36,5.36,0,0,0,157.09,107.78Z"/><path class="cls-9" d="M158,81.66a.8.8,0,0,0-1.18.68,2.65,2.65,0,0,0,.66,2.26c1.61,2.46,3.55,3.1,3.74,6.62A27.52,27.52,0,0,1,158.13,105a.19.19,0,0,0,.33.2C163.06,99,166.35,86.43,158,81.66Z"/></g></g></g></svg>